<svg width="61" height="54" viewBox="0 0 61 54" fill="none" xmlns="http://www.w3.org/2000/svg">
<g filter="url(#filter0_f_242_15264)">
<ellipse cx="24.0131" cy="8.37636" rx="24.0131" ry="8.37636" transform="matrix(0.974587 -0.224008 0.224 0.974589 9.77344 33.7024)" fill="url(#paint0_radial_242_15264)"/>
</g>
<ellipse cx="17.5375" cy="5.98573" rx="17.5375" ry="5.98573" transform="matrix(0.992386 -0.123165 0.12316 0.992387 12.2031 36.0085)" fill="url(#paint1_radial_242_15264)"/>
<g filter="url(#filter1_f_242_15264)">
<ellipse cx="16.8442" cy="5.98573" rx="16.8442" ry="5.98573" transform="matrix(0.992386 -0.123165 0.12316 0.992387 13.582 35.8398)" fill="url(#paint2_radial_242_15264)"/>
</g>
<mask id="mask0_242_15264" style="mask-type:alpha" maskUnits="userSpaceOnUse" x="0" y="0" width="47" height="46">
<ellipse cx="23.2674" cy="22.9358" rx="22.9354" ry="22.9358" fill="url(#paint3_radial_242_15264)"/>
</mask>
<g mask="url(#mask0_242_15264)">
<ellipse cx="23.2674" cy="22.9358" rx="22.9354" ry="22.9358" fill="url(#paint4_radial_242_15264)"/>
<g filter="url(#filter2_f_242_15264)">
<ellipse cx="13.0202" cy="10.4231" rx="19.6139" ry="19.0199" fill="#D7D96A" fill-opacity="0.13"/>
</g>
<g filter="url(#filter3_f_242_15264)">
<ellipse cx="37.1491" cy="39.7198" rx="19.6139" ry="19.0199" fill="#1B2372" fill-opacity="0.43"/>
</g>
<g filter="url(#filter4_f_242_15264)">
<path d="M46.4123 25.1405C46.6214 25.8592 48.8746 36.5674 37.1473 45.559C32.489 49.1306 19.1059 46.2776 18.8969 45.559C18.6878 44.8403 29.7702 43.5311 35.8537 39.6502C45.2371 33.6641 46.2033 24.4218 46.4123 25.1405Z" fill="#51779F" fill-opacity="0.61"/>
</g>
<g filter="url(#filter5_f_242_15264)">
<ellipse cx="1.77983" cy="3.72652" rx="1.77983" ry="3.72652" transform="matrix(0.7071 0.707113 -0.7071 0.707113 14.4336 5.26868)" fill="#E3F7FF"/>
</g>
<g filter="url(#filter6_f_242_15264)">
<ellipse cx="0.939273" cy="1.9666" rx="0.939273" ry="1.9666" transform="matrix(0.7071 0.707113 -0.7071 0.707113 13.7852 7.10608)" fill="#E2F7FF"/>
</g>
<g filter="url(#filter7_f_242_15264)">
<path d="M42.3569 8.81238C44.2565 19.1848 38.7767 42.2371 10.1914 43.4958" stroke="#010E1B" stroke-width="1.39851"/>
</g>
<g filter="url(#filter8_f_242_15264)">
<path d="M33.3183 -0.504028C14.0889 -7.0771 -8.28707 13.5162 3.70506 36.9765" stroke="#FCFFDD" stroke-width="1.39851"/>
</g>
<g filter="url(#filter9_f_242_15264)">
<path d="M40.0508 7.58423C46.6937 13.458 49.8053 23.6673 41.2745 37.3029" stroke="#A1A0DB" stroke-opacity="0.65" stroke-width="1.39851"/>
</g>
</g>
<g clip-path="url(#clip0_242_15264)">
<path d="M31.1147 15.185C31.076 15.0222 31.0075 14.8654 30.9241 14.7204L30.9232 14.7192C30.8791 14.6428 30.8344 14.5769 30.7779 14.4948C30.584 14.216 30.2632 13.7915 29.9835 13.4257C29.8433 13.2424 29.7147 13.0762 29.6213 12.9557V11.0337H17.3861V12.9558C17.2662 13.1104 17.0892 13.3397 16.9022 13.5853C16.7375 13.8015 16.5669 14.0284 16.4228 14.225C16.3509 14.3235 16.2857 14.4144 16.2295 14.4951C16.173 14.5772 16.1283 14.6431 16.0842 14.7195C16.0005 14.8651 15.9314 15.0219 15.8927 15.185C15.8534 15.3481 15.8477 15.497 15.8477 15.619C15.848 15.7434 15.8528 15.8522 15.8528 15.9894C15.8528 16.4476 15.8528 30.6072 15.8528 31.2029C15.854 31.5684 15.9005 31.9656 16.0268 32.3522C16.0911 32.5455 16.1757 32.7376 16.3029 32.9216C16.4294 33.1037 16.6064 33.2847 16.8538 33.4031C16.9852 33.4677 17.035 33.5152 17.0867 33.5726C17.1247 33.6164 17.1619 33.6716 17.2145 33.7562C17.2541 33.819 17.3014 33.8985 17.371 33.9922C17.4725 34.1308 17.6425 34.3063 17.8736 34.4171C18.1037 34.5298 18.3596 34.5724 18.626 34.5721H28.3813C28.5405 34.5721 28.6924 34.5576 28.8404 34.522C28.9694 34.4908 29.0954 34.4425 29.208 34.3779C29.4074 34.2655 29.5509 34.1094 29.6421 33.9843C29.7795 33.7922 29.8375 33.6729 29.898 33.6001C29.9584 33.5272 30.003 33.478 30.1538 33.4031C30.4009 33.2847 30.5779 33.1037 30.7044 32.9216C30.8939 32.6452 30.9932 32.3525 31.0609 32.0607C31.1265 31.7689 31.1542 31.4768 31.1545 31.2028C31.1545 30.6071 31.1545 16.4475 31.1545 15.9893C31.1545 15.8519 31.1593 15.7428 31.1597 15.6187C31.1597 15.4967 31.154 15.3481 31.1147 15.185ZM18.8088 12.4564H28.1986V13.3487H18.8088V12.4564ZM17.2828 31.3578C17.2798 31.3053 17.2756 31.2521 17.2756 31.2029C17.2756 30.6072 17.2756 16.4476 17.2756 15.9894C17.2756 15.8209 17.2701 15.6949 17.2704 15.6191C17.2704 15.5411 17.2749 15.5236 17.2762 15.5173C17.2783 15.5106 17.2807 15.4946 17.319 15.426C17.3205 15.4227 17.354 15.3699 17.3988 15.3059C17.5601 15.073 17.8806 14.6473 18.1539 14.2906C18.2455 14.171 18.3276 14.0644 18.4025 13.9674H25.201C24.7168 15.7158 24.8131 18.5434 25.3215 23.0701C25.7287 26.694 24.3773 29.7593 23.3349 31.3579L17.2828 31.3578ZM29.5361 32.1094L29.5192 32.1308C29.2292 32.2713 29.0015 32.4583 28.845 32.6411C28.7242 32.7809 28.6429 32.9117 28.5858 33.0032C28.543 33.0721 28.5131 33.1186 28.4968 33.14V33.1404C28.4792 33.144 28.446 33.1494 28.3814 33.1494H18.6261C18.5635 33.1494 18.5291 33.1443 18.5113 33.1404C18.5013 33.1274 18.4865 33.1071 18.4632 33.0697C18.4049 32.9796 18.3119 32.812 18.1515 32.6286C17.9957 32.4495 17.7712 32.268 17.4879 32.1305C17.4837 32.126 17.4641 32.1042 17.4393 32.0556C17.4275 32.0335 17.4157 32.0064 17.4036 31.9765H29.6017C29.5778 32.0354 29.5537 32.0849 29.5361 32.1094ZM29.7319 15.9894C29.7319 16.4476 29.7319 30.6072 29.7319 31.2029C29.7322 31.2524 29.7298 31.305 29.7265 31.3578H26.3745C27.1209 29.6297 27.0016 26.1925 26.7642 24.7148C25.6236 17.6166 26.5542 14.8705 27.0587 13.9673H28.6049C28.7759 14.1887 29.0049 14.4869 29.2148 14.7663C29.3326 14.9236 29.4437 15.0738 29.5308 15.1955C29.5743 15.2559 29.612 15.3097 29.6401 15.3513C29.6682 15.3924 29.6881 15.4244 29.6887 15.4266L29.6881 15.4254C29.7268 15.4939 29.7292 15.5102 29.731 15.5166C29.7325 15.5232 29.7367 15.5407 29.737 15.6187C29.737 15.6949 29.7319 15.8208 29.7319 15.9894Z" fill="white"/>
<path d="M23.6305 27.3756C23.6305 26.9883 23.5408 26.6231 23.3641 26.2902L23.3206 26.2081H22.4259L22.5555 26.4385C22.7337 26.756 22.8243 27.0575 22.8243 27.335C22.8243 27.7198 22.712 28.0301 22.4803 28.2826C22.2528 28.5315 21.9764 28.6523 21.6354 28.6523C21.301 28.6523 21.0265 28.5339 20.7969 28.2905C20.5646 28.044 20.4516 27.7483 20.4516 27.3864C20.4516 27.1006 20.5383 26.7789 20.709 26.4306L20.818 26.208H19.9351L19.8952 26.3029C19.7366 26.6798 19.6562 27.0517 19.6562 27.4078C19.6562 27.9705 19.8505 28.4587 20.2335 28.8587C20.6186 29.2604 21.0883 29.464 21.6299 29.464C22.1806 29.464 22.6573 29.2571 23.0469 28.849C23.4342 28.4431 23.6305 27.947 23.6305 27.3756Z" fill="white"/>
<path d="M20.2302 25.4939C20.6135 25.8986 21.0808 26.104 21.6191 26.104C22.1743 26.104 22.6536 25.9022 23.0442 25.5038C23.4332 25.1066 23.6305 24.6188 23.6305 24.0533C23.6305 23.4809 23.4345 22.9907 23.0481 22.5962C22.6606 22.2005 22.1796 21.9999 21.6191 21.9999C21.0866 21.9999 20.6211 22.2032 20.2353 22.6037C19.8511 23.0024 19.6562 23.4848 19.6562 24.037C19.6562 24.601 19.8493 25.0912 20.2302 25.4939ZM20.7935 23.1713C21.0252 22.9272 21.3025 22.8088 21.6408 22.8088C21.9655 22.8088 22.2389 22.9257 22.4763 23.1665C22.714 23.4078 22.8297 23.6863 22.8297 24.0183C22.8297 24.3844 22.7158 24.684 22.4817 24.9347C22.2501 25.1824 21.9752 25.303 21.6408 25.303C21.3103 25.303 21.0352 25.1855 20.7989 24.9432C20.5618 24.7003 20.4464 24.4161 20.4464 24.0748C20.4464 23.7129 20.56 23.4172 20.7935 23.1713Z" fill="white"/>
<path d="M23.5157 19.7318H22.7418V20.8525H19.7656V21.6264H23.5157V19.7318Z" fill="white"/>
<path d="M23.5167 18.9008L22.6361 18.506V17.2458L23.5167 16.8464V16.0143L19.4141 17.8795L23.5167 19.7297V18.9008ZM21.9354 18.1919L21.2388 17.8795L21.9354 17.5635V18.1919Z" fill="white"/>
</g>
<defs>
<filter id="filter0_f_242_15264" x="9.896" y="25.031" width="50.3135" height="22.9115" filterUnits="userSpaceOnUse" color-interpolation-filters="sRGB">
<feFlood flood-opacity="0" result="BackgroundImageFix"/>
<feBlend mode="normal" in="SourceGraphic" in2="BackgroundImageFix" result="shape"/>
<feGaussianBlur stdDeviation="0.839107" result="effect1_foregroundBlur_242_15264"/>
</filter>
<filter id="filter1_f_242_15264" x="6.88867" y="25.9995" width="48.293" height="27.4118" filterUnits="userSpaceOnUse" color-interpolation-filters="sRGB">
<feFlood flood-opacity="0" result="BackgroundImageFix"/>
<feBlend mode="normal" in="SourceGraphic" in2="BackgroundImageFix" result="shape"/>
<feGaussianBlur stdDeviation="3.70606" result="effect1_foregroundBlur_242_15264"/>
</filter>
<filter id="filter2_f_242_15264" x="-21.2082" y="-23.2113" width="68.4555" height="67.2688" filterUnits="userSpaceOnUse" color-interpolation-filters="sRGB">
<feFlood flood-opacity="0" result="BackgroundImageFix"/>
<feBlend mode="normal" in="SourceGraphic" in2="BackgroundImageFix" result="shape"/>
<feGaussianBlur stdDeviation="7.30723" result="effect1_foregroundBlur_242_15264"/>
</filter>
<filter id="filter3_f_242_15264" x="2.9207" y="6.08538" width="68.4555" height="67.2688" filterUnits="userSpaceOnUse" color-interpolation-filters="sRGB">
<feFlood flood-opacity="0" result="BackgroundImageFix"/>
<feBlend mode="normal" in="SourceGraphic" in2="BackgroundImageFix" result="shape"/>
<feGaussianBlur stdDeviation="7.30723" result="effect1_foregroundBlur_242_15264"/>
</filter>
<filter id="filter4_f_242_15264" x="15.3983" y="21.6047" width="34.8168" height="29.2101" filterUnits="userSpaceOnUse" color-interpolation-filters="sRGB">
<feFlood flood-opacity="0" result="BackgroundImageFix"/>
<feBlend mode="normal" in="SourceGraphic" in2="BackgroundImageFix" result="shape"/>
<feGaussianBlur stdDeviation="1.74814" result="effect1_foregroundBlur_242_15264"/>
</filter>
<filter id="filter5_f_242_15264" x="5.59155" y="1.69629" width="14.9302" height="14.932" filterUnits="userSpaceOnUse" color-interpolation-filters="sRGB">
<feFlood flood-opacity="0" result="BackgroundImageFix"/>
<feBlend mode="normal" in="SourceGraphic" in2="BackgroundImageFix" result="shape"/>
<feGaussianBlur stdDeviation="2.27258" result="effect1_foregroundBlur_242_15264"/>
</filter>
<filter id="filter6_f_242_15264" x="11.2359" y="7.33968" width="3.64534" height="3.64229" filterUnits="userSpaceOnUse" color-interpolation-filters="sRGB">
<feFlood flood-opacity="0" result="BackgroundImageFix"/>
<feBlend mode="normal" in="SourceGraphic" in2="BackgroundImageFix" result="shape"/>
<feGaussianBlur stdDeviation="0.139851" result="effect1_foregroundBlur_242_15264"/>
</filter>
<filter id="filter7_f_242_15264" x="2.60819" y="1.13444" width="48.3383" height="50.6119" filterUnits="userSpaceOnUse" color-interpolation-filters="sRGB">
<feFlood flood-opacity="0" result="BackgroundImageFix"/>
<feBlend mode="normal" in="SourceGraphic" in2="BackgroundImageFix" result="shape"/>
<feGaussianBlur stdDeviation="3.77598" result="effect1_foregroundBlur_242_15264"/>
</filter>
<filter id="filter8_f_242_15264" x="-5.0522" y="-7.12862" width="43.2802" height="49.1083" filterUnits="userSpaceOnUse" color-interpolation-filters="sRGB">
<feFlood flood-opacity="0" result="BackgroundImageFix"/>
<feBlend mode="normal" in="SourceGraphic" in2="BackgroundImageFix" result="shape"/>
<feGaussianBlur stdDeviation="2.34251" result="effect1_foregroundBlur_242_15264"/>
</filter>
<filter id="filter9_f_242_15264" x="34.0618" y="1.5363" width="18.6264" height="41.6615" filterUnits="userSpaceOnUse" color-interpolation-filters="sRGB">
<feFlood flood-opacity="0" result="BackgroundImageFix"/>
<feBlend mode="normal" in="SourceGraphic" in2="BackgroundImageFix" result="shape"/>
<feGaussianBlur stdDeviation="2.76206" result="effect1_foregroundBlur_242_15264"/>
</filter>
<radialGradient id="paint0_radial_242_15264" cx="0" cy="0" r="1" gradientUnits="userSpaceOnUse" gradientTransform="translate(11.2033 12.5246) rotate(-11.829) scale(33.4001 103.015)">
<stop stop-color="#093041"/>
<stop offset="1" stop-color="#4E6A76" stop-opacity="0"/>
</radialGradient>
<radialGradient id="paint1_radial_242_15264" cx="0" cy="0" r="1" gradientUnits="userSpaceOnUse" gradientTransform="translate(8.18214 8.95002) rotate(-8.58885) scale(21.6622 65.5476)">
<stop stop-color="#000D12"/>
<stop offset="1" stop-color="#082430" stop-opacity="0"/>
</radialGradient>
<radialGradient id="paint2_radial_242_15264" cx="0" cy="0" r="1" gradientUnits="userSpaceOnUse" gradientTransform="translate(7.85868 8.95002) rotate(-8.40557) scale(24.7978 77.9776)">
<stop stop-color="#228B22"/>
<stop offset="0.0001" stop-color="#082430" stop-opacity="0"/>
<stop offset="1" stop-color="#4AC63F" stop-opacity="0.81"/>
</radialGradient>
<radialGradient id="paint3_radial_242_15264" cx="0" cy="0" r="1" gradientUnits="userSpaceOnUse" gradientTransform="translate(13.1633 9.82464) rotate(49.1619) scale(43.9488 45.4575)">
<stop stop-color="#B9EBFF"/>
<stop offset="0.156338" stop-color="#7DCCED"/>
<stop offset="0.519012" stop-color="#4290AF"/>
<stop offset="0.710329" stop-color="#156282"/>
<stop offset="1" stop-color="#1B7398"/>
</radialGradient>
<radialGradient id="paint4_radial_242_15264" cx="0" cy="0" r="1" gradientUnits="userSpaceOnUse" gradientTransform="translate(13.1633 9.82464) rotate(49.1619) scale(43.9488 45.4575)">
<stop stop-color="#D8FFB9"/>
<stop offset="0.156338" stop-color="#A1FD92"/>
<stop offset="0.519012" stop-color="#4AC63F"/>
<stop offset="0.710329" stop-color="#4AC63F"/>
<stop offset="1" stop-color="#228B22"/>
</radialGradient>
<clipPath id="clip0_242_15264">
<rect width="23.538" height="23.5384" fill="white" transform="translate(11.7344 11.0337)"/>
</clipPath>
</defs>
</svg>
