<svg width="164" height="56" viewBox="0 0 164 56" fill="none" xmlns="http://www.w3.org/2000/svg">
<path d="M150.109 0.957452H13.0988C12.5994 0.957452 12.106 0.957452 11.6079 0.960176C11.1909 0.9629 10.7773 0.970813 10.3563 0.977473C9.44182 0.988234 8.52946 1.06869 7.62717 1.21814C6.72615 1.37084 5.85336 1.65873 5.03831 2.07207C4.22426 2.4889 3.48044 3.03053 2.83383 3.67732C2.18382 4.32228 1.642 5.06777 1.22918 5.88512C0.815219 6.70085 0.52818 7.57498 0.377972 8.47731C0.226336 9.3785 0.14474 10.2901 0.133914 11.2039C0.121276 11.6215 0.119941 12.0404 0.113281 12.458V43.938C0.119941 44.3609 0.121276 44.7705 0.133914 45.1935C0.144743 46.1073 0.226339 47.0188 0.377972 47.92C0.527765 48.8228 0.814821 49.6975 1.22918 50.5135C1.64181 51.3282 2.18371 52.0707 2.83383 52.7121C3.47798 53.3617 4.22229 53.9037 5.03831 54.3174C5.85335 54.7318 6.72605 55.0214 7.62717 55.1765C8.52961 55.3247 9.44188 55.4052 10.3563 55.4173C10.7773 55.4265 11.1909 55.4318 11.6079 55.4318C12.106 55.4346 12.5994 55.4346 13.0988 55.4346H150.109C150.598 55.4346 151.096 55.4346 151.585 55.4318C152 55.4318 152.426 55.4265 152.841 55.4173C153.753 55.4059 154.664 55.3254 155.565 55.1765C156.469 55.0203 157.344 54.7308 158.163 54.3174C158.979 53.9035 159.722 53.3615 160.366 52.7121C161.014 52.0682 161.557 51.3262 161.975 50.5135C162.386 49.6969 162.671 48.8223 162.818 47.92C162.97 47.0187 163.055 46.1074 163.071 45.1935C163.076 44.7705 163.076 44.3609 163.076 43.938C163.087 43.4432 163.087 42.9511 163.087 42.4483V13.945C163.087 13.4462 163.087 12.9515 163.076 12.458C163.076 12.0404 163.076 11.6215 163.071 11.2038C163.055 10.29 162.97 9.37857 162.818 8.47725C162.67 7.57544 162.386 6.70139 161.975 5.88507C161.135 4.24677 159.801 2.91322 158.163 2.07195C157.344 1.65962 156.469 1.37181 155.565 1.21802C154.664 1.06791 153.754 0.987425 152.841 0.977282C152.426 0.970636 152 0.962655 151.585 0.959999C151.096 0.957275 150.598 0.957275 150.109 0.957275V0.957452Z" fill="#A6A6A6"/>
<path d="M11.6131 54.2428C11.1981 54.2428 10.7932 54.2375 10.3815 54.2282C9.52861 54.2171 8.67774 54.1429 7.83584 54.0061C7.05081 53.8709 6.29033 53.6194 5.57948 53.2599C4.87515 52.9034 4.23274 52.4359 3.67687 51.8753C3.11295 51.3214 2.64346 50.679 2.28701 49.9734C1.92663 49.2633 1.67722 48.5021 1.54748 47.7164C1.40737 46.8722 1.33157 46.0185 1.32072 45.1628C1.31209 44.8756 1.30078 43.9192 1.30078 43.9192V12.4579C1.30078 12.4579 1.31282 11.5163 1.32079 11.2396C1.33117 10.3853 1.40654 9.53295 1.54623 8.69002C1.67621 7.90217 1.92581 7.13881 2.28638 6.42636C2.64152 5.72131 3.10841 5.07836 3.66893 4.52245C4.22882 3.96126 4.87328 3.49137 5.57881 3.12992C6.28803 2.77158 7.04707 2.52185 7.83052 2.38911C8.67518 2.25097 9.52901 2.17628 10.3848 2.16568L11.6137 2.14905H151.577L152.821 2.16634C153.669 2.17642 154.515 2.25044 155.352 2.38778C156.143 2.52218 156.91 2.77365 157.627 3.13391C159.041 3.86233 160.191 5.01477 160.916 6.42968C161.271 7.13721 161.517 7.89435 161.645 8.67539C161.787 9.52524 161.866 10.3843 161.882 11.2456C161.886 11.6313 161.886 12.0456 161.886 12.4579C161.897 12.9687 161.897 13.4548 161.897 13.9449V42.4482C161.897 42.943 161.897 43.4258 161.886 43.9126C161.886 44.3555 161.886 44.7612 161.881 45.1787C161.865 46.0247 161.787 46.8684 161.648 47.7031C161.521 48.4944 161.273 49.2616 160.912 49.9775C160.553 50.6754 160.087 51.3123 159.529 51.8647C158.973 52.4283 158.329 52.8985 157.623 53.2573C156.908 53.6196 156.142 53.872 155.352 54.0061C154.51 54.1436 153.659 54.2178 152.806 54.2282C152.407 54.2375 151.989 54.2428 151.584 54.2428L150.107 54.2455L11.6131 54.2428Z" fill="black"/>
<path d="M33.8365 28.606C33.8511 27.4692 34.1531 26.3547 34.7142 25.366C35.2754 24.3773 36.0775 23.5466 37.0459 22.9512C36.4307 22.0725 35.6191 21.3494 34.6755 20.8393C33.7319 20.3292 32.6824 20.0461 31.6103 20.0126C29.3233 19.7725 27.1061 21.3811 25.9407 21.3811C24.7527 21.3811 22.9584 20.0364 21.0262 20.0762C19.7764 20.1166 18.5583 20.48 17.4907 21.1311C16.4232 21.7821 15.5424 22.6987 14.9344 23.7913C12.3004 28.3516 14.2651 35.0538 16.7882 38.74C18.0506 40.545 19.526 42.5613 21.4564 42.4898C23.3455 42.4114 24.051 41.2852 26.3313 41.2852C28.5904 41.2852 29.2524 42.4898 31.222 42.4443C33.2491 42.4114 34.5262 40.6312 35.7443 38.8091C36.6513 37.523 37.3492 36.1015 37.8123 34.5973C36.6346 34.0992 35.6296 33.2655 34.9226 32.2001C34.2156 31.1346 33.8378 29.8847 33.8365 28.606Z" fill="white"/>
<path d="M30.1169 17.5877C31.2221 16.2609 31.7666 14.5555 31.6348 12.8337C29.9462 13.0111 28.3865 13.8181 27.2663 15.094C26.7186 15.7173 26.2991 16.4425 26.0319 17.228C25.7646 18.0135 25.6548 18.844 25.7086 19.672C26.5532 19.6807 27.3888 19.4976 28.1524 19.1366C28.9159 18.7756 29.5876 18.246 30.1169 17.5877Z" fill="white"/>
<path d="M57.7213 37.9197H51.2747L49.7266 42.4909H46.9961L53.1022 25.5785H55.9391L62.0451 42.4909H59.2681L57.7213 37.9197ZM51.9424 35.8103H57.0523L54.5333 28.3915H54.4628L51.9424 35.8103Z" fill="white"/>
<path d="M75.2322 36.326C75.2322 40.1578 73.1813 42.6196 70.0864 42.6196C69.3024 42.6606 68.5227 42.48 67.8366 42.0985C67.1504 41.717 66.5856 41.1499 66.2068 40.4623H66.1482V46.5697H63.6172V30.1601H66.0671V32.211H66.1137C66.5099 31.5266 67.0843 30.9626 67.7756 30.5787C68.467 30.1948 69.2495 30.0056 70.0398 30.0311C73.1693 30.0311 75.2322 32.5049 75.2322 36.326ZM72.6307 36.326C72.6307 33.8296 71.3406 32.1884 69.3722 32.1884C67.4383 32.1884 66.1376 33.8642 66.1376 36.326C66.1376 38.8105 67.4383 40.4743 69.3722 40.4743C71.3406 40.4743 72.6307 38.8451 72.6307 36.326Z" fill="white"/>
<path d="M88.8025 36.326C88.8025 40.1578 86.7516 42.6196 83.6567 42.6196C82.8727 42.6606 82.093 42.48 81.4069 42.0985C80.7207 41.717 80.1559 41.1499 79.7771 40.4623H79.7185V46.5697H77.1875V30.1601H79.6374V32.211H79.6839C80.0802 31.5266 80.6545 30.9625 81.3459 30.5787C82.0373 30.1948 82.8197 30.0056 83.6101 30.0311C86.7397 30.0311 88.8025 32.5049 88.8025 36.326ZM86.201 36.326C86.201 33.8296 84.9109 32.1883 82.9425 32.1883C81.0086 32.1883 79.7079 33.8642 79.7079 36.326C79.7079 38.8105 81.0086 40.4743 82.9425 40.4743C84.9109 40.4743 86.201 38.845 86.201 36.326H86.201Z" fill="white"/>
<path d="M97.7745 37.7783C97.962 39.4555 99.5913 40.5567 101.818 40.5567C103.951 40.5567 105.486 39.4554 105.486 37.9432C105.486 36.6305 104.56 35.8445 102.368 35.3058L100.176 34.7778C97.0709 34.0277 95.6292 32.5753 95.6292 30.2185C95.6292 27.3005 98.1722 25.2961 101.783 25.2961C105.357 25.2961 107.807 27.3005 107.889 30.2185H105.334C105.181 28.5307 103.786 27.5119 101.747 27.5119C99.7083 27.5119 98.3131 28.5427 98.3131 30.043C98.3131 31.2386 99.2042 31.9422 101.384 32.4808L103.247 32.9383C106.717 33.7589 108.159 35.1528 108.159 37.6266C108.159 40.7907 105.639 42.7724 101.63 42.7724C97.8795 42.7724 95.3472 40.8372 95.1836 37.7782L97.7745 37.7783Z" fill="white"/>
<path d="M113.621 27.2418V30.1599H115.966V32.1642H113.621V38.9618C113.621 40.0179 114.09 40.51 115.121 40.51C115.4 40.5051 115.677 40.4856 115.954 40.4514V42.4438C115.49 42.5304 115.019 42.5696 114.548 42.5608C112.052 42.5608 111.078 41.6231 111.078 39.2318V32.1642H109.285V30.1599H111.078V27.2418H113.621Z" fill="white"/>
<path d="M117.32 36.3258C117.32 32.4462 119.605 30.0083 123.168 30.0083C126.743 30.0083 129.018 32.4462 129.018 36.3258C129.018 40.2161 126.755 42.6434 123.168 42.6434C119.583 42.6434 117.32 40.2161 117.32 36.3258ZM126.439 36.3258C126.439 33.6645 125.219 32.0938 123.168 32.0938C121.117 32.0938 119.899 33.6765 119.899 36.3258C119.899 38.9978 121.117 40.5566 123.168 40.5566C125.219 40.5566 126.439 38.9978 126.439 36.3258H126.439Z" fill="white"/>
<path d="M131.105 30.16H133.519V32.2587H133.578C133.741 31.6032 134.125 31.024 134.665 30.6183C135.206 30.2126 135.869 30.0052 136.544 30.031C136.836 30.0299 137.126 30.0616 137.411 30.1254V32.4928C137.043 32.3803 136.659 32.3286 136.274 32.3399C135.906 32.3249 135.54 32.3898 135.199 32.5299C134.859 32.67 134.553 32.8821 134.303 33.1516C134.052 33.4211 133.863 33.7417 133.748 34.0912C133.633 34.4408 133.595 34.8111 133.636 35.1768V42.4905H131.105L131.105 30.16Z" fill="white"/>
<path d="M149.084 38.8688C148.743 41.1072 146.563 42.6434 143.774 42.6434C140.187 42.6434 137.961 40.24 137.961 36.3844C137.961 32.5167 140.199 30.0083 143.668 30.0083C147.079 30.0083 149.225 32.3518 149.225 36.0904V36.9576H140.516V37.1105C140.476 37.5643 140.533 38.0215 140.683 38.4516C140.833 38.8818 141.072 39.2751 141.386 39.6054C141.7 39.9358 142.08 40.1956 142.502 40.3676C142.924 40.5396 143.378 40.6199 143.833 40.6031C144.431 40.6592 145.031 40.5207 145.544 40.2082C146.057 39.8957 146.456 39.4259 146.68 38.8688L149.084 38.8688ZM140.528 35.1887H146.692C146.715 34.7807 146.653 34.3723 146.511 33.9893C146.368 33.6064 146.148 33.257 145.864 32.9631C145.58 32.6693 145.238 32.4373 144.86 32.2817C144.483 32.1262 144.077 32.0504 143.668 32.0592C143.256 32.0567 142.847 32.1359 142.466 32.2922C142.084 32.4484 141.738 32.6787 141.446 32.9697C141.154 33.2606 140.922 33.6065 140.765 33.9874C140.607 34.3682 140.527 34.7765 140.528 35.1887V35.1887Z" fill="white"/>
<path d="M51.6306 12.8486C52.1613 12.8105 52.6937 12.8907 53.1896 13.0833C53.6855 13.2759 54.1325 13.5762 54.4983 13.9625C54.8641 14.3487 55.1396 14.8114 55.3049 15.317C55.4703 15.8227 55.5213 16.3587 55.4544 16.8865C55.4544 19.4826 54.0513 20.975 51.6306 20.975H48.6953V12.8486H51.6306ZM49.9575 19.8257H51.4896C51.8688 19.8484 52.2483 19.7862 52.6004 19.6438C52.9525 19.5013 53.2684 19.2821 53.5251 19.0021C53.7818 18.7221 53.9729 18.3885 54.0844 18.0253C54.1959 17.6622 54.225 17.2788 54.1696 16.903C54.221 16.5287 54.1889 16.1477 54.0757 15.7873C53.9625 15.4268 53.771 15.0958 53.5148 14.8181C53.2587 14.5404 52.9443 14.3227 52.5942 14.1808C52.2441 14.0388 51.8669 13.976 51.4896 13.997H49.9575V19.8257Z" fill="white"/>
<path d="M56.877 17.906C56.8384 17.503 56.8845 17.0963 57.0123 16.7122C57.1401 16.328 57.3468 15.9748 57.6191 15.6752C57.8914 15.3756 58.2233 15.1362 58.5936 14.9724C58.9638 14.8086 59.3642 14.724 59.7691 14.724C60.1739 14.724 60.5743 14.8086 60.9446 14.9724C61.3148 15.1362 61.6467 15.3756 61.919 15.6752C62.1913 15.9748 62.398 16.328 62.5258 16.7122C62.6536 17.0963 62.6997 17.503 62.6612 17.906C62.7005 18.3094 62.6549 18.7166 62.5274 19.1014C62.4 19.4862 62.1934 19.84 61.921 20.1402C61.6487 20.4404 61.3165 20.6803 60.9459 20.8444C60.5753 21.0086 60.1744 21.0934 59.7691 21.0934C59.3637 21.0934 58.9629 21.0086 58.5923 20.8444C58.2216 20.6803 57.8895 20.4404 57.6171 20.1402C57.3447 19.84 57.1382 19.4862 57.0107 19.1014C56.8832 18.7166 56.8377 18.3094 56.877 17.906ZM61.4163 17.906C61.4163 16.5766 60.8191 15.7993 59.7711 15.7993C58.719 15.7993 58.1272 16.5766 58.1272 17.906C58.1272 19.246 58.7191 20.0174 59.7711 20.0174C60.8191 20.0174 61.4163 19.2406 61.4163 17.906H61.4163Z" fill="white"/>
<path d="M70.354 20.9747H69.0985L67.831 16.458H67.7352L66.4731 20.9747H65.2295L63.5391 14.842H64.7667L65.8653 19.5216H65.9557L67.2165 14.842H68.3776L69.6385 19.5216H69.7342L70.8275 14.842H72.0378L70.354 20.9747Z" fill="white"/>
<path d="M73.457 14.8423H74.6221V15.8165H74.7126C74.866 15.4666 75.1248 15.1733 75.4528 14.9775C75.7809 14.7816 76.1618 14.693 76.5427 14.7239C76.8411 14.7015 77.1407 14.7465 77.4193 14.8556C77.698 14.9647 77.9485 15.135 78.1524 15.3541C78.3562 15.5732 78.5082 15.8353 78.597 16.121C78.6858 16.4068 78.7091 16.7089 78.6653 17.0049V20.9749H77.455V17.3088C77.455 16.3233 77.0268 15.8332 76.1317 15.8332C75.9291 15.8237 75.7268 15.8582 75.5388 15.9343C75.3508 16.0103 75.1814 16.1261 75.0423 16.2737C74.9033 16.4213 74.7977 16.5972 74.733 16.7895C74.6683 16.9817 74.6459 17.1856 74.6673 17.3873V20.975H73.457L73.457 14.8423Z" fill="white"/>
<path d="M80.5938 12.4481H81.8041V20.9748H80.5938V12.4481Z" fill="white"/>
<path d="M83.4863 17.9061C83.4478 17.503 83.4939 17.0964 83.6217 16.7122C83.7496 16.328 83.9563 15.9748 84.2286 15.6752C84.501 15.3756 84.8329 15.1362 85.2032 14.9724C85.5734 14.8086 85.9739 14.724 86.3787 14.724C86.7836 14.724 87.184 14.8086 87.5543 14.9724C87.9246 15.1362 88.2565 15.3756 88.5288 15.6752C88.8012 15.9748 89.0079 16.328 89.1357 16.7122C89.2636 17.0964 89.3097 17.503 89.2712 17.9061C89.3104 18.3095 89.2648 18.7167 89.1373 19.1015C89.0098 19.4863 88.8032 19.8401 88.5308 20.1403C88.2584 20.4405 87.9262 20.6804 87.5556 20.8445C87.185 21.0087 86.7841 21.0935 86.3787 21.0935C85.9734 21.0935 85.5725 21.0087 85.2019 20.8445C84.8313 20.6804 84.4991 20.4405 84.2267 20.1403C83.9543 19.8401 83.7477 19.4863 83.6202 19.1015C83.4927 18.7167 83.4471 18.3095 83.4863 17.9061ZM88.0256 17.9061C88.0256 16.5768 87.4284 15.7994 86.3804 15.7994C85.3284 15.7994 84.7366 16.5768 84.7366 17.9061C84.7366 19.2461 85.3284 20.0175 86.3804 20.0175C87.4284 20.0175 88.0256 19.2408 88.0256 17.9061H88.0256Z" fill="white"/>
<path d="M90.5469 19.2407C90.5469 18.1368 91.3688 17.5004 92.8278 17.4099L94.489 17.3142V16.7848C94.489 16.1371 94.0608 15.7714 93.2335 15.7714C92.5579 15.7714 92.0897 16.0194 91.9554 16.453H90.7836C90.9073 15.3996 91.8982 14.724 93.2894 14.724C94.8268 14.724 95.694 15.4894 95.694 16.7848V20.975H94.5289V20.1132H94.4332C94.2388 20.4223 93.9659 20.6744 93.6422 20.8435C93.3186 21.0127 92.9559 21.0929 92.5911 21.0761C92.3336 21.1029 92.0734 21.0754 91.8273 20.9954C91.5811 20.9155 91.3544 20.7849 91.1618 20.6119C90.9692 20.439 90.815 20.2276 90.709 19.9915C90.6031 19.7553 90.5479 19.4995 90.5469 19.2407ZM94.489 18.7167V18.204L92.9914 18.2997C92.1469 18.3562 91.7638 18.6435 91.7638 19.1842C91.7638 19.7361 92.2426 20.0573 92.901 20.0573C93.0939 20.0768 93.2888 20.0574 93.474 20C93.6593 19.9427 93.8311 19.8487 93.9792 19.7236C94.1274 19.5985 94.2489 19.4449 94.3365 19.272C94.424 19.099 94.4759 18.9101 94.489 18.7167Z" fill="white"/>
<path d="M97.2852 17.9058C97.2852 15.968 98.2813 14.7404 99.8308 14.7404C100.214 14.7227 100.594 14.8145 100.927 15.0051C101.26 15.1956 101.532 15.477 101.711 15.8163H101.802V12.4481H103.012V20.9748H101.852V20.0059H101.757C101.564 20.3429 101.282 20.6208 100.943 20.8094C100.603 20.998 100.219 21.0902 99.8308 21.0759C98.2707 21.0759 97.2852 19.8483 97.2852 17.9058ZM98.5354 17.9058C98.5354 19.2066 99.1485 19.9893 100.174 19.9893C101.194 19.9893 101.825 19.1953 101.825 17.9112C101.825 16.633 101.187 15.8277 100.174 15.8277C99.1552 15.8277 98.5354 16.6157 98.5354 17.9058H98.5354Z" fill="white"/>
<path d="M108.018 17.906C107.979 17.503 108.025 17.0963 108.153 16.7122C108.281 16.328 108.487 15.9748 108.76 15.6752C109.032 15.3756 109.364 15.1362 109.734 14.9724C110.104 14.8086 110.505 14.724 110.91 14.724C111.315 14.724 111.715 14.8086 112.085 14.9724C112.455 15.1362 112.787 15.3756 113.06 15.6752C113.332 15.9748 113.539 16.328 113.666 16.7122C113.794 17.0963 113.84 17.503 113.802 17.906C113.841 18.3094 113.796 18.7166 113.668 19.1014C113.541 19.4862 113.334 19.84 113.062 20.1402C112.789 20.4404 112.457 20.6803 112.086 20.8444C111.716 21.0086 111.315 21.0934 110.91 21.0934C110.504 21.0934 110.103 21.0086 109.733 20.8444C109.362 20.6803 109.03 20.4404 108.758 20.1402C108.485 19.84 108.279 19.4862 108.151 19.1014C108.024 18.7166 107.978 18.3094 108.018 17.906ZM112.557 17.906C112.557 16.5766 111.96 15.7993 110.912 15.7993C109.86 15.7993 109.268 16.5766 109.268 17.906C109.268 19.246 109.86 20.0174 110.912 20.0174C111.96 20.0174 112.557 19.2406 112.557 17.906Z" fill="white"/>
<path d="M115.426 14.8423H116.591V15.8165H116.681C116.835 15.4666 117.094 15.1733 117.422 14.9775C117.75 14.7816 118.131 14.693 118.511 14.7239C118.81 14.7015 119.109 14.7465 119.388 14.8556C119.667 14.9647 119.917 15.135 120.121 15.3541C120.325 15.5732 120.477 15.8353 120.566 16.121C120.655 16.4068 120.678 16.7089 120.634 17.0049V20.9749H119.424V17.3088C119.424 16.3233 118.996 15.8332 118.1 15.8332C117.898 15.8237 117.696 15.8582 117.508 15.9343C117.32 16.0103 117.15 16.1261 117.011 16.2737C116.872 16.4213 116.766 16.5972 116.702 16.7895C116.637 16.9817 116.615 17.1856 116.636 17.3873V20.975H115.426V14.8423Z" fill="white"/>
<path d="M127.478 13.3153V14.8701H128.807V15.8895H127.478V19.043C127.478 19.6854 127.743 19.9667 128.345 19.9667C128.5 19.9662 128.654 19.9569 128.807 19.9387V20.9469C128.59 20.9858 128.369 21.0065 128.148 21.0087C126.803 21.0087 126.267 20.5352 126.267 19.3529V15.8895H125.293V14.87H126.267V13.3153H127.478Z" fill="white"/>
<path d="M130.461 12.4481H131.661V15.8277H131.756C131.917 15.4745 132.183 15.1795 132.518 14.9829C132.852 14.7863 133.239 14.6977 133.626 14.7291C133.923 14.7129 134.22 14.7625 134.495 14.8742C134.771 14.986 135.018 15.1571 135.22 15.3755C135.422 15.5939 135.573 15.8541 135.662 16.1375C135.752 16.421 135.778 16.7207 135.738 17.0154V20.9748H134.527V17.3139C134.527 16.3344 134.071 15.8383 133.215 15.8383C133.007 15.8212 132.798 15.8498 132.602 15.9221C132.407 15.9943 132.229 16.1085 132.082 16.2566C131.935 16.4047 131.822 16.5831 131.751 16.7794C131.68 16.9757 131.653 17.1852 131.671 17.3931V20.9748H130.461L130.461 12.4481Z" fill="white"/>
<path d="M142.794 19.3193C142.629 19.8798 142.273 20.3646 141.787 20.6889C141.301 21.0133 140.717 21.1565 140.136 21.0935C139.732 21.1042 139.331 21.0268 138.96 20.8667C138.589 20.7066 138.257 20.4677 137.987 20.1666C137.718 19.8654 137.517 19.5092 137.399 19.1226C137.281 18.7361 137.248 18.3285 137.303 17.9281C137.25 17.5265 137.283 17.118 137.401 16.7303C137.518 16.3426 137.718 15.9847 137.986 15.6809C138.254 15.3771 138.585 15.1344 138.955 14.9694C139.325 14.8043 139.726 14.7206 140.131 14.7241C141.837 14.7241 142.867 15.8899 142.867 17.8157V18.238H138.536V18.3058C138.517 18.5309 138.546 18.7574 138.619 18.9709C138.693 19.1844 138.811 19.3801 138.964 19.5455C139.118 19.7109 139.305 19.8424 139.512 19.9314C139.72 20.0205 139.944 20.0652 140.17 20.0627C140.459 20.0975 140.752 20.0453 141.012 19.9129C141.272 19.7806 141.487 19.5739 141.629 19.3192L142.794 19.3193ZM138.536 17.3429H141.634C141.649 17.1371 141.621 16.9303 141.552 16.7359C141.482 16.5416 141.373 16.3639 141.231 16.2143C141.089 16.0646 140.917 15.9464 140.726 15.8672C140.536 15.788 140.331 15.7495 140.124 15.7542C139.915 15.7516 139.707 15.7909 139.513 15.8698C139.32 15.9487 139.143 16.0656 138.995 16.2137C138.847 16.3618 138.731 16.5379 138.652 16.7319C138.573 16.9258 138.534 17.1336 138.536 17.3429H138.536Z" fill="white"/>
</svg>
