<svg width="32" height="32" viewBox="0 0 32 32" fill="none" xmlns="http://www.w3.org/2000/svg">
<path d="M6.30763 27.9984V15.465C6.30763 14.7182 6.30763 14.3449 6.40584 14.0597C6.49224 13.8088 6.63009 13.6048 6.79965 13.477C6.99241 13.3317 7.24475 13.3317 7.74943 13.3317H13.8771C14.3818 13.3317 14.6341 13.3317 14.8269 13.477C14.9965 13.6048 15.1342 13.8088 15.2207 14.0597C15.3189 14.3449 15.3189 14.7182 15.3189 15.465V27.9984M9.011 18.665H12.6155M9.011 23.9984H12.6155M2.70312 13.9825V25.865C2.70312 26.6117 2.70312 26.985 2.80134 27.2704C2.88774 27.5212 3.02559 27.7252 3.19515 27.853C3.38791 27.9984 3.64025 27.9984 4.14493 27.9984H17.4816C17.9863 27.9984 18.2386 27.9984 18.4314 27.853C18.601 27.7252 18.7387 27.5212 18.8252 27.2704C18.9234 26.985 18.9234 26.6117 18.9234 25.865V13.9825C18.9234 12.5509 18.9234 11.835 18.7763 11.2026C18.6463 10.6433 18.4341 10.1337 18.1549 9.71036C17.8393 9.23168 17.4071 8.9098 16.5429 8.26604L12.7582 5.44698C12.0452 4.91596 11.6888 4.65044 11.3146 4.54596C10.9833 4.45343 10.6432 4.45343 10.3119 4.54596C9.93772 4.65044 9.58132 4.91595 8.86836 5.44698L5.08364 8.26604C4.21936 8.9098 3.78721 9.23168 3.47156 9.71036C3.19242 10.1337 2.98019 10.6433 2.85016 11.2026C2.70313 11.835 2.70312 12.5509 2.70312 13.9825Z" stroke="#228B22" stroke-width="2.33333" stroke-linecap="round" stroke-linejoin="round"/>
<path d="M21.168 11.4134V29.0765H29.3717V11.4134H21.168ZM21.6413 12.1137H27.163V25.2638H21.6413V12.1137ZM27.5837 12.7362H28.8984V15.304H27.5837V12.7362ZM28.057 13.4365V14.6037H28.4251V13.4365H28.057ZM22.7193 13.7088V14.6037H22.2986V15.304H26.5057V14.6037H24.8228V13.3976L24.4021 13.631L24.2444 14.6037H23.5607V13.7088H22.7193ZM27.8204 15.8487H28.6618V16.549H27.8204V15.8487ZM25.4539 16.2688C25.3119 16.2688 25.1883 16.3856 25.1173 16.5295C25.0411 16.7201 24.999 16.903 25.0095 17.0936H22.2986V17.7939H26.5057V17.0936H25.8983C25.9062 16.8952 25.8562 16.6657 25.7905 16.5295C25.7195 16.3856 25.5959 16.2688 25.4539 16.2688ZM27.8204 17.0936H28.6618V17.7939H27.8204V17.0936ZM22.7193 18.6888V19.5836H22.2986V20.2839H26.5057V19.5836H25.8746V18.6888H25.2436V19.5836H24.4021V18.3775H23.9814V19.5836H23.14V19L22.7193 18.6888ZM22.9297 21.0776C22.7693 21.0776 22.6457 21.2293 22.58 21.3888C22.4958 21.6261 22.4748 21.8362 22.4879 22.0735H22.2986V22.7738H26.5057V22.0735H24.8228V21.1787H23.9814V22.0735H23.3714C23.3872 21.8401 23.353 21.5678 23.2794 21.3888C23.2136 21.2293 23.0901 21.0776 22.9297 21.0776ZM27.8204 23.941H28.6618V24.6413H27.8204V23.941ZM21.6413 25.9641H27.163V28.3762H21.6413V25.9641ZM22.1146 26.6644V27.6759H26.6897V26.6644H22.1146Z" fill="#228B22"/>
</svg>
