<svg width="38" height="32" viewBox="0 0 38 32" fill="none" xmlns="http://www.w3.org/2000/svg">
<path d="M32.5091 27.9375C33.1937 27.9375 33.7487 27.3825 33.7487 26.6979C33.7487 26.0133 33.1937 25.4583 32.5091 25.4583C31.8245 25.4583 31.2695 26.0133 31.2695 26.6979C31.2695 27.3825 31.8245 27.9375 32.5091 27.9375Z" fill="#228B22"/>
<path d="M26.8451 27.9375C27.5297 27.9375 28.0846 27.3825 28.0846 26.6979C28.0846 26.0133 27.5297 25.4583 26.8451 25.4583C26.1604 25.4583 25.6055 26.0133 25.6055 26.6979C25.6055 27.3825 26.1604 27.9375 26.8451 27.9375Z" fill="#228B22"/>
<path opacity="0.4" d="M24.4296 14.7908L24.288 16.5263C24.2596 16.8592 24.5217 17.1354 24.8546 17.1354H35.6992C35.9967 17.1354 36.2446 16.9087 36.2659 16.6112C36.358 15.3575 35.4017 14.3375 34.148 14.3375H25.4567C25.3859 14.0258 25.2442 13.7283 25.0246 13.4804C24.6775 13.105 24.1817 12.8854 23.6717 12.8854H22.418C22.1276 12.8854 21.8867 13.1263 21.8867 13.4167C21.8867 13.7071 22.1276 13.9479 22.418 13.9479H23.6505C23.8701 13.9479 24.0755 14.04 24.2242 14.1958C24.373 14.3588 24.4438 14.5713 24.4296 14.7908Z" fill="#228B22"/>
<path d="M35.5267 18.1979H24.6608C24.3633 18.1979 24.1225 18.4246 24.0942 18.715L23.8392 21.7963C23.74 23.0004 24.6892 24.0417 25.9004 24.0417H33.7771C34.8396 24.0417 35.7746 23.1704 35.8525 22.1079L36.0863 18.8C36.1146 18.4742 35.8596 18.1979 35.5267 18.1979Z" fill="#228B22"/>
<path d="M14.4531 0.555084C15.7332 0.555084 16.7754 1.59727 16.7754 2.87735C16.7754 4.15743 15.7332 5.19962 14.4531 5.19962C13.173 5.19962 12.1309 4.15743 12.1309 2.87735C12.1309 1.59727 13.173 0.555084 14.4531 0.555084ZM17.3758 5.80001H11.5758C9.96719 5.80001 8.67578 7.09141 8.67578 8.70001V15.7914C8.67578 16.3465 9.11758 16.8109 9.69531 16.8109C10.273 16.8109 10.7148 16.3691 10.7148 15.7914V9.27774C10.7148 9.11915 10.8508 8.98321 11.0094 8.98321C11.168 8.98321 11.3039 9.11915 11.3039 9.27774V26.859C11.3039 27.7313 11.9496 28.4449 12.7539 28.4449C13.5582 28.4449 14.2039 27.7313 14.2039 26.859V16.8336C14.2039 16.675 14.3398 16.5391 14.4984 16.5391C14.657 16.5391 14.793 16.675 14.793 16.8336V26.859C14.793 27.7313 15.4387 28.4449 16.243 28.4449C17.0473 28.4449 17.693 27.7313 17.693 26.859V9.27774C17.693 9.11915 17.8289 8.98321 17.9875 8.98321C18.1461 8.98321 18.282 9.11915 18.282 9.27774V15.8027C18.282 16.3578 18.7238 16.8223 19.3016 16.8223C19.8793 16.8223 20.3211 16.3805 20.3211 15.8027V8.70001C20.2758 7.09141 18.9504 5.80001 17.3758 5.80001Z" fill="#228B22"/>
</svg>
