<svg width="32" height="32" viewBox="0 0 32 32" fill="none" xmlns="http://www.w3.org/2000/svg">
<path d="M25.5083 16.5807C21.9251 16.5807 19.0099 20.0374 19.0099 24.2862C19.0099 28.534 21.9251 31.9898 25.5083 31.9898C29.0879 31.9898 32 28.534 32 24.2862C32 20.0375 29.0879 16.5807 25.5083 16.5807ZM30.518 24.2863C30.518 27.5679 28.2707 30.2375 25.5083 30.2375C22.7422 30.2375 20.4919 27.5679 20.4919 24.2863C20.4919 21.0036 22.7422 18.3329 25.5083 18.3329C28.2707 18.3331 30.518 21.0036 30.518 24.2863ZM19.147 5.86891C20.513 5.86891 21.6236 4.55987 21.6236 2.9389C21.6236 1.31748 20.5131 0 19.147 0C17.7807 0 16.6705 1.31733 16.6705 2.9389C16.6704 4.56002 17.7804 5.86891 19.147 5.86891ZM23.9717 13.0026C25.4549 13.0026 25.4549 10.705 23.9717 10.705L19.8441 10.7139L17.1888 5.80321C17.1888 5.80321 16.6117 4.66746 15.5161 4.66746C15.5161 4.66746 14.61 4.52898 13.96 5.40042L8.72889 11.6203C8.39302 12.054 8.19556 12.635 8.19556 13.2675C8.19556 14.1867 8.62679 14.9927 9.26235 15.4131L14.5956 18.9287V25.5439C14.5956 26.4799 15.2311 27.243 16.0199 27.243C16.8091 27.243 17.4447 26.4799 17.4447 25.5439V17.2814C17.4447 17.2814 17.6347 15.9641 16.3708 15.2445L13.2949 13.3238L16.6116 9.42699L18.1562 12.2658C18.4411 12.799 18.8283 13.0111 19.1863 13.0026H23.9717ZM6.49117 16.5911C2.912 16.5911 0 20.0468 0 24.2945C0 28.5433 2.912 32 6.49117 32C10.0745 32 12.99 28.5433 12.99 24.2945C12.9898 20.0468 10.0745 16.5911 6.49117 16.5911ZM11.5081 24.2945C11.5081 27.5771 9.2574 30.2479 6.49117 30.2479C3.72876 30.2479 1.48152 27.5771 1.48152 24.2945C1.48152 21.0131 3.72876 18.3433 6.49117 18.3433C9.2574 18.3433 11.5081 21.0129 11.5081 24.2945ZM6.41841 25.0858L3.71429 25.0859L8.33346 19.6059L6.57156 23.505H9.27556L4.65638 28.985L6.41841 25.0858Z" fill="#228B22"/>
</svg>
