<svg width="101" height="89" viewBox="0 0 101 89" fill="none" xmlns="http://www.w3.org/2000/svg">
<g filter="url(#filter0_f_3245_11606)">
<ellipse cx="58.3338" cy="60.5326" rx="39.8388" ry="13.8965" transform="rotate(-12.9443 58.3338 60.5326)" fill="url(#paint0_radial_3245_11606)"/>
</g>
<ellipse cx="50.5189" cy="66.0107" rx="29.0955" ry="9.9304" transform="rotate(-7.07465 50.5189 66.0107)" fill="url(#paint1_radial_3245_11606)"/>
<g filter="url(#filter1_f_3245_11606)">
<ellipse cx="51.6665" cy="65.8723" rx="27.9453" ry="9.9304" transform="rotate(-7.07465 51.6665 65.8723)" fill="url(#paint2_radial_3245_11606)"/>
</g>
<mask id="mask0_3245_11606" style="mask-type:alpha" maskUnits="userSpaceOnUse" x="0" y="0" width="77" height="77">
<circle cx="38.7813" cy="38.0508" r="38.0508" fill="url(#paint3_radial_3245_11606)"/>
</mask>
<g mask="url(#mask0_3245_11606)">
<circle cx="38.7813" cy="38.0508" r="38.0508" fill="url(#paint4_radial_3245_11606)"/>
<g filter="url(#filter2_f_3245_11606)">
<ellipse cx="21.7865" cy="17.2921" rx="32.5404" ry="31.5543" fill="#D7D96A" fill-opacity="0.13"/>
</g>
<g filter="url(#filter3_f_3245_11606)">
<ellipse cx="61.8099" cy="65.8955" rx="32.5404" ry="31.5543" fill="#FFDD4C" fill-opacity="0.38"/>
</g>
<g filter="url(#filter4_f_3245_11606)">
<path d="M77.1825 41.7083C77.5293 42.9006 81.2675 60.6656 61.8113 75.5827C54.083 81.5081 31.8799 76.775 31.5331 75.5827C31.1863 74.3905 49.5724 72.2185 59.6652 65.78C75.2327 55.849 76.8357 40.516 77.1825 41.7083Z" fill="#FFDD4C" fill-opacity="0.22"/>
</g>
<g filter="url(#filter5_f_3245_11606)">
<ellipse cx="21.8374" cy="15.2004" rx="2.95278" ry="6.18239" transform="rotate(45 21.8374 15.2004)" fill="#E3F7FF"/>
</g>
<g filter="url(#filter6_f_3245_11606)">
<ellipse cx="21.8456" cy="15.1981" rx="1.55828" ry="3.26265" transform="rotate(45 21.8456 15.1981)" fill="#E2F7FF"/>
</g>
<g filter="url(#filter7_f_3245_11606)">
<path d="M70.4577 14.6199C73.6092 31.8278 64.518 70.0719 17.0938 72.1601" stroke="#FFDD4C" stroke-width="2.32017"/>
</g>
<g filter="url(#filter8_f_3245_11606)">
<path d="M55.4561 -0.836068C23.5537 -11.7409 -13.569 22.4236 6.32646 61.3445" stroke="#FCFFDD" stroke-width="2.32017"/>
</g>
<g filter="url(#filter9_f_3245_11606)">
<path d="M66.6289 12.5824C77.6497 22.3271 82.8121 39.2643 68.6591 61.886" stroke="#A1A0DB" stroke-opacity="0.65" stroke-width="2.32017"/>
</g>
</g>
<g clip-path="url(#clip0_3245_11606)">
<path d="M50.5208 29.2666C54.0464 34.5053 49.3281 41.0636 49.3281 41.0636C64.1359 30.9046 47.3613 17 47.3613 17C41.0988 24.9523 44.7563 28.2966 47.7379 32.3358C50.2467 35.7359 49.3553 39.4256 49.3553 39.4256C52.3453 34.6191 50.5208 29.2686 50.5208 29.2686V29.2666Z" fill="#228B22"/>
<path d="M35.1295 46.0811C34.8219 44.9064 33.8783 44.1763 32.6479 44.1763C31.131 44.1763 29.9006 45.229 29.9006 46.8919C29.9006 48.5547 31.131 49.6281 32.6479 49.6281C33.8992 49.6281 34.8428 48.898 35.1692 47.6613H37.6508C37.406 50.2362 35.232 51.9983 32.6479 51.9983C29.7772 51.9983 27.4609 49.8701 27.4609 46.9105C27.4609 43.9509 29.7772 41.8041 32.6479 41.8041C35.2529 41.8041 37.4248 43.6076 37.6299 46.0398L35.1274 46.0811H35.1295Z" fill="white"/>
<path d="M45.9157 41.9074H48.3764V51.8389L46.1208 50.8565L45.9366 50.7056C45.0955 51.5577 43.9677 52.0023 42.8002 52.0023C40.0529 52.0023 37.8789 49.8741 37.8789 46.9145C37.8789 43.9549 40.0529 41.8081 42.8002 41.8081C43.9698 41.8081 45.0767 42.2548 45.9178 43.0842V41.9094L45.9157 41.9074ZM43.0659 44.1369C41.528 44.1369 40.2768 45.2103 40.2768 46.9125C40.2768 48.6146 41.528 49.6694 43.0659 49.6694C44.6038 49.6694 45.9157 48.596 45.9157 46.9125C45.9157 45.2289 44.6436 44.1369 43.0659 44.1369Z" fill="white"/>
<path d="M58.6267 51.837L56.187 50.8546V46.5692C56.187 44.8671 55.4484 44.137 54.0946 44.137C52.3517 44.137 51.3474 45.5558 51.3474 45.5558V50.8546L48.8867 51.837V41.9054H51.1423L51.3474 43.2229C52.1676 42.2901 53.2744 41.8041 54.6073 41.8041C56.9445 41.8041 58.6267 43.5683 58.6267 45.9591V51.837Z" fill="white"/>
<path d="M25.1837 35.6201H20.7458V38.6603H26.9999V40.8899H18.2852V28.1228H26.7948V30.3523H20.7458V33.3926H26.1797L25.1858 35.6221L25.1837 35.6201Z" fill="#4AC63F"/>
<path d="M34.6842 35.134C34.3766 33.9593 33.4329 33.2292 32.2026 33.2292C30.6857 33.2292 29.4553 34.2819 29.4553 35.9447C29.4553 37.6076 30.6857 38.681 32.2026 38.681C33.4539 38.681 34.3975 37.9509 34.7239 36.7141H37.2055C36.9607 39.289 34.7867 41.0512 32.2026 41.0512C29.3319 41.0512 27.0156 38.923 27.0156 35.9633C27.0156 33.0037 29.3319 30.8569 32.2026 30.8569C34.8076 30.8569 36.9795 32.6604 37.1846 35.0926L34.6821 35.134H34.6842Z" fill="#4AC63F"/>
<path d="M42.6401 30.8569C45.469 30.8569 47.8062 32.9851 47.8062 35.9633C47.8062 38.9416 45.469 41.0512 42.6401 41.0512C39.8112 41.0512 37.4531 38.923 37.4531 35.9633C37.4531 33.0037 39.7694 30.8569 42.6401 30.8569ZM42.6401 38.6789C44.1152 38.6789 45.3456 37.6241 45.3456 35.9427C45.3456 34.2612 44.1152 33.2271 42.6401 33.2271C41.165 33.2271 39.8928 34.2798 39.8928 35.9427C39.8928 37.6055 41.1231 38.6789 42.6401 38.6789Z" fill="#4AC63F"/>
<path d="M8.37059 40.8176C7.56712 40.8466 7.02938 40.1186 6.99381 39.1486C6.95824 38.1724 7.50854 37.4216 8.50869 37.3079L8.54217 38.2282C8.06092 38.3234 7.83076 38.6398 7.84959 39.1527C7.86633 39.6367 8.05674 39.9469 8.3413 39.9386C9.18662 39.9097 8.49823 37.3865 10.1763 37.3265C11.0446 37.2955 11.5531 38.0028 11.5845 38.9025C11.618 39.8518 11.1095 40.5301 10.1931 40.6046L10.1596 39.6842C10.5906 39.5912 10.7433 39.312 10.7308 38.919C10.7141 38.4474 10.5132 38.1951 10.2705 38.2034C9.43143 38.2324 10.057 40.7576 8.37059 40.8176Z" fill="white"/>
<path d="M8.38964 47.5846L8.20551 46.7615L10.0112 46.3685C10.595 46.2424 10.7917 45.9466 10.6996 45.535C10.6034 45.1028 10.2623 44.8463 9.86685 44.8298H9.87313L7.87282 45.262L7.68869 44.4389L9.49441 44.0459C10.0782 43.9198 10.2749 43.624 10.1828 43.2124C10.0614 42.6706 9.50906 42.4741 9.50906 42.4741L7.356 42.9415L7.17188 42.1184L10.5762 41.38L10.7436 42.1349L10.3355 42.2962C10.6933 42.4927 10.9298 42.8071 11.0239 43.2269C11.1348 43.7274 10.9549 44.1928 10.5783 44.4968C11.093 44.6809 11.4257 45.0325 11.5408 45.5475C11.7081 46.2961 11.2227 46.9704 10.4025 47.1482L8.38755 47.5867L8.38964 47.5846Z" fill="white"/>
<path d="M13.1583 49.957L13.491 50.7347L10.2813 52.0769L9.97581 51.3655L10.3169 51.1545C9.92769 51.0035 9.63057 50.7078 9.47364 50.3396C9.10329 49.471 9.49666 48.4969 10.4529 48.0977C11.4154 47.6944 12.3967 48.0936 12.7691 48.9622C12.9261 49.3324 12.9323 49.7419 12.7775 50.1183L13.1583 49.9591V49.957ZM12.0535 49.3593C11.8464 48.8733 11.3296 48.623 10.7793 48.8547C10.2353 49.0822 10.0574 49.622 10.2646 50.108C10.478 50.6064 10.9969 50.8629 11.5409 50.6354C12.0912 50.4058 12.267 49.8578 12.0535 49.3593Z" fill="white"/>
<path d="M14.1557 53.4647L14.0678 53.3117C13.7372 52.745 13.1848 52.7284 13.1848 52.7284L11.2745 53.8184L10.8477 53.0883L13.867 51.3655L14.2582 52.0356L13.8879 52.3293C14.3001 52.4017 14.6641 52.6581 14.8901 53.049L14.1578 53.4668L14.1557 53.4647Z" fill="white"/>
<path d="M14.6032 54.1534L15.2727 53.688L15.3962 53.8597L16.0595 53.4854L16.5093 54.1182L15.8858 54.5505L16.2206 55.022L15.551 55.4874L15.2162 55.0158L14.1282 55.7728C13.8206 55.9879 13.7767 56.172 13.9776 56.4532L14.0592 56.5691L13.3896 57.0344L13.2431 56.8276C12.7933 56.1947 12.9335 55.5722 13.6365 55.0841L14.7245 54.3271L14.6011 54.1555L14.6032 54.1534Z" fill="white"/>
<path d="M19.0291 61.2743C18.4705 61.8451 17.5728 61.69 16.8677 61.0157C16.1584 60.3353 16.0266 59.4191 16.6689 58.6518L17.3385 59.2929C17.0581 59.69 17.1146 60.0768 17.4871 60.4346C17.8386 60.7717 18.1922 60.8668 18.391 60.6641C18.9789 60.0623 16.715 58.7159 17.8825 57.5246C18.4872 56.9083 19.3493 57.0696 20.0021 57.6942C20.6926 58.3539 20.8014 59.1936 20.1925 59.8741L19.5229 59.2329C19.7677 58.871 19.684 58.5649 19.3974 58.2898C19.0542 57.9631 18.732 57.9176 18.5646 58.0892C17.9809 58.6849 20.2009 60.0768 19.0291 61.2743Z" fill="white"/>
<path d="M21.1138 60.1305L21.8001 60.6207L20.6974 62.1242C20.3501 62.5979 20.4087 62.9495 20.7874 63.2225C21.277 63.5741 21.8629 63.359 21.8629 63.359L23.156 61.5948L23.8465 62.0891L21.8022 64.8791L21.1975 64.4469L21.3942 64.0229C20.9611 64.1221 20.5426 64.0477 20.1618 63.7747C19.5048 63.3052 19.396 62.4717 19.8877 61.7995L21.1096 60.1305H21.1138Z" fill="white"/>
<path d="M25.69 65.934C25.395 66.4717 24.7652 66.5896 24.0454 66.2049C23.288 65.7995 23.0536 65.0343 23.3738 64.4056L24.1249 64.8068C24.0203 65.0715 24.1626 65.33 24.4555 65.4872C24.6878 65.6113 24.8907 65.6237 24.964 65.4872C25.146 65.1543 23.3654 64.5193 23.9931 63.3756C24.2777 62.8565 24.9807 62.6807 25.7005 63.0654C26.3952 63.4376 26.6107 64.1367 26.2633 64.813L25.5059 64.4076C25.6042 64.1243 25.5226 63.9051 25.2778 63.7748C25.0393 63.6465 24.8112 63.6362 24.7275 63.7913C24.4827 64.236 26.2843 64.8482 25.69 65.9298V65.934Z" fill="white"/>
<path d="M27.1425 64.7304L27.4585 63.9837L27.6552 64.0665L28.0151 63.4005L28.7369 63.7004L28.4419 64.3953L28.9796 64.6187L28.6637 65.3653L28.1259 65.1419L27.6112 66.3539C27.4648 66.6972 27.5275 66.8772 27.8498 67.0095L27.9816 67.0633L27.6656 67.8099L27.4292 67.7127C26.7073 67.4128 26.4918 66.8131 26.8245 66.0271L27.3392 64.8152L27.1425 64.7345V64.7304Z" fill="white"/>
<path d="M32.1872 65.6403L33.0053 65.8781L32.0239 69.1852L31.2728 68.9681L31.323 68.573C30.9589 68.7757 30.5405 68.815 30.1513 68.7013C29.2369 68.4365 28.7243 67.5182 29.0151 66.5338C29.3101 65.5431 30.2433 65.0426 31.1577 65.3094C31.5469 65.4231 31.8712 65.6775 32.07 66.0353L32.1872 65.6444V65.6403ZM31.0196 66.1077C30.507 65.9588 29.986 66.1966 29.8165 66.7633C29.6512 67.3238 29.9609 67.8016 30.4735 67.9505C30.9987 68.1035 31.5281 67.8678 31.6954 67.3073C31.8628 66.7406 31.5469 66.2608 31.0217 66.1077H31.0196Z" fill="white"/>
<path d="M33.778 65.9837L34.617 66.1347L33.9914 69.5245L33.1523 69.3735L33.778 65.9837ZM34.3868 65.0364C34.6379 65.0819 34.8032 65.326 34.7572 65.5742C34.7112 65.8244 34.4705 65.994 34.2174 65.9485C33.9642 65.903 33.7947 65.6569 33.8407 65.4087C33.8868 65.1605 34.1358 64.9909 34.3868 65.0364Z" fill="white"/>
<path d="M38.5033 70L37.6601 69.9338L37.8066 68.1117C37.8547 67.5222 37.6183 67.2513 37.1517 67.2141C36.5491 67.1665 36.162 67.6298 36.162 67.6298L35.9883 69.8035L35.1367 69.7373L35.4129 66.302L36.1934 66.362L36.2268 66.8232C36.5365 66.5233 36.932 66.3847 37.3944 66.4199C38.202 66.484 38.7356 67.1376 38.6686 67.9648L38.5054 69.9979L38.5033 70Z" fill="white"/>
<path d="M42.2467 66.4035L43.0983 66.3497L43.3201 69.7892L42.5396 69.8388L42.4496 69.45C42.1776 69.7623 41.7968 69.9422 41.393 69.967C40.441 70.027 39.6417 69.3383 39.5747 68.3125C39.5078 67.2804 40.2129 66.4966 41.1649 66.4366C41.5687 66.4118 41.9621 66.5421 42.2718 66.8109L42.2446 66.4035H42.2467ZM41.3093 67.237C40.7778 67.2701 40.3677 67.6692 40.4054 68.2587C40.443 68.8419 40.8992 69.1853 41.4327 69.1522C41.9789 69.117 42.3952 68.7178 42.3576 68.1346C42.3199 67.5452 41.8554 67.2018 41.3093 67.2349V67.237Z" fill="white"/>
<path d="M45.3112 69.4561L44.5475 69.6215L43.5703 65.1893L44.4052 65.0094L44.7274 66.4737C44.9513 66.1304 45.2923 65.8987 45.6878 65.8139C46.6189 65.6133 47.5144 66.1759 47.7362 67.1852C47.958 68.1882 47.3784 69.0672 46.4473 69.2678C46.0519 69.3526 45.6355 69.2844 45.2882 69.0569L45.3112 69.454V69.4561ZM46.1837 68.4964C46.7047 68.3847 47.0478 67.9297 46.9223 67.3589C46.7947 66.7819 46.2904 66.5089 45.7694 66.6205C45.2338 66.7364 44.8843 67.1934 45.0099 67.7705C45.1354 68.3413 45.6459 68.6122 46.1816 68.4964H46.1837Z" fill="white"/>
<path d="M47.6992 64.1945L48.5111 63.9319L49.9443 68.24L49.1325 68.5026L47.6992 64.1945Z" fill="white"/>
<path d="M53.7066 65.359C53.9159 66.1138 53.4032 66.9101 52.65 67.2431C51.7398 67.6443 50.702 67.2948 50.2793 66.3579C49.8525 65.4148 50.2814 64.4158 51.1916 64.0146C52.1394 63.5948 53.0475 63.8967 53.4911 64.8088L53.625 65.1046L51.1581 66.1945C51.4238 66.5771 51.8904 66.6785 52.3131 66.4923C52.6374 66.3496 52.8676 66.0621 52.878 65.7271L53.7087 65.359H53.7066ZM52.4575 64.8874C52.2022 64.6682 51.8611 64.6206 51.5305 64.7654C51.1937 64.9143 50.9761 65.21 50.9572 65.5492L52.4575 64.8874Z" fill="white"/>
<path d="M59.4266 61.5866C59.9078 62.2236 59.6086 63.0757 58.8219 63.6548C58.0289 64.2401 57.0915 64.2194 56.4303 63.4707L57.1773 62.9206C57.5288 63.2577 57.9243 63.2639 58.3407 62.9578C58.734 62.6683 58.8847 62.3373 58.7152 62.1119C58.2088 61.4418 56.5015 63.4356 55.4992 62.1057C54.9803 61.417 55.2795 60.6021 56.0077 60.0644C56.7776 59.4977 57.6334 59.5246 58.2151 60.2257L57.4681 60.7759C57.1459 60.478 56.8258 60.5132 56.5056 60.749C56.1227 61.0302 56.0265 61.3384 56.1729 61.5307C56.6751 62.1967 58.4202 60.2505 59.4287 61.5866H59.4266Z" fill="white"/>
<path d="M59.8366 58.116C60.5313 57.4294 61.6319 57.3839 62.3726 58.116C63.107 58.842 63.063 59.9299 62.3684 60.6165C61.6653 61.3135 60.5668 61.3528 59.8324 60.6269C59.0917 59.8968 59.1336 58.813 59.8366 58.116ZM61.7783 60.0333C62.1403 59.6755 62.1801 59.1191 61.7637 58.7055C61.3515 58.298 60.7886 58.3373 60.4246 58.6951C60.0521 59.0633 60.0124 59.6196 60.4246 60.0271C60.843 60.4407 61.4059 60.3994 61.7783 60.0312V60.0333Z" fill="white"/>
<path d="M60.7109 55.6178L61.2508 54.9642L64.8099 57.8287L64.2701 58.4823L60.7109 55.6178Z" fill="white"/>
<path d="M62.5919 55.0985L63.0585 54.4015L64.6236 55.4274C65.1153 55.75 65.471 55.6776 65.7305 55.2909C66.0653 54.7924 65.8247 54.2216 65.8247 54.2216L63.9855 53.0179L64.4562 52.3147L67.3626 54.2175L66.9504 54.8338L66.513 54.658C66.6302 55.0799 66.5737 55.4977 66.3143 55.8844C65.8665 56.5525 65.0275 56.6952 64.3286 56.2381L62.5898 55.1006L62.5919 55.0985Z" fill="white"/>
<path d="M65.5068 52.0481L64.7787 51.6799L64.8749 51.4917L64.2305 51.0863L64.5862 50.3976L65.2641 50.7409L65.5298 50.228L66.258 50.5962L65.9923 51.1091L67.1765 51.7068C67.5113 51.8764 67.6975 51.8268 67.8566 51.5207L67.9214 51.3945L68.6496 51.7626L68.5324 51.9881C68.1767 52.6768 67.5553 52.8443 66.7874 52.4576L65.6031 51.8598L65.5068 52.0481Z" fill="white"/>
<path d="M65.0602 48.6872C65.1606 48.4535 65.4368 48.348 65.6732 48.4473C65.9097 48.5466 66.0247 48.8175 65.9243 49.0492C65.8239 49.2808 65.5435 49.3945 65.3091 49.2953C65.0727 49.196 64.9597 48.9189 65.0602 48.6872ZM65.8636 49.4814L66.1963 48.7038L69.406 50.0481L69.0733 50.8257L65.8636 49.4814Z" fill="white"/>
<path d="M67.0235 46.2943C67.3101 45.3657 68.2621 44.8156 69.2623 45.1175C70.2562 45.4174 70.7332 46.3998 70.4466 47.3284C70.1557 48.2695 69.2058 48.8134 68.214 48.5135C67.2139 48.2116 66.7347 47.2354 67.0256 46.2943H67.0235ZM69.6494 47.0885C69.8 46.6046 69.5699 46.0937 69.0049 45.9241C68.4463 45.7566 67.9692 46.0524 67.8186 46.5363C67.6658 47.0348 67.8939 47.5435 68.4526 47.7131C69.0175 47.8848 69.4966 47.587 69.6494 47.0885Z" fill="white"/>
<path d="M71.6793 41.1712L71.5517 41.9985L69.723 41.7234C69.1329 41.6345 68.84 41.8454 68.7688 42.3046C68.6768 42.8961 69.1183 43.3097 69.1183 43.3097L71.2985 43.6386L71.1688 44.472L67.7227 43.9529L67.8398 43.1877H68.3085C68.0281 42.8609 67.9172 42.4597 67.9863 42.0067C68.1077 41.2146 68.8086 40.7369 69.6393 40.8609L71.6793 41.1691V41.1712Z" fill="white"/>
<path d="M70.8521 37.2603C71.4714 37.2727 71.8648 37.7752 71.848 38.5818C71.8292 39.4319 71.2475 39.9903 70.5361 39.9965L70.5549 39.1527C70.8395 39.1237 71.009 38.8817 71.0174 38.5508C71.0236 38.2902 70.942 38.1062 70.7851 38.102C70.4001 38.0937 70.6449 39.9489 69.3288 39.922C68.7304 39.9096 68.2512 39.3719 68.2701 38.5632C68.2868 37.7835 68.8183 37.2727 69.5862 37.2685L69.5673 38.1186C69.2681 38.162 69.107 38.3337 69.1007 38.6087C69.0945 38.8755 69.1907 39.0824 69.3686 39.0865C69.8812 39.0968 69.6092 37.2354 70.8521 37.2603Z" fill="white"/>
</g>
<defs>
<filter id="filter0_f_3245_11606" x="16.5947" y="41.5274" width="83.4747" height="38.0104" filterUnits="userSpaceOnUse" color-interpolation-filters="sRGB">
<feFlood flood-opacity="0" result="BackgroundImageFix"/>
<feBlend mode="normal" in="SourceGraphic" in2="BackgroundImageFix" result="shape"/>
<feGaussianBlur stdDeviation="1.3921" result="effect1_foregroundBlur_3245_11606"/>
</filter>
<filter id="filter1_f_3245_11606" x="11.6094" y="43.134" width="80.1133" height="45.4766" filterUnits="userSpaceOnUse" color-interpolation-filters="sRGB">
<feFlood flood-opacity="0" result="BackgroundImageFix"/>
<feBlend mode="normal" in="SourceGraphic" in2="BackgroundImageFix" result="shape"/>
<feGaussianBlur stdDeviation="6.14845" result="effect1_foregroundBlur_3245_11606"/>
</filter>
<filter id="filter2_f_3245_11606" x="-34.9997" y="-38.508" width="113.574" height="111.6" filterUnits="userSpaceOnUse" color-interpolation-filters="sRGB">
<feFlood flood-opacity="0" result="BackgroundImageFix"/>
<feBlend mode="normal" in="SourceGraphic" in2="BackgroundImageFix" result="shape"/>
<feGaussianBlur stdDeviation="12.1229" result="effect1_foregroundBlur_3245_11606"/>
</filter>
<filter id="filter3_f_3245_11606" x="5.02376" y="10.0954" width="113.574" height="111.6" filterUnits="userSpaceOnUse" color-interpolation-filters="sRGB">
<feFlood flood-opacity="0" result="BackgroundImageFix"/>
<feBlend mode="normal" in="SourceGraphic" in2="BackgroundImageFix" result="shape"/>
<feGaussianBlur stdDeviation="12.1229" result="effect1_foregroundBlur_3245_11606"/>
</filter>
<filter id="filter4_f_3245_11606" x="25.7269" y="35.8423" width="57.7649" height="48.4599" filterUnits="userSpaceOnUse" color-interpolation-filters="sRGB">
<feFlood flood-opacity="0" result="BackgroundImageFix"/>
<feBlend mode="normal" in="SourceGraphic" in2="BackgroundImageFix" result="shape"/>
<feGaussianBlur stdDeviation="2.90021" result="effect1_foregroundBlur_3245_11606"/>
</filter>
<filter id="filter5_f_3245_11606" x="9.45164" y="2.81406" width="24.7725" height="24.7726" filterUnits="userSpaceOnUse" color-interpolation-filters="sRGB">
<feFlood flood-opacity="0" result="BackgroundImageFix"/>
<feBlend mode="normal" in="SourceGraphic" in2="BackgroundImageFix" result="shape"/>
<feGaussianBlur stdDeviation="3.77028" result="effect1_foregroundBlur_3245_11606"/>
</filter>
<filter id="filter6_f_3245_11606" x="18.825" y="12.1768" width="6.04135" height="6.04257" filterUnits="userSpaceOnUse" color-interpolation-filters="sRGB">
<feFlood flood-opacity="0" result="BackgroundImageFix"/>
<feBlend mode="normal" in="SourceGraphic" in2="BackgroundImageFix" result="shape"/>
<feGaussianBlur stdDeviation="0.232017" result="effect1_foregroundBlur_3245_11606"/>
</filter>
<filter id="filter7_f_3245_11606" x="4.51405" y="1.88197" width="80.1945" height="83.966" filterUnits="userSpaceOnUse" color-interpolation-filters="sRGB">
<feFlood flood-opacity="0" result="BackgroundImageFix"/>
<feBlend mode="normal" in="SourceGraphic" in2="BackgroundImageFix" result="shape"/>
<feGaussianBlur stdDeviation="6.26446" result="effect1_foregroundBlur_3245_11606"/>
</filter>
<filter id="filter8_f_3245_11606" x="-8.20226" y="-11.8265" width="71.8069" height="81.4717" filterUnits="userSpaceOnUse" color-interpolation-filters="sRGB">
<feFlood flood-opacity="0" result="BackgroundImageFix"/>
<feBlend mode="normal" in="SourceGraphic" in2="BackgroundImageFix" result="shape"/>
<feGaussianBlur stdDeviation="3.88628" result="effect1_foregroundBlur_3245_11606"/>
</filter>
<filter id="filter9_f_3245_11606" x="56.6947" y="2.54871" width="30.9036" height="69.1173" filterUnits="userSpaceOnUse" color-interpolation-filters="sRGB">
<feFlood flood-opacity="0" result="BackgroundImageFix"/>
<feBlend mode="normal" in="SourceGraphic" in2="BackgroundImageFix" result="shape"/>
<feGaussianBlur stdDeviation="4.58233" result="effect1_foregroundBlur_3245_11606"/>
</filter>
<radialGradient id="paint0_radial_3245_11606" cx="0" cy="0" r="1" gradientUnits="userSpaceOnUse" gradientTransform="translate(37.0818 67.4145) rotate(-11.8288) scale(55.4121 170.903)">
<stop stop-color="#FFDD4C"/>
<stop offset="1" stop-color="#6F764E" stop-opacity="0"/>
</radialGradient>
<radialGradient id="paint1_radial_3245_11606" cx="0" cy="0" r="1" gradientUnits="userSpaceOnUse" gradientTransform="translate(34.9979 70.9285) rotate(-8.58869) scale(35.9385 108.744)">
<stop stop-color="#FFDD4C"/>
<stop offset="1" stop-color="#FFDD4C" stop-opacity="0"/>
</radialGradient>
<radialGradient id="paint2_radial_3245_11606" cx="0" cy="0" r="1" gradientUnits="userSpaceOnUse" gradientTransform="translate(36.7591 70.7901) rotate(-8.40541) scale(41.1405 129.366)">
<stop stop-color="#FFDD4C"/>
<stop offset="0.0001" stop-color="#082430" stop-opacity="0"/>
<stop offset="1" stop-color="#FFDD4C"/>
</radialGradient>
<radialGradient id="paint3_radial_3245_11606" cx="0" cy="0" r="1" gradientUnits="userSpaceOnUse" gradientTransform="translate(22.018 16.2992) rotate(49.1614) scale(72.9122 75.4153)">
<stop stop-color="#B9EBFF"/>
<stop offset="0.156338" stop-color="#7DCCED"/>
<stop offset="0.519012" stop-color="#4290AF"/>
<stop offset="0.710329" stop-color="#156282"/>
<stop offset="1" stop-color="#1B7398"/>
</radialGradient>
<radialGradient id="paint4_radial_3245_11606" cx="0" cy="0" r="1" gradientUnits="userSpaceOnUse" gradientTransform="translate(22.018 16.2992) rotate(49.1614) scale(72.9122 75.4153)">
<stop stop-color="#FFEA92"/>
<stop offset="0.156338" stop-color="#FFE162"/>
<stop offset="0.519012" stop-color="#F9E89B"/>
<stop offset="0.710329" stop-color="#F4D966"/>
<stop offset="1" stop-color="#C8AE00"/>
</radialGradient>
<clipPath id="clip0_3245_11606">
<rect width="64.8553" height="53" fill="white" transform="translate(7 17)"/>
</clipPath>
</defs>
</svg>
