<svg width="87" height="72" viewBox="0 0 87 72" fill="none" xmlns="http://www.w3.org/2000/svg">
<path d="M2.76872 33.9291C1.77451 33.9925 1.08325 33.1002 1.00613 31.8856C0.92902 30.6629 1.58173 29.7044 2.81554 29.5282L2.88989 30.6794C2.29778 30.8143 2.02237 31.2192 2.06368 31.8609C2.10224 32.4667 2.34735 32.8496 2.69987 32.8275C3.7464 32.7614 2.80727 29.6246 4.88106 29.4924C5.95514 29.4235 6.6106 30.2911 6.6822 31.4175C6.75656 32.6045 6.15067 33.4747 5.01877 33.5987L4.94716 32.4475C5.47869 32.318 5.6577 31.96 5.62741 31.467C5.58885 30.8777 5.33273 30.5665 5.03254 30.5857C3.99426 30.6518 4.85628 33.7942 2.77147 33.9264L2.76872 33.9291Z" fill="#228B22" stroke="white" stroke-width="0.275404" stroke-miterlimit="10"/>
<path d="M3.08391 42.8065L2.83054 41.7792L5.0558 41.2284C5.7746 41.0494 6.0087 40.6749 5.88201 40.1599C5.74706 39.6201 5.31743 39.3089 4.82446 39.3061H4.83272L2.36786 39.9148L2.11173 38.8875L4.337 38.3367C5.0558 38.1577 5.28989 37.7831 5.16321 37.2681C4.99521 36.5934 4.30395 36.3648 4.30395 36.3648L1.65181 37.023L1.39844 35.9958L5.59008 34.9575L5.82418 35.8994L5.32294 36.1142C5.77185 36.3483 6.07479 36.7366 6.20699 37.2571C6.36121 37.8823 6.15466 38.4689 5.69749 38.8627C6.33918 39.0748 6.76606 39.5072 6.92304 40.1488C7.15437 41.0825 6.57603 41.9417 5.56805 42.1923L3.08666 42.8065H3.08391Z" fill="#228B22" stroke="white" stroke-width="0.275404" stroke-miterlimit="10"/>
<path d="M9.19906 46.0081L9.63419 46.9721L5.69867 48.7512L5.29934 47.8671L5.71795 47.5917C5.23049 47.4155 4.85594 47.0519 4.64939 46.5947C4.16192 45.5179 4.62184 44.2869 5.79231 43.7553C6.97379 43.2211 8.20209 43.692 8.6868 44.7661C8.89336 45.2232 8.91264 45.7382 8.73362 46.2147L9.19906 46.0054V46.0081ZM7.81102 45.2921C7.53837 44.689 6.89117 44.3915 6.21643 44.6972C5.54996 44.9974 5.34616 45.6804 5.61881 46.2835C5.89972 46.9032 6.54967 47.2061 7.21615 46.906C7.89089 46.6003 8.09193 45.9117 7.81102 45.2921Z" fill="#228B22" stroke="white" stroke-width="0.275404" stroke-miterlimit="10"/>
<path d="M10.6704 50.6161L10.5547 50.4289C10.1278 49.7293 9.44207 49.7238 9.44207 49.7238L7.1094 51.1477L6.55859 50.2444L10.2462 47.9971L10.7502 48.826L10.2986 49.2033C10.8108 49.2832 11.268 49.5916 11.5627 50.0736L10.6676 50.6189L10.6704 50.6161Z" fill="#228B22" stroke="white" stroke-width="0.275404" stroke-miterlimit="10"/>
<path d="M11.3552 51.6304L12.1704 51.0273L12.3274 51.2394L13.137 50.7491L13.7154 51.5285L12.958 52.0904L13.3877 52.6715L12.5725 53.2746L12.1428 52.6935L10.8181 53.6739C10.4436 53.9521 10.3968 54.1834 10.6529 54.5304L10.7576 54.6736L9.94236 55.2768L9.75233 55.0207C9.17674 54.2413 9.33097 53.4591 10.1875 52.8229L11.5122 51.8425L11.3552 51.6304Z" fill="#228B22" stroke="white" stroke-width="0.275404" stroke-miterlimit="10"/>
<path d="M17.3475 60.7232C16.6728 61.4558 15.5574 61.2905 14.6596 60.4698C13.7563 59.6409 13.5663 58.4952 14.3346 57.5148L15.1856 58.2969C14.8524 58.8036 14.935 59.2856 15.4087 59.7235C15.8576 60.1338 16.2983 60.2412 16.5351 59.9824C17.2457 59.2112 14.3952 57.5974 15.8025 56.0661C16.5296 55.273 17.6037 55.4465 18.4354 56.2121C19.3112 57.0163 19.4737 58.0656 18.7438 58.9386L17.8928 58.1564C18.1848 57.6938 18.0691 57.3137 17.7056 56.9805C17.2704 56.5811 16.8683 56.5343 16.6673 56.7546C15.9623 57.5203 18.7604 59.192 17.3475 60.7315V60.7232Z" fill="#228B22" stroke="white" stroke-width="0.275404" stroke-miterlimit="10"/>
<path d="M20.1316 59.4123L20.9964 60.0072L19.6772 61.924C19.2641 62.5271 19.3439 62.9678 19.8231 63.2982C20.44 63.7224 21.1616 63.4387 21.1616 63.4387L22.7094 61.1859L23.5824 61.7863L21.1368 65.3445L20.3739 64.8212L20.6025 64.2842C20.071 64.4219 19.5477 64.3393 19.0685 64.0115C18.2396 63.4414 18.0798 62.4004 18.6692 61.5439L20.1316 59.415V59.4123Z" fill="#228B22" stroke="white" stroke-width="0.275404" stroke-miterlimit="10"/>
<path d="M26.2284 66.7024C25.8786 67.3854 25.102 67.5506 24.1986 67.0879C23.2485 66.6032 22.9345 65.6503 23.3118 64.8517L24.2537 65.3336C24.1325 65.6669 24.3143 65.9891 24.6834 66.1763C24.9725 66.3251 25.2259 66.3361 25.314 66.1626C25.5316 65.7385 23.3063 64.9976 24.0499 63.5462C24.3887 62.888 25.2534 62.6457 26.154 63.1084C27.0243 63.5545 27.3135 64.4248 26.9031 65.284L25.953 64.7993C26.0659 64.4413 25.9585 64.1687 25.6528 64.0117C25.3553 63.8602 25.0717 63.8519 24.9698 64.0475C24.6806 64.6121 26.9279 65.3281 26.2256 66.6996L26.2284 66.7024Z" fill="#228B22" stroke="white" stroke-width="0.275404" stroke-miterlimit="10"/>
<path d="M28.1866 65.239L28.5557 64.2943L28.8008 64.3907L29.2276 63.5452L30.131 63.9005L29.7867 64.779L30.4587 65.0434L30.0869 65.9853L29.4149 65.7209L28.8118 67.2549C28.641 67.69 28.7236 67.9104 29.1257 68.0701L29.291 68.1334L28.9192 69.0753L28.6245 68.9597C27.7212 68.6044 27.4375 67.858 27.8258 66.8666L28.429 65.3326L28.1839 65.2362L28.1866 65.239Z" fill="#228B22" stroke="white" stroke-width="0.275404" stroke-miterlimit="10"/>
<path d="M34.698 66.3129L35.7198 66.5883L34.5989 70.7579L33.6625 70.5073L33.7148 70.0088C33.2687 70.2732 32.7509 70.3338 32.2662 70.2044C31.126 69.8987 30.4623 68.7613 30.7983 67.5192C31.1343 66.2689 32.2772 65.6161 33.4174 65.9246C33.9021 66.054 34.3124 66.3652 34.5686 66.8086L34.7008 66.3157L34.698 66.3129ZM33.2632 66.9326C32.6242 66.7618 31.9853 67.073 31.7925 67.7863C31.6025 68.4941 32.0018 69.0835 32.638 69.2542C33.2935 69.4305 33.9406 69.122 34.1307 68.4143C34.3235 67.6982 33.9159 67.1061 33.2604 66.9298L33.2632 66.9326Z" fill="#228B22" stroke="white" stroke-width="0.275404" stroke-miterlimit="10"/>
<path d="M40.5648 71.5735L39.5238 71.4523L39.7882 69.1775C39.8736 68.4422 39.5954 68.0897 39.0171 68.0236C38.2735 67.9382 37.7723 68.5 37.7723 68.5L37.4555 71.2127L36.4062 71.0916L36.9047 66.8035L37.8686 66.9164L37.8907 67.4948C38.2873 67.134 38.7857 66.977 39.3531 67.0431C40.35 67.1588 40.9807 68.0043 40.8595 69.037L40.5648 71.5763V71.5735Z" fill="#228B22" stroke="white" stroke-width="0.275404" stroke-miterlimit="10"/>
<path d="M45.6909 67.2503L46.7484 67.22L46.8724 71.5383L45.9029 71.5659L45.8093 71.0757C45.4595 71.4557 44.9803 71.6623 44.4763 71.6788C43.2949 71.7119 42.3365 70.814 42.2979 69.5279C42.2621 68.2335 43.1682 67.2806 44.3497 67.2476C44.8509 67.2338 45.3329 67.4128 45.7046 67.7653L45.6909 67.2531V67.2503ZM44.4929 68.2528C43.8319 68.2721 43.3086 68.754 43.3279 69.4948C43.3499 70.2274 43.9008 70.6791 44.559 70.6598C45.2365 70.6405 45.7707 70.1586 45.7487 69.426C45.7267 68.6852 45.1676 68.2335 44.4901 68.2528H44.4929Z" fill="#228B22" stroke="white" stroke-width="0.275404" stroke-miterlimit="10"/>
<path d="M49.6663 71.1736L48.7134 71.3444L47.7109 65.7509L48.752 65.5636L49.0824 67.4116C49.3744 66.993 49.8095 66.7176 50.3025 66.6294C51.4647 66.4201 52.547 67.1665 52.7756 68.4416C53.0014 69.7085 52.2468 70.7825 51.0846 70.9918C50.5889 71.08 50.0794 70.9753 49.658 70.6751L49.6663 71.1736ZM50.7927 70.0142C51.4427 69.8985 51.8888 69.3422 51.7621 68.6234C51.6327 67.8935 51.0213 67.53 50.3686 67.6457C49.6994 67.7641 49.2449 68.3204 49.3771 69.0502C49.5066 69.7718 50.1262 70.1326 50.7955 70.0142H50.7927Z" fill="#228B22" stroke="white" stroke-width="0.275404" stroke-miterlimit="10"/>
<path d="M53.0977 64.6445L54.1139 64.3526L55.6809 69.8166L54.6647 70.1085L53.0977 64.6445Z" fill="#228B22" stroke="white" stroke-width="0.275404" stroke-miterlimit="10"/>
<path d="M60.6849 66.3267C60.9052 67.2823 60.2304 68.2545 59.2803 68.6346C58.1346 69.0917 56.8678 68.6015 56.3886 67.409C55.9066 66.2055 56.4905 64.9772 57.6361 64.52C58.8314 64.0436 59.9385 64.4622 60.4425 65.6299L60.594 66.0072L57.4847 67.2493C57.7959 67.7422 58.3687 67.8937 58.9002 67.6789C59.3106 67.5164 59.608 67.1694 59.6383 66.748L60.6849 66.3294V66.3267ZM59.1619 65.6712C58.8562 65.3848 58.4376 65.3049 58.0189 65.4729C57.5921 65.6437 57.3112 66.0017 57.2698 66.4258L59.1619 65.6712Z" fill="#228B22" stroke="white" stroke-width="0.275404" stroke-miterlimit="10"/>
<path d="M68.387 61.6465C68.9516 62.4672 68.5385 63.5193 67.536 64.2078C66.5253 64.9018 65.3658 64.8302 64.5837 63.8608L65.5366 63.2081C65.9552 63.6487 66.4454 63.6763 66.9769 63.31C67.4782 62.9657 67.682 62.5609 67.4809 62.2689C66.8888 61.4042 64.6746 63.8195 63.4986 62.1037C62.8899 61.2169 63.3003 60.2089 64.2312 59.57C65.2116 58.898 66.2691 58.9724 66.9577 59.8812L66.0048 60.5339C65.6219 60.1456 65.2226 60.1731 64.815 60.4513C64.3275 60.7845 64.1926 61.1673 64.3634 61.4124C64.9527 62.2689 67.2083 59.9198 68.3898 61.641L68.387 61.6465Z" fill="#228B22" stroke="white" stroke-width="0.275404" stroke-miterlimit="10"/>
<path d="M69.3159 57.1204C70.2082 56.2942 71.5742 56.2887 72.4555 57.2388C73.3313 58.1835 73.2239 59.544 72.3316 60.3702C71.4283 61.2102 70.0678 61.2074 69.192 60.2655C68.3107 59.3154 68.4126 57.9604 69.3159 57.1204ZM71.6293 59.6156C72.0947 59.1832 72.1691 58.4892 71.6734 57.9521C71.1804 57.4234 70.4809 57.4454 70.0182 57.8778C69.539 58.3212 69.4646 59.018 69.9548 59.5467C70.4533 60.0838 71.1528 60.059 71.6293 59.6156Z" fill="#228B22" stroke="white" stroke-width="0.275404" stroke-miterlimit="10"/>
<path d="M70.6758 53.8715L71.3753 53.0783L75.6441 56.8321L74.9445 57.6252L70.6758 53.8715Z" fill="#228B22" stroke="white" stroke-width="0.275404" stroke-miterlimit="10"/>
<path d="M73.1942 53.149L73.7945 52.2898L75.7003 53.6227C76.3007 54.0414 76.7414 53.9642 77.0746 53.485C77.5042 52.8709 77.2233 52.1493 77.2233 52.1493L74.9843 50.585L75.5902 49.7175L79.1291 52.1906L78.6003 52.948L78.066 52.7139C78.1982 53.2482 78.1129 53.7687 77.7796 54.2451C77.204 55.0686 76.163 55.2228 75.3093 54.6252L73.1914 53.1463L73.1942 53.149Z" fill="#228B22" stroke="white" stroke-width="0.275404" stroke-miterlimit="10"/>
<path d="M77.0574 49.2517L76.1734 48.7532L76.3028 48.5219L75.5234 47.9821L75.9999 47.1366L76.8206 47.5993L77.1759 46.9686L78.0599 47.4671L77.7046 48.0978L79.1395 48.9075C79.5471 49.1361 79.7784 49.0837 79.9905 48.7092L80.0759 48.555L80.9599 49.0507L80.8029 49.3261C80.3265 50.1716 79.5498 50.3506 78.619 49.8273L77.1841 49.0176L77.0547 49.249L77.0574 49.2517Z" fill="#228B22" stroke="white" stroke-width="0.275404" stroke-miterlimit="10"/>
<path d="M76.7533 44.8721C76.8883 44.5857 77.238 44.4672 77.5244 44.6022C77.8109 44.7371 77.9403 45.0814 77.8054 45.3678C77.6704 45.6542 77.3179 45.7809 77.0315 45.646C76.7451 45.511 76.6184 45.1585 76.7533 44.8721ZM77.7062 45.9076L78.1579 44.9519L82.0603 46.7999L81.6087 47.7556L77.7062 45.9076Z" fill="#228B22" stroke="white" stroke-width="0.275404" stroke-miterlimit="10"/>
<path d="M79.3893 41.766C79.7914 40.6175 80.9977 39.9758 82.2204 40.4082C83.435 40.8351 83.9748 42.0909 83.5699 43.2366C83.1596 44.4016 81.9588 45.035 80.7443 44.6081C79.5215 44.1785 78.9789 42.9309 79.3893 41.7687V41.766ZM82.5977 42.8924C82.8071 42.2947 82.5509 41.642 81.8597 41.3997C81.1767 41.1601 80.5708 41.5071 80.3587 42.1047C80.1411 42.7189 80.4 43.3716 81.0803 43.6112C81.7715 43.8535 82.3774 43.5065 82.595 42.8924H82.5977Z" fill="#228B22" stroke="white" stroke-width="0.275404" stroke-miterlimit="10"/>
<path d="M85.5059 35.2731L85.3048 36.3031L83.0548 35.8652C82.3277 35.7247 81.9559 35.9754 81.8458 36.5454C81.7026 37.2808 82.2258 37.8233 82.2258 37.8233L84.9083 38.3466L84.7072 39.3849L80.4688 38.5586L80.6533 37.6057L81.2316 37.6278C80.9011 37.2037 80.7855 36.6969 80.8956 36.1351C81.0884 35.1491 81.978 34.5873 82.9997 34.7856L85.5086 35.2758L85.5059 35.2731Z" fill="#228B22" stroke="white" stroke-width="0.275404" stroke-miterlimit="10"/>
<path d="M84.7187 30.042C85.4844 30.0888 85.947 30.736 85.8837 31.7467C85.8176 32.8098 85.0685 33.479 84.19 33.4515L84.2561 32.3967C84.6113 32.3746 84.8316 32.0799 84.8592 31.6668C84.8785 31.3419 84.7876 31.105 84.5948 31.094C84.1211 31.0637 84.3277 33.3991 82.7 33.2972C81.9619 33.2504 81.3946 32.5536 81.458 31.5429C81.5185 30.568 82.2015 29.9566 83.1517 29.9896L83.0856 31.0527C82.7138 31.0912 82.5045 31.3006 82.4852 31.6421C82.4632 31.9753 82.5706 32.2397 82.7909 32.2535C83.4243 32.292 83.182 29.9456 84.7215 30.042H84.7187Z" fill="#228B22" stroke="white" stroke-width="0.275404" stroke-miterlimit="10"/>
<path d="M58.0542 17.3342C62.6948 24.3102 56.4844 33.0432 56.4844 33.0432C75.972 19.5154 53.8957 1 53.8957 1C45.6528 11.5893 50.4669 16.0426 54.3914 21.4212C57.6935 25.9488 56.5203 30.862 56.5203 30.862C60.4558 24.4616 58.0542 17.337 58.0542 17.337V17.3342Z" fill="#228B22" stroke="white" stroke-width="0.275404" stroke-miterlimit="10"/>
<path d="M37.8006 39.7268C37.3957 38.1625 36.1537 37.1903 34.5343 37.1903C32.5376 37.1903 30.9182 38.5921 30.9182 40.8064C30.9182 43.0206 32.5376 44.45 34.5343 44.45C36.1812 44.45 37.4233 43.4778 37.8529 41.8309H41.1192C40.797 45.2597 37.9355 47.6061 34.5343 47.6061C30.7558 47.6061 27.707 44.7722 27.707 40.8312C27.707 36.8901 30.7558 34.0314 34.5343 34.0314C37.9631 34.0314 40.8218 36.433 41.0917 39.6717L37.7978 39.7268H37.8006Z" fill="#094C31" stroke="white" stroke-width="0.275404" stroke-miterlimit="10"/>
<path d="M51.9962 34.167H55.235V47.3919L52.2661 46.0838L52.0238 45.8827C50.9166 47.0174 49.4322 47.6095 47.8955 47.6095C44.2794 47.6095 41.418 44.7756 41.418 40.8346C41.418 36.8935 44.2794 34.0349 47.8955 34.0349C49.435 34.0349 50.8919 34.6297 51.999 35.7341V34.1698L51.9962 34.167ZM48.2452 37.1359C46.221 37.1359 44.5741 38.5652 44.5741 40.8318C44.5741 43.0984 46.221 44.5029 48.2452 44.5029C50.2694 44.5029 51.9962 43.0736 51.9962 40.8318C51.9962 38.59 50.3218 37.1359 48.2452 37.1359Z" fill="#094C31" stroke="white" stroke-width="0.275404" stroke-miterlimit="10"/>
<path d="M68.7302 47.3915L65.519 46.0833V40.3769C65.519 38.1104 64.5468 37.1382 62.765 37.1382C60.4708 37.1382 59.1489 39.0275 59.1489 39.0275V46.0833L55.9102 47.3915V34.1666H58.879L59.1489 35.9209C60.2285 34.6788 61.6854 34.0316 63.4397 34.0316C66.516 34.0316 68.7302 36.3808 68.7302 39.5645V47.3915Z" fill="#094C31" stroke="white" stroke-width="0.275404" stroke-miterlimit="10"/>
<path d="M24.7012 25.791H18.8598V29.8394H27.0917V32.8082H15.6211V15.8076H26.8218V18.7764H18.8598V22.8249H26.0121L24.7039 25.7937L24.7012 25.791Z" fill="#228B22" stroke="white" stroke-width="0.275404" stroke-miterlimit="10"/>
<path d="M37.2107 25.1425C36.8059 23.5782 35.5638 22.606 33.9444 22.606C31.9478 22.606 30.3284 24.0078 30.3284 26.222C30.3284 28.4363 31.9478 29.8656 33.9444 29.8656C35.5914 29.8656 36.8334 28.8935 37.2631 27.2465H40.5293C40.2071 30.6753 37.3457 33.0218 33.9444 33.0218C30.1659 33.0218 27.1172 30.1879 27.1172 26.2468C27.1172 22.3058 30.1659 19.4471 33.9444 19.4471C37.3732 19.4471 40.2319 21.8486 40.5018 25.0874L37.208 25.1425H37.2107Z" fill="#228B22" stroke="white" stroke-width="0.275404" stroke-miterlimit="10"/>
<path d="M47.6827 19.4535C51.4062 19.4535 54.4824 22.2874 54.4824 26.2532C54.4824 30.2191 51.4062 33.0282 47.6827 33.0282C43.9593 33.0282 40.8555 30.1943 40.8555 26.2532C40.8555 22.3122 43.9042 19.4535 47.6827 19.4535ZM47.6827 29.8693C49.6243 29.8693 51.2437 28.4647 51.2437 26.2257C51.2437 23.9867 49.6243 22.6096 47.6827 22.6096C45.7411 22.6096 44.0667 24.0115 44.0667 26.2257C44.0667 28.4399 45.686 29.8693 47.6827 29.8693Z" fill="#228B22" stroke="white" stroke-width="0.275404" stroke-miterlimit="10"/>
</svg>
