<svg width="61" height="54" viewBox="0 0 61 54" fill="none" xmlns="http://www.w3.org/2000/svg">
<g filter="url(#filter0_f_242_15235)">
<ellipse cx="24.0131" cy="8.37636" rx="24.0131" ry="8.37636" transform="matrix(0.974587 -0.224008 0.224 0.974589 10.1094 33.7024)" fill="url(#paint0_radial_242_15235)"/>
</g>
<ellipse cx="17.5375" cy="5.98573" rx="17.5375" ry="5.98573" transform="matrix(0.992386 -0.123165 0.12316 0.992387 12.5391 36.0085)" fill="url(#paint1_radial_242_15235)"/>
<g filter="url(#filter1_f_242_15235)">
<ellipse cx="16.8442" cy="5.98573" rx="16.8442" ry="5.98573" transform="matrix(0.992386 -0.123165 0.12316 0.992387 13.918 35.8398)" fill="url(#paint2_radial_242_15235)"/>
</g>
<mask id="mask0_242_15235" style="mask-type:alpha" maskUnits="userSpaceOnUse" x="0" y="0" width="47" height="46">
<ellipse cx="23.6034" cy="22.9358" rx="22.9354" ry="22.9358" fill="url(#paint3_radial_242_15235)"/>
</mask>
<g mask="url(#mask0_242_15235)">
<ellipse cx="23.6034" cy="22.9358" rx="22.9354" ry="22.9358" fill="url(#paint4_radial_242_15235)"/>
<g filter="url(#filter2_f_242_15235)">
<ellipse cx="13.3561" cy="10.4231" rx="19.6139" ry="19.0199" fill="#D7D96A" fill-opacity="0.13"/>
</g>
<g filter="url(#filter3_f_242_15235)">
<ellipse cx="37.485" cy="39.7198" rx="19.6139" ry="19.0199" fill="#1B2372" fill-opacity="0.43"/>
</g>
<g filter="url(#filter4_f_242_15235)">
<path d="M46.7483 25.1405C46.9573 25.8592 49.2105 36.5674 37.4832 45.559C32.8249 49.1306 19.4419 46.2776 19.2328 45.559C19.0238 44.8403 30.1061 43.5311 36.1896 39.6502C45.5731 33.6641 46.5393 24.4218 46.7483 25.1405Z" fill="#51779F" fill-opacity="0.61"/>
</g>
<g filter="url(#filter5_f_242_15235)">
<ellipse cx="1.77983" cy="3.72652" rx="1.77983" ry="3.72652" transform="matrix(0.7071 0.707113 -0.7071 0.707113 14.7695 5.26868)" fill="#E3F7FF"/>
</g>
<g filter="url(#filter6_f_242_15235)">
<ellipse cx="0.939273" cy="1.9666" rx="0.939273" ry="1.9666" transform="matrix(0.7071 0.707113 -0.7071 0.707113 14.1211 7.1062)" fill="#E2F7FF"/>
</g>
<g filter="url(#filter7_f_242_15235)">
<path d="M42.6928 8.81238C44.5924 19.1848 39.1127 42.2371 10.5273 43.4958" stroke="#010E1B" stroke-width="1.39851"/>
</g>
<g filter="url(#filter8_f_242_15235)">
<path d="M33.6542 -0.504028C14.4249 -7.0771 -7.95113 13.5162 4.04099 36.9765" stroke="#FCFFDD" stroke-width="1.39851"/>
</g>
<g filter="url(#filter9_f_242_15235)">
<path d="M40.3867 7.58423C47.0296 13.458 50.1412 23.6673 41.6104 37.3029" stroke="#A1A0DB" stroke-opacity="0.65" stroke-width="1.39851"/>
</g>
</g>
<path d="M30.4614 17.948V12.5048H27.5192V17.948C26.1952 18.5365 25.3125 19.787 25.3125 21.3317V31.6297H32.6681V21.3317C32.6681 19.8605 31.7854 18.5365 30.4614 17.948Z" stroke="white" stroke-width="1.47114" stroke-miterlimit="10" stroke-linecap="round" stroke-linejoin="round"/>
<path d="M30.4614 22.8029H25.3125V27.9519H30.4614V22.8029Z" stroke="white" stroke-width="1.47114" stroke-miterlimit="10" stroke-linecap="round" stroke-linejoin="round"/>
<path d="M27.5195 14.7115H30.4618" stroke="white" stroke-width="1.47114" stroke-miterlimit="10" stroke-linecap="round" stroke-linejoin="round"/>
<path d="M16.117 19.8606H20.4568L21.3395 22.1409C21.8544 23.4649 21.4866 25.0096 20.4568 25.9659C19.2063 27.1428 17.2939 27.1428 16.0434 25.9659C15.0136 25.0096 14.6459 23.4649 15.1608 22.1409L16.117 19.8606Z" stroke="white" stroke-width="1.47114" stroke-miterlimit="10" stroke-linecap="round" stroke-linejoin="round"/>
<path d="M18.3226 29.2023C18.3226 30.3792 17.5135 31.3354 16.4102 31.6297H20.1615" stroke="white" stroke-width="1.47114" stroke-miterlimit="10" stroke-linecap="round" stroke-linejoin="round"/>
<path d="M18.3242 26.8485V28.3197V29.2024C18.3242 30.3793 19.1333 31.3355 20.2367 31.6298" stroke="white" stroke-width="1.47114" stroke-miterlimit="10" stroke-linecap="round" stroke-linejoin="round"/>
<defs>
<filter id="filter0_f_242_15235" x="10.2319" y="25.031" width="50.3135" height="22.9115" filterUnits="userSpaceOnUse" color-interpolation-filters="sRGB">
<feFlood flood-opacity="0" result="BackgroundImageFix"/>
<feBlend mode="normal" in="SourceGraphic" in2="BackgroundImageFix" result="shape"/>
<feGaussianBlur stdDeviation="0.839107" result="effect1_foregroundBlur_242_15235"/>
</filter>
<filter id="filter1_f_242_15235" x="7.22461" y="25.9995" width="48.293" height="27.4118" filterUnits="userSpaceOnUse" color-interpolation-filters="sRGB">
<feFlood flood-opacity="0" result="BackgroundImageFix"/>
<feBlend mode="normal" in="SourceGraphic" in2="BackgroundImageFix" result="shape"/>
<feGaussianBlur stdDeviation="3.70606" result="effect1_foregroundBlur_242_15235"/>
</filter>
<filter id="filter2_f_242_15235" x="-20.8723" y="-23.2113" width="68.4555" height="67.2688" filterUnits="userSpaceOnUse" color-interpolation-filters="sRGB">
<feFlood flood-opacity="0" result="BackgroundImageFix"/>
<feBlend mode="normal" in="SourceGraphic" in2="BackgroundImageFix" result="shape"/>
<feGaussianBlur stdDeviation="7.30723" result="effect1_foregroundBlur_242_15235"/>
</filter>
<filter id="filter3_f_242_15235" x="3.25664" y="6.08538" width="68.4555" height="67.2688" filterUnits="userSpaceOnUse" color-interpolation-filters="sRGB">
<feFlood flood-opacity="0" result="BackgroundImageFix"/>
<feBlend mode="normal" in="SourceGraphic" in2="BackgroundImageFix" result="shape"/>
<feGaussianBlur stdDeviation="7.30723" result="effect1_foregroundBlur_242_15235"/>
</filter>
<filter id="filter4_f_242_15235" x="15.7342" y="21.6047" width="34.8168" height="29.2101" filterUnits="userSpaceOnUse" color-interpolation-filters="sRGB">
<feFlood flood-opacity="0" result="BackgroundImageFix"/>
<feBlend mode="normal" in="SourceGraphic" in2="BackgroundImageFix" result="shape"/>
<feGaussianBlur stdDeviation="1.74814" result="effect1_foregroundBlur_242_15235"/>
</filter>
<filter id="filter5_f_242_15235" x="5.92749" y="1.69629" width="14.9302" height="14.932" filterUnits="userSpaceOnUse" color-interpolation-filters="sRGB">
<feFlood flood-opacity="0" result="BackgroundImageFix"/>
<feBlend mode="normal" in="SourceGraphic" in2="BackgroundImageFix" result="shape"/>
<feGaussianBlur stdDeviation="2.27258" result="effect1_foregroundBlur_242_15235"/>
</filter>
<filter id="filter6_f_242_15235" x="11.5719" y="7.3398" width="3.64534" height="3.64229" filterUnits="userSpaceOnUse" color-interpolation-filters="sRGB">
<feFlood flood-opacity="0" result="BackgroundImageFix"/>
<feBlend mode="normal" in="SourceGraphic" in2="BackgroundImageFix" result="shape"/>
<feGaussianBlur stdDeviation="0.139851" result="effect1_foregroundBlur_242_15235"/>
</filter>
<filter id="filter7_f_242_15235" x="2.94413" y="1.13444" width="48.3383" height="50.6119" filterUnits="userSpaceOnUse" color-interpolation-filters="sRGB">
<feFlood flood-opacity="0" result="BackgroundImageFix"/>
<feBlend mode="normal" in="SourceGraphic" in2="BackgroundImageFix" result="shape"/>
<feGaussianBlur stdDeviation="3.77598" result="effect1_foregroundBlur_242_15235"/>
</filter>
<filter id="filter8_f_242_15235" x="-4.71627" y="-7.12862" width="43.2802" height="49.1083" filterUnits="userSpaceOnUse" color-interpolation-filters="sRGB">
<feFlood flood-opacity="0" result="BackgroundImageFix"/>
<feBlend mode="normal" in="SourceGraphic" in2="BackgroundImageFix" result="shape"/>
<feGaussianBlur stdDeviation="2.34251" result="effect1_foregroundBlur_242_15235"/>
</filter>
<filter id="filter9_f_242_15235" x="34.3978" y="1.5363" width="18.6264" height="41.6615" filterUnits="userSpaceOnUse" color-interpolation-filters="sRGB">
<feFlood flood-opacity="0" result="BackgroundImageFix"/>
<feBlend mode="normal" in="SourceGraphic" in2="BackgroundImageFix" result="shape"/>
<feGaussianBlur stdDeviation="2.76206" result="effect1_foregroundBlur_242_15235"/>
</filter>
<radialGradient id="paint0_radial_242_15235" cx="0" cy="0" r="1" gradientUnits="userSpaceOnUse" gradientTransform="translate(11.2033 12.5246) rotate(-11.829) scale(33.4001 103.015)">
<stop stop-color="#093041"/>
<stop offset="1" stop-color="#4E6A76" stop-opacity="0"/>
</radialGradient>
<radialGradient id="paint1_radial_242_15235" cx="0" cy="0" r="1" gradientUnits="userSpaceOnUse" gradientTransform="translate(8.18214 8.95002) rotate(-8.58885) scale(21.6622 65.5476)">
<stop stop-color="#000D12"/>
<stop offset="1" stop-color="#082430" stop-opacity="0"/>
</radialGradient>
<radialGradient id="paint2_radial_242_15235" cx="0" cy="0" r="1" gradientUnits="userSpaceOnUse" gradientTransform="translate(7.85868 8.95002) rotate(-8.40557) scale(24.7978 77.9776)">
<stop stop-color="#228B22"/>
<stop offset="0.0001" stop-color="#082430" stop-opacity="0"/>
<stop offset="1" stop-color="#4AC63F" stop-opacity="0.81"/>
</radialGradient>
<radialGradient id="paint3_radial_242_15235" cx="0" cy="0" r="1" gradientUnits="userSpaceOnUse" gradientTransform="translate(13.4992 9.82464) rotate(49.1619) scale(43.9488 45.4575)">
<stop stop-color="#B9EBFF"/>
<stop offset="0.156338" stop-color="#7DCCED"/>
<stop offset="0.519012" stop-color="#4290AF"/>
<stop offset="0.710329" stop-color="#156282"/>
<stop offset="1" stop-color="#1B7398"/>
</radialGradient>
<radialGradient id="paint4_radial_242_15235" cx="0" cy="0" r="1" gradientUnits="userSpaceOnUse" gradientTransform="translate(13.4992 9.82464) rotate(49.1619) scale(43.9488 45.4575)">
<stop stop-color="#D8FFB9"/>
<stop offset="0.156338" stop-color="#A1FD92"/>
<stop offset="0.519012" stop-color="#4AC63F"/>
<stop offset="0.710329" stop-color="#4AC63F"/>
<stop offset="1" stop-color="#228B22"/>
</radialGradient>
</defs>
</svg>
