<svg width="130" height="144" viewBox="0 0 130 144" fill="none" xmlns="http://www.w3.org/2000/svg">
<rect width="32" height="32" fill="#228B22"/>
<path d="M40.7585 11.2727H43.0341L45.4375 17.1364H45.5398L47.9432 11.2727H50.2188V20H48.429V14.3196H48.3565L46.098 19.9574H44.8793L42.6207 14.2983H42.5483V20H40.7585V11.2727ZM54.6623 20.1278C54.0004 20.1278 53.4279 19.9872 52.945 19.706C52.4648 19.4219 52.0941 19.027 51.8327 18.5213C51.5714 18.0128 51.4407 17.4233 51.4407 16.7528C51.4407 16.0767 51.5714 15.4858 51.8327 14.9801C52.0941 14.4716 52.4648 14.0767 52.945 13.7955C53.4279 13.5114 54.0004 13.3693 54.6623 13.3693C55.3242 13.3693 55.8952 13.5114 56.3754 13.7955C56.8583 14.0767 57.2305 14.4716 57.4918 14.9801C57.7532 15.4858 57.8839 16.0767 57.8839 16.7528C57.8839 17.4233 57.7532 18.0128 57.4918 18.5213C57.2305 19.027 56.8583 19.4219 56.3754 19.706C55.8952 19.9872 55.3242 20.1278 54.6623 20.1278ZM54.6708 18.7216C54.9719 18.7216 55.2234 18.6364 55.4251 18.4659C55.6268 18.2926 55.7788 18.0568 55.881 17.7585C55.9862 17.4602 56.0387 17.1207 56.0387 16.7401C56.0387 16.3594 55.9862 16.0199 55.881 15.7216C55.7788 15.4233 55.6268 15.1875 55.4251 15.0142C55.2234 14.8409 54.9719 14.7543 54.6708 14.7543C54.3668 14.7543 54.1112 14.8409 53.9038 15.0142C53.6992 15.1875 53.5444 15.4233 53.4393 15.7216C53.337 16.0199 53.2859 16.3594 53.2859 16.7401C53.2859 17.1207 53.337 17.4602 53.4393 17.7585C53.5444 18.0568 53.6992 18.2926 53.9038 18.4659C54.1112 18.6364 54.3668 18.7216 54.6708 18.7216ZM60.8796 16.2159V20H59.0643V13.4545H60.7944V14.6094H60.8711C61.016 14.2287 61.2589 13.9276 61.5998 13.706C61.9407 13.4815 62.354 13.3693 62.8398 13.3693C63.2944 13.3693 63.6907 13.4688 64.0288 13.6676C64.3668 13.8665 64.6296 14.1506 64.8171 14.5199C65.0046 14.8864 65.0984 15.3239 65.0984 15.8324V20H63.283V16.1562C63.2859 15.7557 63.1836 15.4432 62.9762 15.2188C62.7688 14.9915 62.4833 14.8778 62.1197 14.8778C61.8754 14.8778 61.6594 14.9304 61.4719 15.0355C61.2873 15.1406 61.1424 15.294 61.0373 15.4957C60.935 15.6946 60.8825 15.9347 60.8796 16.2159ZM69.5121 20.1278C68.8388 20.1278 68.2592 19.9915 67.7734 19.7188C67.2905 19.4432 66.9183 19.054 66.657 18.5511C66.3956 18.0455 66.2649 17.4474 66.2649 16.7571C66.2649 16.0838 66.3956 15.4929 66.657 14.9844C66.9183 14.4759 67.2862 14.0795 67.7607 13.7955C68.2379 13.5114 68.7976 13.3693 69.4396 13.3693C69.8714 13.3693 70.2734 13.4389 70.6456 13.5781C71.0206 13.7145 71.3473 13.9205 71.6257 14.196C71.907 14.4716 72.1257 14.8182 72.282 15.2358C72.4382 15.6506 72.5163 16.1364 72.5163 16.6932V17.1918H66.9893V16.0668H70.8075C70.8075 15.8054 70.7507 15.5739 70.6371 15.3722C70.5234 15.1705 70.3658 15.0128 70.1641 14.8991C69.9652 14.7827 69.7337 14.7244 69.4695 14.7244C69.1939 14.7244 68.9496 14.7884 68.7365 14.9162C68.5263 15.0412 68.3615 15.2102 68.2422 15.4233C68.1229 15.6335 68.0618 15.8679 68.0589 16.1264V17.196C68.0589 17.5199 68.1186 17.7997 68.2379 18.0355C68.3601 18.2713 68.532 18.4531 68.7536 18.581C68.9751 18.7088 69.2379 18.7727 69.5419 18.7727C69.7436 18.7727 69.9283 18.7443 70.0959 18.6875C70.2635 18.6307 70.407 18.5455 70.5263 18.4318C70.6456 18.3182 70.7365 18.179 70.799 18.0142L72.478 18.125C72.3928 18.5284 72.218 18.8807 71.9538 19.1818C71.6925 19.4801 71.3544 19.7131 70.9396 19.8807C70.5277 20.0455 70.0518 20.1278 69.5121 20.1278ZM77.1825 13.4545V14.8182H73.2408V13.4545H77.1825ZM74.1357 11.8864H75.951V17.9886C75.951 18.1562 75.9766 18.2869 76.0277 18.3807C76.0788 18.4716 76.1499 18.5355 76.2408 18.5724C76.3345 18.6094 76.4425 18.6278 76.5646 18.6278C76.6499 18.6278 76.7351 18.6207 76.8203 18.6065C76.9055 18.5895 76.9709 18.5767 77.0163 18.5682L77.3018 19.919C77.2109 19.9474 77.0831 19.9801 76.9183 20.017C76.7536 20.0568 76.5533 20.081 76.3175 20.0895C75.88 20.1065 75.4964 20.0483 75.1669 19.9148C74.8402 19.7812 74.5859 19.5739 74.4041 19.2926C74.2223 19.0114 74.1328 18.6562 74.1357 18.2273V11.8864ZM80.2315 20.1236C79.8139 20.1236 79.4418 20.0511 79.1151 19.9062C78.7884 19.7585 78.5298 19.5412 78.3395 19.2543C78.152 18.9645 78.0582 18.6037 78.0582 18.1719C78.0582 17.8082 78.125 17.5028 78.2585 17.2557C78.392 17.0085 78.5739 16.8097 78.804 16.6591C79.0341 16.5085 79.2955 16.3949 79.5881 16.3182C79.8835 16.2415 80.1932 16.1875 80.517 16.1562C80.8977 16.1165 81.2045 16.0795 81.4375 16.0455C81.6705 16.0085 81.8395 15.9545 81.9446 15.8835C82.0497 15.8125 82.1023 15.7074 82.1023 15.5682V15.5426C82.1023 15.2727 82.017 15.0639 81.8466 14.9162C81.679 14.7685 81.4403 14.6946 81.1307 14.6946C80.804 14.6946 80.544 14.767 80.3509 14.9119C80.1577 15.054 80.0298 15.233 79.9673 15.4489L78.2884 15.3125C78.3736 14.9148 78.5412 14.571 78.7912 14.2812C79.0412 13.9886 79.3636 13.7642 79.7585 13.608C80.1563 13.4489 80.6165 13.3693 81.1392 13.3693C81.5028 13.3693 81.8509 13.4119 82.1832 13.4972C82.5185 13.5824 82.8153 13.7145 83.0739 13.8935C83.3352 14.0724 83.5412 14.3026 83.6918 14.5838C83.8423 14.8622 83.9176 15.196 83.9176 15.5852V20H82.196V19.0923H82.1449C82.0398 19.2969 81.8991 19.4773 81.723 19.6335C81.5469 19.7869 81.3352 19.9077 81.0881 19.9957C80.8409 20.081 80.5554 20.1236 80.2315 20.1236ZM80.7514 18.8707C81.0185 18.8707 81.2543 18.8182 81.4588 18.7131C81.6634 18.6051 81.8239 18.4602 81.9403 18.2784C82.0568 18.0966 82.1151 17.8906 82.1151 17.6605V16.9659C82.0582 17.0028 81.9801 17.0369 81.8807 17.0682C81.7841 17.0966 81.6747 17.1236 81.5526 17.1491C81.4304 17.1719 81.3082 17.1932 81.1861 17.2131C81.0639 17.2301 80.9531 17.2457 80.8537 17.2599C80.6406 17.2912 80.4545 17.3409 80.2955 17.4091C80.1364 17.4773 80.0128 17.5696 79.9247 17.6861C79.8366 17.7997 79.7926 17.9418 79.7926 18.1122C79.7926 18.3594 79.8821 18.5483 80.0611 18.679C80.2429 18.8068 80.473 18.8707 80.7514 18.8707ZM85.326 20V13.4545H87.0859V14.5966H87.1541C87.2734 14.1903 87.4737 13.8835 87.755 13.6761C88.0362 13.4659 88.3601 13.3608 88.7266 13.3608C88.8175 13.3608 88.9155 13.3665 89.0206 13.3778C89.1257 13.3892 89.218 13.4048 89.2976 13.4247V15.0355C89.2124 15.0099 89.0945 14.9872 88.9439 14.9673C88.7933 14.9474 88.6555 14.9375 88.5305 14.9375C88.2635 14.9375 88.0249 14.9957 87.8146 15.1122C87.6072 15.2259 87.4425 15.3849 87.3203 15.5895C87.201 15.794 87.1413 16.0298 87.1413 16.2969V20H85.326ZM91.5561 22.4545C91.326 22.4545 91.1101 22.4361 90.9084 22.3991C90.7095 22.3651 90.5447 22.321 90.4141 22.267L90.8232 20.9119C91.0362 20.9773 91.228 21.0128 91.3984 21.0185C91.5717 21.0241 91.7209 20.9844 91.8459 20.8991C91.9737 20.8139 92.0774 20.669 92.157 20.4645L92.2635 20.1875L89.9155 13.4545H91.8246L93.1797 18.2614H93.2479L94.6158 13.4545H96.5376L93.9936 20.7074C93.8714 21.0597 93.7053 21.3665 93.495 21.6278C93.2876 21.892 93.0249 22.0952 92.7067 22.2372C92.3885 22.3821 92.005 22.4545 91.5561 22.4545ZM103.764 13.4545V14.8182H99.7241V13.4545H103.764ZM100.649 20V12.9815C100.649 12.5071 100.741 12.1136 100.926 11.8011C101.113 11.4886 101.369 11.2543 101.693 11.098C102.017 10.9418 102.385 10.8636 102.797 10.8636C103.075 10.8636 103.329 10.8849 103.559 10.9276C103.792 10.9702 103.966 11.0085 104.079 11.0426L103.755 12.4062C103.684 12.3835 103.596 12.3622 103.491 12.3423C103.389 12.3224 103.284 12.3125 103.176 12.3125C102.909 12.3125 102.723 12.375 102.618 12.5C102.512 12.6222 102.46 12.794 102.46 13.0156V20H100.649ZM106.688 11.2727V20H104.873V11.2727H106.688ZM111.1 20.1278C110.438 20.1278 109.865 19.9872 109.382 19.706C108.902 19.4219 108.532 19.027 108.27 18.5213C108.009 18.0128 107.878 17.4233 107.878 16.7528C107.878 16.0767 108.009 15.4858 108.27 14.9801C108.532 14.4716 108.902 14.0767 109.382 13.7955C109.865 13.5114 110.438 13.3693 111.1 13.3693C111.762 13.3693 112.333 13.5114 112.813 13.7955C113.296 14.0767 113.668 14.4716 113.929 14.9801C114.191 15.4858 114.321 16.0767 114.321 16.7528C114.321 17.4233 114.191 18.0128 113.929 18.5213C113.668 19.027 113.296 19.4219 112.813 19.706C112.333 19.9872 111.762 20.1278 111.1 20.1278ZM111.108 18.7216C111.409 18.7216 111.661 18.6364 111.863 18.4659C112.064 18.2926 112.216 18.0568 112.319 17.7585C112.424 17.4602 112.476 17.1207 112.476 16.7401C112.476 16.3594 112.424 16.0199 112.319 15.7216C112.216 15.4233 112.064 15.1875 111.863 15.0142C111.661 14.8409 111.409 14.7543 111.108 14.7543C110.804 14.7543 110.549 14.8409 110.341 15.0142C110.137 15.1875 109.982 15.4233 109.877 15.7216C109.775 16.0199 109.723 16.3594 109.723 16.7401C109.723 17.1207 109.775 17.4602 109.877 17.7585C109.982 18.0568 110.137 18.2926 110.341 18.4659C110.549 18.6364 110.804 18.7216 111.108 18.7216ZM116.629 20L114.848 13.4545H116.684L117.699 17.8523H117.758L118.815 13.4545H120.618L121.691 17.8267H121.747L122.744 13.4545H124.576L122.799 20H120.877L119.752 15.8835H119.672L118.547 20H116.629Z" fill="black"/>
<rect y="56" width="32" height="32" fill="#FFC525"/>
<path d="M43.8523 76H40.7585V67.2727H43.8778C44.7557 67.2727 45.5114 67.4474 46.1449 67.7969C46.7784 68.1435 47.2656 68.642 47.6065 69.2926C47.9503 69.9432 48.1222 70.7216 48.1222 71.6278C48.1222 72.5369 47.9503 73.3182 47.6065 73.9716C47.2656 74.625 46.7756 75.1264 46.1364 75.4759C45.5 75.8253 44.7386 76 43.8523 76ZM42.6037 74.419H43.7756C44.321 74.419 44.7798 74.3224 45.152 74.1293C45.527 73.9332 45.8082 73.6307 45.9957 73.2216C46.1861 72.8097 46.2812 72.2784 46.2812 71.6278C46.2812 70.983 46.1861 70.456 45.9957 70.0469C45.8082 69.6378 45.5284 69.3366 45.1562 69.1435C44.7841 68.9503 44.3253 68.8537 43.7798 68.8537H42.6037V74.419ZM51.3214 76.1236C50.9038 76.1236 50.5316 76.0511 50.2049 75.9062C49.8782 75.7585 49.6197 75.5412 49.4293 75.2543C49.2418 74.9645 49.1481 74.6037 49.1481 74.1719C49.1481 73.8082 49.2148 73.5028 49.3484 73.2557C49.4819 73.0085 49.6637 72.8097 49.8938 72.6591C50.1239 72.5085 50.3853 72.3949 50.6779 72.3182C50.9734 72.2415 51.283 72.1875 51.6069 72.1562C51.9876 72.1165 52.2944 72.0795 52.5273 72.0455C52.7603 72.0085 52.9293 71.9545 53.0344 71.8835C53.1396 71.8125 53.1921 71.7074 53.1921 71.5682V71.5426C53.1921 71.2727 53.1069 71.0639 52.9364 70.9162C52.7688 70.7685 52.5302 70.6946 52.2205 70.6946C51.8938 70.6946 51.6339 70.767 51.4407 70.9119C51.2475 71.054 51.1197 71.233 51.0572 71.4489L49.3782 71.3125C49.4634 70.9148 49.631 70.571 49.881 70.2812C50.131 69.9886 50.4535 69.7642 50.8484 69.608C51.2461 69.4489 51.7063 69.3693 52.229 69.3693C52.5927 69.3693 52.9407 69.4119 53.2731 69.4972C53.6083 69.5824 53.9052 69.7145 54.1637 69.8935C54.4251 70.0724 54.631 70.3026 54.7816 70.5838C54.9322 70.8622 55.0075 71.196 55.0075 71.5852V76H53.2859V75.0923H53.2347C53.1296 75.2969 52.989 75.4773 52.8129 75.6335C52.6367 75.7869 52.4251 75.9077 52.1779 75.9957C51.9308 76.081 51.6452 76.1236 51.3214 76.1236ZM51.8413 74.8707C52.1083 74.8707 52.3441 74.8182 52.5487 74.7131C52.7532 74.6051 52.9137 74.4602 53.0302 74.2784C53.1467 74.0966 53.2049 73.8906 53.2049 73.6605V72.9659C53.1481 73.0028 53.07 73.0369 52.9705 73.0682C52.8739 73.0966 52.7646 73.1236 52.6424 73.1491C52.5202 73.1719 52.3981 73.1932 52.2759 73.2131C52.1538 73.2301 52.043 73.2457 51.9435 73.2599C51.7305 73.2912 51.5444 73.3409 51.3853 73.4091C51.2262 73.4773 51.1026 73.5696 51.0146 73.6861C50.9265 73.7997 50.8825 73.9418 50.8825 74.1122C50.8825 74.3594 50.9719 74.5483 51.1509 74.679C51.3327 74.8068 51.5629 74.8707 51.8413 74.8707ZM59.8974 69.4545V70.8182H55.9556V69.4545H59.8974ZM56.8505 67.8864H58.6658V73.9886C58.6658 74.1562 58.6914 74.2869 58.7425 74.3807C58.7937 74.4716 58.8647 74.5355 58.9556 74.5724C59.0494 74.6094 59.1573 74.6278 59.2795 74.6278C59.3647 74.6278 59.4499 74.6207 59.5352 74.6065C59.6204 74.5895 59.6857 74.5767 59.7312 74.5682L60.0167 75.919C59.9258 75.9474 59.7979 75.9801 59.6332 76.017C59.4684 76.0568 59.2681 76.081 59.0323 76.0895C58.5948 76.1065 58.2113 76.0483 57.8817 75.9148C57.555 75.7812 57.3008 75.5739 57.119 75.2926C56.9371 75.0114 56.8477 74.6562 56.8505 74.2273V67.8864ZM62.9464 76.1236C62.5288 76.1236 62.1566 76.0511 61.8299 75.9062C61.5032 75.7585 61.2447 75.5412 61.0543 75.2543C60.8668 74.9645 60.7731 74.6037 60.7731 74.1719C60.7731 73.8082 60.8398 73.5028 60.9734 73.2557C61.1069 73.0085 61.2887 72.8097 61.5188 72.6591C61.7489 72.5085 62.0103 72.3949 62.3029 72.3182C62.5984 72.2415 62.908 72.1875 63.2319 72.1562C63.6126 72.1165 63.9194 72.0795 64.1523 72.0455C64.3853 72.0085 64.5543 71.9545 64.6594 71.8835C64.7646 71.8125 64.8171 71.7074 64.8171 71.5682V71.5426C64.8171 71.2727 64.7319 71.0639 64.5614 70.9162C64.3938 70.7685 64.1552 70.6946 63.8455 70.6946C63.5188 70.6946 63.2589 70.767 63.0657 70.9119C62.8725 71.054 62.7447 71.233 62.6822 71.4489L61.0032 71.3125C61.0884 70.9148 61.256 70.571 61.506 70.2812C61.756 69.9886 62.0785 69.7642 62.4734 69.608C62.8711 69.4489 63.3313 69.3693 63.854 69.3693C64.2177 69.3693 64.5657 69.4119 64.8981 69.4972C65.2333 69.5824 65.5302 69.7145 65.7887 69.8935C66.0501 70.0724 66.256 70.3026 66.4066 70.5838C66.5572 70.8622 66.6325 71.196 66.6325 71.5852V76H64.9109V75.0923H64.8597C64.7546 75.2969 64.614 75.4773 64.4379 75.6335C64.2617 75.7869 64.0501 75.9077 63.8029 75.9957C63.5558 76.081 63.2702 76.1236 62.9464 76.1236ZM63.4663 74.8707C63.7333 74.8707 63.9691 74.8182 64.1737 74.7131C64.3782 74.6051 64.5387 74.4602 64.6552 74.2784C64.7717 74.0966 64.8299 73.8906 64.8299 73.6605V72.9659C64.7731 73.0028 64.695 73.0369 64.5955 73.0682C64.4989 73.0966 64.3896 73.1236 64.2674 73.1491C64.1452 73.1719 64.0231 73.1932 63.9009 73.2131C63.7788 73.2301 63.668 73.2457 63.5685 73.2599C63.3555 73.2912 63.1694 73.3409 63.0103 73.4091C62.8512 73.4773 62.7276 73.5696 62.6396 73.6861C62.5515 73.7997 62.5075 73.9418 62.5075 74.1122C62.5075 74.3594 62.5969 74.5483 62.7759 74.679C62.9577 74.8068 63.1879 74.8707 63.4663 74.8707ZM74.3381 69.4545V70.8182H70.2983V69.4545H74.3381ZM71.223 76V68.9815C71.223 68.5071 71.3153 68.1136 71.5 67.8011C71.6875 67.4886 71.9432 67.2543 72.267 67.098C72.5909 66.9418 72.9588 66.8636 73.3707 66.8636C73.6491 66.8636 73.9034 66.8849 74.1335 66.9276C74.3665 66.9702 74.5398 67.0085 74.6534 67.0426L74.3295 68.4062C74.2585 68.3835 74.1705 68.3622 74.0653 68.3423C73.9631 68.3224 73.858 68.3125 73.75 68.3125C73.483 68.3125 73.2969 68.375 73.1918 68.5C73.0866 68.6222 73.0341 68.794 73.0341 69.0156V76H71.223ZM77.2624 67.2727V76H75.4471V67.2727H77.2624ZM81.674 76.1278C81.0121 76.1278 80.4396 75.9872 79.9567 75.706C79.4766 75.4219 79.1058 75.027 78.8445 74.5213C78.5831 74.0128 78.4524 73.4233 78.4524 72.7528C78.4524 72.0767 78.5831 71.4858 78.8445 70.9801C79.1058 70.4716 79.4766 70.0767 79.9567 69.7955C80.4396 69.5114 81.0121 69.3693 81.674 69.3693C82.3359 69.3693 82.907 69.5114 83.3871 69.7955C83.87 70.0767 84.2422 70.4716 84.5036 70.9801C84.7649 71.4858 84.8956 72.0767 84.8956 72.7528C84.8956 73.4233 84.7649 74.0128 84.5036 74.5213C84.2422 75.027 83.87 75.4219 83.3871 75.706C82.907 75.9872 82.3359 76.1278 81.674 76.1278ZM81.6825 74.7216C81.9837 74.7216 82.2351 74.6364 82.4368 74.4659C82.6385 74.2926 82.7905 74.0568 82.8928 73.7585C82.9979 73.4602 83.0504 73.1207 83.0504 72.7401C83.0504 72.3594 82.9979 72.0199 82.8928 71.7216C82.7905 71.4233 82.6385 71.1875 82.4368 71.0142C82.2351 70.8409 81.9837 70.7543 81.6825 70.7543C81.3786 70.7543 81.1229 70.8409 80.9155 71.0142C80.7109 71.1875 80.5561 71.4233 80.451 71.7216C80.3487 72.0199 80.2976 72.3594 80.2976 72.7401C80.2976 73.1207 80.3487 73.4602 80.451 73.7585C80.5561 74.0568 80.7109 74.2926 80.9155 74.4659C81.1229 74.6364 81.3786 74.7216 81.6825 74.7216ZM87.2031 76L85.4219 69.4545H87.2585L88.2727 73.8523H88.3324L89.3892 69.4545H91.1918L92.2656 73.8267H92.321L93.3182 69.4545H95.1506L93.3736 76H91.4517L90.3267 71.8835H90.2457L89.1207 76H87.2031Z" fill="black"/>
<rect y="112" width="32" height="32" fill="#4AC63F"/>
<path d="M40.7585 132V123.273H44.2017C44.8636 123.273 45.4276 123.399 45.8935 123.652C46.3594 123.902 46.7145 124.25 46.9588 124.696C47.206 125.139 47.3295 125.651 47.3295 126.23C47.3295 126.81 47.2045 127.321 46.9545 127.764C46.7045 128.207 46.3423 128.553 45.8679 128.8C45.3963 129.047 44.8253 129.17 44.1548 129.17H41.9602V127.692H43.8565C44.2116 127.692 44.5043 127.631 44.7344 127.509C44.9673 127.384 45.1406 127.212 45.2543 126.993C45.3707 126.771 45.429 126.517 45.429 126.23C45.429 125.94 45.3707 125.687 45.2543 125.472C45.1406 125.253 44.9673 125.084 44.7344 124.964C44.5014 124.842 44.206 124.781 43.848 124.781H42.6037V132H40.7585ZM50.1847 132.124C49.767 132.124 49.3949 132.051 49.0682 131.906C48.7415 131.759 48.483 131.541 48.2926 131.254C48.1051 130.964 48.0114 130.604 48.0114 130.172C48.0114 129.808 48.0781 129.503 48.2116 129.256C48.3452 129.009 48.527 128.81 48.7571 128.659C48.9872 128.509 49.2486 128.395 49.5412 128.318C49.8366 128.241 50.1463 128.188 50.4702 128.156C50.8509 128.116 51.1577 128.08 51.3906 128.045C51.6236 128.009 51.7926 127.955 51.8977 127.884C52.0028 127.812 52.0554 127.707 52.0554 127.568V127.543C52.0554 127.273 51.9702 127.064 51.7997 126.916C51.6321 126.768 51.3935 126.695 51.0838 126.695C50.7571 126.695 50.4972 126.767 50.304 126.912C50.1108 127.054 49.983 127.233 49.9205 127.449L48.2415 127.312C48.3267 126.915 48.4943 126.571 48.7443 126.281C48.9943 125.989 49.3168 125.764 49.7116 125.608C50.1094 125.449 50.5696 125.369 51.0923 125.369C51.456 125.369 51.804 125.412 52.1364 125.497C52.4716 125.582 52.7685 125.714 53.027 125.893C53.2884 126.072 53.4943 126.303 53.6449 126.584C53.7955 126.862 53.8707 127.196 53.8707 127.585V132H52.1491V131.092H52.098C51.9929 131.297 51.8523 131.477 51.6761 131.634C51.5 131.787 51.2884 131.908 51.0412 131.996C50.794 132.081 50.5085 132.124 50.1847 132.124ZM50.7045 130.871C50.9716 130.871 51.2074 130.818 51.4119 130.713C51.6165 130.605 51.777 130.46 51.8935 130.278C52.0099 130.097 52.0682 129.891 52.0682 129.661V128.966C52.0114 129.003 51.9332 129.037 51.8338 129.068C51.7372 129.097 51.6278 129.124 51.5057 129.149C51.3835 129.172 51.2614 129.193 51.1392 129.213C51.017 129.23 50.9062 129.246 50.8068 129.26C50.5938 129.291 50.4077 129.341 50.2486 129.409C50.0895 129.477 49.9659 129.57 49.8778 129.686C49.7898 129.8 49.7457 129.942 49.7457 130.112C49.7457 130.359 49.8352 130.548 50.0142 130.679C50.196 130.807 50.4261 130.871 50.7045 130.871ZM58.2365 132.128C57.5661 132.128 56.9893 131.986 56.5064 131.702C56.0263 131.415 55.657 131.017 55.3984 130.509C55.1428 130 55.0149 129.415 55.0149 128.753C55.0149 128.082 55.1442 127.494 55.4027 126.989C55.6641 126.48 56.0348 126.084 56.5149 125.8C56.995 125.513 57.5661 125.369 58.228 125.369C58.799 125.369 59.299 125.473 59.728 125.68C60.157 125.888 60.4964 126.179 60.7464 126.554C60.9964 126.929 61.1342 127.369 61.1598 127.875H59.4467C59.3984 127.548 59.2706 127.286 59.0632 127.087C58.8587 126.885 58.5902 126.784 58.2578 126.784C57.9766 126.784 57.7308 126.861 57.5206 127.014C57.3132 127.165 57.1513 127.385 57.0348 127.675C56.9183 127.964 56.8601 128.315 56.8601 128.727C56.8601 129.145 56.9169 129.5 57.0305 129.793C57.147 130.085 57.3104 130.308 57.5206 130.462C57.7308 130.615 57.9766 130.692 58.2578 130.692C58.4652 130.692 58.6513 130.649 58.8161 130.564C58.9837 130.479 59.1214 130.355 59.2294 130.193C59.3402 130.028 59.4126 129.831 59.4467 129.601H61.1598C61.1314 130.101 60.995 130.541 60.7507 130.922C60.5092 131.3 60.1754 131.595 59.7493 131.808C59.3232 132.021 58.8189 132.128 58.2365 132.128ZM63.967 130.116L63.9712 127.939H64.2354L66.332 125.455H68.4158L65.5991 128.744H65.1687L63.967 130.116ZM62.3221 132V123.273H64.1374V132H62.3221ZM66.413 132L64.4869 129.149L65.6971 127.866L68.5394 132H66.413ZM71.1729 132.124C70.7553 132.124 70.3832 132.051 70.0565 131.906C69.7298 131.759 69.4712 131.541 69.2809 131.254C69.0934 130.964 68.9996 130.604 68.9996 130.172C68.9996 129.808 69.0664 129.503 69.1999 129.256C69.3335 129.009 69.5153 128.81 69.7454 128.659C69.9755 128.509 70.2369 128.395 70.5295 128.318C70.8249 128.241 71.1346 128.188 71.4585 128.156C71.8391 128.116 72.146 128.08 72.3789 128.045C72.6119 128.009 72.7809 127.955 72.886 127.884C72.9911 127.812 73.0437 127.707 73.0437 127.568V127.543C73.0437 127.273 72.9585 127.064 72.788 126.916C72.6204 126.768 72.3817 126.695 72.0721 126.695C71.7454 126.695 71.4854 126.767 71.2923 126.912C71.0991 127.054 70.9712 127.233 70.9087 127.449L69.2298 127.312C69.315 126.915 69.4826 126.571 69.7326 126.281C69.9826 125.989 70.305 125.764 70.6999 125.608C71.0977 125.449 71.5579 125.369 72.0806 125.369C72.4442 125.369 72.7923 125.412 73.1246 125.497C73.4599 125.582 73.7567 125.714 74.0153 125.893C74.2766 126.072 74.4826 126.303 74.6332 126.584C74.7837 126.862 74.859 127.196 74.859 127.585V132H73.1374V131.092H73.0863C72.9812 131.297 72.8406 131.477 72.6644 131.634C72.4883 131.787 72.2766 131.908 72.0295 131.996C71.7823 132.081 71.4968 132.124 71.1729 132.124ZM71.6928 130.871C71.9599 130.871 72.1957 130.818 72.4002 130.713C72.6048 130.605 72.7653 130.46 72.8817 130.278C72.9982 130.097 73.0565 129.891 73.0565 129.661V128.966C72.9996 129.003 72.9215 129.037 72.8221 129.068C72.7255 129.097 72.6161 129.124 72.494 129.149C72.3718 129.172 72.2496 129.193 72.1275 129.213C72.0053 129.23 71.8945 129.246 71.7951 129.26C71.582 129.291 71.396 129.341 71.2369 129.409C71.0778 129.477 70.9542 129.57 70.8661 129.686C70.7781 129.8 70.734 129.942 70.734 130.112C70.734 130.359 70.8235 130.548 71.0025 130.679C71.1843 130.807 71.4144 130.871 71.6928 130.871ZM79.2163 134.591C78.6282 134.591 78.1239 134.51 77.7035 134.348C77.2859 134.189 76.9535 133.972 76.7063 133.696C76.4592 133.42 76.2987 133.111 76.2248 132.767L77.9038 132.541C77.9549 132.672 78.0359 132.794 78.1467 132.908C78.2575 133.021 78.4038 133.112 78.5856 133.18C78.7702 133.251 78.9947 133.287 79.2589 133.287C79.6538 133.287 79.979 133.19 80.2347 132.997C80.4933 132.807 80.6225 132.487 80.6225 132.038V130.841H80.5458C80.4663 131.023 80.3469 131.195 80.1879 131.357C80.0288 131.518 79.8242 131.651 79.5742 131.753C79.3242 131.855 79.0259 131.906 78.6793 131.906C78.1879 131.906 77.7404 131.793 77.337 131.565C76.9364 131.335 76.6168 130.984 76.3782 130.513C76.1424 130.038 76.0245 129.439 76.0245 128.714C76.0245 127.973 76.1452 127.354 76.3867 126.857C76.6282 126.359 76.9492 125.987 77.3498 125.74C77.7532 125.493 78.195 125.369 78.6751 125.369C79.0415 125.369 79.3484 125.432 79.5955 125.557C79.8427 125.679 80.0415 125.832 80.1921 126.017C80.3455 126.199 80.4634 126.378 80.5458 126.554H80.614V125.455H82.4165V132.064C82.4165 132.621 82.2802 133.087 82.0075 133.462C81.7347 133.837 81.3569 134.118 80.8739 134.305C80.3938 134.496 79.8413 134.591 79.2163 134.591ZM79.2546 130.543C79.5472 130.543 79.7944 130.47 79.9961 130.325C80.2006 130.178 80.3569 129.967 80.4648 129.695C80.5756 129.419 80.631 129.089 80.631 128.706C80.631 128.322 80.5771 127.99 80.4691 127.709C80.3612 127.425 80.2049 127.205 80.0004 127.048C79.7958 126.892 79.5472 126.814 79.2546 126.814C78.9563 126.814 78.7049 126.895 78.5004 127.057C78.2958 127.216 78.141 127.437 78.0359 127.722C77.9308 128.006 77.8782 128.334 77.8782 128.706C77.8782 129.084 77.9308 129.411 78.0359 129.686C78.1438 129.959 78.2987 130.17 78.5004 130.321C78.7049 130.469 78.9563 130.543 79.2546 130.543ZM83.8612 132V125.455H85.6765V132H83.8612ZM84.7731 124.611C84.5032 124.611 84.2717 124.521 84.0785 124.342C83.8881 124.161 83.793 123.943 83.793 123.69C83.793 123.44 83.8881 123.226 84.0785 123.047C84.2717 122.865 84.5032 122.774 84.7731 122.774C85.043 122.774 85.2731 122.865 85.4634 123.047C85.6566 123.226 85.7532 123.44 85.7532 123.69C85.7532 123.943 85.6566 124.161 85.4634 124.342C85.2731 124.521 85.043 124.611 84.7731 124.611ZM88.946 128.216V132H87.1307V125.455H88.8608V126.609H88.9375C89.0824 126.229 89.3253 125.928 89.6662 125.706C90.0071 125.482 90.4205 125.369 90.9062 125.369C91.3608 125.369 91.7571 125.469 92.0952 125.668C92.4332 125.866 92.696 126.151 92.8835 126.52C93.071 126.886 93.1648 127.324 93.1648 127.832V132H91.3494V128.156C91.3523 127.756 91.25 127.443 91.0426 127.219C90.8352 126.991 90.5497 126.878 90.1861 126.878C89.9418 126.878 89.7259 126.93 89.5384 127.036C89.3537 127.141 89.2088 127.294 89.1037 127.496C89.0014 127.695 88.9489 127.935 88.946 128.216ZM97.5444 134.591C96.9563 134.591 96.4521 134.51 96.0316 134.348C95.614 134.189 95.2816 133.972 95.0344 133.696C94.7873 133.42 94.6268 133.111 94.5529 132.767L96.2319 132.541C96.283 132.672 96.364 132.794 96.4748 132.908C96.5856 133.021 96.7319 133.112 96.9137 133.18C97.0984 133.251 97.3228 133.287 97.587 133.287C97.9819 133.287 98.3072 133.19 98.5629 132.997C98.8214 132.807 98.9506 132.487 98.9506 132.038V130.841H98.8739C98.7944 131.023 98.6751 131.195 98.516 131.357C98.3569 131.518 98.1523 131.651 97.9023 131.753C97.6523 131.855 97.354 131.906 97.0075 131.906C96.516 131.906 96.0685 131.793 95.6651 131.565C95.2646 131.335 94.945 130.984 94.7063 130.513C94.4705 130.038 94.3526 129.439 94.3526 128.714C94.3526 127.973 94.4734 127.354 94.7148 126.857C94.9563 126.359 95.2773 125.987 95.6779 125.74C96.0813 125.493 96.5231 125.369 97.0032 125.369C97.3697 125.369 97.6765 125.432 97.9237 125.557C98.1708 125.679 98.3697 125.832 98.5202 126.017C98.6737 126.199 98.7915 126.378 98.8739 126.554H98.9421V125.455H100.745V132.064C100.745 132.621 100.608 133.087 100.336 133.462C100.063 133.837 99.685 134.118 99.2021 134.305C98.7219 134.496 98.1694 134.591 97.5444 134.591ZM97.5827 130.543C97.8754 130.543 98.1225 130.47 98.3242 130.325C98.5288 130.178 98.685 129.967 98.793 129.695C98.9038 129.419 98.9592 129.089 98.9592 128.706C98.9592 128.322 98.9052 127.99 98.7972 127.709C98.6893 127.425 98.533 127.205 98.3285 127.048C98.1239 126.892 97.8754 126.814 97.5827 126.814C97.2844 126.814 97.033 126.895 96.8285 127.057C96.6239 127.216 96.4691 127.437 96.364 127.722C96.2589 128.006 96.2063 128.334 96.2063 128.706C96.2063 129.084 96.2589 129.411 96.364 129.686C96.4719 129.959 96.6268 130.17 96.8285 130.321C97.033 130.469 97.2844 130.543 97.5827 130.543ZM108.487 125.455V126.818H104.447V125.455H108.487ZM105.371 132V124.982C105.371 124.507 105.464 124.114 105.648 123.801C105.836 123.489 106.092 123.254 106.415 123.098C106.739 122.942 107.107 122.864 107.519 122.864C107.798 122.864 108.052 122.885 108.282 122.928C108.515 122.97 108.688 123.009 108.802 123.043L108.478 124.406C108.407 124.384 108.319 124.362 108.214 124.342C108.112 124.322 108.006 124.312 107.898 124.312C107.631 124.312 107.445 124.375 107.34 124.5C107.235 124.622 107.183 124.794 107.183 125.016V132H105.371ZM111.411 123.273V132H109.596V123.273H111.411ZM115.822 132.128C115.161 132.128 114.588 131.987 114.105 131.706C113.625 131.422 113.254 131.027 112.993 130.521C112.732 130.013 112.601 129.423 112.601 128.753C112.601 128.077 112.732 127.486 112.993 126.98C113.254 126.472 113.625 126.077 114.105 125.795C114.588 125.511 115.161 125.369 115.822 125.369C116.484 125.369 117.055 125.511 117.536 125.795C118.018 126.077 118.391 126.472 118.652 126.98C118.913 127.486 119.044 128.077 119.044 128.753C119.044 129.423 118.913 130.013 118.652 130.521C118.391 131.027 118.018 131.422 117.536 131.706C117.055 131.987 116.484 132.128 115.822 132.128ZM115.831 130.722C116.132 130.722 116.384 130.636 116.585 130.466C116.787 130.293 116.939 130.057 117.041 129.759C117.146 129.46 117.199 129.121 117.199 128.74C117.199 128.359 117.146 128.02 117.041 127.722C116.939 127.423 116.787 127.187 116.585 127.014C116.384 126.841 116.132 126.754 115.831 126.754C115.527 126.754 115.271 126.841 115.064 127.014C114.859 127.187 114.705 127.423 114.599 127.722C114.497 128.02 114.446 128.359 114.446 128.74C114.446 129.121 114.497 129.46 114.599 129.759C114.705 130.057 114.859 130.293 115.064 130.466C115.271 130.636 115.527 130.722 115.831 130.722ZM121.352 132L119.57 125.455H121.407L122.421 129.852H122.481L123.538 125.455H125.34L126.414 129.827H126.469L127.467 125.455H129.299L127.522 132H125.6L124.475 127.884H124.394L123.269 132H121.352Z" fill="black"/>
</svg>
