<svg width="60" height="54" viewBox="0 0 60 54" fill="none" xmlns="http://www.w3.org/2000/svg">
<g filter="url(#filter0_f_178_6814)">
<ellipse cx="24.0131" cy="8.37636" rx="24.0131" ry="8.37636" transform="matrix(0.974587 -0.224008 0.224 0.974589 9.44141 33.7024)" fill="url(#paint0_radial_178_6814)"/>
</g>
<ellipse cx="17.5375" cy="5.98573" rx="17.5375" ry="5.98573" transform="matrix(0.992386 -0.123165 0.12316 0.992387 11.8711 36.0085)" fill="url(#paint1_radial_178_6814)"/>
<g filter="url(#filter1_f_178_6814)">
<ellipse cx="16.8442" cy="5.98573" rx="16.8442" ry="5.98573" transform="matrix(0.992386 -0.123165 0.12316 0.992387 13.25 35.8398)" fill="url(#paint2_radial_178_6814)"/>
</g>
<mask id="mask0_178_6814" style="mask-type:alpha" maskUnits="userSpaceOnUse" x="0" y="0" width="46" height="46">
<ellipse cx="22.9354" cy="22.9358" rx="22.9354" ry="22.9358" fill="url(#paint3_radial_178_6814)"/>
</mask>
<g mask="url(#mask0_178_6814)">
<ellipse cx="22.9354" cy="22.9358" rx="22.9354" ry="22.9358" fill="url(#paint4_radial_178_6814)"/>
<g filter="url(#filter2_f_178_6814)">
<ellipse cx="12.6882" cy="10.4231" rx="19.6139" ry="19.0199" fill="#D7D96A" fill-opacity="0.13"/>
</g>
<g filter="url(#filter3_f_178_6814)">
<ellipse cx="36.8171" cy="39.7198" rx="19.6139" ry="19.0199" fill="#1B2372" fill-opacity="0.43"/>
</g>
<g filter="url(#filter4_f_178_6814)">
<path d="M46.0803 25.1405C46.2894 25.8592 48.5426 36.5674 36.8153 45.559C32.1569 49.1306 18.7739 46.2776 18.5649 45.559C18.3558 44.8403 29.4382 43.5311 35.5217 39.6502C44.9051 33.6641 45.8713 24.4218 46.0803 25.1405Z" fill="#51779F" fill-opacity="0.61"/>
</g>
<g filter="url(#filter5_f_178_6814)">
<ellipse cx="1.77983" cy="3.72652" rx="1.77983" ry="3.72652" transform="matrix(0.7071 0.707113 -0.7071 0.707113 14.1016 5.26868)" fill="#E3F7FF"/>
</g>
<g filter="url(#filter6_f_178_6814)">
<ellipse cx="0.939273" cy="1.9666" rx="0.939273" ry="1.9666" transform="matrix(0.7071 0.707113 -0.7071 0.707113 13.4531 7.10608)" fill="#E2F7FF"/>
</g>
<g filter="url(#filter7_f_178_6814)">
<path d="M42.0249 8.81238C43.9245 19.1848 38.4447 42.2371 9.85938 43.4958" stroke="#010E1B" stroke-width="1.39851"/>
</g>
<g filter="url(#filter8_f_178_6814)">
<path d="M32.9862 -0.504028C13.7569 -7.0771 -8.6191 13.5162 3.37302 36.9765" stroke="#FCFFDD" stroke-width="1.39851"/>
</g>
<g filter="url(#filter9_f_178_6814)">
<path d="M39.7188 7.58423C46.3616 13.458 49.4733 23.6673 40.9424 37.3029" stroke="#A1A0DB" stroke-opacity="0.65" stroke-width="1.39851"/>
</g>
</g>
<path d="M18.7396 31.3858V33.0189H19.0309C19.6128 33.0189 19.8068 32.7603 19.8068 32.1944C19.8068 31.6122 19.5805 31.3858 18.9986 31.3858H18.7396ZM22.4993 17.0102H23.5584V23.5108H22.2162V18.6756L20.9549 19.6055V18.0451L22.4993 17.0102ZM19.6372 11.3828L18.1496 13.9618L20.0655 15.0698L21.5531 12.4905C22.1112 11.5283 23.5016 11.5283 24.0597 12.4905L26.7355 17.1315L25.7737 17.6811L29.5976 19.8887V15.4658L28.6436 16.0157L25.9674 11.3747C24.5688 8.95709 21.0358 8.95709 19.6372 11.3828ZM32.6052 22.8721L31.1175 20.2928L29.2013 21.4004L30.6889 23.9798C31.247 24.942 30.5516 26.1628 29.4358 26.1628H24.092V25.0389L20.2595 27.2461L24.092 29.4536V28.3377H29.4358C32.2493 28.3459 34.0119 25.3138 32.6052 22.8721ZM16.1688 28.3459C13.3472 28.3459 11.5927 25.3138 12.9995 22.8721L15.6757 18.2311L14.7298 17.6811L18.5619 15.474V19.8965L17.5997 19.3469L14.9238 23.9876C14.3658 24.9498 15.0612 26.1628 16.177 26.1628H19.1519V28.3537H16.1688V28.3459ZM17.4865 30.4722H18.8528C19.225 30.4722 19.5159 30.4885 19.7259 30.5286C20.5991 30.6904 21.0358 31.3535 21.0358 32.2267C21.0358 33.4961 20.2191 33.9488 19.0469 33.9488H18.7478V35.9541H17.4865V30.4722ZM21.424 30.4722H24.5365V31.3858H22.6771V32.6957H24.4315V33.6093H22.6771V35.0242H24.6256V35.946H21.4321V30.4722H21.424ZM24.9247 30.4722H28.5627V31.4504H27.3741V35.946H26.1132V31.4504H24.9247V30.4722Z" fill="white"/>
<defs>
<filter id="filter0_f_178_6814" x="9.56397" y="25.031" width="50.3135" height="22.9115" filterUnits="userSpaceOnUse" color-interpolation-filters="sRGB">
<feFlood flood-opacity="0" result="BackgroundImageFix"/>
<feBlend mode="normal" in="SourceGraphic" in2="BackgroundImageFix" result="shape"/>
<feGaussianBlur stdDeviation="0.839107" result="effect1_foregroundBlur_178_6814"/>
</filter>
<filter id="filter1_f_178_6814" x="6.55664" y="25.9995" width="48.293" height="27.4118" filterUnits="userSpaceOnUse" color-interpolation-filters="sRGB">
<feFlood flood-opacity="0" result="BackgroundImageFix"/>
<feBlend mode="normal" in="SourceGraphic" in2="BackgroundImageFix" result="shape"/>
<feGaussianBlur stdDeviation="3.70606" result="effect1_foregroundBlur_178_6814"/>
</filter>
<filter id="filter2_f_178_6814" x="-21.5402" y="-23.2113" width="68.4555" height="67.2688" filterUnits="userSpaceOnUse" color-interpolation-filters="sRGB">
<feFlood flood-opacity="0" result="BackgroundImageFix"/>
<feBlend mode="normal" in="SourceGraphic" in2="BackgroundImageFix" result="shape"/>
<feGaussianBlur stdDeviation="7.30723" result="effect1_foregroundBlur_178_6814"/>
</filter>
<filter id="filter3_f_178_6814" x="2.58867" y="6.08538" width="68.4555" height="67.2688" filterUnits="userSpaceOnUse" color-interpolation-filters="sRGB">
<feFlood flood-opacity="0" result="BackgroundImageFix"/>
<feBlend mode="normal" in="SourceGraphic" in2="BackgroundImageFix" result="shape"/>
<feGaussianBlur stdDeviation="7.30723" result="effect1_foregroundBlur_178_6814"/>
</filter>
<filter id="filter4_f_178_6814" x="15.0662" y="21.6047" width="34.8168" height="29.2101" filterUnits="userSpaceOnUse" color-interpolation-filters="sRGB">
<feFlood flood-opacity="0" result="BackgroundImageFix"/>
<feBlend mode="normal" in="SourceGraphic" in2="BackgroundImageFix" result="shape"/>
<feGaussianBlur stdDeviation="1.74814" result="effect1_foregroundBlur_178_6814"/>
</filter>
<filter id="filter5_f_178_6814" x="5.25952" y="1.69629" width="14.9302" height="14.932" filterUnits="userSpaceOnUse" color-interpolation-filters="sRGB">
<feFlood flood-opacity="0" result="BackgroundImageFix"/>
<feBlend mode="normal" in="SourceGraphic" in2="BackgroundImageFix" result="shape"/>
<feGaussianBlur stdDeviation="2.27258" result="effect1_foregroundBlur_178_6814"/>
</filter>
<filter id="filter6_f_178_6814" x="10.9039" y="7.33968" width="3.64534" height="3.64229" filterUnits="userSpaceOnUse" color-interpolation-filters="sRGB">
<feFlood flood-opacity="0" result="BackgroundImageFix"/>
<feBlend mode="normal" in="SourceGraphic" in2="BackgroundImageFix" result="shape"/>
<feGaussianBlur stdDeviation="0.139851" result="effect1_foregroundBlur_178_6814"/>
</filter>
<filter id="filter7_f_178_6814" x="2.27616" y="1.13444" width="48.3383" height="50.6119" filterUnits="userSpaceOnUse" color-interpolation-filters="sRGB">
<feFlood flood-opacity="0" result="BackgroundImageFix"/>
<feBlend mode="normal" in="SourceGraphic" in2="BackgroundImageFix" result="shape"/>
<feGaussianBlur stdDeviation="3.77598" result="effect1_foregroundBlur_178_6814"/>
</filter>
<filter id="filter8_f_178_6814" x="-5.38423" y="-7.12862" width="43.2802" height="49.1083" filterUnits="userSpaceOnUse" color-interpolation-filters="sRGB">
<feFlood flood-opacity="0" result="BackgroundImageFix"/>
<feBlend mode="normal" in="SourceGraphic" in2="BackgroundImageFix" result="shape"/>
<feGaussianBlur stdDeviation="2.34251" result="effect1_foregroundBlur_178_6814"/>
</filter>
<filter id="filter9_f_178_6814" x="33.7298" y="1.5363" width="18.6264" height="41.6615" filterUnits="userSpaceOnUse" color-interpolation-filters="sRGB">
<feFlood flood-opacity="0" result="BackgroundImageFix"/>
<feBlend mode="normal" in="SourceGraphic" in2="BackgroundImageFix" result="shape"/>
<feGaussianBlur stdDeviation="2.76206" result="effect1_foregroundBlur_178_6814"/>
</filter>
<radialGradient id="paint0_radial_178_6814" cx="0" cy="0" r="1" gradientUnits="userSpaceOnUse" gradientTransform="translate(11.2033 12.5246) rotate(-11.829) scale(33.4001 103.015)">
<stop stop-color="#093041"/>
<stop offset="1" stop-color="#4E6A76" stop-opacity="0"/>
</radialGradient>
<radialGradient id="paint1_radial_178_6814" cx="0" cy="0" r="1" gradientUnits="userSpaceOnUse" gradientTransform="translate(8.18214 8.95002) rotate(-8.58885) scale(21.6622 65.5476)">
<stop stop-color="#000D12"/>
<stop offset="1" stop-color="#082430" stop-opacity="0"/>
</radialGradient>
<radialGradient id="paint2_radial_178_6814" cx="0" cy="0" r="1" gradientUnits="userSpaceOnUse" gradientTransform="translate(7.85868 8.95002) rotate(-8.40557) scale(24.7978 77.9776)">
<stop stop-color="#228B22"/>
<stop offset="0.0001" stop-color="#082430" stop-opacity="0"/>
<stop offset="1" stop-color="#4AC63F" stop-opacity="0.81"/>
</radialGradient>
<radialGradient id="paint3_radial_178_6814" cx="0" cy="0" r="1" gradientUnits="userSpaceOnUse" gradientTransform="translate(12.8312 9.82464) rotate(49.1619) scale(43.9488 45.4575)">
<stop stop-color="#B9EBFF"/>
<stop offset="0.156338" stop-color="#7DCCED"/>
<stop offset="0.519012" stop-color="#4290AF"/>
<stop offset="0.710329" stop-color="#156282"/>
<stop offset="1" stop-color="#1B7398"/>
</radialGradient>
<radialGradient id="paint4_radial_178_6814" cx="0" cy="0" r="1" gradientUnits="userSpaceOnUse" gradientTransform="translate(12.8312 9.82464) rotate(49.1619) scale(43.9488 45.4575)">
<stop stop-color="#D8FFB9"/>
<stop offset="0.156338" stop-color="#A1FD92"/>
<stop offset="0.519012" stop-color="#4AC63F"/>
<stop offset="0.710329" stop-color="#4AC63F"/>
<stop offset="1" stop-color="#228B22"/>
</radialGradient>
</defs>
</svg>
