<svg width="185" height="56" viewBox="0 0 185 56" fill="none" xmlns="http://www.w3.org/2000/svg">
<path d="M177.504 55.434H7.72099C3.98577 55.434 0.929688 52.3696 0.929688 48.6243V7.76649C0.929688 4.02119 3.98577 0.956855 7.72099 0.956855H177.504C181.239 0.956855 184.295 4.02119 184.295 7.76649V48.6243C184.295 52.3696 181.239 55.434 177.504 55.434Z" fill="black"/>
<path d="M177.504 0.956855H7.72099C3.98577 0.956855 0.929688 4.02119 0.929688 7.76649V48.6243C0.929688 52.3696 3.98577 55.434 7.72099 55.434H177.504C181.239 55.434 184.295 52.3696 184.295 48.6243V7.76649C184.295 4.02119 181.239 0.956855 177.504 0.956855ZM177.504 2.0464C180.649 2.0464 183.208 4.61282 183.208 7.76649V48.6243C183.208 51.7785 180.649 54.345 177.504 54.345H7.72099C4.5758 54.345 2.0163 51.7785 2.0163 48.6243V7.76649C2.0163 4.61282 4.5758 2.0464 7.72099 2.0464H177.504Z" fill="#A6A6A6"/>
<path d="M65.3374 14.9099C65.3374 16.0509 65.0004 16.9596 64.3255 17.6374C63.5589 18.4434 62.5598 18.8467 61.3315 18.8467C60.1552 18.8467 59.1551 18.4381 58.3327 17.6199C57.5088 16.8022 57.0977 15.7882 57.0977 14.5784C57.0977 13.3681 57.5088 12.3546 58.3327 11.5364C59.1551 10.7187 60.1552 10.3096 61.3315 10.3096C61.9151 10.3096 62.4739 10.424 63.0045 10.6522C63.535 10.881 63.9605 11.1848 64.2789 11.5651L63.5626 12.2838C63.0231 11.6375 62.2802 11.3145 61.3315 11.3145C60.4736 11.3145 59.7319 11.6168 59.1058 12.2216C58.4797 12.8271 58.1667 13.6122 58.1667 14.5784C58.1667 15.5446 58.4797 16.3297 59.1058 16.9352C59.7319 17.54 60.4736 17.8423 61.3315 17.8423C62.2415 17.8423 63.0002 17.5384 63.6077 16.9299C64.002 16.5334 64.23 15.9824 64.291 15.2748H61.3315V14.2932H65.2806C65.3188 14.5066 65.3374 14.7115 65.3374 14.9099Z" fill="white"/>
<path d="M65.3404 14.908H65.2046C65.2035 16.023 64.8787 16.889 64.2325 17.5392L64.231 17.5403L64.2304 17.5414C63.4882 18.3196 62.5341 18.7069 61.3345 18.7086C60.1896 18.7069 59.2314 18.3154 58.4312 17.5216C57.6328 16.7263 57.238 15.7554 57.2365 14.5765C57.238 13.397 57.6328 12.4267 58.4312 11.6319C59.2314 10.8376 60.1896 10.4455 61.3345 10.4438C61.9006 10.4438 62.4397 10.5546 62.9538 10.7753C63.4685 10.9977 63.875 11.2892 64.1779 11.6511L64.2819 11.5632L64.1859 11.4669L63.4695 12.1862L63.5656 12.2819L63.6702 12.1947C63.1055 11.5164 62.313 11.1744 61.3345 11.1764C60.4448 11.1753 59.6622 11.494 59.0149 12.1219C58.3613 12.7518 58.0328 13.581 58.0339 14.5765C58.0328 15.5719 58.3613 16.4012 59.0149 17.0311C59.6622 17.6589 60.4448 17.9776 61.3345 17.9765C62.2747 17.9782 63.0759 17.6584 63.7067 17.0243C64.128 16.6007 64.3668 16.014 64.4294 15.2845L64.4421 15.1366H61.4703V14.4275H65.2836V14.2913L65.1499 14.3153C65.1871 14.5217 65.2046 14.718 65.2046 14.908H65.3404H65.4762C65.4762 14.701 65.4571 14.4882 65.4173 14.2669L65.3972 14.1551H61.1987V15.2728V15.409H64.294V15.2728L64.1587 15.2611C64.0988 15.9464 63.8812 16.4625 63.5146 16.8317C62.931 17.4147 62.2148 17.7025 61.3345 17.7041C60.5084 17.7031 59.8075 17.4179 59.2033 16.8354C58.6048 16.2549 58.3071 15.5139 58.3056 14.5765C58.3071 13.6391 58.6048 12.898 59.2033 12.3176C59.8075 11.7351 60.5084 11.4499 61.3345 11.4488C62.253 11.451 62.9465 11.7552 63.4617 12.3697L63.5572 12.4836L64.378 11.6595L64.466 11.5712L64.3858 11.4759C64.0521 11.077 63.6075 10.7604 63.061 10.5253C62.5135 10.2895 61.9357 10.1715 61.3345 10.1715C60.127 10.1704 59.085 10.596 58.2397 11.4382C57.3913 12.2788 56.9638 13.3354 56.9648 14.5765C56.9638 15.8171 57.3913 16.8742 58.2402 17.7153C59.0849 18.557 60.127 18.982 61.3345 18.981C62.592 18.982 63.6351 18.5633 64.4267 17.7296L64.3285 17.6355L64.4245 17.7318C65.1281 17.0269 65.4772 16.0746 65.4762 14.908H65.3404Z" fill="white"/>
<path d="M71.5935 11.4934H67.8822V14.0844H71.2291V15.0663H67.8822V17.6573H71.5935V18.6611H66.8359V10.4896H71.5935V11.4934Z" fill="white"/>
<path d="M71.5926 11.4916V11.3555H67.7455V14.2188H71.0924V14.9279L67.7455 14.9283V17.7917H71.4568V18.5231H66.9709V10.624H71.4568V11.4916H71.5926V11.3555V11.4916H71.7285V10.4878V10.3516H66.6992V18.7955H71.7285V17.6555V17.5193H68.0171V15.2007H71.364V14.0826V13.9464H68.0171V11.6278H71.7285V11.4916H71.5926Z" fill="white"/>
<path d="M76.0116 18.6611H74.9637V11.4934H72.6875V10.4896H78.2877V11.4934H76.0116V18.6611Z" fill="white"/>
<path d="M76.0146 18.6593V18.5231H75.1025V11.3555H72.8263V10.624H78.1549V11.3555H75.8788V18.6593H76.0146V18.5231V18.6593H76.1504V11.6278H78.4266V10.4878V10.3516H72.5547V11.4916V11.6278H74.8309V18.7955H76.0146H76.1504V18.6593H76.0146Z" fill="white"/>
<path d="M82.3438 18.6611V10.4896H83.3905V18.6611H82.3438Z" fill="white"/>
<path d="M82.3429 18.6593H82.4787V10.624H83.2538V18.5231H82.3429V18.6593H82.4787H82.3429V18.7955H83.3897H83.5255V10.3516H82.3429H82.207V18.7955H82.3429V18.6593Z" fill="white"/>
<path d="M88.031 18.6611H86.9831V11.4934H84.707V10.4896H90.3071V11.4934H88.031V18.6611Z" fill="white"/>
<path d="M88.034 18.6593V18.5231H87.1219V11.3555H84.8459V10.624H90.1743V11.3555H87.8982V18.6593H88.034V18.5231V18.6593H88.1698V11.6278H90.446V10.4878V10.3516H84.5742V11.4916V11.6278H86.8503V18.7955H88.034H88.1698V18.6593H88.034Z" fill="white"/>
<path d="M95.7081 16.924C96.3113 17.5364 97.0493 17.8423 97.9222 17.8423C98.795 17.8423 99.5335 17.5364 100.136 16.924C100.739 16.3117 101.042 15.529 101.042 14.5784C101.042 13.6278 100.739 12.8451 100.136 12.2328C99.5335 11.6204 98.795 11.3145 97.9222 11.3145C97.0493 11.3145 96.3113 11.6204 95.7081 12.2328C95.1058 12.8451 94.8035 13.6278 94.8035 14.5784C94.8035 15.529 95.1058 16.3117 95.7081 16.924ZM100.91 17.6081C100.109 18.4343 99.1127 18.8467 97.9222 18.8467C96.7304 18.8467 95.7345 18.4343 94.9351 17.6081C94.1333 16.783 93.7344 15.7728 93.7344 14.5784C93.7344 13.384 94.1333 12.3737 94.9351 11.5487C95.7345 10.7224 96.7304 10.3096 97.9222 10.3096C99.1064 10.3096 100.1 10.7246 100.905 11.554C101.709 12.3834 102.111 13.3915 102.111 14.5784C102.111 15.7728 101.71 16.783 100.91 17.6081Z" fill="white"/>
<path d="M95.7072 16.9221L95.6106 17.0179C96.2362 17.6547 97.0167 17.9782 97.9213 17.9765C98.8253 17.9782 99.6069 17.6547 100.231 17.0179C100.861 16.3805 101.178 15.5558 101.177 14.5765C101.178 13.5971 100.861 12.7725 100.231 12.1351C99.6069 11.4983 98.8253 11.1748 97.9213 11.1764C97.0167 11.1748 96.2362 11.4983 95.6106 12.1351C94.9824 12.7725 94.6651 13.5971 94.6667 14.5765C94.6651 15.5558 94.9824 16.3805 95.6106 17.0179L95.7072 16.9221L95.8037 16.8264C95.2276 16.2384 94.9395 15.4989 94.9384 14.5765C94.9395 13.654 95.2276 12.9145 95.8037 12.3266C96.3852 11.7388 97.0797 11.4504 97.9213 11.4488C98.7622 11.4504 99.4583 11.7388 100.038 12.3266C100.616 12.9145 100.904 13.654 100.905 14.5765C100.904 15.4989 100.616 16.2384 100.038 16.8264C99.4583 17.4142 98.7622 17.7025 97.9213 17.7041C97.0797 17.7025 96.3852 17.4142 95.8037 16.8264L95.7072 16.9221ZM100.909 17.6062L100.812 17.5116C100.034 18.3117 99.0811 18.7069 97.9213 18.7086C96.7609 18.7069 95.8085 18.3117 95.0312 17.5116L95.0275 17.5073L95.0312 17.5116C94.254 16.7087 93.8704 15.7405 93.8693 14.5765C93.8704 13.4124 94.254 12.4442 95.0312 11.6414C95.8085 10.8413 96.7609 10.4455 97.9213 10.4438C99.0736 10.4455 100.024 10.8429 100.807 11.6472C101.587 12.4538 101.973 13.4205 101.974 14.5765C101.973 15.7405 101.588 16.7087 100.812 17.5116L100.909 17.6062L101.007 17.7009C101.83 16.8529 102.247 15.8011 102.246 14.5765C102.247 13.3588 101.829 12.3091 101.002 11.4574C100.174 10.6024 99.1373 10.17 97.9213 10.1715C96.6988 10.17 95.659 10.6003 94.8365 11.4521V11.4515C94.0115 12.3 93.5966 13.3518 93.5977 14.5765C93.5966 15.8011 94.0115 16.8529 94.8365 17.7014L94.8402 17.7052L94.8365 17.7009C95.659 18.5526 96.6988 18.982 97.9213 18.981C99.1432 18.982 100.183 18.5526 101.007 17.7009L100.909 17.6062Z" fill="white"/>
<path d="M103.578 18.6611V10.4896H104.853L108.813 16.8465H108.858L108.813 15.2717V10.4896H109.861V18.6611H108.768L104.624 11.9961H104.579L104.624 13.5715V18.6611H103.578Z" fill="white"/>
<path d="M103.577 18.6593H103.713V10.624H104.776L108.737 16.9809H108.857H108.997L108.948 15.2679V10.624H109.724V18.5231H108.843L104.699 11.8581H104.578H104.439L104.488 13.5719V18.5231H103.577V18.6593H103.713H103.577V18.7955H104.623H104.759V13.5675L104.714 11.9907L104.578 11.9943V12.1305H104.623V11.9943L104.508 12.0668L108.692 18.7955H109.86H109.996V10.3516H108.812H108.677V15.2715L108.722 16.8484L108.857 16.8447V16.7085H108.812V16.8447L108.928 16.7724L104.927 10.3516H103.577H103.441V18.7955H103.577V18.6593Z" fill="white"/>
<path d="M146.173 41.8115H148.708V24.7858H146.173V41.8115ZM169.002 30.9188L166.096 38.3004H166.009L162.994 30.9188H160.264L164.786 41.2359L162.208 46.9746H164.852L171.82 30.9188H169.002ZM154.629 39.8777C153.797 39.8777 152.64 39.4617 152.64 38.4318C152.64 37.1177 154.082 36.6139 155.327 36.6139C156.442 36.6139 156.965 36.8548 157.643 37.1837C157.446 38.7606 156.091 39.8777 154.629 39.8777ZM154.934 30.5464C153.099 30.5464 151.199 31.3571 150.412 33.1532L152.662 34.0949C153.143 33.1532 154.038 32.8463 154.978 32.8463C156.288 32.8463 157.621 33.6352 157.643 35.037V35.2121C157.183 34.9492 156.201 34.5551 154.999 34.5551C152.575 34.5551 150.106 35.8908 150.106 38.3881C150.106 40.6662 152.094 42.1339 154.322 42.1339C156.026 42.1339 156.965 41.3673 157.556 40.4694H157.643V41.7834H160.089V35.2556C160.089 32.2334 157.839 30.5464 154.934 30.5464ZM139.271 32.9914H135.666V27.1554H139.271C141.165 27.1554 142.241 28.7285 142.241 30.0734C142.241 31.3928 141.165 32.9914 139.271 32.9914ZM139.205 24.7858H133.133V41.8115H135.666V35.361H139.205C142.014 35.361 144.776 33.3218 144.776 30.0734C144.776 26.825 142.014 24.7858 139.205 24.7858ZM106.09 39.8809C104.339 39.8809 102.873 38.411 102.873 36.392C102.873 34.3519 104.339 32.8596 106.09 32.8596C107.818 32.8596 109.175 34.3519 109.175 36.392C109.175 38.411 107.818 39.8809 106.09 39.8809ZM109 31.8722H108.912C108.344 31.1922 107.249 30.5778 105.871 30.5778C102.982 30.5778 100.335 33.1229 100.335 36.392C100.335 39.6394 102.982 42.1627 105.871 42.1627C107.249 42.1627 108.344 41.5482 108.912 40.8465H109V41.6801C109 43.8965 107.818 45.0813 105.915 45.0813C104.361 45.0813 103.398 43.9619 103.004 43.0186L100.794 43.9401C101.429 45.476 103.114 47.363 105.915 47.363C108.891 47.363 111.407 45.6074 111.407 41.329V30.9289H109V31.8722ZM113.157 41.8115H115.696V24.7853H113.157V41.8115ZM119.438 36.1947C119.372 33.9565 121.166 32.8159 122.457 32.8159C123.465 32.8159 124.318 33.3202 124.601 34.0449L119.438 36.1947ZM127.315 34.264C126.834 32.9691 125.368 30.5778 122.37 30.5778C119.394 30.5778 116.921 32.9255 116.921 36.3702C116.921 39.6176 119.372 42.1627 122.654 42.1627C125.302 42.1627 126.834 40.539 127.469 39.5957L125.499 38.279C124.843 39.2446 123.945 39.8809 122.654 39.8809C121.363 39.8809 120.444 39.2883 119.853 38.1258L127.577 34.9221L127.315 34.264ZM65.7749 32.3551V34.8125H71.6392C71.4641 36.1947 71.0046 37.2039 70.3043 37.9061C69.4512 38.7621 68.1163 39.7053 65.7749 39.7053C62.1643 39.7053 59.3417 36.7873 59.3417 33.167C59.3417 29.5467 62.1643 26.6282 65.7749 26.6282C67.7225 26.6282 69.1445 27.3964 70.195 28.3838L71.9236 26.6506C70.4577 25.246 68.5099 24.1709 65.7749 24.1709C60.8294 24.1709 56.6719 28.2082 56.6719 33.167C56.6719 38.1258 60.8294 42.1627 65.7749 42.1627C68.4447 42.1627 70.4577 41.2854 72.033 39.6394C73.6523 38.0157 74.1558 35.7339 74.1558 33.8911C74.1558 33.3202 74.1122 32.7941 74.0242 32.3551H65.7749ZM80.823 39.8809C79.072 39.8809 77.5621 38.4327 77.5621 36.3702C77.5621 34.2858 79.072 32.8596 80.823 32.8596C82.5732 32.8596 84.0832 34.2858 84.0832 36.3702C84.0832 38.4327 82.5732 39.8809 80.823 39.8809ZM80.823 30.5778C77.6278 30.5778 75.0237 33.0132 75.0237 36.3702C75.0237 39.7053 77.6278 42.1627 80.823 42.1627C84.0175 42.1627 86.6215 39.7053 86.6215 36.3702C86.6215 33.0132 84.0175 30.5778 80.823 30.5778ZM93.4727 39.8809C91.7225 39.8809 90.2123 38.4327 90.2123 36.3702C90.2123 34.2858 91.7225 32.8596 93.4727 32.8596C95.2231 32.8596 96.7331 34.2858 96.7331 36.3702C96.7331 38.4327 95.2231 39.8809 93.4727 39.8809ZM93.4727 30.5778C90.2777 30.5778 87.6742 33.0132 87.6742 36.3702C87.6742 39.7053 90.2777 42.1627 93.4727 42.1627C96.6673 42.1627 99.2714 39.7053 99.2714 36.3702C99.2714 33.0132 96.6673 30.5778 93.4727 30.5778Z" fill="white"/>
<path d="M15.2061 45.0671L15.1052 44.9703C14.7099 44.551 14.4766 43.8998 14.4766 43.0567V43.2551V13.1347C14.4766 13.132 14.4766 13.1299 14.4766 13.1278C14.4766 13.1303 14.4766 13.1325 14.4766 13.1352V13.3342C14.4766 12.4212 14.7486 11.7334 15.2045 11.321L32.033 28.1946L15.2061 45.0671ZM14.4766 13.1261C14.4766 13.0511 14.4786 12.9782 14.4824 12.9064C14.4786 12.9777 14.4766 13.0511 14.4766 13.1261ZM14.4824 12.9032C14.4824 12.9022 14.4824 12.9011 14.4828 12.9C14.4824 12.9011 14.4824 12.9022 14.4824 12.9032ZM14.4828 12.8936C14.4828 12.8931 14.4828 12.8925 14.4828 12.892C14.4828 12.8925 14.4828 12.8931 14.4828 12.8936Z" fill="url(#paint0_linear_246_17688)"/>
<path d="M37.6399 34.0226L37.7679 33.9497L44.4137 30.1634C45.0473 29.8022 45.4696 29.3644 45.6803 28.9011C45.4701 29.3644 45.0477 29.8028 44.4137 30.164L37.7679 33.9503L37.6399 34.0226ZM37.6415 33.8231L32.0312 28.1967L37.641 22.5712L44.4137 26.4293C45.2737 26.9193 45.7566 27.5508 45.8373 28.1961C45.8373 28.1967 45.8373 28.1978 45.8373 28.1987C45.7566 28.8425 45.2737 29.4746 44.4137 29.9644L37.6415 33.8231Z" fill="url(#paint1_linear_246_17688)"/>
<path d="M16.4053 45.713C15.9352 45.713 15.525 45.5598 15.2051 45.2704L15.2056 45.2698C15.5255 45.5592 15.9363 45.713 16.4063 45.713C16.4471 45.713 16.4885 45.7119 16.5305 45.7099C16.488 45.7119 16.446 45.713 16.4053 45.713ZM16.4058 45.5135C15.9357 45.514 15.5255 45.3603 15.2056 45.0709V45.0705L32.0326 28.1979L37.6429 33.8243L17.9275 45.0566C17.382 45.3667 16.8652 45.5135 16.4058 45.5135ZM15.2009 45.2667C15.1711 45.2396 15.1419 45.2109 15.1133 45.181L15.2009 45.2667Z" fill="url(#paint2_linear_246_17688)"/>
<path d="M32.0278 28.1967L15.1992 11.3231C15.5191 11.0342 15.9287 10.881 16.3983 10.881C16.8589 10.881 17.3761 11.0283 17.9227 11.339L37.6375 22.5712L32.0278 28.1967ZM37.7644 22.4441L17.9227 11.1401C17.3761 10.8294 16.8589 10.682 16.3983 10.682C16.3961 10.682 16.3946 10.682 16.3925 10.682C16.3952 10.682 16.3972 10.682 16.4005 10.682C16.86 10.682 17.3766 10.8288 17.9227 11.1396L37.7644 22.4441Z" fill="url(#paint3_linear_246_17688)"/>
<path d="M16.5312 45.7067C16.9583 45.6822 17.4311 45.5348 17.9282 45.2523L37.642 34.0206L17.9282 45.2523C17.4315 45.5353 16.9583 45.6822 16.5312 45.7067ZM15.2058 45.2672L15.2016 45.2635C15.2031 45.2646 15.2048 45.2661 15.2058 45.2672ZM15.114 45.1778L15.1055 45.1694V45.1688C15.1087 45.172 15.1113 45.1751 15.114 45.1778Z" fill="black"/>
<path d="M37.6484 34.0226L37.7764 33.9497L37.6484 34.0226Z" fill="url(#paint4_linear_246_17688)"/>
<path d="M16.4032 45.713C15.9331 45.713 15.5224 45.5592 15.2025 45.2698L15.2019 45.2704C15.2009 45.2693 15.1992 45.2678 15.1977 45.2667L15.1101 45.181C15.1074 45.1783 15.1048 45.1752 15.1016 45.1721L15.2025 45.0709C15.5224 45.3603 15.9325 45.514 16.4026 45.5135C16.862 45.5135 17.3788 45.3667 17.9243 45.0566L37.6397 33.8243L37.766 33.951L37.6381 34.0239L17.9243 45.2555C17.4272 45.538 16.9544 45.6854 16.5273 45.7099C16.4854 45.7119 16.4439 45.713 16.4032 45.713Z" fill="url(#paint5_linear_246_17688)"/>
<path d="M15.1013 45.1696C14.706 44.7502 14.4727 44.0991 14.4727 43.2559V43.2554C14.4727 44.0991 14.706 44.7497 15.1013 45.169V45.1696Z" fill="black"/>
<path d="M15.1052 45.1697C14.7099 44.7503 14.4766 44.0997 14.4766 43.256V43.0576C14.4766 43.9008 14.7099 44.5519 15.1052 44.9712L15.2061 45.0681L15.1052 45.1697Z" fill="url(#paint6_linear_246_17688)"/>
<path d="M15.1016 45.1697L15.2025 45.0681V45.0685L15.1016 45.1697Z" fill="url(#paint7_linear_246_17688)"/>
<path d="M45.6836 28.9C45.788 28.6701 45.8406 28.434 45.8406 28.1977C45.8406 28.1973 45.8406 28.1967 45.8406 28.1967C45.8406 28.4334 45.788 28.6696 45.6836 28.9Z" fill="black"/>
<path d="M37.7748 33.9523L37.6484 33.8256L44.4206 29.967C45.2806 29.4771 45.7635 28.845 45.8442 28.2013C45.8442 28.4376 45.7916 28.6737 45.6872 28.9036C45.4765 29.3669 45.0542 29.8048 44.4206 30.166L37.7748 33.9523Z" fill="url(#paint8_linear_246_17688)"/>
<path d="M45.8395 28.1965V28.196C45.839 27.4836 45.3641 26.7713 44.4159 26.2307L37.7701 22.4444H37.7695L37.7701 22.444L44.4159 26.2302C45.3652 26.7707 45.8406 27.4841 45.8395 28.1965Z" fill="#404040"/>
<path d="M45.8447 28.1967C45.764 27.5514 45.2812 26.9198 44.4211 26.4298L37.6484 22.5718L37.7748 22.4451H37.7753L44.4211 26.2314C45.3693 26.7719 45.8442 27.4842 45.8447 28.1967Z" fill="url(#paint9_linear_246_17688)"/>
<path d="M14.4727 13.1293C14.4727 13.1287 14.4727 13.1282 14.4727 13.1276C14.4727 13.1282 14.4727 13.1287 14.4727 13.1293ZM14.4785 12.908C14.4785 12.9069 14.4785 12.9058 14.4785 12.9047C14.4785 12.9058 14.4785 12.9069 14.4785 12.908ZM14.4789 12.9016C14.4789 12.8994 14.4789 12.8973 14.4789 12.8952C14.4789 12.8973 14.4789 12.8994 14.4789 12.9016ZM14.4789 12.8935C14.5575 11.4944 15.3163 10.6862 16.3896 10.6815C15.9242 10.6842 15.5189 10.8374 15.2016 11.1241V11.1236L15.1978 11.1274C15.1644 11.1576 15.1326 11.1896 15.1013 11.2226C14.7447 11.6008 14.5198 12.1673 14.4789 12.8935Z" fill="#404040"/>
<path d="M14.4766 13.3339V13.1349C14.4766 13.1322 14.4766 13.13 14.4766 13.1274C14.4766 13.1269 14.4766 13.1263 14.4766 13.1258C14.4766 13.0507 14.4786 12.9773 14.4824 12.9061C14.4824 12.905 14.4824 12.9039 14.4824 12.9028C14.4824 12.9019 14.4824 12.9008 14.4828 12.8997C14.4828 12.8975 14.4828 12.8955 14.4828 12.8933C14.4828 12.8927 14.4828 12.8922 14.4828 12.8916C14.5237 12.1655 14.7486 11.5989 15.1052 11.2207L15.2045 11.3207C14.7486 11.7331 14.4766 12.4208 14.4766 13.3339ZM15.2017 11.1255L15.2055 11.1217C15.2045 11.1233 15.2028 11.1244 15.2017 11.1255Z" fill="url(#paint10_linear_246_17688)"/>
<path d="M37.6392 22.5686L17.9243 11.3364C17.3777 11.0257 16.8605 10.8784 16.3999 10.8784C15.9304 10.8784 15.5207 11.0316 15.2009 11.3204L15.1016 11.2205C15.1329 11.1875 15.1647 11.1555 15.1981 11.1253C15.1992 11.1242 15.2009 11.1231 15.2019 11.122C15.5192 10.8353 15.9245 10.6821 16.3899 10.6794C16.391 10.6794 16.3925 10.6794 16.3941 10.6794C16.3963 10.6794 16.3978 10.6794 16.3999 10.6794C16.8605 10.6794 17.3777 10.8267 17.9243 11.1375L37.766 22.4415L37.7655 22.4419L37.6392 22.5686Z" fill="url(#paint11_linear_246_17688)"/>
<defs>
<linearGradient id="paint0_linear_246_17688" x1="30.5408" y1="12.817" x2="7.68438" y2="35.6119" gradientUnits="userSpaceOnUse">
<stop stop-color="#00A0FF"/>
<stop offset="0.00657445" stop-color="#00A1FF"/>
<stop offset="0.2601" stop-color="#00BEFF"/>
<stop offset="0.5122" stop-color="#00D2FF"/>
<stop offset="0.7604" stop-color="#00DFFF"/>
<stop offset="1" stop-color="#00E3FF"/>
</linearGradient>
<linearGradient id="paint1_linear_246_17688" x1="46.8852" y1="28.1975" x2="14.0194" y2="28.1975" gradientUnits="userSpaceOnUse">
<stop stop-color="#FFE000"/>
<stop offset="0.4087" stop-color="#FFBD00"/>
<stop offset="0.7754" stop-color="#FFA500"/>
<stop offset="1" stop-color="#FF9C00"/>
</linearGradient>
<linearGradient id="paint2_linear_246_17688" x1="34.6521" y1="31.324" x2="3.65707" y2="62.2356" gradientUnits="userSpaceOnUse">
<stop stop-color="#FF3A44"/>
<stop offset="1" stop-color="#C31162"/>
</linearGradient>
<linearGradient id="paint3_linear_246_17688" x1="10.8374" y1="1.19699" x2="24.678" y2="15.0003" gradientUnits="userSpaceOnUse">
<stop stop-color="#32A071"/>
<stop offset="0.0685" stop-color="#2DA771"/>
<stop offset="0.4762" stop-color="#15CF74"/>
<stop offset="0.8009" stop-color="#06E775"/>
<stop offset="1" stop-color="#00F076"/>
</linearGradient>
<linearGradient id="paint4_linear_246_17688" x1="46.8933" y1="28.1974" x2="14.0288" y2="28.1974" gradientUnits="userSpaceOnUse">
<stop stop-color="#CCB300"/>
<stop offset="0.4087" stop-color="#CC9700"/>
<stop offset="0.7754" stop-color="#CC8400"/>
<stop offset="1" stop-color="#CC7D00"/>
</linearGradient>
<linearGradient id="paint5_linear_246_17688" x1="34.649" y1="31.324" x2="3.65391" y2="62.2356" gradientUnits="userSpaceOnUse">
<stop stop-color="#CC2E36"/>
<stop offset="1" stop-color="#9C0E4E"/>
</linearGradient>
<linearGradient id="paint6_linear_246_17688" x1="30.5408" y1="12.8179" x2="7.68436" y2="35.6128" gradientUnits="userSpaceOnUse">
<stop stop-color="#008DE0"/>
<stop offset="0.00657445" stop-color="#008DE0"/>
<stop offset="0.2601" stop-color="#00A7E0"/>
<stop offset="0.5122" stop-color="#00B8E0"/>
<stop offset="0.7604" stop-color="#00C4E0"/>
<stop offset="1" stop-color="#00C7E0"/>
</linearGradient>
<linearGradient id="paint7_linear_246_17688" x1="34.6492" y1="31.3223" x2="3.65561" y2="62.2342" gradientUnits="userSpaceOnUse">
<stop stop-color="#E0333C"/>
<stop offset="1" stop-color="#AB0F56"/>
</linearGradient>
<linearGradient id="paint8_linear_246_17688" x1="46.8921" y1="28.2" x2="14.0262" y2="28.2" gradientUnits="userSpaceOnUse">
<stop stop-color="#E0C500"/>
<stop offset="0.4087" stop-color="#E0A600"/>
<stop offset="0.7754" stop-color="#E09100"/>
<stop offset="1" stop-color="#E08900"/>
</linearGradient>
<linearGradient id="paint9_linear_246_17688" x1="46.8926" y1="28.198" x2="14.0268" y2="28.198" gradientUnits="userSpaceOnUse">
<stop stop-color="#FFE840"/>
<stop offset="0.4087" stop-color="#FFCE40"/>
<stop offset="0.7754" stop-color="#FFBC40"/>
<stop offset="1" stop-color="#FFB540"/>
</linearGradient>
<linearGradient id="paint10_linear_246_17688" x1="30.5408" y1="12.8166" x2="7.68435" y2="35.6115" gradientUnits="userSpaceOnUse">
<stop stop-color="#40B8FF"/>
<stop offset="0.00657445" stop-color="#40B9FF"/>
<stop offset="0.2601" stop-color="#40CEFF"/>
<stop offset="0.5122" stop-color="#40DDFF"/>
<stop offset="0.7604" stop-color="#40E7FF"/>
<stop offset="1" stop-color="#40EAFF"/>
</linearGradient>
<linearGradient id="paint11_linear_246_17688" x1="10.8391" y1="1.19437" x2="24.6796" y2="14.9976" gradientUnits="userSpaceOnUse">
<stop stop-color="#65B895"/>
<stop offset="0.0685" stop-color="#62BD95"/>
<stop offset="0.4762" stop-color="#50DB97"/>
<stop offset="0.8009" stop-color="#44ED98"/>
<stop offset="1" stop-color="#40F498"/>
</linearGradient>
</defs>
</svg>
