<svg width="32" height="32" viewBox="0 0 32 32" fill="none" xmlns="http://www.w3.org/2000/svg">
<g clip-path="url(#clip0_3282_11813)">
<path d="M8.10163 29.049H15.2016V20.849H5.15163C5.15163 20.849 4.80163 23.699 4.80163 24.699C4.65163 28.999 8.10163 29.049 8.10163 29.049Z" fill="#228B22"/>
<path d="M9.75 17.3979L13 19.2979L8.7 11.6979L0 11.7479L3.25 13.6479L0.65 18.1479C0.4 18.5979 0.1 19.3479 0.5 19.9979L4.95 27.6479C5.75 29.0479 7.15 28.9979 8.15 28.9979C8.15 28.9979 3.6 28.0479 6.5 23.0479L9.75 17.3979Z" fill="#4AC63F"/>
<path d="M31.2477 16.3479L27.6977 10.1979L20.5977 14.2979L25.5977 22.9979C25.5977 22.9979 28.2477 21.8479 29.0977 21.3979C32.8977 19.3479 31.2477 16.3479 31.2477 16.3479Z" fill="#228B22"/>
<path d="M20.2977 20.749V16.999L15.8477 24.499L20.2977 31.999V28.249H25.4977C26.0477 28.249 26.7977 28.099 27.1977 27.449L31.6477 19.799C32.4477 18.399 31.7477 17.249 31.2477 16.349C31.2477 16.349 32.6977 20.749 26.8977 20.749H20.2977Z" fill="#4AC63F"/>
<path d="M8.99922 2.05036L5.44922 8.20036L12.5492 12.3004L17.5492 3.60036C17.5492 3.60036 15.2492 1.85036 14.3992 1.35036C10.7992 -0.849641 8.99922 2.05036 8.99922 2.05036Z" fill="#228B22"/>
<path d="M18.3 9.35L15.05 11.25L23.75 11.35L28.05 3.75L24.8 5.65L22.2 1.15C21.9 0.6 21.4 0 20.65 0H11.8C10.2 0 9.5 1.2 9 2.05C9 2.05 12.1 -1.4 15 3.6L18.3 9.35Z" fill="#4AC63F"/>
</g>
<defs>
<clipPath id="clip0_3282_11813">
<rect width="32" height="32" fill="white"/>
</clipPath>
</defs>
</svg>
