<svg width="163" height="163" viewBox="0 0 163 163" fill="none" xmlns="http://www.w3.org/2000/svg">
<path d="M21.2654 69.4719L13.6199 82.7055C10.9809 87.2851 10.9809 92.9127 13.6199 97.4923L35.4697 135.37C32.8307 130.79 32.8307 125.164 35.4697 120.584L44.4735 104.982L53.9042 88.3717L58.7554 91.1665C59.5704 91.6317 60.5018 90.7393 60.0361 89.8856L45.6766 64.8922L16.8411 64.9698C15.9097 64.9698 15.5604 66.2117 16.3754 66.6774L21.2654 69.4719Z" fill="url(#paint0_linear_2660_10686)"/>
<path d="M44.5183 104.982L35.5144 120.584C32.8754 125.162 32.8754 130.79 35.5144 135.37C38.1535 139.988 43.0823 142.821 48.438 142.821H68.2694V105.137L44.5183 104.982Z" fill="url(#paint1_linear_2660_10686)"/>
<path d="M45.6766 64.8525L16.8411 64.9302C15.9097 64.9302 15.5604 66.172 16.3754 66.6378L21.2266 69.432L13.6199 82.7049C10.9809 87.2845 10.9809 92.9121 13.6199 97.491L24.5254 116.353C21.8864 111.773 21.8864 106.146 24.5254 101.566L32.1321 88.3712L45.6766 64.8525Z" fill="url(#paint2_linear_2660_10686)"/>
<path d="M68.2269 123.922H48.3951C43.8156 123.922 39.5465 121.826 36.7522 118.333L35.4715 120.584C32.8324 125.164 32.8324 130.791 35.4715 135.37C38.1494 139.989 43.0781 142.822 48.4339 142.822H68.2656V123.922H68.2269Z" fill="url(#paint3_linear_2660_10686)"/>
<path d="M123.882 38.4624L116.237 25.2284C113.598 20.6877 108.708 17.8546 103.43 17.8546H59.6914C64.9696 17.8546 69.8594 20.6877 72.4987 25.2672L81.5024 40.8687L91.1662 57.3627L86.3149 60.157C85.4999 60.6227 85.8103 61.8646 86.7802 61.8646L115.616 61.9422L129.975 36.9489C130.441 36.1339 129.51 35.2024 128.695 35.6681L123.882 38.4624Z" fill="url(#paint4_linear_2660_10686)"/>
<path d="M81.5054 40.8687L72.5017 25.2672C69.8631 20.6877 64.9728 17.8546 59.6947 17.8546C54.339 17.8546 49.4102 20.6877 46.7711 25.306L36.8359 42.4987L69.4747 61.3601L81.5054 40.8687Z" fill="url(#paint5_linear_2660_10686)"/>
<path d="M115.658 61.9422L130.017 36.9489C130.483 36.1339 129.552 35.2024 128.737 35.6681L123.885 38.4624L116.24 25.2284C113.601 20.6877 108.711 17.8546 103.433 17.8546H81.6602C86.9386 17.8546 91.8286 20.6877 94.4679 25.2672L102.075 38.4624L115.658 61.9422Z" fill="url(#paint6_linear_2660_10686)"/>
<path d="M53.2523 51.9681L63.1488 34.8144C65.4385 30.8558 69.3585 28.2167 73.8213 27.5181L72.5404 25.2672C69.8631 20.6877 64.9728 17.8546 59.6947 17.8546C54.339 17.8546 49.4102 20.6877 46.7711 25.306L36.8359 42.4987L53.2523 51.9681Z" fill="url(#paint7_linear_2660_10686)"/>
<path d="M99.3905 142.821H114.643C119.921 142.821 124.811 139.988 127.45 135.408L149.3 97.5306C146.661 102.11 141.771 104.943 136.493 104.943H118.485L99.3518 105.059V99.471C99.3518 98.5392 98.1103 98.1901 97.6444 99.0051L83.168 123.921L97.6444 148.836C98.1103 149.651 99.3518 149.302 99.3518 148.371L99.3905 142.821Z" fill="url(#paint8_linear_2660_10686)"/>
<path d="M118.529 104.981H136.537C141.815 104.981 146.705 102.148 149.344 97.5684C152.022 92.95 152.022 87.245 149.344 82.6267L139.447 65.4733L106.809 84.3348L118.529 104.981Z" fill="url(#paint9_linear_2660_10686)"/>
<path d="M83.207 123.997L97.6828 148.913C98.1487 149.728 99.3902 149.378 99.3902 148.447V142.82H114.642C119.921 142.82 124.811 139.987 127.45 135.407L138.355 116.546C135.716 121.125 130.826 123.958 125.548 123.958H110.296L83.207 123.997Z" fill="url(#paint10_linear_2660_10686)"/>
<path d="M123.066 74.9426L132.963 92.0963C135.253 96.0552 135.563 100.79 133.933 104.981H136.534C141.811 104.981 146.701 102.148 149.341 97.5684C152.019 92.95 152.019 87.245 149.341 82.6267L139.444 65.4733L123.066 74.9426Z" fill="url(#paint11_linear_2660_10686)"/>
<path opacity="0.5" d="M123.882 38.4624L116.237 25.2284C113.598 20.6877 108.708 17.8546 103.43 17.8546H59.6914C64.9696 17.8546 69.8594 20.6877 72.4987 25.2672L81.5024 40.8687L91.1662 57.3627L86.3149 60.157C85.4999 60.6227 85.8103 61.8646 86.7802 61.8646L115.616 61.9422L129.975 36.9489C130.441 36.1339 129.51 35.2024 128.695 35.6681L123.882 38.4624Z" fill="url(#paint12_radial_2660_10686)"/>
<path opacity="0.5" d="M81.5 40.8687L72.4963 25.2672C69.857 20.6877 64.9673 17.8546 59.6892 17.8546C54.3335 17.8546 49.4047 20.6877 46.7656 25.306C72.535 25.2284 69.5079 61.3213 69.5079 61.3213L81.5 40.8687Z" fill="url(#paint13_linear_2660_10686)"/>
<path opacity="0.5" d="M44.5183 104.982L35.5144 120.584C32.8754 125.162 32.8754 130.79 35.5144 135.37C38.1535 139.988 43.0823 142.821 48.438 142.821C35.5144 120.544 68.2694 105.137 68.2694 105.137L44.5183 104.982Z" fill="url(#paint14_linear_2660_10686)"/>
<path opacity="0.5" d="M99.3905 142.821H114.643C119.921 142.821 124.811 139.988 127.45 135.408L149.3 97.5306C146.661 102.11 141.771 104.943 136.493 104.943H118.485L99.3518 105.059V99.471C99.3518 98.5392 98.1103 98.1901 97.6444 99.0051L83.168 123.921L97.6444 148.836C98.1103 149.651 99.3518 149.302 99.3518 148.371L99.3905 142.821Z" fill="url(#paint15_linear_2660_10686)"/>
<defs>
<linearGradient id="paint0_linear_2660_10686" x1="34.7519" y1="26.7425" x2="36.911" y2="146.111" gradientUnits="userSpaceOnUse">
<stop offset="0.2544" stop-color="#90D856"/>
<stop offset="0.736" stop-color="#00CC00"/>
</linearGradient>
<linearGradient id="paint1_linear_2660_10686" x1="178.688" y1="123.901" x2="40.2615" y2="123.901" gradientUnits="userSpaceOnUse">
<stop stop-color="#00CC00"/>
<stop offset="0.1878" stop-color="#06C102"/>
<stop offset="0.5185" stop-color="#17A306"/>
<stop offset="0.9507" stop-color="#33740C"/>
<stop offset="1" stop-color="#366E0D"/>
</linearGradient>
<linearGradient id="paint2_linear_2660_10686" x1="29.4609" y1="63.9033" x2="24.5258" y2="147.184" gradientUnits="userSpaceOnUse">
<stop stop-color="#90D856"/>
<stop offset="1" stop-color="#00CC00"/>
</linearGradient>
<linearGradient id="paint3_linear_2660_10686" x1="166.654" y1="130.58" x2="29.9729" y2="130.58" gradientUnits="userSpaceOnUse">
<stop stop-color="#00CC00"/>
<stop offset="0.1878" stop-color="#06C102"/>
<stop offset="0.5185" stop-color="#17A306"/>
<stop offset="0.9507" stop-color="#33740C"/>
<stop offset="1" stop-color="#366E0D"/>
</linearGradient>
<linearGradient id="paint4_linear_2660_10686" x1="154.187" y1="71.5352" x2="49.7347" y2="13.7209" gradientUnits="userSpaceOnUse">
<stop offset="0.2544" stop-color="#90D856"/>
<stop offset="0.736" stop-color="#00CC00"/>
</linearGradient>
<linearGradient id="paint5_linear_2660_10686" x1="-1.91449" y1="147.599" x2="67.2989" y2="27.7218" gradientUnits="userSpaceOnUse">
<stop stop-color="#00CC00"/>
<stop offset="0.1878" stop-color="#06C102"/>
<stop offset="0.5185" stop-color="#17A306"/>
<stop offset="0.9507" stop-color="#33740C"/>
<stop offset="1" stop-color="#366E0D"/>
</linearGradient>
<linearGradient id="paint6_linear_2660_10686" x1="124.654" y1="48.3726" x2="55.0006" y2="2.45844" gradientUnits="userSpaceOnUse">
<stop stop-color="#90D856"/>
<stop offset="1" stop-color="#00CC00"/>
</linearGradient>
<linearGradient id="paint7_linear_2660_10686" x1="-1.68256" y1="133.843" x2="66.6583" y2="15.4766" gradientUnits="userSpaceOnUse">
<stop stop-color="#00CC00"/>
<stop offset="0.1878" stop-color="#06C102"/>
<stop offset="0.5185" stop-color="#17A306"/>
<stop offset="0.9507" stop-color="#33740C"/>
<stop offset="1" stop-color="#366E0D"/>
</linearGradient>
<linearGradient id="paint8_linear_2660_10686" x1="55.6161" y1="152.563" x2="157.91" y2="91.0079" gradientUnits="userSpaceOnUse">
<stop offset="0.2544" stop-color="#90D856"/>
<stop offset="0.736" stop-color="#00CC00"/>
</linearGradient>
<linearGradient id="paint9_linear_2660_10686" x1="73.0832" y1="-20.6284" x2="156.364" y2="136.988" gradientUnits="userSpaceOnUse">
<stop stop-color="#00CC00"/>
<stop offset="0.1878" stop-color="#06C102"/>
<stop offset="0.5185" stop-color="#17A306"/>
<stop offset="0.9507" stop-color="#33740C"/>
<stop offset="1" stop-color="#366E0D"/>
</linearGradient>
<linearGradient id="paint10_linear_2660_10686" x1="47.8855" y1="159.882" x2="122.474" y2="122.516" gradientUnits="userSpaceOnUse">
<stop stop-color="#90D856"/>
<stop offset="1" stop-color="#00CC00"/>
</linearGradient>
<linearGradient id="paint11_linear_2660_10686" x1="86.0634" y1="-13.0017" x2="175.821" y2="159.42" gradientUnits="userSpaceOnUse">
<stop stop-color="#00CC00"/>
<stop offset="0.1878" stop-color="#06C102"/>
<stop offset="0.5185" stop-color="#17A306"/>
<stop offset="0.9507" stop-color="#33740C"/>
<stop offset="1" stop-color="#366E0D"/>
</linearGradient>
<radialGradient id="paint12_radial_2660_10686" cx="0" cy="0" r="1" gradientUnits="userSpaceOnUse" gradientTransform="translate(100.726 26.2377) rotate(160.731) scale(30.2603 15.5437)">
<stop stop-color="#FBE07A" stop-opacity="0.75"/>
<stop offset="0.0803394" stop-color="#FBE387" stop-opacity="0.6897"/>
<stop offset="0.5173" stop-color="#FDF2C7" stop-opacity="0.362"/>
<stop offset="0.8357" stop-color="#FFFBF0" stop-opacity="0.1233"/>
<stop offset="1" stop-color="white" stop-opacity="0"/>
</radialGradient>
<linearGradient id="paint13_linear_2660_10686" x1="71.4001" y1="7.14857" x2="59.6019" y2="49.2516" gradientUnits="userSpaceOnUse">
<stop stop-color="#3C2200"/>
<stop offset="0.2217" stop-color="#3B2D02" stop-opacity="0.7783"/>
<stop offset="0.6109" stop-color="#394A07" stop-opacity="0.3891"/>
<stop offset="1" stop-color="#366E0D" stop-opacity="0"/>
</linearGradient>
<linearGradient id="paint14_linear_2660_10686" x1="20.3329" y1="130.627" x2="62.6931" y2="119.793" gradientUnits="userSpaceOnUse">
<stop stop-color="#3C2200"/>
<stop offset="0.2217" stop-color="#3B2D02" stop-opacity="0.7783"/>
<stop offset="0.6109" stop-color="#394A07" stop-opacity="0.3891"/>
<stop offset="1" stop-color="#366E0D" stop-opacity="0"/>
</linearGradient>
<linearGradient id="paint15_linear_2660_10686" x1="149.87" y1="162.348" x2="113.55" y2="108.448" gradientUnits="userSpaceOnUse">
<stop stop-color="#3C2200"/>
<stop offset="0.2217" stop-color="#3B2D02" stop-opacity="0.7783"/>
<stop offset="0.6109" stop-color="#394A07" stop-opacity="0.3891"/>
<stop offset="1" stop-color="#366E0D" stop-opacity="0"/>
</linearGradient>
</defs>
</svg>
