<svg width="32" height="32" viewBox="0 0 32 32" fill="none" xmlns="http://www.w3.org/2000/svg">
<path d="M19.3346 29.3217V24.6667C19.3346 23.4205 19.3346 22.7975 19.0666 22.3333C18.8912 22.0293 18.6386 21.7768 18.3346 21.6013C17.8705 21.3333 17.2474 21.3333 16.0013 21.3333C14.7552 21.3333 14.1321 21.3333 13.668 21.6013C13.364 21.7768 13.1114 22.0293 12.9359 22.3333C12.668 22.7975 12.668 23.4205 12.668 24.6667V29.3217H19.3346Z" fill="#228B22"/>
<path opacity="0.5" fill-rule="evenodd" clip-rule="evenodd" d="M7.64402 16.0019C6.45632 16.0019 5.40561 15.5004 4.66797 14.7124V18.6686C4.66797 23.6968 4.66797 26.211 6.23006 27.7731C7.48752 29.0306 9.36188 29.2758 12.668 29.3236H19.3346C22.6408 29.2758 24.515 29.0306 25.7725 27.7731C27.3346 26.211 27.3346 23.6968 27.3346 18.6686V14.7139C26.597 15.5011 25.5469 16.0019 24.36 16.0019C22.2644 16.0019 20.5098 14.414 20.3013 12.3289L20.204 11.3583C20.4526 13.8446 18.5002 16.0019 16.0017 16.0019C13.52 16.0019 11.5772 13.8736 11.7946 11.4087L11.7026 12.3289C11.4941 14.414 9.73953 16.0019 7.64402 16.0019ZM19.3346 24.6686V29.3236H12.668V24.6686C12.668 23.4224 12.668 22.7994 12.9359 22.3352C13.1114 22.0312 13.364 21.7787 13.668 21.6032C14.1321 21.3352 14.7552 21.3352 16.0013 21.3352C17.2474 21.3352 17.8705 21.3352 18.3346 21.6032C18.6386 21.7787 18.8912 22.0312 19.0666 22.3352C19.3346 22.7994 19.3346 23.4224 19.3346 24.6686Z" fill="#228B22"/>
<path d="M12.6677 2.66667H19.3344L20.2033 11.3565C20.452 13.8427 18.4996 16 16.001 16C13.5025 16 11.5501 13.8427 11.7987 11.3565L12.6677 2.66667Z" fill="#228B22"/>
<path opacity="0.7" d="M4.44032 7.13511C4.67776 5.94791 4.79648 5.35431 5.03787 4.87312C5.54649 3.85919 6.46171 3.10891 7.55569 2.80901C8.07488 2.66667 8.68023 2.66667 9.89093 2.66667H12.6673L11.7013 12.327C11.4928 14.4121 9.73823 16 7.64272 16C5.06879 16 3.13831 13.6452 3.64309 11.1212L4.44032 7.13511Z" fill="#228B22"/>
<path opacity="0.7" d="M27.5591 7.13511C27.3216 5.94791 27.2028 5.35431 26.9615 4.87312C26.4528 3.85919 25.5376 3.10891 24.4436 2.80901C23.9244 2.66667 23.3191 2.66667 22.1084 2.66667H19.332L20.298 12.327C20.5066 14.4121 22.2611 16 24.3567 16C26.9306 16 28.8611 13.6452 28.3563 11.1212L27.5591 7.13511Z" fill="#228B22"/>
</svg>
