<svg width="540" height="298" viewBox="0 0 540 298" fill="none" xmlns="http://www.w3.org/2000/svg">
<rect width="540" height="298" fill="url(#paint0_radial_3179_9528)"/>
<path d="M137.614 42V30.64H140.158V39.568H144.862V42H137.614ZM147.356 32.912C146.951 32.912 146.599 32.768 146.3 32.48C146.001 32.1813 145.852 31.824 145.852 31.408C145.852 30.992 146.001 30.64 146.3 30.352C146.599 30.0533 146.951 29.904 147.356 29.904C147.783 29.904 148.14 30.0533 148.428 30.352C148.727 30.64 148.876 30.992 148.876 31.408C148.876 31.824 148.727 32.1813 148.428 32.48C148.14 32.768 147.783 32.912 147.356 32.912ZM146.156 42V34H148.572V42H146.156ZM154.338 42.176C153.144 42.176 152.136 41.7813 151.314 40.992C150.493 40.2027 150.082 39.2053 150.082 38C150.082 36.7947 150.493 35.7973 151.314 35.008C152.136 34.2187 153.144 33.824 154.338 33.824C155.16 33.824 155.917 34.0373 156.61 34.464C157.304 34.8907 157.821 35.456 158.162 36.16L156.05 37.28C155.698 36.48 155.128 36.08 154.338 36.08C153.826 36.08 153.394 36.2613 153.042 36.624C152.69 36.9867 152.514 37.4453 152.514 38C152.514 38.5547 152.69 39.0133 153.042 39.376C153.394 39.7387 153.826 39.92 154.338 39.92C155.128 39.92 155.698 39.52 156.05 38.72L158.162 39.84C157.821 40.544 157.304 41.1093 156.61 41.536C155.917 41.9627 155.16 42.176 154.338 42.176ZM160.653 32.912C160.248 32.912 159.896 32.768 159.597 32.48C159.298 32.1813 159.149 31.824 159.149 31.408C159.149 30.992 159.298 30.64 159.597 30.352C159.896 30.0533 160.248 29.904 160.653 29.904C161.08 29.904 161.437 30.0533 161.725 30.352C162.024 30.64 162.173 30.992 162.173 31.408C162.173 31.824 162.024 32.1813 161.725 32.48C161.437 32.768 161.08 32.912 160.653 32.912ZM159.453 42V34H161.869V42H159.453ZM167.939 42.096C167.001 42.096 166.227 41.84 165.619 41.328C165.022 40.8053 164.723 40.0533 164.723 39.072V36.096H163.123V34H164.723V31.776H167.139V34H169.379V36.096H167.139V38.576C167.139 39.056 167.246 39.4027 167.459 39.616C167.673 39.8293 168.019 39.936 168.499 39.936C168.862 39.936 169.155 39.888 169.379 39.792V41.936C169.027 42.0427 168.547 42.096 167.939 42.096ZM177.732 42.176C176.697 42.176 175.817 41.7653 175.092 40.944C174.377 40.1227 174.02 39.1413 174.02 38C174.02 36.8587 174.377 35.8773 175.092 35.056C175.817 34.2347 176.697 33.824 177.732 33.824C178.649 33.824 179.374 34.1493 179.908 34.8V34H182.324V42H179.908V41.2C179.374 41.8507 178.649 42.176 177.732 42.176ZM176.948 39.424C177.289 39.7973 177.732 39.984 178.276 39.984C178.82 39.984 179.257 39.7973 179.588 39.424C179.929 39.0507 180.1 38.576 180.1 38C180.1 37.424 179.929 36.9493 179.588 36.576C179.257 36.2027 178.82 36.016 178.276 36.016C177.732 36.016 177.289 36.2027 176.948 36.576C176.617 36.9493 176.452 37.424 176.452 38C176.452 38.576 176.617 39.0507 176.948 39.424ZM184.312 42V34H186.728V34.816C187.187 34.1547 187.928 33.824 188.952 33.824C189.923 33.824 190.68 34.1493 191.224 34.8C191.779 35.4507 192.056 36.3093 192.056 37.376V42H189.64V37.792C189.64 36.608 189.208 36.016 188.344 36.016C187.864 36.016 187.475 36.192 187.176 36.544C186.878 36.896 186.728 37.4187 186.728 38.112V42H184.312ZM197.169 42.176C196.135 42.176 195.255 41.7653 194.529 40.944C193.815 40.1227 193.457 39.1413 193.457 38C193.457 36.8587 193.815 35.8773 194.529 35.056C195.255 34.2347 196.135 33.824 197.169 33.824C198.087 33.824 198.812 34.1493 199.345 34.8V30H201.761V42H199.345V41.2C198.812 41.8507 198.087 42.176 197.169 42.176ZM196.385 39.424C196.727 39.7973 197.169 39.984 197.713 39.984C198.257 39.984 198.695 39.7973 199.025 39.424C199.367 39.0507 199.537 38.576 199.537 38C199.537 37.424 199.367 36.9493 199.025 36.576C198.695 36.2027 198.257 36.016 197.713 36.016C197.169 36.016 196.727 36.2027 196.385 36.576C196.055 36.9493 195.889 37.424 195.889 38C195.889 38.576 196.055 39.0507 196.385 39.424ZM207.552 42V30.64H210.096V42H207.552ZM212.109 42V30H214.525V42H212.109ZM216.515 42V30H218.931V42H216.515ZM222.122 32.912C221.716 32.912 221.364 32.768 221.066 32.48C220.767 32.1813 220.618 31.824 220.618 31.408C220.618 30.992 220.767 30.64 221.066 30.352C221.364 30.0533 221.716 29.904 222.122 29.904C222.548 29.904 222.906 30.0533 223.194 30.352C223.492 30.64 223.642 30.992 223.642 31.408C223.642 31.824 223.492 32.1813 223.194 32.48C222.906 32.768 222.548 32.912 222.122 32.912ZM220.922 42V34H223.338V42H220.922ZM229.104 42.176C227.909 42.176 226.901 41.7813 226.08 40.992C225.259 40.2027 224.848 39.2053 224.848 38C224.848 36.7947 225.259 35.7973 226.08 35.008C226.901 34.2187 227.909 33.824 229.104 33.824C229.925 33.824 230.683 34.0373 231.376 34.464C232.069 34.8907 232.587 35.456 232.928 36.16L230.816 37.28C230.464 36.48 229.893 36.08 229.104 36.08C228.592 36.08 228.16 36.2613 227.808 36.624C227.456 36.9867 227.28 37.4453 227.28 38C227.28 38.5547 227.456 39.0133 227.808 39.376C228.16 39.7387 228.592 39.92 229.104 39.92C229.893 39.92 230.464 39.52 230.816 38.72L232.928 39.84C232.587 40.544 232.069 41.1093 231.376 41.536C230.683 41.9627 229.925 42.176 229.104 42.176ZM235.419 32.912C235.013 32.912 234.661 32.768 234.363 32.48C234.064 32.1813 233.915 31.824 233.915 31.408C233.915 30.992 234.064 30.64 234.363 30.352C234.661 30.0533 235.013 29.904 235.419 29.904C235.845 29.904 236.203 30.0533 236.491 30.352C236.789 30.64 236.939 30.992 236.939 31.408C236.939 31.824 236.789 32.1813 236.491 32.48C236.203 32.768 235.845 32.912 235.419 32.912ZM234.219 42V34H236.635V42H234.219ZM242.705 42.096C241.766 42.096 240.993 41.84 240.385 41.328C239.787 40.8053 239.489 40.0533 239.489 39.072V36.096H237.889V34H239.489V31.776H241.905V34H244.145V36.096H241.905V38.576C241.905 39.056 242.011 39.4027 242.225 39.616C242.438 39.8293 242.785 39.936 243.265 39.936C243.627 39.936 243.921 39.888 244.145 39.792V41.936C243.793 42.0427 243.313 42.096 242.705 42.096ZM247.773 42L252.637 30.64H254.941L259.805 42H257.149L256.141 39.6H251.437L250.429 42H247.773ZM253.789 33.984L252.349 37.392H255.213L253.789 33.984ZM260.781 42V30H263.197V42H260.781ZM268.963 42.176C267.769 42.176 266.761 41.7813 265.939 40.992C265.118 40.2027 264.707 39.2053 264.707 38C264.707 36.7947 265.118 35.7973 265.939 35.008C266.761 34.2187 267.769 33.824 268.963 33.824C269.785 33.824 270.542 34.0373 271.235 34.464C271.929 34.8907 272.446 35.456 272.787 36.16L270.675 37.28C270.323 36.48 269.753 36.08 268.963 36.08C268.451 36.08 268.019 36.2613 267.667 36.624C267.315 36.9867 267.139 37.4453 267.139 38C267.139 38.5547 267.315 39.0133 267.667 39.376C268.019 39.7387 268.451 39.92 268.963 39.92C269.753 39.92 270.323 39.52 270.675 38.72L272.787 39.84C272.446 40.544 271.929 41.1093 271.235 41.536C270.542 41.9627 269.785 42.176 268.963 42.176ZM280.766 40.976C279.945 41.776 278.953 42.176 277.79 42.176C276.627 42.176 275.635 41.776 274.814 40.976C273.993 40.1653 273.582 39.1733 273.582 38C273.582 36.8267 273.993 35.84 274.814 35.04C275.635 34.2293 276.627 33.824 277.79 33.824C278.953 33.824 279.945 34.2293 280.766 35.04C281.587 35.84 281.998 36.8267 281.998 38C281.998 39.1733 281.587 40.1653 280.766 40.976ZM276.51 39.392C276.851 39.744 277.278 39.92 277.79 39.92C278.302 39.92 278.723 39.744 279.054 39.392C279.395 39.04 279.566 38.576 279.566 38C279.566 37.424 279.395 36.96 279.054 36.608C278.723 36.256 278.302 36.08 277.79 36.08C277.278 36.08 276.851 36.256 276.51 36.608C276.179 36.96 276.014 37.424 276.014 38C276.014 38.576 276.179 39.04 276.51 39.392ZM285.9 42H283.484V30H285.9V34.816C286.359 34.1547 287.1 33.824 288.124 33.824C289.095 33.824 289.852 34.1493 290.396 34.8C290.951 35.4507 291.228 36.3093 291.228 37.376V42H288.812V37.792C288.812 36.608 288.38 36.016 287.516 36.016C287.036 36.016 286.647 36.192 286.348 36.544C286.05 36.896 285.9 37.4187 285.9 38.112V42ZM299.797 40.976C298.976 41.776 297.984 42.176 296.821 42.176C295.659 42.176 294.667 41.776 293.845 40.976C293.024 40.1653 292.613 39.1733 292.613 38C292.613 36.8267 293.024 35.84 293.845 35.04C294.667 34.2293 295.659 33.824 296.821 33.824C297.984 33.824 298.976 34.2293 299.797 35.04C300.619 35.84 301.029 36.8267 301.029 38C301.029 39.1733 300.619 40.1653 299.797 40.976ZM295.541 39.392C295.883 39.744 296.309 39.92 296.821 39.92C297.333 39.92 297.755 39.744 298.085 39.392C298.427 39.04 298.597 38.576 298.597 38C298.597 37.424 298.427 36.96 298.085 36.608C297.755 36.256 297.333 36.08 296.821 36.08C296.309 36.08 295.883 36.256 295.541 36.608C295.211 36.96 295.045 37.424 295.045 38C295.045 38.576 295.211 39.04 295.541 39.392ZM302.515 42V30H304.931V42H302.515ZM308.122 32.912C307.716 32.912 307.364 32.768 307.066 32.48C306.767 32.1813 306.618 31.824 306.618 31.408C306.618 30.992 306.767 30.64 307.066 30.352C307.364 30.0533 307.716 29.904 308.122 29.904C308.548 29.904 308.906 30.0533 309.194 30.352C309.492 30.64 309.642 30.992 309.642 31.408C309.642 31.824 309.492 32.1813 309.194 32.48C308.906 32.768 308.548 32.912 308.122 32.912ZM306.922 42V34H309.338V42H306.922ZM315.104 42.176C313.909 42.176 312.901 41.7813 312.08 40.992C311.259 40.2027 310.848 39.2053 310.848 38C310.848 36.7947 311.259 35.7973 312.08 35.008C312.901 34.2187 313.909 33.824 315.104 33.824C315.925 33.824 316.683 34.0373 317.376 34.464C318.069 34.8907 318.587 35.456 318.928 36.16L316.816 37.28C316.464 36.48 315.893 36.08 315.104 36.08C314.592 36.08 314.16 36.2613 313.808 36.624C313.456 36.9867 313.28 37.4453 313.28 38C313.28 38.5547 313.456 39.0133 313.808 39.376C314.16 39.7387 314.592 39.92 315.104 39.92C315.893 39.92 316.464 39.52 316.816 38.72L318.928 39.84C318.587 40.544 318.069 41.1093 317.376 41.536C316.683 41.9627 315.925 42.176 315.104 42.176ZM324.02 42V30.64H328.292C329.22 30.64 330.015 30.9707 330.676 31.632C331.338 32.2827 331.668 33.0773 331.668 34.016C331.668 34.7733 331.396 35.424 330.852 35.968C331.343 36.224 331.732 36.5867 332.02 37.056C332.319 37.5253 332.468 38.0587 332.468 38.656C332.468 39.5947 332.138 40.3893 331.476 41.04C330.815 41.68 329.994 42 329.012 42H324.02ZM326.564 39.664H328.804C329.146 39.664 329.428 39.5573 329.652 39.344C329.876 39.12 329.988 38.848 329.988 38.528C329.988 38.208 329.871 37.9413 329.636 37.728C329.412 37.504 329.13 37.392 328.788 37.392H326.564V39.664ZM326.564 35.232H328.004C328.346 35.232 328.628 35.1253 328.852 34.912C329.076 34.6987 329.188 34.432 329.188 34.112C329.188 33.792 329.076 33.52 328.852 33.296C328.628 33.072 328.346 32.96 328.004 32.96H326.564V35.232ZM337.745 42.176C336.539 42.176 335.526 41.7973 334.705 41.04C333.894 40.272 333.489 39.2587 333.489 38C333.489 36.8053 333.889 35.8133 334.689 35.024C335.489 34.224 336.491 33.824 337.697 33.824C338.817 33.824 339.761 34.1653 340.529 34.848C341.297 35.5307 341.681 36.4907 341.681 37.728C341.681 38.0373 341.665 38.32 341.633 38.576H335.825C335.889 39.0347 336.107 39.3867 336.481 39.632C336.854 39.8667 337.286 39.984 337.777 39.984C338.214 39.984 338.603 39.8987 338.945 39.728C339.286 39.5467 339.542 39.328 339.713 39.072L341.505 40.416C341.121 40.96 340.603 41.392 339.953 41.712C339.302 42.0213 338.566 42.176 337.745 42.176ZM335.889 36.992H339.281C339.185 36.5973 338.982 36.2987 338.673 36.096C338.363 35.8933 338.017 35.792 337.633 35.792C337.227 35.792 336.859 35.8933 336.529 36.096C336.198 36.288 335.985 36.5867 335.889 36.992ZM345.48 42L341.976 34H344.648L346.584 38.864L348.536 34H351.224L347.72 42H345.48ZM355.698 42.176C354.492 42.176 353.479 41.7973 352.658 41.04C351.847 40.272 351.442 39.2587 351.442 38C351.442 36.8053 351.842 35.8133 352.642 35.024C353.442 34.224 354.444 33.824 355.65 33.824C356.77 33.824 357.714 34.1653 358.482 34.848C359.25 35.5307 359.634 36.4907 359.634 37.728C359.634 38.0373 359.618 38.32 359.586 38.576H353.778C353.842 39.0347 354.06 39.3867 354.434 39.632C354.807 39.8667 355.239 39.984 355.73 39.984C356.167 39.984 356.556 39.8987 356.898 39.728C357.239 39.5467 357.495 39.328 357.666 39.072L359.458 40.416C359.074 40.96 358.556 41.392 357.906 41.712C357.255 42.0213 356.519 42.176 355.698 42.176ZM353.842 36.992H357.234C357.138 36.5973 356.935 36.2987 356.626 36.096C356.316 35.8933 355.97 35.792 355.586 35.792C355.18 35.792 354.812 35.8933 354.482 36.096C354.151 36.288 353.938 36.5867 353.842 36.992ZM361.156 42V34H363.572V35.2C363.7 34.8373 363.94 34.5333 364.292 34.288C364.644 34.032 365.039 33.904 365.476 33.904C365.753 33.904 366.015 33.936 366.26 34V36.448C365.887 36.32 365.529 36.256 365.188 36.256C364.676 36.256 364.276 36.4373 363.988 36.8C363.711 37.152 363.572 37.6213 363.572 38.208V42H361.156ZM370.56 42.176C369.525 42.176 368.645 41.7653 367.92 40.944C367.205 40.1227 366.848 39.1413 366.848 38C366.848 36.8587 367.205 35.8773 367.92 35.056C368.645 34.2347 369.525 33.824 370.56 33.824C371.477 33.824 372.203 34.1493 372.736 34.8V34H375.152V42H372.736V41.2C372.203 41.8507 371.477 42.176 370.56 42.176ZM369.776 39.424C370.117 39.7973 370.56 39.984 371.104 39.984C371.648 39.984 372.085 39.7973 372.416 39.424C372.757 39.0507 372.928 38.576 372.928 38C372.928 37.424 372.757 36.9493 372.416 36.576C372.085 36.2027 371.648 36.016 371.104 36.016C370.56 36.016 370.117 36.2027 369.776 36.576C369.445 36.9493 369.28 37.424 369.28 38C369.28 38.576 369.445 39.0507 369.776 39.424ZM379.636 39.184C379.999 39.5253 380.431 39.696 380.932 39.696C381.434 39.696 381.866 39.5253 382.228 39.184C382.591 38.8427 382.772 38.4 382.772 37.856C382.772 37.312 382.591 36.8693 382.228 36.528C381.866 36.1867 381.434 36.016 380.932 36.016C380.431 36.016 379.999 36.1867 379.636 36.528C379.274 36.8693 379.092 37.312 379.092 37.856C379.092 38.4 379.274 38.8427 379.636 39.184ZM380.628 45.504C379.06 45.504 377.823 45.1093 376.916 44.32L378.18 42.512C378.852 43.0987 379.658 43.392 380.596 43.392C381.215 43.392 381.7 43.2 382.052 42.816C382.404 42.432 382.58 41.9467 382.58 41.36V40.912C382.388 41.2 382.095 41.4347 381.7 41.616C381.316 41.7973 380.884 41.888 380.404 41.888C379.38 41.888 378.5 41.4987 377.764 40.72C377.028 39.9307 376.66 38.976 376.66 37.856C376.66 36.736 377.028 35.7867 377.764 35.008C378.5 34.2187 379.38 33.824 380.404 33.824C380.884 33.824 381.316 33.9147 381.7 34.096C382.095 34.2773 382.388 34.512 382.58 34.8V34H384.996V41.328C384.996 42.736 384.596 43.7813 383.796 44.464C383.007 45.1573 381.951 45.504 380.628 45.504ZM390.745 42.176C389.539 42.176 388.526 41.7973 387.705 41.04C386.894 40.272 386.489 39.2587 386.489 38C386.489 36.8053 386.889 35.8133 387.689 35.024C388.489 34.224 389.491 33.824 390.697 33.824C391.817 33.824 392.761 34.1653 393.529 34.848C394.297 35.5307 394.681 36.4907 394.681 37.728C394.681 38.0373 394.665 38.32 394.633 38.576H388.825C388.889 39.0347 389.107 39.3867 389.481 39.632C389.854 39.8667 390.286 39.984 390.777 39.984C391.214 39.984 391.603 39.8987 391.945 39.728C392.286 39.5467 392.542 39.328 392.713 39.072L394.505 40.416C394.121 40.96 393.603 41.392 392.953 41.712C392.302 42.0213 391.566 42.176 390.745 42.176ZM388.889 36.992H392.281C392.185 36.5973 391.982 36.2987 391.673 36.096C391.363 35.8933 391.017 35.792 390.633 35.792C390.227 35.792 389.859 35.8933 389.529 36.096C389.198 36.288 388.985 36.5867 388.889 36.992ZM398.955 42.176C397.472 42.176 396.363 41.696 395.627 40.736L397.227 39.28C397.611 39.8347 398.187 40.112 398.955 40.112C399.446 40.112 399.691 39.9627 399.691 39.664C399.691 39.5253 399.627 39.4133 399.499 39.328C399.371 39.232 399.11 39.136 398.715 39.04L398.187 38.912C397.43 38.7307 396.854 38.4107 396.459 37.952C396.075 37.4933 395.894 36.9387 395.915 36.288C395.936 35.552 396.23 34.96 396.795 34.512C397.371 34.0533 398.102 33.824 398.987 33.824C400.224 33.824 401.163 34.2667 401.803 35.152L400.235 36.448C399.894 36.0213 399.472 35.808 398.971 35.808C398.534 35.808 398.315 35.9467 398.315 36.224C398.315 36.48 398.539 36.672 398.987 36.8L399.723 36.992C400.491 37.1947 401.072 37.4987 401.467 37.904C401.872 38.2987 402.075 38.8373 402.075 39.52C402.075 40.2773 401.771 40.912 401.163 41.424C400.566 41.9253 399.83 42.176 398.955 42.176ZM166.028 50.64H168.348L171.884 55.536L175.452 50.64H177.772V62H175.212V55.008L171.9 59.584L168.572 54.992V62H166.028V50.64ZM182.99 62.176C181.955 62.176 181.075 61.7653 180.35 60.944C179.635 60.1227 179.278 59.1413 179.278 58C179.278 56.8587 179.635 55.8773 180.35 55.056C181.075 54.2347 181.955 53.824 182.99 53.824C183.907 53.824 184.632 54.1493 185.166 54.8V54H187.582V62H185.166V61.2C184.632 61.8507 183.907 62.176 182.99 62.176ZM182.206 59.424C182.547 59.7973 182.99 59.984 183.534 59.984C184.078 59.984 184.515 59.7973 184.846 59.424C185.187 59.0507 185.358 58.576 185.358 58C185.358 57.424 185.187 56.9493 184.846 56.576C184.515 56.2027 184.078 56.016 183.534 56.016C182.99 56.016 182.547 56.2027 182.206 56.576C181.875 56.9493 181.71 57.424 181.71 58C181.71 58.576 181.875 59.0507 182.206 59.424ZM189.57 62V54H191.986V55.2C192.114 54.8373 192.354 54.5333 192.706 54.288C193.058 54.032 193.453 53.904 193.89 53.904C194.167 53.904 194.429 53.936 194.674 54V56.448C194.301 56.32 193.943 56.256 193.602 56.256C193.09 56.256 192.69 56.4373 192.402 56.8C192.125 57.152 191.986 57.6213 191.986 58.208V62H189.57ZM201.415 62L198.439 58.432V62H196.023V50H198.439V56.864L200.775 54H203.639L200.695 57.616L204.343 62H201.415ZM208.268 62.176C207.063 62.176 206.049 61.7973 205.228 61.04C204.417 60.272 204.012 59.2587 204.012 58C204.012 56.8053 204.412 55.8133 205.212 55.024C206.012 54.224 207.015 53.824 208.22 53.824C209.34 53.824 210.284 54.1653 211.052 54.848C211.82 55.5307 212.204 56.4907 212.204 57.728C212.204 58.0373 212.188 58.32 212.156 58.576H206.348C206.412 59.0347 206.631 59.3867 207.004 59.632C207.377 59.8667 207.809 59.984 208.3 59.984C208.737 59.984 209.127 59.8987 209.468 59.728C209.809 59.5467 210.065 59.328 210.236 59.072L212.028 60.416C211.644 60.96 211.127 61.392 210.476 61.712C209.825 62.0213 209.089 62.176 208.268 62.176ZM206.412 56.992H209.804C209.708 56.5973 209.505 56.2987 209.196 56.096C208.887 55.8933 208.54 55.792 208.156 55.792C207.751 55.792 207.383 55.8933 207.052 56.096C206.721 56.288 206.508 56.5867 206.412 56.992ZM217.65 62.096C216.711 62.096 215.938 61.84 215.33 61.328C214.733 60.8053 214.434 60.0533 214.434 59.072V56.096H212.834V54H214.434V51.776H216.85V54H219.09V56.096H216.85V58.576C216.85 59.056 216.957 59.4027 217.17 59.616C217.383 59.8293 217.73 59.936 218.21 59.936C218.573 59.936 218.866 59.888 219.09 59.792V61.936C218.738 62.0427 218.258 62.096 217.65 62.096ZM227.422 62L222.766 50.64H225.534L228.558 58.208L231.566 50.64H234.366L229.71 62H227.422ZM237.286 62.176C236.252 62.176 235.372 61.7653 234.647 60.944C233.932 60.1227 233.575 59.1413 233.575 58C233.575 56.8587 233.932 55.8773 234.647 55.056C235.372 54.2347 236.252 53.824 237.286 53.824C238.204 53.824 238.929 54.1493 239.463 54.8V54H241.878V62H239.463V61.2C238.929 61.8507 238.204 62.176 237.286 62.176ZM236.503 59.424C236.844 59.7973 237.287 59.984 237.831 59.984C238.375 59.984 238.812 59.7973 239.143 59.424C239.484 59.0507 239.655 58.576 239.655 58C239.655 57.424 239.484 56.9493 239.143 56.576C238.812 56.2027 238.375 56.016 237.831 56.016C237.287 56.016 236.844 56.2027 236.503 56.576C236.172 56.9493 236.007 57.424 236.007 58C236.007 58.576 236.172 59.0507 236.503 59.424ZM243.867 62V50H246.283V62H243.867ZM251.201 62.176C250.231 62.176 249.484 61.8507 248.961 61.2C248.439 60.5493 248.177 59.6693 248.177 58.56V54H250.593V58.144C250.593 59.3707 251.004 59.984 251.825 59.984C252.828 59.984 253.329 59.2853 253.329 57.888V54H255.745V62H253.329V61.184C252.871 61.8453 252.161 62.176 251.201 62.176ZM261.502 62.176C260.297 62.176 259.284 61.7973 258.462 61.04C257.652 60.272 257.246 59.2587 257.246 58C257.246 56.8053 257.646 55.8133 258.446 55.024C259.246 54.224 260.249 53.824 261.454 53.824C262.574 53.824 263.518 54.1653 264.286 54.848C265.054 55.5307 265.438 56.4907 265.438 57.728C265.438 58.0373 265.422 58.32 265.39 58.576H259.582C259.646 59.0347 259.865 59.3867 260.238 59.632C260.612 59.8667 261.044 59.984 261.534 59.984C261.972 59.984 262.361 59.8987 262.702 59.728C263.044 59.5467 263.3 59.328 263.47 59.072L265.262 60.416C264.878 60.96 264.361 61.392 263.71 61.712C263.06 62.0213 262.324 62.176 261.502 62.176ZM259.646 56.992H263.038C262.942 56.5973 262.74 56.2987 262.43 56.096C262.121 55.8933 261.774 55.792 261.39 55.792C260.985 55.792 260.617 55.8933 260.286 56.096C259.956 56.288 259.742 56.5867 259.646 56.992ZM274.107 64.56H272.203C270.837 62.0747 270.155 59.5147 270.155 56.88C270.155 54.2453 270.837 51.6853 272.203 49.2H274.107C272.816 51.7067 272.171 54.2667 272.171 56.88C272.171 59.4933 272.816 62.0533 274.107 64.56ZM283.292 60.912C282.428 61.7653 281.308 62.192 279.932 62.192C278.556 62.192 277.43 61.7653 276.556 60.912C275.692 60.048 275.26 58.912 275.26 57.504V50.64H277.804V57.536C277.804 58.208 277.996 58.7413 278.38 59.136C278.774 59.5307 279.292 59.728 279.932 59.728C280.572 59.728 281.084 59.5307 281.468 59.136C281.862 58.7413 282.06 58.208 282.06 57.536V50.64H284.604V57.504C284.604 58.912 284.166 60.048 283.292 60.912ZM290.264 62.192C289.368 62.192 288.552 62.016 287.816 61.664C287.091 61.3013 286.504 60.8 286.056 60.16L288.008 58.512C288.285 58.9067 288.637 59.2213 289.064 59.456C289.501 59.6907 289.933 59.808 290.36 59.808C290.776 59.808 291.107 59.7227 291.352 59.552C291.608 59.3707 291.736 59.1413 291.736 58.864C291.736 58.576 291.613 58.3253 291.368 58.112C291.123 57.8987 290.717 57.696 290.152 57.504L289.352 57.232C287.443 56.592 286.488 55.4987 286.488 53.952C286.488 52.8747 286.851 52.0213 287.576 51.392C288.312 50.7627 289.256 50.448 290.408 50.448C291.88 50.448 293.101 50.9707 294.072 52.016L292.408 53.776C291.885 53.1467 291.229 52.832 290.44 52.832C290.067 52.832 289.741 52.9067 289.464 53.056C289.197 53.2053 289.064 53.4187 289.064 53.696C289.064 53.984 289.192 54.2187 289.448 54.4C289.704 54.5707 290.163 54.7733 290.824 55.008L291.624 55.296C293.437 55.9467 294.339 57.0773 294.328 58.688C294.328 59.7227 293.944 60.5653 293.176 61.216C292.419 61.8667 291.448 62.192 290.264 62.192ZM298.795 63.408V62.144C297.813 62.0587 297.019 61.7013 296.411 61.072C295.813 60.4427 295.515 59.632 295.515 58.64H297.931C297.941 59.2373 298.229 59.616 298.795 59.776V57.376L298.219 57.168C296.405 56.4853 295.499 55.36 295.499 53.792C295.499 52.8213 295.787 52.0373 296.363 51.44C296.949 50.8427 297.76 50.5173 298.795 50.464V49.232H299.659V50.496C300.565 50.624 301.296 50.9973 301.851 51.616C302.416 52.224 302.699 52.9333 302.699 53.744H300.283C300.187 53.328 299.979 53.04 299.659 52.88V55.088L300.251 55.296C301.147 55.6373 301.829 56.0907 302.299 56.656C302.768 57.2213 303.003 57.9627 303.003 58.88C303.003 59.8507 302.709 60.6293 302.123 61.216C301.536 61.792 300.715 62.1067 299.659 62.16V63.408H298.795ZM300.587 58.88C300.587 58.4107 300.277 58.0267 299.659 57.728V59.84C300.277 59.7013 300.587 59.3813 300.587 58.88ZM297.915 53.744C297.915 54.16 298.208 54.496 298.795 54.752V52.8C298.208 52.928 297.915 53.2427 297.915 53.744ZM307.435 53.264L305.595 56.208H304.203L305.403 53.744C305.115 53.6373 304.87 53.44 304.667 53.152C304.465 52.8533 304.363 52.5227 304.363 52.16C304.363 51.6907 304.529 51.2907 304.859 50.96C305.201 50.6187 305.606 50.448 306.075 50.448C306.545 50.448 306.945 50.6187 307.275 50.96C307.617 51.2907 307.787 51.6907 307.787 52.16C307.787 52.5333 307.67 52.9013 307.435 53.264ZM318.946 62V57.856C318.946 56.6293 318.562 56.016 317.794 56.016C316.876 56.016 316.396 56.6827 316.354 58.016V62H313.938V57.856C313.938 56.6293 313.554 56.016 312.786 56.016C312.338 56.016 311.986 56.192 311.73 56.544C311.474 56.8853 311.346 57.408 311.346 58.112V62H308.93V54H311.346V54.816C311.858 54.1547 312.54 53.824 313.394 53.824C314.514 53.824 315.335 54.2933 315.858 55.232C316.092 54.7733 316.444 54.4267 316.914 54.192C317.383 53.9467 317.852 53.824 318.322 53.824C319.292 53.824 320.039 54.144 320.562 54.784C321.095 55.424 321.362 56.3093 321.362 57.44V62H318.946ZM323.242 62V54H325.658V54.816C326.117 54.1547 326.858 53.824 327.882 53.824C328.853 53.824 329.61 54.1493 330.154 54.8C330.709 55.4507 330.986 56.3093 330.986 57.376V62H328.57V57.792C328.57 56.608 328.138 56.016 327.274 56.016C326.794 56.016 326.405 56.192 326.106 56.544C325.807 56.896 325.658 57.4187 325.658 58.112V62H323.242ZM333.678 64.56H331.774C333.064 62.0533 333.71 59.4933 333.71 56.88C333.71 54.2667 333.064 51.7067 331.774 49.2H333.678C335.043 51.6853 335.726 54.2453 335.726 56.88C335.726 59.5147 335.043 62.0747 333.678 64.56ZM348.37 59.616V62H340.53V61.184C340.53 60.8747 340.562 60.576 340.626 60.288C340.69 59.9893 340.765 59.7333 340.85 59.52C340.936 59.296 341.069 59.0667 341.25 58.832C341.432 58.5973 341.586 58.4053 341.714 58.256C341.842 58.1067 342.034 57.9307 342.29 57.728C342.546 57.5147 342.744 57.36 342.882 57.264C343.021 57.1573 343.24 57.0027 343.538 56.8C343.837 56.5867 344.045 56.4373 344.162 56.352C345.304 55.5413 345.874 54.816 345.874 54.176C345.874 53.7813 345.757 53.4613 345.522 53.216C345.298 52.96 344.968 52.832 344.53 52.832C344.072 52.832 343.698 52.9707 343.41 53.248C343.133 53.5253 342.994 53.8613 342.994 54.256H340.578C340.578 53.1467 340.957 52.2347 341.714 51.52C342.482 50.8053 343.448 50.448 344.61 50.448C345.634 50.448 346.504 50.7627 347.218 51.392C347.933 52.0107 348.29 52.88 348.29 54C348.29 54.6507 348.178 55.232 347.954 55.744C347.73 56.256 347.469 56.6667 347.17 56.976C346.872 57.2853 346.466 57.632 345.954 58.016C345.933 58.0267 345.72 58.1653 345.314 58.432C344.92 58.688 344.616 58.9067 344.402 59.088C344.189 59.2693 344.034 59.4453 343.938 59.616H348.37ZM354.213 62.176C352.943 62.176 351.909 61.7493 351.109 60.896C350.309 60.0427 349.909 58.9547 349.909 57.632V54.992C349.909 53.6693 350.309 52.5813 351.109 51.728C351.909 50.8747 352.943 50.448 354.213 50.448C355.471 50.448 356.501 50.8747 357.301 51.728C358.101 52.5813 358.501 53.6693 358.501 54.992V57.632C358.501 58.9547 358.101 60.0427 357.301 60.896C356.501 61.7493 355.471 62.176 354.213 62.176ZM354.213 59.792C354.778 59.792 355.231 59.6 355.573 59.216C355.914 58.832 356.085 58.304 356.085 57.632V54.992C356.085 54.32 355.914 53.792 355.573 53.408C355.231 53.024 354.778 52.832 354.213 52.832C353.637 52.832 353.178 53.024 352.837 53.408C352.495 53.792 352.325 54.32 352.325 54.992V57.632C352.325 58.304 352.495 58.832 352.837 59.216C353.178 59.6 353.637 59.792 354.213 59.792ZM361.73 62V53.024H359.266L360.994 50.64H364.146V62H361.73ZM368.736 62H366L371.088 52.976H365.904V50.64H373.952V52.736L368.736 62Z" fill="white"/>
<path d="M311.261 262.55C291.644 271.907 269.454 274.405 248.248 269.643C227.042 264.881 208.049 253.136 194.317 236.29C180.584 219.444 172.906 198.474 172.516 176.744C172.125 155.013 179.044 133.781 192.162 116.452C205.28 99.1239 223.838 86.703 244.859 81.1819C265.88 75.6608 288.147 77.3595 308.087 86.0054C328.027 94.6513 344.486 109.743 354.824 128.861C365.162 147.979 368.78 170.015 365.098 191.435L310.552 182.058C312.134 172.859 310.58 163.397 306.141 155.187C301.701 146.977 294.633 140.496 286.07 136.783C277.507 133.07 267.946 132.341 258.919 134.712C249.891 137.083 241.922 142.417 236.289 149.858C230.655 157.299 227.684 166.417 227.852 175.749C228.02 185.081 231.317 194.086 237.214 201.32C243.111 208.554 251.267 213.598 260.374 215.642C269.48 217.687 279.009 216.615 287.433 212.596L311.261 262.55Z" fill="white"/>
<path d="M365.251 190.515C362.68 206.384 356.205 221.366 346.408 234.112C336.611 246.858 323.8 256.969 309.126 263.537L286.484 212.947C292.773 210.132 298.264 205.798 302.463 200.335C306.662 194.872 309.437 188.451 310.539 181.65L365.251 190.515Z" fill="#4AC63F"/>
<path d="M199.611 120.349C198.721 120.349 198.002 120.072 197.454 119.518C196.907 118.964 196.634 118.224 196.634 117.298V112.752H197.865V117.319C197.865 117.901 198.023 118.353 198.338 118.676C198.654 118.999 199.078 119.16 199.611 119.16C200.145 119.16 200.565 118.999 200.874 118.676C201.19 118.353 201.348 117.901 201.348 117.319V112.752H202.579V117.298C202.579 118.217 202.302 118.957 201.747 119.518C201.193 120.072 200.481 120.349 199.611 120.349ZM206.405 120.349C205.809 120.349 205.272 120.226 204.795 119.981C204.318 119.735 203.967 119.409 203.743 119.002L204.711 118.234C205.125 118.873 205.704 119.192 206.447 119.192C206.805 119.192 207.096 119.108 207.32 118.939C207.545 118.764 207.657 118.539 207.657 118.266C207.657 117.768 207.303 117.389 206.594 117.129L205.774 116.835C205.17 116.617 204.725 116.34 204.437 116.004C204.15 115.66 204.006 115.235 204.006 114.73C204.006 114.092 204.234 113.583 204.69 113.205C205.146 112.819 205.728 112.626 206.437 112.626C207.384 112.626 208.138 112.966 208.699 113.647L207.847 114.478C207.461 114.015 206.987 113.783 206.426 113.783C206.096 113.783 205.816 113.861 205.584 114.015C205.36 114.169 205.248 114.38 205.248 114.646C205.248 114.906 205.332 115.113 205.5 115.267C205.676 115.414 205.97 115.565 206.384 115.719L207.142 116.004C207.717 116.221 208.155 116.505 208.457 116.856C208.758 117.207 208.906 117.652 208.899 118.192C208.899 118.837 208.667 119.36 208.204 119.76C207.741 120.153 207.142 120.349 206.405 120.349ZM211.829 121.149V120.307C211.24 120.244 210.753 120.019 210.367 119.634C209.981 119.241 209.781 118.725 209.767 118.087H210.925C210.995 118.683 211.296 119.044 211.829 119.171V116.94L211.472 116.803C210.349 116.375 209.788 115.656 209.788 114.646C209.788 114.057 209.974 113.587 210.346 113.236C210.725 112.879 211.219 112.679 211.829 112.637V111.826H212.398V112.658C212.931 112.728 213.376 112.945 213.734 113.31C214.092 113.668 214.271 114.106 214.271 114.625H213.113C213.036 114.19 212.797 113.913 212.398 113.794V115.877L212.713 116.004C213.288 116.228 213.723 116.523 214.018 116.887C214.313 117.245 214.46 117.701 214.46 118.255C214.46 118.887 214.274 119.381 213.902 119.739C213.53 120.09 213.029 120.283 212.398 120.318V121.149H211.829ZM213.302 118.287C213.302 117.81 213.001 117.438 212.398 117.172V119.202C212.664 119.167 212.882 119.069 213.05 118.908C213.218 118.739 213.302 118.532 213.302 118.287ZM210.946 114.636C210.946 115.071 211.24 115.411 211.829 115.656V113.752C211.563 113.787 211.349 113.885 211.188 114.046C211.026 114.208 210.946 114.404 210.946 114.636ZM220.303 119.087V120.223H215.358V119.802C215.358 119.535 215.396 119.283 215.473 119.044C215.558 118.799 215.645 118.595 215.736 118.434C215.828 118.273 215.978 118.094 216.189 117.898C216.399 117.694 216.561 117.55 216.673 117.466C216.785 117.375 216.982 117.228 217.262 117.024C217.55 116.821 217.732 116.691 217.809 116.635C218.251 116.312 218.57 116.028 218.767 115.783C218.963 115.537 219.061 115.242 219.061 114.899C219.061 114.555 218.956 114.281 218.746 114.078C218.535 113.868 218.244 113.762 217.872 113.762C217.487 113.762 217.167 113.878 216.915 114.11C216.662 114.334 216.533 114.643 216.526 115.036H215.358C215.358 114.327 215.596 113.748 216.073 113.299C216.557 112.85 217.16 112.626 217.883 112.626C218.549 112.626 219.107 112.822 219.556 113.215C220.005 113.608 220.229 114.159 220.229 114.867C220.229 115.428 220.1 115.902 219.84 116.288C219.588 116.666 219.167 117.066 218.577 117.487C218.486 117.557 218.318 117.677 218.072 117.845C217.827 118.013 217.644 118.143 217.525 118.234C217.413 118.325 217.29 118.452 217.157 118.613C217.024 118.767 216.932 118.925 216.883 119.087H220.303ZM223.959 120.328C223.208 120.328 222.57 120.104 222.044 119.655C221.525 119.206 221.258 118.613 221.244 117.876H222.401C222.429 118.276 222.587 118.595 222.875 118.834C223.17 119.072 223.531 119.192 223.959 119.192C224.344 119.192 224.66 119.09 224.906 118.887C225.158 118.683 225.288 118.403 225.295 118.045C225.295 117.652 225.165 117.357 224.906 117.161C224.653 116.958 224.302 116.856 223.853 116.856H223.264V115.867H223.853C224.225 115.867 224.52 115.769 224.737 115.572C224.962 115.376 225.078 115.12 225.085 114.804C225.085 114.495 224.972 114.246 224.748 114.057C224.523 113.861 224.246 113.762 223.917 113.762C223.524 113.762 223.198 113.878 222.938 114.11C222.679 114.334 222.549 114.643 222.549 115.036H221.381C221.381 114.306 221.626 113.724 222.117 113.289C222.615 112.847 223.215 112.626 223.917 112.626C224.611 112.626 225.172 112.822 225.6 113.215C226.035 113.608 226.252 114.113 226.252 114.73C226.252 115.074 226.165 115.393 225.989 115.688C225.814 115.976 225.597 116.196 225.337 116.351C225.681 116.498 225.954 116.726 226.158 117.035C226.361 117.343 226.463 117.705 226.463 118.118C226.463 118.771 226.228 119.304 225.758 119.718C225.295 120.125 224.695 120.328 223.959 120.328ZM229.104 119.96L227.978 121.77H227.262L227.988 120.223C227.841 120.16 227.718 120.055 227.62 119.907C227.522 119.753 227.473 119.581 227.473 119.392C227.473 119.139 227.561 118.925 227.736 118.75C227.911 118.567 228.125 118.476 228.378 118.476C228.63 118.476 228.844 118.567 229.02 118.75C229.195 118.925 229.283 119.139 229.283 119.392C229.283 119.595 229.223 119.784 229.104 119.96ZM230.899 120.223V113.899H229.394L230.278 112.752H232.056V120.223H230.899ZM235.915 120.328C235.234 120.328 234.638 120.114 234.126 119.686C233.614 119.258 233.351 118.739 233.337 118.129H234.526C234.603 118.445 234.768 118.701 235.02 118.897C235.28 119.094 235.578 119.192 235.915 119.192C236.328 119.192 236.665 119.058 236.925 118.792C237.184 118.518 237.314 118.189 237.314 117.803C237.314 117.403 237.184 117.073 236.925 116.814C236.672 116.547 236.346 116.414 235.946 116.414C235.343 116.414 234.908 116.67 234.641 117.182L233.6 116.856L234.399 112.752H237.956V113.878H235.304L234.957 115.667C235.266 115.449 235.655 115.341 236.125 115.341C236.827 115.341 237.395 115.583 237.83 116.067C238.265 116.551 238.482 117.168 238.482 117.919C238.482 118.62 238.24 119.199 237.756 119.655C237.279 120.104 236.665 120.328 235.915 120.328ZM242.948 120.223V118.35H239.087V117.414L243.075 112.752H244.106V117.277H245.105V118.35H244.106V120.223H242.948ZM240.539 117.277H242.948V114.478L240.539 117.277ZM211.761 133.223V130.266C211.761 129.838 211.68 129.505 211.519 129.267C211.365 129.028 211.133 128.909 210.824 128.909C210.453 128.909 210.154 129.053 209.93 129.34C209.706 129.628 209.586 130.031 209.572 130.55V133.223H208.415V130.266C208.415 129.838 208.334 129.505 208.173 129.267C208.019 129.028 207.787 128.909 207.478 128.909C207.093 128.909 206.784 129.06 206.552 129.361C206.328 129.663 206.216 130.087 206.216 130.634V133.223H205.058V127.962H206.216V128.677C206.538 128.13 207.036 127.857 207.71 127.857C208.503 127.857 209.046 128.204 209.341 128.898C209.488 128.569 209.713 128.313 210.014 128.13C210.323 127.948 210.66 127.857 211.024 127.857C211.614 127.857 212.077 128.057 212.413 128.456C212.75 128.856 212.918 129.396 212.918 130.077V133.223H211.761ZM214.977 126.815C214.767 126.815 214.585 126.741 214.43 126.594C214.276 126.44 214.199 126.254 214.199 126.036C214.199 125.826 214.276 125.647 214.43 125.5C214.585 125.345 214.767 125.268 214.977 125.268C215.195 125.268 215.377 125.345 215.525 125.5C215.672 125.647 215.745 125.826 215.745 126.036C215.745 126.254 215.672 126.44 215.525 126.594C215.377 126.741 215.195 126.815 214.977 126.815ZM214.399 133.223V127.962H215.556V133.223H214.399ZM217.111 133.223V125.331H218.269V133.223H217.111ZM219.824 133.223V125.331H220.982V133.223H219.824ZM223.116 126.815C222.905 126.815 222.723 126.741 222.568 126.594C222.414 126.44 222.337 126.254 222.337 126.036C222.337 125.826 222.414 125.647 222.568 125.5C222.723 125.345 222.905 125.268 223.116 125.268C223.333 125.268 223.515 125.345 223.663 125.5C223.81 125.647 223.884 125.826 223.884 126.036C223.884 126.254 223.81 126.44 223.663 126.594C223.515 126.741 223.333 126.815 223.116 126.815ZM222.537 133.223V127.962H223.694V133.223H222.537ZM229.585 132.539C229.059 133.065 228.406 133.328 227.628 133.328C226.849 133.328 226.193 133.065 225.66 132.539C225.134 132.006 224.871 131.357 224.871 130.592C224.871 129.828 225.134 129.182 225.66 128.656C226.193 128.123 226.849 127.857 227.628 127.857C228.406 127.857 229.059 128.123 229.585 128.656C230.118 129.182 230.384 129.828 230.384 130.592C230.384 131.357 230.118 132.006 229.585 132.539ZM227.628 132.255C228.083 132.255 228.459 132.097 228.753 131.781C229.055 131.459 229.206 131.062 229.206 130.592C229.206 130.122 229.055 129.73 228.753 129.414C228.459 129.091 228.083 128.93 227.628 128.93C227.165 128.93 226.782 129.091 226.481 129.414C226.186 129.73 226.039 130.122 226.039 130.592C226.039 131.062 226.186 131.459 226.481 131.781C226.782 132.097 227.165 132.255 227.628 132.255ZM231.548 133.223V127.962H232.706V128.677C233.035 128.13 233.569 127.857 234.305 127.857C234.915 127.857 235.403 128.057 235.768 128.456C236.132 128.856 236.315 129.389 236.315 130.056V133.223H235.157V130.245C235.157 129.824 235.059 129.498 234.863 129.267C234.666 129.028 234.4 128.909 234.063 128.909C233.663 128.909 233.337 129.06 233.085 129.361C232.832 129.663 232.706 130.087 232.706 130.634V133.223H231.548ZM208.014 146.328C207.271 146.328 206.657 146.107 206.173 145.665C205.689 145.216 205.447 144.648 205.447 143.961C205.447 143.091 205.801 142.463 206.509 142.077C206.047 141.719 205.815 141.225 205.815 140.594C205.815 140.025 206.018 139.555 206.425 139.184C206.839 138.812 207.369 138.626 208.014 138.626C208.667 138.626 209.196 138.812 209.603 139.184C210.017 139.548 210.224 140.018 210.224 140.594C210.224 141.225 209.992 141.719 209.529 142.077C210.238 142.463 210.592 143.091 210.592 143.961C210.592 144.655 210.35 145.223 209.866 145.665C209.389 146.107 208.772 146.328 208.014 146.328ZM208.014 145.244C208.442 145.244 208.782 145.118 209.035 144.866C209.287 144.613 209.414 144.304 209.414 143.94C209.414 143.568 209.287 143.259 209.035 143.014C208.782 142.761 208.446 142.635 208.025 142.635C207.597 142.635 207.257 142.761 207.004 143.014C206.752 143.259 206.625 143.568 206.625 143.94C206.625 144.304 206.752 144.613 207.004 144.866C207.264 145.118 207.6 145.244 208.014 145.244ZM208.014 141.656C208.337 141.656 208.596 141.562 208.793 141.372C208.996 141.176 209.098 140.941 209.098 140.667C209.098 140.38 209 140.145 208.803 139.962C208.607 139.773 208.344 139.678 208.014 139.678C207.698 139.678 207.439 139.773 207.236 139.962C207.039 140.152 206.941 140.387 206.941 140.667C206.941 140.941 207.043 141.176 207.246 141.372C207.449 141.562 207.705 141.656 208.014 141.656ZM216.496 145.087V146.223H211.551V145.802C211.551 145.535 211.589 145.283 211.666 145.044C211.751 144.799 211.838 144.595 211.929 144.434C212.021 144.273 212.171 144.094 212.382 143.898C212.592 143.694 212.754 143.55 212.866 143.466C212.978 143.375 213.175 143.228 213.455 143.024C213.743 142.821 213.925 142.691 214.002 142.635C214.444 142.312 214.763 142.028 214.96 141.783C215.156 141.537 215.254 141.242 215.254 140.899C215.254 140.555 215.149 140.281 214.939 140.078C214.728 139.868 214.437 139.762 214.065 139.762C213.68 139.762 213.36 139.878 213.108 140.11C212.855 140.334 212.726 140.643 212.719 141.036H211.551C211.551 140.327 211.789 139.748 212.266 139.299C212.75 138.85 213.353 138.626 214.076 138.626C214.742 138.626 215.3 138.822 215.749 139.215C216.198 139.608 216.422 140.159 216.422 140.867C216.422 141.428 216.293 141.902 216.033 142.288C215.78 142.666 215.36 143.066 214.77 143.487C214.679 143.557 214.511 143.677 214.265 143.845C214.02 144.013 213.837 144.143 213.718 144.234C213.606 144.325 213.483 144.452 213.35 144.613C213.217 144.767 213.125 144.925 213.076 145.087H216.496ZM218.405 146.307C218.159 146.307 217.946 146.219 217.763 146.044C217.588 145.862 217.5 145.644 217.5 145.392C217.5 145.146 217.588 144.932 217.763 144.75C217.946 144.567 218.159 144.476 218.405 144.476C218.658 144.476 218.871 144.567 219.047 144.75C219.229 144.932 219.32 145.146 219.32 145.392C219.32 145.644 219.229 145.862 219.047 146.044C218.871 146.219 218.658 146.307 218.405 146.307ZM222.936 146.328C222.186 146.328 221.547 146.104 221.021 145.655C220.502 145.206 220.236 144.613 220.222 143.876H221.379C221.407 144.276 221.565 144.595 221.853 144.834C222.147 145.072 222.508 145.192 222.936 145.192C223.322 145.192 223.638 145.09 223.883 144.887C224.136 144.683 224.266 144.403 224.273 144.045C224.273 143.652 224.143 143.357 223.883 143.161C223.631 142.958 223.28 142.856 222.831 142.856H222.242V141.867H222.831C223.203 141.867 223.497 141.769 223.715 141.572C223.939 141.376 224.055 141.12 224.062 140.804C224.062 140.495 223.95 140.246 223.725 140.057C223.501 139.861 223.224 139.762 222.894 139.762C222.501 139.762 222.175 139.878 221.916 140.11C221.656 140.334 221.526 140.643 221.526 141.036H220.358C220.358 140.306 220.604 139.724 221.095 139.289C221.593 138.847 222.193 138.626 222.894 138.626C223.589 138.626 224.15 138.822 224.578 139.215C225.013 139.608 225.23 140.113 225.23 140.73C225.23 141.074 225.142 141.393 224.967 141.688C224.792 141.976 224.574 142.196 224.315 142.351C224.658 142.498 224.932 142.726 225.135 143.035C225.339 143.343 225.441 143.705 225.441 144.118C225.441 144.771 225.206 145.304 224.736 145.718C224.273 146.125 223.673 146.328 222.936 146.328ZM229.376 146.223H228.155L232.89 138.752H234.111L229.376 146.223ZM233.932 146.307C233.356 146.307 232.865 146.104 232.459 145.697C232.059 145.29 231.859 144.802 231.859 144.234C231.859 143.659 232.059 143.172 232.459 142.772C232.865 142.365 233.356 142.161 233.932 142.161C234.5 142.161 234.987 142.365 235.394 142.772C235.801 143.172 236.004 143.659 236.004 144.234C236.004 144.802 235.801 145.29 235.394 145.697C234.987 146.104 234.5 146.307 233.932 146.307ZM233.174 144.981C233.384 145.192 233.637 145.297 233.932 145.297C234.226 145.297 234.472 145.195 234.668 144.992C234.872 144.781 234.973 144.529 234.973 144.234C234.973 143.94 234.872 143.691 234.668 143.487C234.472 143.277 234.226 143.172 233.932 143.172C233.637 143.172 233.384 143.277 233.174 143.487C232.971 143.698 232.869 143.947 232.869 144.234C232.869 144.522 232.971 144.771 233.174 144.981ZM228.334 142.814C227.759 142.814 227.268 142.61 226.861 142.203C226.461 141.797 226.261 141.309 226.261 140.741C226.261 140.166 226.461 139.678 226.861 139.278C227.268 138.872 227.759 138.668 228.334 138.668C228.902 138.668 229.39 138.872 229.796 139.278C230.203 139.678 230.407 140.166 230.407 140.741C230.407 141.309 230.203 141.797 229.796 142.203C229.39 142.61 228.902 142.814 228.334 142.814ZM228.334 141.804C228.622 141.804 228.867 141.698 229.07 141.488C229.281 141.278 229.386 141.029 229.386 140.741C229.386 140.453 229.281 140.204 229.07 139.994C228.867 139.783 228.622 139.678 228.334 139.678C228.039 139.678 227.79 139.783 227.587 139.994C227.383 140.197 227.282 140.446 227.282 140.741C227.282 141.036 227.383 141.288 227.587 141.499C227.79 141.702 228.039 141.804 228.334 141.804Z" fill="#4AC63F"/>
<path d="M307.673 209.787C306.782 209.787 306.063 209.51 305.516 208.956C304.969 208.402 304.695 207.662 304.695 206.736V202.19H305.926V206.757C305.926 207.339 306.084 207.791 306.4 208.114C306.715 208.437 307.14 208.598 307.673 208.598C308.206 208.598 308.627 208.437 308.936 208.114C309.251 207.791 309.409 207.339 309.409 206.757V202.19H310.64V206.736C310.64 207.655 310.363 208.395 309.809 208.956C309.255 209.51 308.543 209.787 307.673 209.787ZM314.467 209.787C313.87 209.787 313.334 209.664 312.857 209.419C312.38 209.173 312.029 208.847 311.805 208.44L312.773 207.672C313.186 208.31 313.765 208.63 314.509 208.63C314.866 208.63 315.158 208.545 315.382 208.377C315.606 208.202 315.719 207.977 315.719 207.704C315.719 207.206 315.364 206.827 314.656 206.567L313.835 206.273C313.232 206.055 312.787 205.778 312.499 205.441C312.211 205.098 312.068 204.673 312.068 204.168C312.068 203.53 312.296 203.021 312.751 202.643C313.207 202.257 313.79 202.064 314.498 202.064C315.445 202.064 316.199 202.404 316.76 203.084L315.908 203.916C315.522 203.453 315.049 203.221 314.488 203.221C314.158 203.221 313.877 203.298 313.646 203.453C313.421 203.607 313.309 203.818 313.309 204.084C313.309 204.344 313.393 204.551 313.562 204.705C313.737 204.852 314.032 205.003 314.446 205.157L315.203 205.441C315.778 205.659 316.217 205.943 316.518 206.294C316.82 206.644 316.967 207.09 316.96 207.63C316.96 208.275 316.729 208.798 316.266 209.198C315.803 209.591 315.203 209.787 314.467 209.787ZM319.891 210.587V209.745C319.302 209.682 318.814 209.457 318.428 209.072C318.043 208.679 317.843 208.163 317.829 207.525H318.986C319.056 208.121 319.358 208.482 319.891 208.609V206.378L319.533 206.241C318.411 205.813 317.85 205.094 317.85 204.084C317.85 203.495 318.036 203.025 318.407 202.674C318.786 202.316 319.281 202.116 319.891 202.074V201.264H320.459V202.095C320.992 202.166 321.438 202.383 321.795 202.748C322.153 203.106 322.332 203.544 322.332 204.063H321.175C321.097 203.628 320.859 203.351 320.459 203.232V205.315L320.775 205.441C321.35 205.666 321.785 205.961 322.08 206.325C322.374 206.683 322.521 207.139 322.521 207.693C322.521 208.324 322.336 208.819 321.964 209.177C321.592 209.527 321.09 209.72 320.459 209.755V210.587H319.891ZM321.364 207.725C321.364 207.248 321.062 206.876 320.459 206.609V208.64C320.726 208.605 320.943 208.507 321.112 208.346C321.28 208.177 321.364 207.97 321.364 207.725ZM319.007 204.074C319.007 204.508 319.302 204.849 319.891 205.094V203.19C319.624 203.225 319.41 203.323 319.249 203.484C319.088 203.646 319.007 203.842 319.007 204.074ZM326.976 209.661V207.788H323.114V206.851L327.102 202.19H328.133V206.715H329.133V207.788H328.133V209.661H326.976ZM324.566 206.715H326.976V203.916L324.566 206.715ZM331.658 209.398L330.532 211.208H329.816L330.542 209.661C330.395 209.598 330.272 209.492 330.174 209.345C330.076 209.191 330.027 209.019 330.027 208.83C330.027 208.577 330.114 208.363 330.29 208.188C330.465 208.005 330.679 207.914 330.932 207.914C331.184 207.914 331.398 208.005 331.574 208.188C331.749 208.363 331.837 208.577 331.837 208.83C331.837 209.033 331.777 209.222 331.658 209.398ZM332.982 209.661L335.107 206.988H334.991C334.381 206.988 333.838 206.76 333.361 206.304C332.891 205.841 332.656 205.27 332.656 204.589C332.656 203.874 332.894 203.274 333.371 202.79C333.855 202.306 334.472 202.064 335.223 202.064C335.974 202.064 336.587 202.306 337.064 202.79C337.548 203.274 337.79 203.87 337.79 204.579C337.79 204.936 337.72 205.256 337.58 205.536C337.447 205.817 337.233 206.146 336.938 206.525L334.434 209.661H332.982ZM334.223 205.589C334.49 205.855 334.823 205.989 335.223 205.989C335.623 205.989 335.952 205.855 336.212 205.589C336.479 205.315 336.612 204.978 336.612 204.579C336.612 204.193 336.479 203.863 336.212 203.59C335.945 203.316 335.616 203.179 335.223 203.179C334.83 203.179 334.5 203.316 334.234 203.59C333.967 203.863 333.834 204.193 333.834 204.579C333.834 204.978 333.964 205.315 334.223 205.589ZM338.921 209.661L341.046 206.988H340.931C340.32 206.988 339.777 206.76 339.3 206.304C338.83 205.841 338.595 205.27 338.595 204.589C338.595 203.874 338.833 203.274 339.31 202.79C339.794 202.306 340.412 202.064 341.162 202.064C341.913 202.064 342.526 202.306 343.003 202.79C343.488 203.274 343.73 203.87 343.73 204.579C343.73 204.936 343.659 205.256 343.519 205.536C343.386 205.817 343.172 206.146 342.877 206.525L340.373 209.661H338.921ZM340.163 205.589C340.429 205.855 340.762 205.989 341.162 205.989C341.562 205.989 341.892 205.855 342.151 205.589C342.418 205.315 342.551 204.978 342.551 204.579C342.551 204.193 342.418 203.863 342.151 203.59C341.885 203.316 341.555 203.179 341.162 203.179C340.769 203.179 340.44 203.316 340.173 203.59C339.907 203.863 339.773 204.193 339.773 204.579C339.773 204.978 339.903 205.315 340.163 205.589ZM348.654 209.05C348.177 209.527 347.563 209.766 346.812 209.766C346.062 209.766 345.448 209.527 344.971 209.05C344.494 208.566 344.255 207.967 344.255 207.251C344.255 206.908 344.322 206.592 344.455 206.304C344.596 206.017 344.809 205.687 345.097 205.315L347.591 202.19H349.043L346.938 204.842H347.054C347.664 204.842 348.205 205.073 348.675 205.536C349.145 205.992 349.38 206.56 349.38 207.241C349.38 207.963 349.138 208.566 348.654 209.05ZM345.813 208.251C346.079 208.517 346.412 208.651 346.812 208.651C347.212 208.651 347.545 208.517 347.812 208.251C348.078 207.977 348.212 207.644 348.212 207.251C348.212 206.865 348.075 206.536 347.801 206.262C347.535 205.989 347.205 205.852 346.812 205.852C346.419 205.852 346.09 205.989 345.823 206.262C345.557 206.536 345.423 206.865 345.423 207.251C345.423 207.644 345.553 207.977 345.813 208.251ZM317.952 222.661V219.704C317.952 219.276 317.872 218.943 317.71 218.704C317.556 218.466 317.324 218.347 317.016 218.347C316.644 218.347 316.346 218.491 316.121 218.778C315.897 219.066 315.778 219.469 315.764 219.988V222.661H314.606V219.704C314.606 219.276 314.526 218.943 314.364 218.704C314.21 218.466 313.978 218.347 313.67 218.347C313.284 218.347 312.975 218.498 312.744 218.799C312.519 219.101 312.407 219.525 312.407 220.072V222.661H311.25V217.4H312.407V218.115C312.73 217.568 313.228 217.295 313.901 217.295C314.694 217.295 315.238 217.642 315.532 218.336C315.679 218.007 315.904 217.75 316.206 217.568C316.514 217.386 316.851 217.295 317.216 217.295C317.805 217.295 318.268 217.494 318.605 217.894C318.941 218.294 319.11 218.834 319.11 219.515V222.661H317.952ZM321.169 216.253C320.958 216.253 320.776 216.179 320.622 216.032C320.467 215.878 320.39 215.692 320.39 215.474C320.39 215.264 320.467 215.085 320.622 214.938C320.776 214.783 320.958 214.706 321.169 214.706C321.386 214.706 321.569 214.783 321.716 214.938C321.863 215.085 321.937 215.264 321.937 215.474C321.937 215.692 321.863 215.878 321.716 216.032C321.569 216.179 321.386 216.253 321.169 216.253ZM320.59 222.661V217.4H321.748V222.661H320.59ZM323.303 222.661V214.769H324.46V222.661H323.303ZM326.016 222.661V214.769H327.173V222.661H326.016ZM329.307 216.253C329.096 216.253 328.914 216.179 328.76 216.032C328.605 215.878 328.528 215.692 328.528 215.474C328.528 215.264 328.605 215.085 328.76 214.938C328.914 214.783 329.096 214.706 329.307 214.706C329.524 214.706 329.707 214.783 329.854 214.938C330.001 215.085 330.075 215.264 330.075 215.474C330.075 215.692 330.001 215.878 329.854 216.032C329.707 216.179 329.524 216.253 329.307 216.253ZM328.728 222.661V217.4H329.886V222.661H328.728ZM335.776 221.977C335.25 222.503 334.598 222.766 333.819 222.766C333.04 222.766 332.384 222.503 331.851 221.977C331.325 221.444 331.062 220.795 331.062 220.03C331.062 219.266 331.325 218.62 331.851 218.094C332.384 217.561 333.04 217.295 333.819 217.295C334.598 217.295 335.25 217.561 335.776 218.094C336.309 218.62 336.576 219.266 336.576 220.03C336.576 220.795 336.309 221.444 335.776 221.977ZM333.819 221.693C334.275 221.693 334.65 221.535 334.945 221.219C335.246 220.897 335.397 220.5 335.397 220.03C335.397 219.56 335.246 219.167 334.945 218.852C334.65 218.529 334.275 218.368 333.819 218.368C333.356 218.368 332.974 218.529 332.672 218.852C332.377 219.167 332.23 219.56 332.23 220.03C332.23 220.5 332.377 220.897 332.672 221.219C332.974 221.535 333.356 221.693 333.819 221.693ZM337.74 222.661V217.4H338.897V218.115C339.227 217.568 339.76 217.295 340.497 217.295C341.107 217.295 341.594 217.494 341.959 217.894C342.324 218.294 342.506 218.827 342.506 219.494V222.661H341.349V219.683C341.349 219.262 341.251 218.936 341.054 218.704C340.858 218.466 340.591 218.347 340.255 218.347C339.855 218.347 339.529 218.498 339.276 218.799C339.023 219.101 338.897 219.525 338.897 220.072V222.661H337.74ZM317.18 235.766C316.437 235.766 315.823 235.545 315.339 235.103C314.855 234.654 314.613 234.086 314.613 233.399C314.613 232.529 314.967 231.901 315.676 231.515C315.213 231.157 314.981 230.663 314.981 230.031C314.981 229.463 315.185 228.993 315.591 228.622C316.005 228.25 316.535 228.064 317.18 228.064C317.833 228.064 318.362 228.25 318.769 228.622C319.183 228.986 319.39 229.456 319.39 230.031C319.39 230.663 319.158 231.157 318.695 231.515C319.404 231.901 319.758 232.529 319.758 233.399C319.758 234.093 319.516 234.661 319.032 235.103C318.555 235.545 317.938 235.766 317.18 235.766ZM317.18 234.682C317.608 234.682 317.948 234.556 318.201 234.303C318.453 234.051 318.58 233.742 318.58 233.377C318.58 233.006 318.453 232.697 318.201 232.452C317.948 232.199 317.612 232.073 317.191 232.073C316.763 232.073 316.423 232.199 316.17 232.452C315.918 232.697 315.791 233.006 315.791 233.377C315.791 233.742 315.918 234.051 316.17 234.303C316.43 234.556 316.766 234.682 317.18 234.682ZM317.18 231.094C317.503 231.094 317.763 231 317.959 230.81C318.162 230.614 318.264 230.379 318.264 230.105C318.264 229.818 318.166 229.583 317.969 229.4C317.773 229.211 317.51 229.116 317.18 229.116C316.865 229.116 316.605 229.211 316.402 229.4C316.205 229.59 316.107 229.825 316.107 230.105C316.107 230.379 316.209 230.614 316.412 230.81C316.616 231 316.872 231.094 317.18 231.094ZM321.622 235.745C321.376 235.745 321.162 235.657 320.98 235.482C320.804 235.3 320.717 235.082 320.717 234.83C320.717 234.584 320.804 234.37 320.98 234.188C321.162 234.005 321.376 233.914 321.622 233.914C321.874 233.914 322.088 234.005 322.263 234.188C322.446 234.37 322.537 234.584 322.537 234.83C322.537 235.082 322.446 235.3 322.263 235.482C322.088 235.657 321.874 235.745 321.622 235.745ZM326.153 235.766C325.402 235.766 324.764 235.542 324.238 235.093C323.719 234.644 323.452 234.051 323.438 233.314H324.596C324.624 233.714 324.782 234.033 325.069 234.272C325.364 234.51 325.725 234.63 326.153 234.63C326.539 234.63 326.854 234.528 327.1 234.324C327.352 234.121 327.482 233.84 327.489 233.483C327.489 233.09 327.359 232.795 327.1 232.599C326.847 232.395 326.497 232.294 326.048 232.294H325.458V231.305H326.048C326.42 231.305 326.714 231.206 326.932 231.01C327.156 230.814 327.272 230.558 327.279 230.242C327.279 229.933 327.167 229.684 326.942 229.495C326.718 229.298 326.441 229.2 326.111 229.2C325.718 229.2 325.392 229.316 325.132 229.547C324.873 229.772 324.743 230.081 324.743 230.473H323.575C323.575 229.744 323.821 229.162 324.312 228.727C324.81 228.285 325.409 228.064 326.111 228.064C326.805 228.064 327.366 228.26 327.794 228.653C328.229 229.046 328.447 229.551 328.447 230.168C328.447 230.512 328.359 230.831 328.184 231.126C328.008 231.413 327.791 231.634 327.531 231.789C327.875 231.936 328.149 232.164 328.352 232.473C328.555 232.781 328.657 233.142 328.657 233.556C328.657 234.209 328.422 234.742 327.952 235.156C327.489 235.563 326.889 235.766 326.153 235.766ZM332.592 235.661H331.372L336.107 228.19H337.327L332.592 235.661ZM337.148 235.745C336.573 235.745 336.082 235.542 335.675 235.135C335.275 234.728 335.075 234.24 335.075 233.672C335.075 233.097 335.275 232.609 335.675 232.21C336.082 231.803 336.573 231.599 337.148 231.599C337.717 231.599 338.204 231.803 338.611 232.21C339.018 232.609 339.221 233.097 339.221 233.672C339.221 234.24 339.018 234.728 338.611 235.135C338.204 235.542 337.717 235.745 337.148 235.745ZM336.391 234.419C336.601 234.63 336.854 234.735 337.148 234.735C337.443 234.735 337.688 234.633 337.885 234.43C338.088 234.219 338.19 233.967 338.19 233.672C338.19 233.377 338.088 233.128 337.885 232.925C337.688 232.715 337.443 232.609 337.148 232.609C336.854 232.609 336.601 232.715 336.391 232.925C336.187 233.135 336.086 233.384 336.086 233.672C336.086 233.96 336.187 234.209 336.391 234.419ZM331.551 232.252C330.975 232.252 330.484 232.048 330.078 231.641C329.678 231.234 329.478 230.747 329.478 230.179C329.478 229.604 329.678 229.116 330.078 228.716C330.484 228.309 330.975 228.106 331.551 228.106C332.119 228.106 332.606 228.309 333.013 228.716C333.42 229.116 333.623 229.604 333.623 230.179C333.623 230.747 333.42 231.234 333.013 231.641C332.606 232.048 332.119 232.252 331.551 232.252ZM331.551 231.242C331.838 231.242 332.084 231.136 332.287 230.926C332.498 230.715 332.603 230.466 332.603 230.179C332.603 229.891 332.498 229.642 332.287 229.432C332.084 229.221 331.838 229.116 331.551 229.116C331.256 229.116 331.007 229.221 330.804 229.432C330.6 229.635 330.498 229.884 330.498 230.179C330.498 230.473 330.6 230.726 330.804 230.936C331.007 231.14 331.256 231.242 331.551 231.242Z" fill="white"/>
<path d="M402.901 263.92V249.745H404.618V262.397H411.207V263.92H402.901ZM418.101 264.141C417.076 264.141 416.193 263.915 415.45 263.463C414.712 263.006 414.142 262.37 413.74 261.553C413.343 260.731 413.145 259.776 413.145 258.687C413.145 257.598 413.343 256.639 413.74 255.808C414.142 254.973 414.7 254.322 415.415 253.856C416.135 253.385 416.975 253.15 417.935 253.15C418.488 253.15 419.035 253.242 419.575 253.427C420.115 253.612 420.606 253.911 421.049 254.327C421.492 254.737 421.845 255.282 422.108 255.96C422.371 256.639 422.503 257.474 422.503 258.466V259.158H414.308V257.746H420.842C420.842 257.146 420.722 256.611 420.482 256.14C420.246 255.67 419.91 255.298 419.471 255.026C419.037 254.754 418.525 254.617 417.935 254.617C417.284 254.617 416.721 254.779 416.246 255.102C415.775 255.42 415.413 255.836 415.159 256.348C414.905 256.86 414.778 257.409 414.778 257.995V258.936C414.778 259.739 414.917 260.42 415.194 260.978C415.475 261.532 415.865 261.954 416.363 262.245C416.862 262.531 417.441 262.674 418.101 262.674C418.53 262.674 418.918 262.614 419.264 262.494C419.614 262.37 419.917 262.185 420.17 261.94C420.424 261.691 420.62 261.382 420.759 261.013L422.337 261.456C422.171 261.991 421.891 262.462 421.499 262.868C421.107 263.269 420.623 263.583 420.046 263.809C419.469 264.031 418.821 264.141 418.101 264.141ZM429.279 268.128C428.49 268.128 427.812 268.027 427.244 267.824C426.676 267.625 426.204 267.362 425.825 267.035C425.451 266.712 425.154 266.366 424.932 265.996L426.234 265.083C426.381 265.277 426.568 265.498 426.794 265.747C427.02 266.001 427.329 266.22 427.722 266.405C428.118 266.594 428.638 266.689 429.279 266.689C430.137 266.689 430.846 266.481 431.404 266.066C431.962 265.65 432.241 265 432.241 264.114V261.954H432.103C431.983 262.148 431.812 262.388 431.591 262.674C431.374 262.956 431.06 263.207 430.649 263.428C430.243 263.645 429.694 263.754 429.002 263.754C428.144 263.754 427.373 263.551 426.69 263.145C426.012 262.739 425.474 262.148 425.078 261.373C424.685 260.598 424.489 259.656 424.489 258.549C424.489 257.46 424.681 256.512 425.064 255.704C425.447 254.892 425.98 254.264 426.663 253.821C427.346 253.374 428.135 253.15 429.03 253.15C429.722 253.15 430.271 253.265 430.677 253.496C431.088 253.722 431.402 253.981 431.618 254.271C431.84 254.557 432.011 254.793 432.131 254.977H432.297V253.289H433.875V264.224C433.875 265.138 433.667 265.881 433.252 266.453C432.841 267.03 432.288 267.452 431.591 267.72C430.899 267.992 430.128 268.128 429.279 268.128ZM429.224 262.286C429.879 262.286 430.433 262.136 430.885 261.837C431.337 261.537 431.681 261.105 431.916 260.542C432.151 259.979 432.269 259.306 432.269 258.521C432.269 257.755 432.154 257.079 431.923 256.493C431.692 255.907 431.351 255.448 430.899 255.116C430.446 254.784 429.888 254.617 429.224 254.617C428.531 254.617 427.955 254.793 427.493 255.143C427.036 255.494 426.693 255.965 426.462 256.555C426.236 257.146 426.123 257.801 426.123 258.521C426.123 259.259 426.238 259.912 426.469 260.48C426.704 261.043 427.05 261.486 427.507 261.809C427.969 262.127 428.541 262.286 429.224 262.286ZM436.865 263.92V253.289H438.498V263.92H436.865ZM437.696 251.517C437.377 251.517 437.103 251.408 436.872 251.191C436.646 250.974 436.533 250.714 436.533 250.409C436.533 250.105 436.646 249.844 436.872 249.627C437.103 249.41 437.377 249.302 437.696 249.302C438.014 249.302 438.286 249.41 438.512 249.627C438.743 249.844 438.858 250.105 438.858 250.409C438.858 250.714 438.743 250.974 438.512 251.191C438.286 251.408 438.014 251.517 437.696 251.517ZM446.114 253.289V254.673H440.604V253.289H446.114ZM442.21 250.741H443.844V260.874C443.844 261.336 443.91 261.682 444.044 261.913C444.183 262.139 444.358 262.291 444.57 262.37C444.787 262.443 445.016 262.48 445.256 262.48C445.435 262.48 445.583 262.471 445.698 262.453C445.814 262.429 445.906 262.411 445.975 262.397L446.308 263.865C446.197 263.906 446.042 263.948 445.844 263.989C445.645 264.035 445.394 264.058 445.089 264.058C444.628 264.058 444.176 263.959 443.733 263.761C443.294 263.562 442.93 263.26 442.639 262.854C442.353 262.448 442.21 261.936 442.21 261.317V250.741ZM454.274 249.745H456.323L461.14 261.511H461.306L466.124 249.745H468.173V263.92H466.567V253.15H466.428L461.999 263.92H460.448L456.018 253.15H455.88V263.92H454.274V249.745ZM474.521 264.169C473.848 264.169 473.236 264.042 472.687 263.788C472.138 263.53 471.702 263.159 471.379 262.674C471.056 262.185 470.894 261.594 470.894 260.902C470.894 260.293 471.014 259.799 471.254 259.421C471.494 259.038 471.815 258.738 472.216 258.521C472.618 258.304 473.061 258.143 473.545 258.037C474.034 257.926 474.526 257.838 475.02 257.774C475.666 257.691 476.189 257.628 476.591 257.587C476.997 257.541 477.292 257.464 477.477 257.358C477.666 257.252 477.761 257.068 477.761 256.805V256.749C477.761 256.066 477.574 255.536 477.2 255.157C476.831 254.779 476.27 254.59 475.518 254.59C474.738 254.59 474.127 254.76 473.684 255.102C473.241 255.443 472.929 255.808 472.749 256.196L471.199 255.642C471.476 254.996 471.845 254.493 472.306 254.133C472.772 253.768 473.28 253.515 473.829 253.372C474.383 253.224 474.927 253.15 475.463 253.15C475.804 253.15 476.196 253.192 476.639 253.275C477.087 253.353 477.518 253.517 477.934 253.766C478.353 254.015 478.702 254.391 478.979 254.894C479.256 255.397 479.394 256.071 479.394 256.915V263.92H477.761V262.48H477.677C477.567 262.711 477.382 262.958 477.124 263.221C476.865 263.484 476.522 263.708 476.092 263.892C475.663 264.077 475.14 264.169 474.521 264.169ZM474.77 262.702C475.416 262.702 475.961 262.575 476.404 262.321C476.852 262.067 477.188 261.74 477.414 261.338C477.645 260.937 477.761 260.515 477.761 260.072V258.577C477.691 258.66 477.539 258.736 477.304 258.805C477.073 258.87 476.805 258.927 476.501 258.978C476.201 259.024 475.908 259.066 475.622 259.103C475.34 259.135 475.112 259.163 474.937 259.186C474.512 259.241 474.115 259.331 473.746 259.456C473.382 259.576 473.086 259.758 472.86 260.002C472.639 260.242 472.528 260.57 472.528 260.985C472.528 261.553 472.738 261.982 473.158 262.273C473.582 262.559 474.12 262.702 474.77 262.702ZM482.375 263.92V253.289H483.954V254.894H484.064C484.258 254.368 484.609 253.941 485.116 253.614C485.624 253.286 486.196 253.122 486.833 253.122C486.953 253.122 487.103 253.125 487.283 253.129C487.463 253.134 487.599 253.141 487.691 253.15V254.811C487.636 254.797 487.509 254.777 487.31 254.749C487.117 254.717 486.911 254.7 486.694 254.7C486.178 254.7 485.716 254.809 485.31 255.026C484.909 255.238 484.59 255.533 484.355 255.912C484.124 256.286 484.009 256.712 484.009 257.192V263.92H482.375ZM491.15 260.044L491.122 258.023H491.455L496.106 253.289H498.127L493.171 258.3H493.033L491.15 260.044ZM489.627 263.92V249.745H491.261V263.92H489.627ZM496.383 263.92L492.23 258.66L493.393 257.524L498.459 263.92H496.383ZM504.249 264.141C503.225 264.141 502.341 263.915 501.598 263.463C500.86 263.006 500.29 262.37 499.889 261.553C499.492 260.731 499.293 259.776 499.293 258.687C499.293 257.598 499.492 256.639 499.889 255.808C500.29 254.973 500.848 254.322 501.564 253.856C502.283 253.385 503.123 253.15 504.083 253.15C504.637 253.15 505.183 253.242 505.723 253.427C506.263 253.612 506.755 253.911 507.198 254.327C507.641 254.737 507.994 255.282 508.257 255.96C508.52 256.639 508.651 257.474 508.651 258.466V259.158H500.456V257.746H506.99C506.99 257.146 506.87 256.611 506.63 256.14C506.395 255.67 506.058 255.298 505.62 255.026C505.186 254.754 504.674 254.617 504.083 254.617C503.432 254.617 502.869 254.779 502.394 255.102C501.923 255.42 501.561 255.836 501.307 256.348C501.054 256.86 500.927 257.409 500.927 257.995V258.936C500.927 259.739 501.065 260.42 501.342 260.978C501.624 261.532 502.013 261.954 502.512 262.245C503.01 262.531 503.589 262.674 504.249 262.674C504.678 262.674 505.066 262.614 505.412 262.494C505.763 262.37 506.065 262.185 506.319 261.94C506.572 261.691 506.768 261.382 506.907 261.013L508.485 261.456C508.319 261.991 508.04 262.462 507.648 262.868C507.255 263.269 506.771 263.583 506.194 263.809C505.617 264.031 504.969 264.141 504.249 264.141ZM515.76 253.289V254.673H510.25V253.289H515.76ZM511.856 250.741H513.489V260.874C513.489 261.336 513.556 261.682 513.69 261.913C513.828 262.139 514.004 262.291 514.216 262.37C514.433 262.443 514.661 262.48 514.901 262.48C515.081 262.48 515.229 262.471 515.344 262.453C515.46 262.429 515.552 262.411 515.621 262.397L515.953 263.865C515.843 263.906 515.688 263.948 515.49 263.989C515.291 264.035 515.04 264.058 514.735 264.058C514.274 264.058 513.821 263.959 513.379 263.761C512.94 263.562 512.576 263.26 512.285 262.854C511.999 262.448 511.856 261.936 511.856 261.317V250.741Z" fill="#4AC63F"/>
<path d="M404.39 229V218.369H406.024V229H404.39ZM405.221 216.597C404.903 216.597 404.628 216.488 404.397 216.271C404.171 216.055 404.058 215.794 404.058 215.489C404.058 215.185 404.171 214.924 404.397 214.707C404.628 214.49 404.903 214.382 405.221 214.382C405.539 214.382 405.812 214.49 406.038 214.707C406.269 214.924 406.384 215.185 406.384 215.489C406.384 215.794 406.269 216.055 406.038 216.271C405.812 216.488 405.539 216.597 405.221 216.597ZM410.649 214.825V229H409.016V214.825H410.649ZM415.275 214.825V229H413.641V214.825H415.275ZM418.266 229V218.369H419.9V229H418.266ZM419.097 216.597C418.779 216.597 418.504 216.488 418.273 216.271C418.047 216.055 417.934 215.794 417.934 215.489C417.934 215.185 418.047 214.924 418.273 214.707C418.504 214.49 418.779 214.382 419.097 214.382C419.415 214.382 419.688 214.49 419.914 214.707C420.144 214.924 420.26 215.185 420.26 215.489C420.26 215.794 420.144 216.055 419.914 216.271C419.688 216.488 419.415 216.597 419.097 216.597ZM427.211 229.221C426.214 229.221 425.356 228.986 424.636 228.515C423.916 228.045 423.362 227.397 422.975 226.571C422.587 225.745 422.393 224.801 422.393 223.74C422.393 222.66 422.592 221.707 422.989 220.881C423.39 220.051 423.948 219.402 424.664 218.936C425.383 218.465 426.223 218.23 427.183 218.23C427.93 218.23 428.604 218.369 429.204 218.645C429.804 218.922 430.295 219.31 430.678 219.808C431.061 220.307 431.299 220.888 431.391 221.552H429.758C429.633 221.068 429.356 220.639 428.927 220.265C428.503 219.887 427.93 219.698 427.211 219.698C426.574 219.698 426.016 219.864 425.536 220.196C425.06 220.523 424.689 220.987 424.421 221.587C424.158 222.182 424.027 222.881 424.027 223.684C424.027 224.506 424.156 225.221 424.414 225.83C424.677 226.439 425.047 226.912 425.522 227.249C426.002 227.586 426.565 227.754 427.211 227.754C427.635 227.754 428.02 227.68 428.367 227.533C428.713 227.385 429.006 227.173 429.246 226.896C429.486 226.619 429.656 226.287 429.758 225.899H431.391C431.299 226.527 431.071 227.092 430.706 227.595C430.346 228.093 429.868 228.49 429.273 228.785C428.683 229.076 427.995 229.221 427.211 229.221ZM433.779 229V218.369H435.413V229H433.779ZM434.61 216.597C434.291 216.597 434.017 216.488 433.786 216.271C433.56 216.055 433.447 215.794 433.447 215.489C433.447 215.185 433.56 214.924 433.786 214.707C434.017 214.49 434.291 214.382 434.61 214.382C434.928 214.382 435.2 214.49 435.426 214.707C435.657 214.924 435.773 215.185 435.773 215.489C435.773 215.794 435.657 216.055 435.426 216.271C435.2 216.488 434.928 216.597 434.61 216.597ZM443.028 218.369V219.753H437.518V218.369H443.028ZM439.124 215.821H440.758V225.955C440.758 226.416 440.825 226.762 440.958 226.993C441.097 227.219 441.272 227.371 441.484 227.45C441.701 227.523 441.93 227.56 442.17 227.56C442.35 227.56 442.497 227.551 442.613 227.533C442.728 227.51 442.82 227.491 442.89 227.477L443.222 228.945C443.111 228.986 442.956 229.028 442.758 229.069C442.56 229.115 442.308 229.138 442.004 229.138C441.542 229.138 441.09 229.039 440.647 228.841C440.209 228.642 439.844 228.34 439.553 227.934C439.267 227.528 439.124 227.016 439.124 226.398V215.821ZM451.188 214.825H453.237L458.055 226.591H458.221L463.038 214.825H465.087V229H463.481V218.23H463.343L458.913 229H457.362L452.933 218.23H452.794V229H451.188V214.825ZM471.435 229.249C470.762 229.249 470.15 229.122 469.601 228.868C469.052 228.61 468.616 228.239 468.293 227.754C467.97 227.265 467.809 226.674 467.809 225.982C467.809 225.373 467.929 224.879 468.169 224.501C468.408 224.118 468.729 223.818 469.131 223.601C469.532 223.384 469.975 223.223 470.46 223.117C470.949 223.006 471.44 222.918 471.934 222.854C472.58 222.771 473.104 222.708 473.505 222.667C473.911 222.621 474.206 222.545 474.391 222.438C474.58 222.332 474.675 222.148 474.675 221.885V221.829C474.675 221.146 474.488 220.616 474.114 220.237C473.745 219.859 473.184 219.67 472.432 219.67C471.652 219.67 471.041 219.841 470.598 220.182C470.155 220.523 469.844 220.888 469.664 221.276L468.113 220.722C468.39 220.076 468.759 219.573 469.221 219.213C469.687 218.848 470.194 218.595 470.743 218.452C471.297 218.304 471.842 218.23 472.377 218.23C472.718 218.23 473.11 218.272 473.553 218.355C474.001 218.433 474.432 218.597 474.848 218.846C475.268 219.095 475.616 219.471 475.893 219.974C476.17 220.477 476.308 221.151 476.308 221.995V229H474.675V227.56H474.592C474.481 227.791 474.296 228.038 474.038 228.301C473.78 228.564 473.436 228.788 473.007 228.972C472.578 229.157 472.054 229.249 471.435 229.249ZM471.685 227.782C472.331 227.782 472.875 227.655 473.318 227.401C473.766 227.147 474.103 226.82 474.329 226.418C474.559 226.017 474.675 225.595 474.675 225.152V223.657C474.606 223.74 474.453 223.816 474.218 223.885C473.987 223.95 473.72 224.007 473.415 224.058C473.115 224.104 472.822 224.146 472.536 224.183C472.255 224.215 472.026 224.243 471.851 224.266C471.426 224.321 471.029 224.411 470.66 224.536C470.296 224.656 470 224.838 469.774 225.082C469.553 225.322 469.442 225.65 469.442 226.065C469.442 226.633 469.652 227.062 470.072 227.353C470.496 227.639 471.034 227.782 471.685 227.782ZM479.29 229V218.369H480.868V219.974H480.978C481.172 219.448 481.523 219.022 482.031 218.694C482.538 218.366 483.11 218.202 483.747 218.202C483.867 218.202 484.017 218.205 484.197 218.209C484.377 218.214 484.513 218.221 484.605 218.23V219.891C484.55 219.877 484.423 219.857 484.225 219.829C484.031 219.797 483.826 219.781 483.609 219.781C483.092 219.781 482.63 219.889 482.224 220.106C481.823 220.318 481.505 220.613 481.269 220.992C481.038 221.366 480.923 221.792 480.923 222.272V229H479.29ZM488.064 225.124L488.037 223.103H488.369L493.02 218.369H495.041L490.085 223.38H489.947L488.064 225.124ZM486.542 229V214.825H488.175V229H486.542ZM493.297 229L489.144 223.74L490.307 222.605L495.373 229H493.297ZM501.163 229.221C500.139 229.221 499.255 228.995 498.512 228.543C497.774 228.086 497.204 227.45 496.803 226.633C496.406 225.812 496.207 224.856 496.207 223.767C496.207 222.678 496.406 221.719 496.803 220.888C497.204 220.053 497.763 219.402 498.478 218.936C499.198 218.465 500.037 218.23 500.997 218.23C501.551 218.23 502.098 218.322 502.638 218.507C503.177 218.692 503.669 218.992 504.112 219.407C504.555 219.817 504.908 220.362 505.171 221.04C505.434 221.719 505.565 222.554 505.565 223.546V224.238H497.37V222.826H503.904C503.904 222.226 503.784 221.691 503.544 221.22C503.309 220.75 502.972 220.378 502.534 220.106C502.1 219.834 501.588 219.698 500.997 219.698C500.347 219.698 499.784 219.859 499.308 220.182C498.838 220.5 498.475 220.916 498.222 221.428C497.968 221.94 497.841 222.489 497.841 223.075V224.017C497.841 224.819 497.979 225.5 498.256 226.058C498.538 226.612 498.928 227.034 499.426 227.325C499.924 227.611 500.503 227.754 501.163 227.754C501.592 227.754 501.98 227.694 502.326 227.574C502.677 227.45 502.979 227.265 503.233 227.02C503.487 226.771 503.683 226.462 503.821 226.093L505.399 226.536C505.233 227.071 504.954 227.542 504.562 227.948C504.17 228.349 503.685 228.663 503.108 228.889C502.531 229.111 501.883 229.221 501.163 229.221ZM512.674 218.369V219.753H507.164V218.369H512.674ZM508.77 215.821H510.403V225.955C510.403 226.416 510.47 226.762 510.604 226.993C510.743 227.219 510.918 227.371 511.13 227.45C511.347 227.523 511.576 227.56 511.815 227.56C511.995 227.56 512.143 227.551 512.258 227.533C512.374 227.51 512.466 227.491 512.535 227.477L512.868 228.945C512.757 228.986 512.602 229.028 512.404 229.069C512.205 229.115 511.954 229.138 511.649 229.138C511.188 229.138 510.736 229.039 510.293 228.841C509.854 228.642 509.49 228.34 509.199 227.934C508.913 227.528 508.77 227.016 508.77 226.398V215.821Z" fill="white"/>
<rect x="381" y="249.023" width="15" height="15" fill="#4AC63F"/>
<rect x="381" y="213.023" width="15" height="16" fill="white"/>
<defs>
<radialGradient id="paint0_radial_3179_9528" cx="0" cy="0" r="1" gradientUnits="userSpaceOnUse" gradientTransform="translate(266.25 162) rotate(25.0651) scale(269.091 487.615)">
<stop stop-color="#283173"/>
<stop offset="1" stop-color="#2F313F"/>
</radialGradient>
</defs>
</svg>
