<svg width="540" height="298" viewBox="0 0 540 298" fill="none" xmlns="http://www.w3.org/2000/svg">
<rect width="540" height="298" fill="url(#paint0_radial_3183_9580)"/>
<path d="M277.325 248.906C253.1 260.461 225.696 263.546 199.508 257.665C173.32 251.785 149.866 237.28 132.907 216.476C115.948 195.673 106.467 169.777 105.984 142.941C105.502 116.106 114.046 89.8854 130.246 68.4859C146.446 47.0864 169.364 31.7476 195.323 24.9294C221.283 18.1113 248.78 20.209 273.405 30.886C298.03 41.5631 318.355 60.2008 331.122 83.8101C343.889 107.419 348.356 134.632 343.809 161.084L302.482 153.979C305.438 136.787 302.534 119.1 294.237 103.756C285.939 88.411 272.729 76.2976 256.724 69.3582C240.719 62.4187 222.847 61.0553 205.975 65.4867C189.103 69.9181 174.208 79.8874 163.679 93.7959C153.15 107.704 147.597 124.746 147.91 142.187C148.224 159.629 154.386 176.46 165.408 189.981C176.431 203.502 191.674 212.929 208.695 216.751C225.716 220.573 243.527 218.568 259.271 211.058L277.325 248.906Z" fill="white"/>
<path d="M325.75 74.8364C340.179 96.7133 347.035 122.718 345.268 148.865C343.501 175.012 333.208 199.857 315.968 219.594C298.727 239.331 275.49 252.869 249.817 258.134C224.145 263.398 197.455 260.099 173.838 248.741L192.067 210.836C207.391 218.205 224.71 220.346 241.368 216.93C258.025 213.514 273.103 204.729 284.29 191.923C295.477 179.116 302.156 162.995 303.302 146.029C304.449 129.063 300 112.189 290.638 97.994L325.75 74.8364Z" fill="#4AC63F"/>
<path d="M136.012 83.4253C134.752 83.4253 133.647 83.0289 132.699 82.2363C131.75 81.4437 131.263 80.4821 131.237 79.3517H133.439C133.582 79.9364 133.888 80.4107 134.356 80.7745C134.836 81.1383 135.389 81.3202 136.012 81.3202C136.779 81.3202 137.403 81.0734 137.883 80.5796C138.364 80.0728 138.605 79.4621 138.605 78.7474C138.605 78.0068 138.364 77.3961 137.883 76.9153C137.416 76.4215 136.811 76.1746 136.071 76.1746C134.953 76.1746 134.148 76.6489 133.654 77.5975L131.724 76.9933L133.206 69.3918H139.793V71.4773H134.882L134.239 74.7908C134.81 74.388 135.531 74.1866 136.402 74.1866C137.701 74.1866 138.754 74.6349 139.56 75.5314C140.365 76.428 140.768 77.5715 140.768 78.9618C140.768 80.2612 140.32 81.3332 139.423 82.1778C138.54 83.0094 137.403 83.4253 136.012 83.4253ZM142.884 83.2303L146.821 78.2797H146.607C145.476 78.2797 144.469 77.8574 143.586 77.0127C142.715 76.1551 142.28 75.0961 142.28 73.8357C142.28 72.5103 142.722 71.3994 143.605 70.5028C144.502 69.6062 145.645 69.1579 147.036 69.1579C148.426 69.1579 149.563 69.6062 150.447 70.5028C151.343 71.3994 151.792 72.5038 151.792 73.8162C151.792 74.4789 151.662 75.0702 151.402 75.5899C151.155 76.1097 150.758 76.7204 150.213 77.4221L145.574 83.2303H142.884ZM145.184 75.6874C145.678 76.1811 146.295 76.428 147.036 76.428C147.776 76.428 148.387 76.1811 148.868 75.6874C149.362 75.1806 149.609 74.5569 149.609 73.8162C149.609 73.1016 149.362 72.4909 148.868 71.9841C148.374 71.4773 147.763 71.2239 147.036 71.2239C146.308 71.2239 145.697 71.4773 145.204 71.9841C144.71 72.4909 144.463 73.1016 144.463 73.8162C144.463 74.5569 144.703 75.1806 145.184 75.6874ZM158.837 83.2303H156.576L165.347 69.3918H167.607L158.837 83.2303ZM167.276 83.3863C166.211 83.3863 165.301 83.0094 164.547 82.2558C163.807 81.5022 163.436 80.5991 163.436 79.5466C163.436 78.4811 163.807 77.578 164.547 76.8373C165.301 76.0837 166.211 75.7069 167.276 75.7069C168.329 75.7069 169.232 76.0837 169.985 76.8373C170.739 77.578 171.116 78.4811 171.116 79.5466C171.116 80.5991 170.739 81.5022 169.985 82.2558C169.232 83.0094 168.329 83.3863 167.276 83.3863ZM165.873 80.9304C166.263 81.3202 166.73 81.5151 167.276 81.5151C167.822 81.5151 168.277 81.3267 168.64 80.9499C169.017 80.5601 169.206 80.0923 169.206 79.5466C169.206 79.0008 169.017 78.5395 168.64 78.1627C168.277 77.7729 167.822 77.578 167.276 77.578C166.73 77.578 166.263 77.7729 165.873 78.1627C165.496 78.5525 165.308 79.0138 165.308 79.5466C165.308 80.0793 165.496 80.5406 165.873 80.9304ZM156.907 76.9153C155.841 76.9153 154.932 76.5385 154.178 75.7848C153.438 75.0312 153.067 74.1281 153.067 73.0756C153.067 72.0101 153.438 71.107 154.178 70.3663C154.932 69.6127 155.841 69.2359 156.907 69.2359C157.959 69.2359 158.863 69.6127 159.616 70.3663C160.37 71.107 160.747 72.0101 160.747 73.0756C160.747 74.1281 160.37 75.0312 159.616 75.7848C158.863 76.5385 157.959 76.9153 156.907 76.9153ZM156.907 75.0442C157.44 75.0442 157.895 74.8493 158.271 74.4594C158.661 74.0696 158.856 73.6083 158.856 73.0756C158.856 72.5428 158.661 72.0815 158.271 71.6917C157.895 71.3019 157.44 71.107 156.907 71.107C156.361 71.107 155.9 71.3019 155.523 71.6917C155.146 72.0686 154.958 72.5298 154.958 73.0756C154.958 73.6213 155.146 74.0891 155.523 74.4789C155.9 74.8558 156.361 75.0442 156.907 75.0442Z" fill="white"/>
<path d="M363.647 105.9C362.91 106.637 361.963 107.005 360.804 107.005C359.646 107.005 358.698 106.637 357.962 105.9C357.226 105.153 356.857 104.227 356.857 103.123C356.857 102.592 356.96 102.105 357.166 101.661C357.383 101.217 357.713 100.708 358.157 100.134L362.006 95.3103H364.248L360.999 99.4034H361.178C362.12 99.4034 362.954 99.7607 363.679 100.475C364.405 101.179 364.768 102.056 364.768 103.107C364.768 104.222 364.394 105.153 363.647 105.9ZM359.261 104.666C359.673 105.077 360.187 105.283 360.804 105.283C361.422 105.283 361.936 105.077 362.347 104.666C362.759 104.244 362.965 103.729 362.965 103.123C362.965 102.527 362.753 102.018 362.331 101.596C361.92 101.174 361.411 100.963 360.804 100.963C360.198 100.963 359.689 101.174 359.278 101.596C358.866 102.018 358.66 102.527 358.66 103.123C358.66 103.729 358.861 104.244 359.261 104.666ZM370.281 107.005C369.122 107.005 368.137 106.658 367.325 105.965C366.524 105.272 366.112 104.357 366.091 103.22H367.877C367.92 103.838 368.164 104.33 368.608 104.698C369.063 105.067 369.621 105.251 370.281 105.251C370.877 105.251 371.364 105.094 371.743 104.78C372.133 104.466 372.333 104.032 372.344 103.48C372.344 102.874 372.144 102.419 371.743 102.116C371.353 101.802 370.812 101.645 370.119 101.645H369.209V100.118H370.119C370.693 100.118 371.147 99.9664 371.483 99.6633C371.83 99.3601 372.008 98.9648 372.019 98.4776C372.019 98.0011 371.846 97.6167 371.499 97.3243C371.153 97.0212 370.725 96.8696 370.216 96.8696C369.61 96.8696 369.106 97.0482 368.706 97.4056C368.305 97.7521 368.105 98.2285 368.105 98.8349H366.302C366.302 97.7088 366.681 96.81 367.439 96.1386C368.207 95.4565 369.133 95.1154 370.216 95.1154C371.288 95.1154 372.154 95.4186 372.815 96.025C373.486 96.6313 373.822 97.411 373.822 98.3639C373.822 98.8944 373.687 99.3871 373.416 99.8419C373.145 100.286 372.809 100.627 372.409 100.865C372.939 101.093 373.362 101.445 373.676 101.921C373.99 102.397 374.147 102.955 374.147 103.594C374.147 104.601 373.784 105.424 373.059 106.063C372.344 106.691 371.418 107.005 370.281 107.005ZM379.62 107.005C378.472 107.005 377.525 106.664 376.778 105.982C376.031 105.289 375.657 104.411 375.657 103.35C375.657 102.008 376.204 101.038 377.298 100.443C376.583 99.8906 376.226 99.1273 376.226 98.1527C376.226 97.2756 376.54 96.5501 377.168 95.9762C377.806 95.4023 378.624 95.1154 379.62 95.1154C380.627 95.1154 381.445 95.4023 382.073 95.9762C382.712 96.5393 383.031 97.2648 383.031 98.1527C383.031 99.1273 382.674 99.8906 381.959 100.443C383.053 101.038 383.6 102.008 383.6 103.35C383.6 104.422 383.226 105.299 382.479 105.982C381.743 106.664 380.79 107.005 379.62 107.005ZM379.62 105.332C380.281 105.332 380.806 105.137 381.196 104.747C381.586 104.357 381.78 103.881 381.78 103.318C381.78 102.744 381.586 102.267 381.196 101.888C380.806 101.499 380.286 101.304 379.636 101.304C378.976 101.304 378.451 101.499 378.061 101.888C377.671 102.267 377.476 102.744 377.476 103.318C377.476 103.881 377.671 104.357 378.061 104.747C378.462 105.137 378.981 105.332 379.62 105.332ZM379.62 99.7932C380.118 99.7932 380.519 99.647 380.822 99.3546C381.136 99.0515 381.293 98.6887 381.293 98.2664C381.293 97.8224 381.142 97.4597 380.838 97.1782C380.535 96.8858 380.129 96.7396 379.62 96.7396C379.133 96.7396 378.732 96.8858 378.418 97.1782C378.115 97.4705 377.963 97.8333 377.963 98.2664C377.963 98.6887 378.12 99.0515 378.434 99.3546C378.749 99.647 379.144 99.7932 379.62 99.7932ZM396.244 105.77C395.464 106.593 394.462 107.005 393.239 107.005C392.015 107.005 391.013 106.593 390.234 105.77C389.454 104.937 389.064 103.87 389.064 102.571V99.5496C389.064 98.2502 389.454 97.189 390.234 96.366C391.013 95.5323 392.015 95.1154 393.239 95.1154C394.462 95.1154 395.464 95.5323 396.244 96.366C397.034 97.189 397.429 98.2502 397.429 99.5496V102.571C397.429 103.87 397.034 104.937 396.244 105.77ZM393.239 105.251C393.964 105.251 394.544 105.012 394.977 104.536C395.421 104.06 395.643 103.404 395.643 102.571V99.5496C395.643 98.7158 395.421 98.0607 394.977 97.5842C394.544 97.1078 393.964 96.8696 393.239 96.8696C392.524 96.8696 391.945 97.1078 391.501 97.5842C391.068 98.0607 390.851 98.7158 390.851 99.5496V102.571C390.851 103.404 391.068 104.06 391.501 104.536C391.945 105.012 392.524 105.251 393.239 105.251ZM403.162 107.005C402.004 107.005 401.018 106.658 400.206 105.965C399.405 105.272 398.994 104.357 398.972 103.22H400.759C400.802 103.838 401.046 104.33 401.489 104.698C401.944 105.067 402.502 105.251 403.162 105.251C403.758 105.251 404.245 105.094 404.624 104.78C405.014 104.466 405.214 104.032 405.225 103.48C405.225 102.874 405.025 102.419 404.624 102.116C404.234 101.802 403.693 101.645 403 101.645H402.09V100.118H403C403.574 100.118 404.029 99.9664 404.364 99.6633C404.711 99.3601 404.89 98.9648 404.9 98.4776C404.9 98.0011 404.727 97.6167 404.381 97.3243C404.034 97.0212 403.606 96.8696 403.097 96.8696C402.491 96.8696 401.988 97.0482 401.587 97.4056C401.186 97.7521 400.986 98.2285 400.986 98.8349H399.183C399.183 97.7088 399.562 96.81 400.32 96.1386C401.089 95.4565 402.015 95.1154 403.097 95.1154C404.169 95.1154 405.036 95.4186 405.696 96.025C406.368 96.6313 406.703 97.411 406.703 98.3639C406.703 98.8944 406.568 99.3871 406.297 99.8419C406.027 100.286 405.691 100.627 405.29 100.865C405.821 101.093 406.243 101.445 406.557 101.921C406.871 102.397 407.028 102.955 407.028 103.594C407.028 104.601 406.665 105.424 405.94 106.063C405.225 106.691 404.299 107.005 403.162 107.005ZM410.211 106.842V97.0807H407.889L409.253 95.3103H411.998V106.842H410.211ZM359.026 127.842V116.31H360.926V121.086H366.628V116.31H368.528V127.842H366.628V122.888H360.926V127.842H359.026ZM371.367 127.842V116.31H373.267V126.023H378.546V127.842H371.367ZM383.596 127.842V116.31H385.496V126.023H390.775V127.842H383.596ZM391.162 127.842L396.197 116.31H397.854L402.889 127.842H400.908L399.592 124.821H394.427L393.127 127.842H391.162ZM397.009 118.877L395.158 123.132H398.861L397.009 118.877ZM404.375 127.842V116.31H411.31V118.129H406.275V121.086H410.336V122.905H406.275V126.023H411.31V127.842H404.375Z" fill="#4AC63F"/>
<path d="M35.8898 157.356C34.742 157.356 33.7946 157.015 33.0474 156.333C32.3003 155.64 31.9267 154.763 31.9267 153.702C31.9267 152.359 32.4735 151.39 33.5672 150.794C32.8525 150.242 32.4952 149.479 32.4952 148.504C32.4952 147.627 32.8092 146.902 33.4372 146.328C34.0761 145.754 34.8936 145.467 35.8898 145.467C36.8969 145.467 37.7144 145.754 38.3425 146.328C38.9813 146.891 39.3008 147.616 39.3008 148.504C39.3008 149.479 38.9434 150.242 38.2288 150.794C39.3224 151.39 39.8692 152.359 39.8692 153.702C39.8692 154.774 39.4957 155.651 38.7485 156.333C38.0122 157.015 37.0593 157.356 35.8898 157.356ZM35.8898 155.683C36.5504 155.683 37.0755 155.489 37.4654 155.099C37.8552 154.709 38.0501 154.232 38.0501 153.669C38.0501 153.095 37.8552 152.619 37.4654 152.24C37.0755 151.85 36.5558 151.655 35.9061 151.655C35.2456 151.655 34.7204 151.85 34.3306 152.24C33.9408 152.619 33.7458 153.095 33.7458 153.669C33.7458 154.232 33.9408 154.709 34.3306 155.099C34.7312 155.489 35.251 155.683 35.8898 155.683ZM35.8898 150.145C36.3879 150.145 36.7886 149.999 37.0918 149.706C37.4058 149.403 37.5628 149.04 37.5628 148.618C37.5628 148.174 37.4112 147.811 37.108 147.53C36.8048 147.237 36.3988 147.091 35.8898 147.091C35.4026 147.091 35.0019 147.237 34.6879 147.53C34.3847 147.822 34.2331 148.185 34.2331 148.618C34.2331 149.04 34.3901 149.403 34.7041 149.706C35.0182 149.999 35.4134 150.145 35.8898 150.145ZM41.7713 157.194L45.0522 153.068H44.8736C43.9315 153.068 43.0923 152.716 42.356 152.013C41.6305 151.298 41.2677 150.415 41.2677 149.365C41.2677 148.261 41.6359 147.335 42.3722 146.588C43.1194 145.841 44.0723 145.467 45.2309 145.467C46.3895 145.467 47.337 145.841 48.0733 146.588C48.8205 147.335 49.194 148.255 49.194 149.349C49.194 149.901 49.0858 150.394 48.8692 150.827C48.6635 151.26 48.3332 151.769 47.8784 152.354L44.0127 157.194H41.7713ZM43.6879 150.908C44.0993 151.32 44.6137 151.525 45.2309 151.525C45.8481 151.525 46.357 151.32 46.7577 150.908C47.1692 150.486 47.3749 149.966 47.3749 149.349C47.3749 148.753 47.1692 148.244 46.7577 147.822C46.3462 147.4 45.8373 147.189 45.2309 147.189C44.6245 147.189 44.1156 147.4 43.7041 147.822C43.2926 148.244 43.0869 148.753 43.0869 149.349C43.0869 149.966 43.2872 150.486 43.6879 150.908ZM54.4639 157.356C53.3161 157.356 52.3687 157.015 51.6215 156.333C50.8744 155.64 50.5008 154.763 50.5008 153.702C50.5008 152.359 51.0476 151.39 52.1413 150.794C51.4266 150.242 51.0693 149.479 51.0693 148.504C51.0693 147.627 51.3833 146.902 52.0113 146.328C52.6502 145.754 53.4677 145.467 54.4639 145.467C55.471 145.467 56.2885 145.754 56.9166 146.328C57.5554 146.891 57.8749 147.616 57.8749 148.504C57.8749 149.479 57.5175 150.242 56.8029 150.794C57.8965 151.39 58.4433 152.359 58.4433 153.702C58.4433 154.774 58.0698 155.651 57.3226 156.333C56.5863 157.015 55.6334 157.356 54.4639 157.356ZM54.4639 155.683C55.1245 155.683 55.6496 155.489 56.0395 155.099C56.4293 154.709 56.6242 154.232 56.6242 153.669C56.6242 153.095 56.4293 152.619 56.0395 152.24C55.6496 151.85 55.1299 151.655 54.4802 151.655C53.8197 151.655 53.2945 151.85 52.9047 152.24C52.5149 152.619 52.3199 153.095 52.3199 153.669C52.3199 154.232 52.5149 154.709 52.9047 155.099C53.3053 155.489 53.8251 155.683 54.4639 155.683ZM54.4639 150.145C54.962 150.145 55.3627 149.999 55.6659 149.706C55.9799 149.403 56.1369 149.04 56.1369 148.618C56.1369 148.174 55.9853 147.811 55.6821 147.53C55.3789 147.237 54.9729 147.091 54.4639 147.091C53.9767 147.091 53.576 147.237 53.262 147.53C52.9588 147.822 52.8072 148.185 52.8072 148.618C52.8072 149.04 52.9642 149.403 53.2782 149.706C53.5923 149.999 53.9875 150.145 54.4639 150.145ZM69.2357 157.194V154.303H63.2747V152.857L69.4306 145.662H71.0223V152.646H72.5654V154.303H71.0223V157.194H69.2357ZM65.5162 152.646H69.2357V148.326L65.5162 152.646ZM75.835 157.194H73.821L79.116 147.4H73.4474V145.662H81.2438V147.189L75.835 157.194ZM86.0923 157.356C84.9445 157.356 83.997 157.015 83.2498 156.333C82.5027 155.64 82.1291 154.763 82.1291 153.702C82.1291 152.359 82.6759 151.39 83.7696 150.794C83.0549 150.242 82.6976 149.479 82.6976 148.504C82.6976 147.627 83.0116 146.902 83.6397 146.328C84.2785 145.754 85.0961 145.467 86.0923 145.467C87.0993 145.467 87.9168 145.754 88.5449 146.328C89.1837 146.891 89.5032 147.616 89.5032 148.504C89.5032 149.479 89.1458 150.242 88.4312 150.794C89.5248 151.39 90.0717 152.359 90.0717 153.702C90.0717 154.774 89.6981 155.651 88.9509 156.333C88.2146 157.015 87.2617 157.356 86.0923 157.356ZM86.0923 155.683C86.7528 155.683 87.278 155.489 87.6678 155.099C88.0576 154.709 88.2525 154.232 88.2525 153.669C88.2525 153.095 88.0576 152.619 87.6678 152.24C87.278 151.85 86.7582 151.655 86.1085 151.655C85.448 151.655 84.9228 151.85 84.533 152.24C84.1432 152.619 83.9483 153.095 83.9483 153.669C83.9483 154.232 84.1432 154.709 84.533 155.099C84.9336 155.489 85.4534 155.683 86.0923 155.683ZM86.0923 150.145C86.5904 150.145 86.991 149.999 87.2942 149.706C87.6082 149.403 87.7652 149.04 87.7652 148.618C87.7652 148.174 87.6136 147.811 87.3104 147.53C87.0073 147.237 86.6012 147.091 86.0923 147.091C85.605 147.091 85.2043 147.237 84.8903 147.53C84.5871 147.822 84.4355 148.185 84.4355 148.618C84.4355 149.04 84.5925 149.403 84.9066 149.706C85.2206 149.999 85.6158 150.145 86.0923 150.145ZM35.1785 178.194V166.662H37.0788V171.437H42.7799V166.662H44.6803V178.194H42.7799V173.24H37.0788V178.194H35.1785ZM47.5189 178.194V166.662H49.4193V176.375H54.6981V178.194H47.5189ZM59.7483 178.194V166.662H61.6487V176.375H66.9275V178.194H59.7483ZM67.3145 178.194L72.3496 166.662H74.0064L79.0415 178.194H77.06L75.7443 175.173H70.5792L69.2798 178.194H67.3145ZM73.1618 169.228L71.3101 173.484H75.0134L73.1618 169.228ZM80.5272 178.194V166.662H87.4627V168.481H82.4276V171.437H86.4882V173.256H82.4276V176.375H87.4627V178.194H80.5272Z" fill="white"/>
<path d="M93.7812 151.345L111.242 150.127M354.066 100.182L331.327 106.273" stroke="white" stroke-width="0.812121"/>
<path d="M281.179 218.043V214.574H274.026V212.839L281.413 204.204H283.323V212.586H285.175V214.574H283.323V218.043H281.179ZM276.716 212.586H281.179V207.401L276.716 212.586ZM295.602 216.757C294.667 217.744 293.465 218.238 291.996 218.238C290.528 218.238 289.326 217.744 288.39 216.757C287.455 215.756 286.987 214.476 286.987 212.917V209.292C286.987 207.732 287.455 206.459 288.39 205.471C289.326 204.471 290.528 203.971 291.996 203.971C293.465 203.971 294.667 204.471 295.602 205.471C296.551 206.459 297.025 207.732 297.025 209.292V212.917C297.025 214.476 296.551 215.756 295.602 216.757ZM291.996 216.133C292.867 216.133 293.562 215.847 294.082 215.275C294.615 214.704 294.881 213.917 294.881 212.917V209.292C294.881 208.291 294.615 207.505 294.082 206.933C293.562 206.361 292.867 206.076 291.996 206.076C291.139 206.076 290.443 206.361 289.911 206.933C289.391 207.505 289.131 208.291 289.131 209.292V212.917C289.131 213.917 289.391 214.704 289.911 215.275C290.443 215.847 291.139 216.133 291.996 216.133ZM304.45 218.043H302.19L310.96 204.204H313.221L304.45 218.043ZM312.89 218.199C311.825 218.199 310.915 217.822 310.161 217.068C309.421 216.315 309.05 215.412 309.05 214.359C309.05 213.294 309.421 212.391 310.161 211.65C310.915 210.896 311.825 210.519 312.89 210.519C313.943 210.519 314.846 210.896 315.599 211.65C316.353 212.391 316.73 213.294 316.73 214.359C316.73 215.412 316.353 216.315 315.599 217.068C314.846 217.822 313.943 218.199 312.89 218.199ZM311.487 215.743C311.877 216.133 312.344 216.328 312.89 216.328C313.436 216.328 313.891 216.139 314.254 215.763C314.631 215.373 314.82 214.905 314.82 214.359C314.82 213.813 314.631 213.352 314.254 212.975C313.891 212.586 313.436 212.391 312.89 212.391C312.344 212.391 311.877 212.586 311.487 212.975C311.11 213.365 310.921 213.826 310.921 214.359C310.921 214.892 311.11 215.353 311.487 215.743ZM302.521 211.728C301.455 211.728 300.546 211.351 299.792 210.597C299.052 209.844 298.681 208.941 298.681 207.888C298.681 206.823 299.052 205.92 299.792 205.179C300.546 204.425 301.455 204.048 302.521 204.048C303.573 204.048 304.476 204.425 305.23 205.179C305.984 205.92 306.361 206.823 306.361 207.888C306.361 208.941 305.984 209.844 305.23 210.597C304.476 211.351 303.573 211.728 302.521 211.728ZM302.521 209.857C303.054 209.857 303.508 209.662 303.885 209.272C304.275 208.882 304.47 208.421 304.47 207.888C304.47 207.355 304.275 206.894 303.885 206.504C303.508 206.115 303.054 205.92 302.521 205.92C301.975 205.92 301.514 206.115 301.137 206.504C300.76 206.881 300.572 207.342 300.572 207.888C300.572 208.434 300.76 208.902 301.137 209.292C301.514 209.668 301.975 209.857 302.521 209.857Z" fill="white"/>
<path d="M139.135 86.8695C138.252 87.7531 137.115 88.1949 135.724 88.1949C134.334 88.1949 133.197 87.7531 132.314 86.8695C131.43 85.9729 130.988 84.862 130.988 83.5366C130.988 82.8999 131.112 82.3152 131.359 81.7824C131.618 81.2496 132.015 80.6389 132.547 79.9503L137.167 74.1615H139.857L135.958 79.0732H136.173C137.303 79.0732 138.304 79.502 139.174 80.3596C140.045 81.2042 140.48 82.2567 140.48 83.5171C140.48 84.8555 140.032 85.9729 139.135 86.8695ZM133.873 85.3882C134.367 85.882 134.984 86.1289 135.724 86.1289C136.465 86.1289 137.082 85.882 137.576 85.3882C138.07 84.8815 138.317 84.2642 138.317 83.5366C138.317 82.8219 138.063 82.2112 137.557 81.7044C137.063 81.1977 136.452 80.9443 135.724 80.9443C134.997 80.9443 134.386 81.1977 133.892 81.7044C133.399 82.2112 133.152 82.8219 133.152 83.5366C133.152 84.2642 133.392 84.8815 133.873 85.3882ZM150.995 86.7136C150.059 87.7011 148.857 88.1949 147.389 88.1949C145.921 88.1949 144.719 87.7011 143.783 86.7136C142.847 85.7131 142.38 84.4332 142.38 82.8739V79.2486C142.38 77.6893 142.847 76.4159 143.783 75.4284C144.719 74.4278 145.921 73.9276 147.389 73.9276C148.857 73.9276 150.059 74.4278 150.995 75.4284C151.943 76.4159 152.418 77.6893 152.418 79.2486V82.8739C152.418 84.4332 151.943 85.7131 150.995 86.7136ZM147.389 86.0899C148.259 86.0899 148.955 85.804 149.474 85.2323C150.007 84.6606 150.274 83.8744 150.274 82.8739V79.2486C150.274 78.248 150.007 77.4619 149.474 76.8902C148.955 76.3184 148.259 76.0326 147.389 76.0326C146.531 76.0326 145.836 76.3184 145.303 76.8902C144.784 77.4619 144.524 78.248 144.524 79.2486V82.8739C144.524 83.8744 144.784 84.6606 145.303 85.2323C145.836 85.804 146.531 86.0899 147.389 86.0899ZM159.843 88H157.582L166.353 74.1615H168.614L159.843 88ZM168.283 88.1559C167.217 88.1559 166.308 87.7791 165.554 87.0255C164.813 86.2718 164.443 85.3687 164.443 84.3162C164.443 83.2507 164.813 82.3476 165.554 81.607C166.308 80.8533 167.217 80.4765 168.283 80.4765C169.335 80.4765 170.238 80.8533 170.992 81.607C171.746 82.3476 172.122 83.2507 172.122 84.3162C172.122 85.3687 171.746 86.2718 170.992 87.0255C170.238 87.7791 169.335 88.1559 168.283 88.1559ZM166.879 85.7001C167.269 86.0899 167.737 86.2848 168.283 86.2848C168.828 86.2848 169.283 86.0964 169.647 85.7196C170.024 85.3297 170.212 84.862 170.212 84.3162C170.212 83.7705 170.024 83.3092 169.647 82.9324C169.283 82.5425 168.828 82.3476 168.283 82.3476C167.737 82.3476 167.269 82.5425 166.879 82.9324C166.502 83.3222 166.314 83.7835 166.314 84.3162C166.314 84.849 166.502 85.3103 166.879 85.7001ZM157.913 81.6849C156.848 81.6849 155.938 81.3081 155.185 80.5545C154.444 79.8008 154.074 78.8977 154.074 77.8452C154.074 76.7797 154.444 75.8767 155.185 75.136C155.938 74.3824 156.848 74.0055 157.913 74.0055C158.966 74.0055 159.869 74.3824 160.623 75.136C161.376 75.8767 161.753 76.7797 161.753 77.8452C161.753 78.8977 161.376 79.8008 160.623 80.5545C159.869 81.3081 158.966 81.6849 157.913 81.6849ZM157.913 79.8138C158.446 79.8138 158.901 79.6189 159.278 79.2291C159.668 78.8393 159.863 78.378 159.863 77.8452C159.863 77.3125 159.668 76.8512 159.278 76.4614C158.901 76.0716 158.446 75.8767 157.913 75.8767C157.368 75.8767 156.906 76.0716 156.53 76.4614C156.153 76.8382 155.964 77.2995 155.964 77.8452C155.964 78.391 156.153 78.8588 156.53 79.2486C156.906 79.6254 157.368 79.8138 157.913 79.8138Z" fill="#4AC63F"/>
<path d="M399.826 261.896V248.058H401.639V260.181H408.324V261.896H399.826ZM414.235 262.091C412.74 262.091 411.525 261.611 410.59 260.649C409.654 259.688 409.187 258.479 409.187 257.024C409.187 255.581 409.661 254.379 410.609 253.418C411.558 252.443 412.773 251.956 414.254 251.956C415.567 251.956 416.665 252.398 417.548 253.282C418.445 254.152 418.893 255.341 418.893 256.848C418.893 257.043 418.886 257.212 418.873 257.355H410.882C410.908 258.265 411.233 259.025 411.857 259.636C412.493 260.246 413.293 260.552 414.254 260.552C415.619 260.552 416.632 259.986 417.295 258.856L418.62 259.772C417.672 261.318 416.21 262.091 414.235 262.091ZM410.999 255.991H417.178C417.048 255.211 416.704 254.594 416.145 254.139C415.599 253.671 414.949 253.437 414.196 253.437C413.429 253.437 412.74 253.671 412.13 254.139C411.532 254.594 411.155 255.211 410.999 255.991ZM423.143 259.363C423.754 259.999 424.546 260.318 425.521 260.318C426.496 260.318 427.288 259.999 427.899 259.363C428.51 258.713 428.815 257.894 428.815 256.907C428.815 255.919 428.503 255.107 427.879 254.47C427.269 253.821 426.483 253.496 425.521 253.496C424.559 253.496 423.767 253.821 423.143 254.47C422.532 255.107 422.227 255.919 422.227 256.907C422.227 257.894 422.532 258.713 423.143 259.363ZM425.424 266.165C424.423 266.165 423.52 265.977 422.714 265.6C421.909 265.236 421.285 264.762 420.843 264.177L422.013 263.007C422.87 264.099 424.007 264.645 425.424 264.645C426.333 264.645 427.1 264.359 427.723 263.787C428.36 263.215 428.678 262.377 428.678 261.273V260.162C428.328 260.682 427.853 261.097 427.256 261.409C426.658 261.721 426.002 261.877 425.287 261.877C423.923 261.877 422.786 261.403 421.876 260.454C420.967 259.493 420.512 258.31 420.512 256.907C420.512 255.516 420.967 254.347 421.876 253.398C422.799 252.437 423.936 251.956 425.287 251.956C426.002 251.956 426.658 252.112 427.256 252.424C427.853 252.736 428.328 253.145 428.678 253.652V252.151H430.355V261.331C430.355 262.904 429.893 264.099 428.971 264.918C428.061 265.749 426.879 266.165 425.424 266.165ZM435.207 249.208C434.986 249.429 434.706 249.539 434.368 249.539C434.031 249.539 433.745 249.429 433.511 249.208C433.277 248.974 433.16 248.688 433.16 248.35C433.16 248.025 433.277 247.746 433.511 247.512C433.745 247.278 434.031 247.161 434.368 247.161C434.706 247.161 434.986 247.278 435.207 247.512C435.427 247.746 435.538 248.025 435.538 248.35C435.538 248.688 435.427 248.974 435.207 249.208ZM433.511 261.896V252.151H435.187V261.896H433.511ZM442.146 261.994C441.249 261.994 440.528 261.741 439.982 261.234C439.437 260.727 439.164 259.986 439.164 259.012V253.691H437.098V252.151H439.164V249.442H440.84V252.151H443.647V253.691H440.84V258.797C440.84 259.408 440.97 259.837 441.23 260.084C441.49 260.331 441.899 260.454 442.458 260.454C442.951 260.454 443.348 260.389 443.647 260.259V261.76C443.179 261.916 442.679 261.994 442.146 261.994ZM450.743 248.058H452.399L457.525 254.958L462.691 248.058H464.328V261.896H462.535V251.138L457.545 257.842L452.555 251.138V261.896H450.743V248.058ZM471.597 262.091C470.246 262.091 469.109 261.598 468.186 260.61C467.277 259.623 466.822 258.427 466.822 257.024C466.822 255.62 467.277 254.425 468.186 253.437C469.109 252.45 470.246 251.956 471.597 251.956C472.312 251.956 472.974 252.119 473.585 252.443C474.209 252.755 474.69 253.158 475.027 253.652V252.151H476.704V261.896H475.027V260.396C474.69 260.889 474.209 261.299 473.585 261.624C472.974 261.935 472.312 262.091 471.597 262.091ZM471.85 260.552C472.812 260.552 473.605 260.214 474.228 259.538C474.852 258.862 475.164 258.024 475.164 257.024C475.164 256.023 474.852 255.185 474.228 254.509C473.605 253.834 472.812 253.496 471.85 253.496C470.876 253.496 470.077 253.834 469.453 254.509C468.829 255.185 468.517 256.023 468.517 257.024C468.517 258.024 468.829 258.862 469.453 259.538C470.077 260.214 470.876 260.552 471.85 260.552ZM479.859 261.896V252.151H481.535V254.042C481.717 253.444 482.068 252.963 482.588 252.599C483.12 252.235 483.679 252.054 484.264 252.054C484.55 252.054 484.803 252.08 485.024 252.132V253.866C484.79 253.762 484.485 253.71 484.108 253.71C483.432 253.71 482.834 254.003 482.315 254.587C481.795 255.172 481.535 255.997 481.535 257.063V261.896H479.859ZM493.955 261.896L488.673 257.024V261.896H486.997V247.278H488.673V255.952L492.922 252.151H495.144L490.349 256.459L496.216 261.896H493.955ZM501.163 262.091C499.669 262.091 498.454 261.611 497.519 260.649C496.583 259.688 496.115 258.479 496.115 257.024C496.115 255.581 496.589 254.379 497.538 253.418C498.487 252.443 499.702 251.956 501.183 251.956C502.495 251.956 503.593 252.398 504.477 253.282C505.373 254.152 505.822 255.341 505.822 256.848C505.822 257.043 505.815 257.212 505.802 257.355H497.811C497.837 258.265 498.162 259.025 498.785 259.636C499.422 260.246 500.221 260.552 501.183 260.552C502.547 260.552 503.561 259.986 504.223 258.856L505.549 259.772C504.6 261.318 503.138 262.091 501.163 262.091ZM497.928 255.991H504.106C503.977 255.211 503.632 254.594 503.073 254.139C502.528 253.671 501.878 253.437 501.124 253.437C500.358 253.437 499.669 253.671 499.058 254.139C498.461 254.594 498.084 255.211 497.928 255.991ZM511.849 261.994C510.952 261.994 510.231 261.741 509.685 261.234C509.139 260.727 508.867 259.986 508.867 259.012V253.691H506.8V252.151H508.867V249.442H510.543V252.151H513.349V253.691H510.543V258.797C510.543 259.408 510.673 259.837 510.933 260.084C511.192 260.331 511.602 260.454 512.16 260.454C512.654 260.454 513.051 260.389 513.349 260.259V261.76C512.882 261.916 512.381 261.994 511.849 261.994Z" fill="#4AC63F"/>
<path d="M402.332 214.288C402.112 214.509 401.832 214.619 401.494 214.619C401.156 214.619 400.871 214.509 400.637 214.288C400.403 214.054 400.286 213.768 400.286 213.43C400.286 213.106 400.403 212.826 400.637 212.592C400.871 212.358 401.156 212.241 401.494 212.241C401.832 212.241 402.112 212.358 402.332 212.592C402.553 212.826 402.664 213.106 402.664 213.43C402.664 213.768 402.553 214.054 402.332 214.288ZM400.637 226.977V217.231H402.313V226.977H400.637ZM405.49 226.977V212.358H407.167V226.977H405.49ZM410.344 226.977V212.358H412.02V226.977H410.344ZM416.894 214.288C416.673 214.509 416.393 214.619 416.055 214.619C415.718 214.619 415.432 214.509 415.198 214.288C414.964 214.054 414.847 213.768 414.847 213.43C414.847 213.106 414.964 212.826 415.198 212.592C415.432 212.358 415.718 212.241 416.055 212.241C416.393 212.241 416.673 212.358 416.894 212.592C417.114 212.826 417.225 213.106 417.225 213.43C417.225 213.768 417.114 214.054 416.894 214.288ZM415.198 226.977V217.231H416.874V226.977H415.198ZM424.398 227.171C422.93 227.171 421.708 226.684 420.734 225.71C419.772 224.735 419.291 223.533 419.291 222.104C419.291 220.675 419.772 219.473 420.734 218.498C421.708 217.523 422.93 217.036 424.398 217.036C425.386 217.036 426.269 217.27 427.049 217.738C427.841 218.206 428.459 218.842 428.9 219.648L427.439 220.467C427.153 219.895 426.743 219.44 426.211 219.102C425.691 218.764 425.087 218.595 424.398 218.595C423.397 218.595 422.579 218.933 421.942 219.609C421.305 220.285 420.987 221.116 420.987 222.104C420.987 223.091 421.305 223.923 421.942 224.599C422.579 225.274 423.397 225.612 424.398 225.612C425.087 225.612 425.691 225.443 426.211 225.105C426.743 224.768 427.153 224.313 427.439 223.741L428.9 224.56C428.459 225.365 427.841 226.002 427.049 226.47C426.269 226.938 425.386 227.171 424.398 227.171ZM432.768 214.288C432.547 214.509 432.268 214.619 431.93 214.619C431.592 214.619 431.306 214.509 431.072 214.288C430.838 214.054 430.721 213.768 430.721 213.43C430.721 213.106 430.838 212.826 431.072 212.592C431.306 212.358 431.592 212.241 431.93 212.241C432.268 212.241 432.547 212.358 432.768 212.592C432.989 212.826 433.099 213.106 433.099 213.43C433.099 213.768 432.989 214.054 432.768 214.288ZM431.072 226.977V217.231H432.748V226.977H431.072ZM439.707 227.074C438.811 227.074 438.089 226.821 437.544 226.314C436.998 225.807 436.725 225.066 436.725 224.092V218.771H434.659V217.231H436.725V214.522H438.401V217.231H441.208V218.771H438.401V223.878C438.401 224.488 438.531 224.917 438.791 225.164C439.051 225.411 439.46 225.534 440.019 225.534C440.513 225.534 440.909 225.469 441.208 225.339V226.84C440.74 226.996 440.24 227.074 439.707 227.074ZM448.304 213.138H449.961L455.087 220.038L460.252 213.138H461.889V226.977H460.096V216.218L455.106 222.922L450.117 216.218V226.977H448.304V213.138ZM469.158 227.171C467.807 227.171 466.67 226.678 465.747 225.69C464.838 224.703 464.383 223.507 464.383 222.104C464.383 220.7 464.838 219.505 465.747 218.518C466.67 217.53 467.807 217.036 469.158 217.036C469.873 217.036 470.536 217.199 471.146 217.523C471.77 217.835 472.251 218.238 472.589 218.732V217.231H474.265V226.977H472.589V225.476C472.251 225.97 471.77 226.379 471.146 226.704C470.536 227.016 469.873 227.171 469.158 227.171ZM469.412 225.632C470.373 225.632 471.166 225.294 471.79 224.618C472.413 223.942 472.725 223.104 472.725 222.104C472.725 221.103 472.413 220.265 471.79 219.59C471.166 218.914 470.373 218.576 469.412 218.576C468.437 218.576 467.638 218.914 467.014 219.59C466.391 220.265 466.079 221.103 466.079 222.104C466.079 223.104 466.391 223.942 467.014 224.618C467.638 225.294 468.437 225.632 469.412 225.632ZM477.42 226.977V217.231H479.096V219.122C479.278 218.524 479.629 218.043 480.149 217.679C480.682 217.316 481.24 217.134 481.825 217.134C482.111 217.134 482.364 217.16 482.585 217.212V218.946C482.351 218.842 482.046 218.79 481.669 218.79C480.994 218.79 480.396 219.083 479.876 219.667C479.356 220.252 479.096 221.077 479.096 222.143V226.977H477.42ZM491.516 226.977L486.234 222.104V226.977H484.558V212.358H486.234V221.032L490.483 217.231H492.705L487.91 221.539L493.777 226.977H491.516ZM498.725 227.171C497.23 227.171 496.015 226.691 495.08 225.729C494.144 224.768 493.677 223.559 493.677 222.104C493.677 220.662 494.151 219.46 495.099 218.498C496.048 217.523 497.263 217.036 498.744 217.036C500.057 217.036 501.155 217.478 502.038 218.362C502.935 219.232 503.383 220.421 503.383 221.928C503.383 222.123 503.377 222.292 503.364 222.435H495.372C495.398 223.345 495.723 224.105 496.347 224.716C496.984 225.326 497.783 225.632 498.744 225.632C500.109 225.632 501.122 225.066 501.785 223.936L503.11 224.852C502.162 226.398 500.7 227.171 498.725 227.171ZM495.489 221.071H501.668C501.538 220.291 501.194 219.674 500.635 219.219C500.089 218.751 499.439 218.518 498.686 218.518C497.919 218.518 497.23 218.751 496.62 219.219C496.022 219.674 495.645 220.291 495.489 221.071ZM509.41 227.074C508.513 227.074 507.792 226.821 507.247 226.314C506.701 225.807 506.428 225.066 506.428 224.092V218.771H504.362V217.231H506.428V214.522H508.104V217.231H510.911V218.771H508.104V223.878C508.104 224.488 508.234 224.917 508.494 225.164C508.754 225.411 509.163 225.534 509.722 225.534C510.216 225.534 510.612 225.469 510.911 225.339V226.84C510.443 226.996 509.943 227.074 509.41 227.074Z" fill="white"/>
<rect x="378" y="246" width="15" height="15" fill="#4AC63F"/>
<rect x="378" y="210" width="15" height="16" fill="white"/>
<defs>
<radialGradient id="paint0_radial_3183_9580" cx="0" cy="0" r="1" gradientUnits="userSpaceOnUse" gradientTransform="translate(266.25 162) rotate(25.0651) scale(269.091 487.615)">
<stop stop-color="#283173"/>
<stop offset="1" stop-color="#2F313F"/>
</radialGradient>
</defs>
</svg>
