<svg width="32" height="32" viewBox="0 0 32 32" fill="none" xmlns="http://www.w3.org/2000/svg">
<g clip-path="url(#clip0_3282_11865)">
<path fill-rule="evenodd" clip-rule="evenodd" d="M5.33333 31.3354V14.0021C5.33333 13.2657 5.93029 12.6687 6.66667 12.6687H25.3333C26.0697 12.6687 26.6667 13.2657 26.6667 14.0021V31.3354H5.33333ZM24 15.3354H8V31.3354H24V15.3354ZM1.33333 31.3354C0.596953 31.3354 0 30.7385 0 30.0021V9.52727C0 8.48157 0.611208 7.53235 1.56319 7.09963L14.8965 1.03903C15.5976 0.720326 16.4024 0.720326 17.1035 1.03903L30.4368 7.09963C31.3888 7.53235 32 8.48157 32 9.52727V30.0021C32 30.7385 31.4031 31.3354 30.6667 31.3354H1.33333ZM8 18.0021H24V20.6687H8V18.0021ZM8 28.6687H24V31.3354H8V28.6687ZM8 23.3354H24V26.0021H8V23.3354Z" fill="#228B22"/>
</g>
<defs>
<clipPath id="clip0_3282_11865">
<rect width="32" height="32" fill="white"/>
</clipPath>
</defs>
</svg>
