<svg width="634" height="616" viewBox="0 0 634 616" fill="none" xmlns="http://www.w3.org/2000/svg">
<path d="M264.965 159.644C264.285 159.644 263.673 159.504 263.129 159.224C262.585 158.944 262.185 158.572 261.929 158.108L263.033 157.232C263.505 157.96 264.165 158.324 265.013 158.324C265.421 158.324 265.753 158.228 266.009 158.036C266.265 157.836 266.393 157.58 266.393 157.268C266.393 156.7 265.989 156.268 265.181 155.972L264.245 155.636C263.557 155.388 263.049 155.072 262.721 154.688C262.393 154.296 262.229 153.812 262.229 153.236C262.229 152.508 262.489 151.928 263.009 151.496C263.529 151.056 264.193 150.836 265.001 150.836C266.081 150.836 266.941 151.224 267.581 152L266.609 152.948C266.169 152.42 265.629 152.156 264.989 152.156C264.613 152.156 264.293 152.244 264.029 152.42C263.773 152.596 263.645 152.836 263.645 153.14C263.645 153.436 263.741 153.672 263.933 153.848C264.133 154.016 264.469 154.188 264.941 154.364L265.805 154.688C266.461 154.936 266.961 155.26 267.305 155.66C267.649 156.06 267.817 156.568 267.809 157.184C267.809 157.92 267.545 158.516 267.017 158.972C266.489 159.42 265.805 159.644 264.965 159.644ZM271.883 159.62C270.971 159.62 270.219 159.328 269.627 158.744C269.043 158.16 268.751 157.412 268.751 156.5C268.751 155.612 269.047 154.872 269.639 154.28C270.231 153.68 270.979 153.38 271.883 153.38C272.715 153.38 273.403 153.644 273.947 154.172C274.499 154.7 274.775 155.428 274.775 156.356C274.775 156.516 274.771 156.66 274.763 156.788H270.047C270.079 157.276 270.267 157.672 270.611 157.976C270.955 158.272 271.383 158.42 271.895 158.42C272.663 158.42 273.235 158.116 273.611 157.508L274.619 158.228C274.043 159.156 273.131 159.62 271.883 159.62ZM270.107 155.828H273.443C273.371 155.412 273.183 155.088 272.879 154.856C272.583 154.616 272.235 154.496 271.835 154.496C271.419 154.496 271.047 154.612 270.719 154.844C270.399 155.076 270.195 155.404 270.107 155.828ZM278.868 159.62C277.964 159.62 277.208 159.324 276.6 158.732C276 158.132 275.7 157.388 275.7 156.5C275.7 155.612 276 154.872 276.6 154.28C277.208 153.68 277.964 153.38 278.868 153.38C279.484 153.38 280.036 153.528 280.524 153.824C281.02 154.12 281.4 154.524 281.664 155.036L280.512 155.66C280.36 155.34 280.14 155.084 279.852 154.892C279.564 154.7 279.236 154.604 278.868 154.604C278.34 154.604 277.904 154.788 277.56 155.156C277.216 155.516 277.044 155.964 277.044 156.5C277.044 157.036 277.216 157.488 277.56 157.856C277.904 158.216 278.34 158.396 278.868 158.396C279.236 158.396 279.564 158.3 279.852 158.108C280.14 157.916 280.36 157.66 280.512 157.34L281.664 157.964C281.4 158.476 281.02 158.88 280.524 159.176C280.036 159.472 279.484 159.62 278.868 159.62ZM285.018 159.62C284.33 159.62 283.786 159.392 283.386 158.936C282.986 158.472 282.786 157.856 282.786 157.088V153.5H284.106V156.872C284.106 157.352 284.21 157.732 284.418 158.012C284.626 158.284 284.922 158.42 285.306 158.42C285.754 158.42 286.11 158.252 286.374 157.916C286.638 157.572 286.77 157.084 286.77 156.452V153.5H288.09V159.5H286.77V158.684C286.418 159.308 285.834 159.62 285.018 159.62ZM289.867 159.5V153.5H291.187V154.568C291.299 154.232 291.503 153.96 291.799 153.752C292.103 153.544 292.427 153.44 292.771 153.44C292.979 153.44 293.151 153.456 293.287 153.488V154.844C293.095 154.772 292.875 154.736 292.627 154.736C292.227 154.736 291.887 154.9 291.607 155.228C291.327 155.548 291.187 155.996 291.187 156.572V159.5H289.867ZM295.085 152.192C294.845 152.192 294.637 152.108 294.461 151.94C294.285 151.764 294.197 151.552 294.197 151.304C294.197 151.064 294.285 150.86 294.461 150.692C294.637 150.516 294.845 150.428 295.085 150.428C295.333 150.428 295.541 150.516 295.709 150.692C295.877 150.86 295.961 151.064 295.961 151.304C295.961 151.552 295.877 151.764 295.709 151.94C295.541 152.108 295.333 152.192 295.085 152.192ZM294.425 159.5V153.5H295.745V159.5H294.425ZM300.123 159.56C299.515 159.56 299.019 159.392 298.635 159.056C298.259 158.712 298.071 158.216 298.071 157.568V154.676H296.823V153.5H298.071V151.832H299.391V153.5H301.107V154.676H299.391V157.352C299.391 157.72 299.471 157.984 299.631 158.144C299.791 158.296 300.047 158.372 300.399 158.372C300.687 158.372 300.923 158.332 301.107 158.252V159.428C300.819 159.516 300.491 159.56 300.123 159.56ZM304.279 162.008H302.827L304.111 159.176L301.531 153.5H302.983L304.819 157.748L306.667 153.5H308.131L304.279 162.008ZM271.433 175.62C270.529 175.62 269.773 175.324 269.165 174.732C268.565 174.132 268.265 173.388 268.265 172.5C268.265 171.612 268.565 170.872 269.165 170.28C269.773 169.68 270.529 169.38 271.433 169.38C272.049 169.38 272.601 169.528 273.089 169.824C273.585 170.12 273.965 170.524 274.229 171.036L273.077 171.66C272.925 171.34 272.705 171.084 272.417 170.892C272.129 170.7 271.801 170.604 271.433 170.604C270.905 170.604 270.469 170.788 270.125 171.156C269.781 171.516 269.609 171.964 269.609 172.5C269.609 173.036 269.781 173.488 270.125 173.856C270.469 174.216 270.905 174.396 271.433 174.396C271.801 174.396 272.129 174.3 272.417 174.108C272.705 173.916 272.925 173.66 273.077 173.34L274.229 173.964C273.965 174.476 273.585 174.88 273.089 175.176C272.601 175.472 272.049 175.62 271.433 175.62ZM280.379 174.72C279.779 175.32 279.035 175.62 278.147 175.62C277.259 175.62 276.511 175.32 275.903 174.72C275.303 174.112 275.003 173.372 275.003 172.5C275.003 171.628 275.303 170.892 275.903 170.292C276.511 169.684 277.259 169.38 278.147 169.38C279.035 169.38 279.779 169.684 280.379 170.292C280.987 170.892 281.291 171.628 281.291 172.5C281.291 173.372 280.987 174.112 280.379 174.72ZM278.147 174.396C278.667 174.396 279.095 174.216 279.431 173.856C279.775 173.488 279.947 173.036 279.947 172.5C279.947 171.964 279.775 171.516 279.431 171.156C279.095 170.788 278.667 170.604 278.147 170.604C277.619 170.604 277.183 170.788 276.839 171.156C276.503 171.516 276.335 171.964 276.335 172.5C276.335 173.036 276.503 173.488 276.839 173.856C277.183 174.216 277.619 174.396 278.147 174.396ZM285.078 175.62C284.262 175.62 283.574 175.316 283.014 174.708C282.462 174.1 282.186 173.364 282.186 172.5C282.186 171.636 282.462 170.9 283.014 170.292C283.574 169.684 284.262 169.38 285.078 169.38C285.486 169.38 285.862 169.472 286.206 169.656C286.55 169.832 286.814 170.048 286.998 170.304V166.5H288.318V175.5H286.998V174.696C286.814 174.952 286.55 175.172 286.206 175.356C285.862 175.532 285.486 175.62 285.078 175.62ZM284.034 173.868C284.37 174.236 284.798 174.42 285.318 174.42C285.838 174.42 286.266 174.236 286.602 173.868C286.938 173.5 287.106 173.044 287.106 172.5C287.106 171.956 286.938 171.5 286.602 171.132C286.266 170.764 285.838 170.58 285.318 170.58C284.798 170.58 284.37 170.764 284.034 171.132C283.698 171.5 283.53 171.956 283.53 172.5C283.53 173.044 283.698 173.5 284.034 173.868ZM292.819 175.62C291.907 175.62 291.155 175.328 290.563 174.744C289.979 174.16 289.687 173.412 289.687 172.5C289.687 171.612 289.983 170.872 290.575 170.28C291.167 169.68 291.915 169.38 292.819 169.38C293.651 169.38 294.339 169.644 294.883 170.172C295.435 170.7 295.711 171.428 295.711 172.356C295.711 172.516 295.707 172.66 295.699 172.788H290.983C291.015 173.276 291.203 173.672 291.547 173.976C291.891 174.272 292.319 174.42 292.831 174.42C293.599 174.42 294.171 174.116 294.547 173.508L295.555 174.228C294.979 175.156 294.067 175.62 292.819 175.62ZM291.043 171.828H294.379C294.307 171.412 294.119 171.088 293.815 170.856C293.519 170.616 293.171 170.496 292.771 170.496C292.355 170.496 291.983 170.612 291.655 170.844C291.335 171.076 291.131 171.404 291.043 171.828ZM298.976 175.62C298.424 175.62 297.936 175.516 297.512 175.308C297.088 175.092 296.772 174.772 296.564 174.348L297.536 173.652C297.656 173.908 297.848 174.112 298.112 174.264C298.376 174.408 298.664 174.48 298.976 174.48C299.224 174.48 299.428 174.424 299.588 174.312C299.756 174.2 299.84 174.044 299.84 173.844C299.84 173.668 299.772 173.524 299.636 173.412C299.508 173.3 299.268 173.188 298.916 173.076L298.388 172.932C297.324 172.644 296.8 172.032 296.816 171.096C296.816 170.576 297.02 170.16 297.428 169.848C297.836 169.536 298.348 169.38 298.964 169.38C299.892 169.38 300.568 169.72 300.992 170.4L300.08 171.096C299.776 170.688 299.396 170.484 298.94 170.484C298.724 170.484 298.536 170.536 298.376 170.64C298.216 170.736 298.136 170.872 298.136 171.048C298.136 171.208 298.188 171.344 298.292 171.456C298.396 171.568 298.584 171.668 298.856 171.756L299.468 171.936C300.028 172.104 300.448 172.332 300.728 172.62C301.008 172.9 301.148 173.28 301.148 173.76C301.148 174.328 300.944 174.78 300.536 175.116C300.128 175.452 299.608 175.62 298.976 175.62Z" fill="#2F313F"/>
<path d="M346.719 222.5L353.936 210L339.502 210L346.719 222.5ZM347.969 211.25L347.969 38.5L345.469 38.5L345.469 211.25L347.969 211.25Z" fill="#999999"/>
<path d="M312.719 36.5L305.502 49L319.936 49L312.719 36.5ZM313.969 221.5L313.969 47.75L311.469 47.75L311.469 221.5L313.969 221.5Z" fill="#303030"/>
<path d="M329.719 220.5L336.936 208L322.502 208L329.719 220.5ZM330.969 209.25L330.969 38.5L328.469 38.5L328.469 209.25L330.969 209.25Z" fill="#FFC525"/>
<path d="M292.219 5.50023L278.615 0.67577L281.239 14.8691L292.219 5.50023ZM112.562 94.9228C140.646 69.2458 164.174 51.3284 189.995 38.0221C215.813 24.7175 243.985 15.9911 281.39 8.77308L280.917 6.31837C243.37 13.5636 214.949 22.3501 188.85 35.7998C162.754 49.2478 139.041 67.326 110.875 93.0777L112.562 94.9228Z" fill="#4AC63F"/>
<path d="M249.719 356.5L235.631 359.641L245.395 370.271L249.719 356.5ZM112.846 483.921L242.279 365.031L240.588 363.19L111.154 482.079L112.846 483.921Z" fill="#FFC525"/>
<path d="M392.719 376.5L397.442 390.139L406.892 379.229L392.719 376.5ZM550.537 511.555L402.04 382.921L400.404 384.811L548.9 513.445L550.537 511.555Z" fill="#FFC525"/>
<path d="M357.741 161.5V152.98H360.357C361.621 152.98 362.681 153.388 363.537 154.204C364.393 155.02 364.821 156.032 364.821 157.24C364.821 158.448 364.393 159.46 363.537 160.276C362.681 161.092 361.621 161.5 360.357 161.5H357.741ZM359.145 160.192H360.357C361.253 160.192 361.981 159.912 362.541 159.352C363.109 158.792 363.393 158.088 363.393 157.24C363.393 156.392 363.109 155.688 362.541 155.128C361.981 154.568 361.253 154.288 360.357 154.288H359.145V160.192ZM368.922 161.62C368.01 161.62 367.258 161.328 366.666 160.744C366.082 160.16 365.79 159.412 365.79 158.5C365.79 157.612 366.086 156.872 366.678 156.28C367.27 155.68 368.018 155.38 368.922 155.38C369.754 155.38 370.442 155.644 370.986 156.172C371.538 156.7 371.814 157.428 371.814 158.356C371.814 158.516 371.81 158.66 371.802 158.788H367.086C367.118 159.276 367.306 159.672 367.65 159.976C367.994 160.272 368.422 160.42 368.934 160.42C369.702 160.42 370.274 160.116 370.65 159.508L371.658 160.228C371.082 161.156 370.17 161.62 368.922 161.62ZM367.146 157.828H370.482C370.41 157.412 370.222 157.088 369.918 156.856C369.622 156.616 369.274 156.496 368.874 156.496C368.458 156.496 368.086 156.612 367.758 156.844C367.438 157.076 367.234 157.404 367.146 157.828ZM374.491 164.008H373.171V155.5H374.491V156.304C374.675 156.048 374.939 155.832 375.283 155.656C375.635 155.472 376.015 155.38 376.423 155.38C377.239 155.38 377.923 155.684 378.475 156.292C379.035 156.9 379.315 157.636 379.315 158.5C379.315 159.364 379.035 160.1 378.475 160.708C377.923 161.316 377.239 161.62 376.423 161.62C376.015 161.62 375.635 161.532 375.283 161.356C374.939 161.172 374.675 160.952 374.491 160.696V164.008ZM376.183 160.42C376.703 160.42 377.131 160.236 377.467 159.868C377.803 159.5 377.971 159.044 377.971 158.5C377.971 157.956 377.803 157.5 377.467 157.132C377.131 156.764 376.703 156.58 376.183 156.58C375.655 156.58 375.223 156.764 374.887 157.132C374.551 157.5 374.383 157.956 374.383 158.5C374.383 159.044 374.551 159.5 374.887 159.868C375.223 160.236 375.655 160.42 376.183 160.42ZM385.603 160.72C385.003 161.32 384.259 161.62 383.371 161.62C382.483 161.62 381.735 161.32 381.127 160.72C380.527 160.112 380.227 159.372 380.227 158.5C380.227 157.628 380.527 156.892 381.127 156.292C381.735 155.684 382.483 155.38 383.371 155.38C384.259 155.38 385.003 155.684 385.603 156.292C386.211 156.892 386.515 157.628 386.515 158.5C386.515 159.372 386.211 160.112 385.603 160.72ZM383.371 160.396C383.891 160.396 384.319 160.216 384.655 159.856C384.999 159.488 385.171 159.036 385.171 158.5C385.171 157.964 384.999 157.516 384.655 157.156C384.319 156.788 383.891 156.604 383.371 156.604C382.843 156.604 382.407 156.788 382.063 157.156C381.727 157.516 381.559 157.964 381.559 158.5C381.559 159.036 381.727 159.488 382.063 159.856C382.407 160.216 382.843 160.396 383.371 160.396ZM389.728 161.62C389.176 161.62 388.688 161.516 388.264 161.308C387.84 161.092 387.524 160.772 387.316 160.348L388.288 159.652C388.408 159.908 388.6 160.112 388.864 160.264C389.128 160.408 389.416 160.48 389.728 160.48C389.976 160.48 390.18 160.424 390.34 160.312C390.508 160.2 390.592 160.044 390.592 159.844C390.592 159.668 390.524 159.524 390.388 159.412C390.26 159.3 390.02 159.188 389.668 159.076L389.14 158.932C388.076 158.644 387.552 158.032 387.568 157.096C387.568 156.576 387.772 156.16 388.18 155.848C388.588 155.536 389.1 155.38 389.716 155.38C390.644 155.38 391.32 155.72 391.744 156.4L390.832 157.096C390.528 156.688 390.148 156.484 389.692 156.484C389.476 156.484 389.288 156.536 389.128 156.64C388.968 156.736 388.888 156.872 388.888 157.048C388.888 157.208 388.94 157.344 389.044 157.456C389.148 157.568 389.336 157.668 389.608 157.756L390.22 157.936C390.78 158.104 391.2 158.332 391.48 158.62C391.76 158.9 391.9 159.28 391.9 159.76C391.9 160.328 391.696 160.78 391.288 161.116C390.88 161.452 390.36 161.62 389.728 161.62ZM393.929 154.192C393.689 154.192 393.481 154.108 393.305 153.94C393.129 153.764 393.041 153.552 393.041 153.304C393.041 153.064 393.129 152.86 393.305 152.692C393.481 152.516 393.689 152.428 393.929 152.428C394.177 152.428 394.385 152.516 394.553 152.692C394.721 152.86 394.805 153.064 394.805 153.304C394.805 153.552 394.721 153.764 394.553 153.94C394.385 154.108 394.177 154.192 393.929 154.192ZM393.269 161.5V155.5H394.589V161.5H393.269ZM398.967 161.56C398.359 161.56 397.863 161.392 397.479 161.056C397.103 160.712 396.915 160.216 396.915 159.568V156.676H395.667V155.5H396.915V153.832H398.235V155.5H399.951V156.676H398.235V159.352C398.235 159.72 398.315 159.984 398.475 160.144C398.635 160.296 398.891 160.372 399.243 160.372C399.531 160.372 399.767 160.332 399.951 160.252V161.428C399.663 161.516 399.335 161.56 398.967 161.56ZM403.583 158.608V157.444H405.527V155.5H406.703V157.444H408.647V158.608H406.703V160.552H405.527V158.608H403.583ZM350.241 177.5V168.98H351.645V172.508H355.857V168.98H357.261V177.5H355.857V173.84H351.645V177.5H350.241ZM361.545 177.62C360.729 177.62 360.041 177.316 359.481 176.708C358.929 176.1 358.653 175.364 358.653 174.5C358.653 173.636 358.929 172.9 359.481 172.292C360.041 171.684 360.729 171.38 361.545 171.38C361.953 171.38 362.329 171.472 362.673 171.656C363.017 171.832 363.281 172.048 363.465 172.304V171.5H364.785V177.5H363.465V176.696C363.281 176.952 363.017 177.172 362.673 177.356C362.329 177.532 361.953 177.62 361.545 177.62ZM360.501 175.868C360.837 176.236 361.265 176.42 361.785 176.42C362.305 176.42 362.733 176.236 363.069 175.868C363.405 175.5 363.573 175.044 363.573 174.5C363.573 173.956 363.405 173.5 363.069 173.132C362.733 172.764 362.305 172.58 361.785 172.58C361.265 172.58 360.837 172.764 360.501 173.132C360.165 173.5 359.997 173.956 359.997 174.5C359.997 175.044 360.165 175.5 360.501 175.868ZM366.574 177.5V171.5H367.894V172.316C368.27 171.692 368.878 171.38 369.718 171.38C370.414 171.38 370.97 171.608 371.386 172.064C371.802 172.52 372.01 173.128 372.01 173.888V177.5H370.69V174.104C370.69 173.624 370.578 173.252 370.354 172.988C370.13 172.716 369.826 172.58 369.442 172.58C368.986 172.58 368.614 172.752 368.326 173.096C368.038 173.44 367.894 173.924 367.894 174.548V177.5H366.574ZM376.159 177.62C375.343 177.62 374.655 177.316 374.095 176.708C373.543 176.1 373.267 175.364 373.267 174.5C373.267 173.636 373.543 172.9 374.095 172.292C374.655 171.684 375.343 171.38 376.159 171.38C376.567 171.38 376.943 171.472 377.287 171.656C377.631 171.832 377.895 172.048 378.079 172.304V168.5H379.399V177.5H378.079V176.696C377.895 176.952 377.631 177.172 377.287 177.356C376.943 177.532 376.567 177.62 376.159 177.62ZM375.115 175.868C375.451 176.236 375.879 176.42 376.399 176.42C376.919 176.42 377.347 176.236 377.683 175.868C378.019 175.5 378.187 175.044 378.187 174.5C378.187 173.956 378.019 173.5 377.683 173.132C377.347 172.764 376.919 172.58 376.399 172.58C375.879 172.58 375.451 172.764 375.115 173.132C374.779 173.5 374.611 173.956 374.611 174.5C374.611 175.044 374.779 175.5 375.115 175.868ZM381.187 177.5V168.5H382.507V177.5H381.187ZM384.941 170.192C384.701 170.192 384.493 170.108 384.317 169.94C384.141 169.764 384.053 169.552 384.053 169.304C384.053 169.064 384.141 168.86 384.317 168.692C384.493 168.516 384.701 168.428 384.941 168.428C385.189 168.428 385.397 168.516 385.565 168.692C385.733 168.86 385.817 169.064 385.817 169.304C385.817 169.552 385.733 169.764 385.565 169.94C385.397 170.108 385.189 170.192 384.941 170.192ZM384.281 177.5V171.5H385.601V177.5H384.281ZM387.374 177.5V171.5H388.694V172.316C389.07 171.692 389.678 171.38 390.518 171.38C391.214 171.38 391.77 171.608 392.186 172.064C392.602 172.52 392.81 173.128 392.81 173.888V177.5H391.49V174.104C391.49 173.624 391.378 173.252 391.154 172.988C390.93 172.716 390.626 172.58 390.242 172.58C389.786 172.58 389.414 172.752 389.126 173.096C388.838 173.44 388.694 173.924 388.694 174.548V177.5H387.374ZM395.927 175.736C396.271 176.08 396.695 176.252 397.199 176.252C397.703 176.252 398.127 176.08 398.471 175.736C398.815 175.384 398.987 174.944 398.987 174.416C398.987 173.888 398.815 173.452 398.471 173.108C398.127 172.756 397.703 172.58 397.199 172.58C396.695 172.58 396.271 172.756 395.927 173.108C395.583 173.452 395.411 173.888 395.411 174.416C395.411 174.944 395.583 175.384 395.927 175.736ZM397.079 180.128C396.495 180.128 395.955 180.028 395.459 179.828C394.963 179.636 394.567 179.368 394.271 179.024L395.075 178.076C395.611 178.66 396.275 178.952 397.067 178.952C397.587 178.952 398.019 178.784 398.363 178.448C398.707 178.12 398.879 177.664 398.879 177.08V176.528C398.687 176.8 398.419 177.024 398.075 177.2C397.731 177.376 397.359 177.464 396.959 177.464C396.151 177.464 395.467 177.172 394.907 176.588C394.355 175.996 394.079 175.272 394.079 174.416C394.079 173.568 394.355 172.852 394.907 172.268C395.467 171.676 396.151 171.38 396.959 171.38C397.359 171.38 397.731 171.468 398.075 171.644C398.419 171.812 398.687 172.032 398.879 172.304V171.5H400.199V177.092C400.199 178.092 399.911 178.848 399.335 179.36C398.767 179.872 398.015 180.128 397.079 180.128ZM405.27 177.5V172.676H404.022V171.5H405.27V170.492C405.27 169.844 405.462 169.34 405.846 168.98C406.23 168.612 406.722 168.428 407.322 168.428C407.69 168.428 408.018 168.476 408.306 168.572V169.748C408.122 169.668 407.886 169.628 407.598 169.628C407.246 169.628 406.99 169.708 406.83 169.868C406.67 170.02 406.59 170.28 406.59 170.648V171.5H408.306V172.676H406.59V177.5H405.27ZM411.918 177.62C411.006 177.62 410.254 177.328 409.662 176.744C409.078 176.16 408.786 175.412 408.786 174.5C408.786 173.612 409.082 172.872 409.674 172.28C410.266 171.68 411.014 171.38 411.918 171.38C412.75 171.38 413.438 171.644 413.982 172.172C414.534 172.7 414.81 173.428 414.81 174.356C414.81 174.516 414.806 174.66 414.798 174.788H410.082C410.114 175.276 410.302 175.672 410.646 175.976C410.99 176.272 411.418 176.42 411.93 176.42C412.698 176.42 413.27 176.116 413.646 175.508L414.654 176.228C414.078 177.156 413.166 177.62 411.918 177.62ZM410.142 173.828H413.478C413.406 173.412 413.218 173.088 412.914 172.856C412.618 172.616 412.27 172.496 411.87 172.496C411.454 172.496 411.082 172.612 410.754 172.844C410.434 173.076 410.23 173.404 410.142 173.828ZM418.879 177.62C417.967 177.62 417.215 177.328 416.623 176.744C416.039 176.16 415.747 175.412 415.747 174.5C415.747 173.612 416.043 172.872 416.635 172.28C417.227 171.68 417.975 171.38 418.879 171.38C419.711 171.38 420.399 171.644 420.943 172.172C421.495 172.7 421.771 173.428 421.771 174.356C421.771 174.516 421.767 174.66 421.759 174.788H417.043C417.075 175.276 417.263 175.672 417.607 175.976C417.951 176.272 418.379 176.42 418.891 176.42C419.659 176.42 420.231 176.116 420.607 175.508L421.615 176.228C421.039 177.156 420.127 177.62 418.879 177.62ZM417.103 173.828H420.439C420.367 173.412 420.179 173.088 419.875 172.856C419.579 172.616 419.231 172.496 418.831 172.496C418.415 172.496 418.043 172.612 417.715 172.844C417.395 173.076 417.191 173.404 417.103 173.828Z" fill="#888D92"/>
<path d="M533.719 86.5L528.75 72.9537L519.498 84.0422L533.719 86.5ZM360.517 6.23389C397.397 12.214 425.023 19.7846 450.068 31.3089C475.114 42.8337 497.638 58.34 524.289 80.2635L525.878 78.3321C499.142 56.3385 476.431 40.6869 451.115 29.0376C425.798 17.3879 397.934 9.76813 360.92 3.76611L360.517 6.23389Z" fill="#4AC63F"/>
<path d="M357.719 20L368.455 29.6355L371.441 15.5109L357.719 20ZM368.466 23.5389C404.488 31.3335 429.287 39.0167 451.982 50.5615C474.684 62.1091 495.343 77.5518 523.052 100.955L524.667 99.0447C496.919 75.6086 476.082 60.0145 453.118 48.3329C430.148 36.6485 405.112 28.9101 368.997 21.0954L368.466 23.5389Z" fill="#999999"/>
<path d="M360.718 601.5L374.326 606.312L371.69 592.121L360.718 601.5ZM528.907 523.549C501.937 546.556 479.305 561.993 455.089 573.291C430.87 584.591 405.008 591.777 371.541 598.218L372.014 600.673C405.58 594.213 431.665 586.979 456.146 575.557C480.63 564.134 503.452 548.549 530.529 525.451L528.907 523.549Z" fill="#4AC63F"/>
<path d="M118.718 519.5L123.698 533.047L132.941 521.961L118.718 519.5ZM292.946 600.271C256.24 593.482 228.564 585.929 203.318 574.548C178.077 563.17 155.21 547.941 128.154 525.739L126.568 527.671C153.728 549.959 176.784 565.329 202.29 576.827C227.792 588.323 255.686 595.922 292.491 602.729L292.946 600.271Z" fill="#4AC63F"/>
<path d="M77.7195 471.5C47.2015 422.562 19.7204 360.486 28.2202 270.983" stroke="#4AC63F" stroke-width="2.5"/>
<path d="M72.2206 144.5L59.7303 151.734L72.24 158.934L72.2206 144.5ZM29.4642 271.59C33.1583 228.186 44.5523 195.949 67.6989 154.862L65.5208 153.635C42.2382 194.963 30.7038 227.544 26.9733 271.378L29.4642 271.59Z" fill="#4AC63F"/>
<path d="M625.219 271L630.194 257.451L615.973 259.917L625.219 271ZM576.171 139.681C601.362 178.451 612.328 206.122 622.066 260.134L624.527 259.691C614.736 205.388 603.659 177.398 578.267 138.319L576.171 139.681Z" fill="#4AC63F"/>
<path d="M562.719 144.5L563.31 158.922L575.504 151.199L562.719 144.5ZM567.672 154.657C590.106 191.106 599.513 219.501 608.986 276.206L611.452 275.794C601.946 218.888 592.457 190.156 569.801 153.347L567.672 154.657Z" fill="#999999"/>
<path d="M572.721 475.5L585.5 468.79L573.299 461.078L572.721 475.5ZM623.487 338.298C614.354 393.969 603.565 423.532 577.672 465.328L579.797 466.644C605.884 424.537 616.774 394.656 625.954 338.702L623.487 338.298Z" fill="#4AC63F"/>
<path d="M606.717 333.5L597.469 344.582L611.691 347.05L606.717 333.5ZM603.566 344.351C593.875 397.124 580.058 427.713 551.665 471.823L553.767 473.177C582.304 428.843 596.265 397.952 606.025 344.803L603.566 344.351Z" fill="#999999"/>
<path d="M140.375 447.052L134.487 440.611L137.028 438.288C137.515 437.843 138.009 437.55 138.512 437.41C139.015 437.266 139.502 437.269 139.972 437.421C140.442 437.569 140.871 437.856 141.26 438.281C141.651 438.709 141.895 439.161 141.993 439.638C142.088 440.113 142.035 440.592 141.835 441.076C141.636 441.558 141.289 442.025 140.795 442.477L139.093 444.033L138.092 442.938L139.574 441.584C139.834 441.346 140.017 441.113 140.124 440.885C140.231 440.656 140.261 440.432 140.214 440.213C140.17 439.992 140.051 439.775 139.857 439.564C139.662 439.35 139.454 439.209 139.234 439.14C139.016 439.07 138.785 439.077 138.542 439.161C138.299 439.24 138.047 439.4 137.785 439.64L136.867 440.479L141.737 445.807L140.375 447.052ZM141.174 440.941L145.455 442.408L143.951 443.783L139.705 442.283L141.174 440.941ZM148.372 439.914C147.876 440.369 147.356 440.659 146.813 440.786C146.271 440.908 145.734 440.872 145.201 440.677C144.667 440.48 144.167 440.127 143.702 439.617C143.247 439.121 142.945 438.596 142.795 438.045C142.645 437.493 142.649 436.952 142.807 436.422C142.968 435.891 143.285 435.408 143.759 434.975C144.078 434.684 144.421 434.464 144.79 434.315C145.159 434.163 145.539 434.095 145.93 434.11C146.324 434.124 146.719 434.232 147.116 434.435C147.511 434.635 147.897 434.941 148.272 435.352L148.609 435.72L144.529 439.449L143.77 438.619L146.588 436.043C146.412 435.85 146.214 435.717 145.994 435.645C145.774 435.573 145.551 435.563 145.326 435.615C145.1 435.664 144.89 435.777 144.695 435.955C144.492 436.141 144.355 436.353 144.284 436.591C144.213 436.825 144.205 437.061 144.261 437.299C144.315 437.535 144.428 437.749 144.6 437.942L145.322 438.731C145.54 438.97 145.773 439.136 146.02 439.23C146.27 439.321 146.519 439.34 146.769 439.284C147.019 439.229 147.256 439.099 147.48 438.894C147.629 438.758 147.746 438.612 147.832 438.457C147.917 438.302 147.965 438.143 147.977 437.978C147.988 437.814 147.961 437.65 147.896 437.486L149.21 436.435C149.419 436.79 149.528 437.168 149.536 437.569C149.545 437.965 149.452 438.365 149.259 438.769C149.066 439.168 148.771 439.55 148.372 439.914ZM153.647 435.092C153.152 435.545 152.631 435.829 152.082 435.945C151.534 436.058 150.994 436.013 150.46 435.812C149.928 435.609 149.439 435.264 148.992 434.775C148.54 434.28 148.238 433.759 148.088 433.212C147.938 432.66 147.944 432.117 148.106 431.584C148.267 431.048 148.592 430.557 149.08 430.11C149.502 429.725 149.941 429.464 150.397 429.328C150.854 429.191 151.301 429.177 151.739 429.285C152.176 429.393 152.575 429.625 152.935 429.981L151.671 431.137C151.415 430.929 151.143 430.821 150.856 430.814C150.569 430.803 150.302 430.91 150.057 431.134C149.849 431.324 149.72 431.546 149.668 431.801C149.617 432.052 149.646 432.324 149.755 432.617C149.865 432.909 150.059 433.207 150.337 433.511C150.618 433.82 150.9 434.043 151.181 434.183C151.465 434.32 151.736 434.374 151.994 434.346C152.253 434.317 152.486 434.208 152.694 434.018C152.847 433.878 152.955 433.721 153.019 433.547C153.086 433.371 153.104 433.187 153.074 432.995C153.045 432.798 152.965 432.604 152.835 432.411L154.099 431.255C154.416 431.643 154.612 432.06 154.689 432.506C154.766 432.948 154.719 433.391 154.548 433.836C154.377 434.281 154.077 434.7 153.647 435.092ZM159.059 433.297C158.89 433.452 158.718 433.584 158.544 433.693C158.374 433.802 158.223 433.881 158.09 433.929L157.478 432.653C157.679 432.557 157.844 432.454 157.974 432.343C158.106 432.231 158.189 432.101 158.224 431.953C158.261 431.804 158.239 431.627 158.16 431.423L158.052 431.146L151.776 427.761L153.185 426.473L157.428 429.107L157.479 429.061L155.245 424.59L156.663 423.293L159.68 430.363C159.827 430.705 159.911 431.044 159.933 431.378C159.958 431.713 159.901 432.041 159.762 432.36C159.625 432.682 159.391 432.994 159.059 433.297ZM163.879 425.738C163.384 426.191 162.863 426.475 162.314 426.591C161.766 426.704 161.226 426.659 160.692 426.458C160.16 426.255 159.671 425.91 159.224 425.421C158.772 424.926 158.47 424.405 158.32 423.857C158.17 423.306 158.176 422.763 158.338 422.23C158.499 421.694 158.824 421.203 159.312 420.756C159.734 420.371 160.173 420.11 160.629 419.974C161.086 419.837 161.533 419.823 161.97 419.931C162.408 420.039 162.807 420.271 163.167 420.627L161.903 421.783C161.646 421.574 161.375 421.467 161.088 421.46C160.8 421.449 160.534 421.556 160.289 421.78C160.081 421.97 159.952 422.192 159.9 422.447C159.849 422.698 159.878 422.97 159.987 423.263C160.097 423.555 160.291 423.853 160.568 424.157C160.85 424.466 161.132 424.689 161.413 424.829C161.697 424.966 161.968 425.02 162.226 424.992C162.485 424.963 162.718 424.854 162.926 424.664C163.079 424.524 163.187 424.367 163.251 424.193C163.318 424.017 163.336 423.833 163.306 423.641C163.277 423.444 163.197 423.25 163.067 423.057L164.331 421.901C164.648 422.289 164.844 422.706 164.921 423.152C164.998 423.594 164.95 424.037 164.78 424.482C164.609 424.927 164.309 425.346 163.879 425.738ZM162.259 415.221L168.148 421.663L166.808 422.887L160.919 416.446L162.259 415.221ZM169.221 420.681L164.805 415.85L166.145 414.626L170.561 419.457L169.221 420.681ZM164.908 414.612C164.709 414.794 164.478 414.885 164.215 414.883C163.951 414.877 163.735 414.781 163.564 414.594C163.395 414.41 163.321 414.187 163.341 413.927C163.36 413.662 163.47 413.439 163.669 413.257C163.868 413.075 164.1 412.987 164.363 412.992C164.626 412.994 164.842 413.087 165.011 413.272C165.181 413.458 165.257 413.684 165.237 413.948C165.217 414.209 165.108 414.43 164.908 414.612ZM170.421 414.458L172.974 417.25L171.634 418.475L167.218 413.644L168.495 412.477L169.274 413.329L169.331 413.278C169.181 412.899 169.157 412.513 169.259 412.119C169.359 411.723 169.588 411.362 169.947 411.034C170.282 410.727 170.642 410.533 171.026 410.452C171.409 410.371 171.795 410.403 172.183 410.549C172.568 410.693 172.933 410.953 173.276 411.328L176.088 414.404L174.748 415.629L172.154 412.792C171.886 412.494 171.6 412.333 171.295 412.307C170.989 412.279 170.702 412.388 170.433 412.633C170.253 412.798 170.129 412.983 170.062 413.187C169.996 413.389 169.993 413.6 170.051 413.82C170.11 414.035 170.233 414.248 170.421 414.458ZM181.068 413.361C180.634 413.758 180.208 414.038 179.788 414.203C179.372 414.367 178.98 414.431 178.612 414.394C178.244 414.358 177.916 414.237 177.63 414.033L178.717 412.734C178.843 412.796 178.985 412.831 179.143 412.84C179.302 412.85 179.471 412.818 179.651 412.746C179.835 412.673 180.025 412.548 180.22 412.37C180.511 412.103 180.686 411.813 180.745 411.498C180.807 411.183 180.687 410.86 180.384 410.528L179.576 409.645L179.519 409.696C179.583 409.884 179.611 410.092 179.603 410.318C179.595 410.545 179.533 410.781 179.418 411.025C179.302 411.269 179.116 411.508 178.861 411.742C178.498 412.074 178.091 412.292 177.64 412.396C177.189 412.496 176.716 412.453 176.222 412.266C175.728 412.075 175.236 411.712 174.748 411.178C174.247 410.63 173.919 410.092 173.761 409.562C173.604 409.032 173.59 408.541 173.719 408.088C173.85 407.633 174.092 407.244 174.447 406.92C174.717 406.673 174.986 406.512 175.253 406.437C175.518 406.361 175.768 406.34 176.004 406.375C176.239 406.405 176.447 406.458 176.627 406.532L176.677 406.486L175.935 405.675L177.266 404.459L181.725 409.337C182.101 409.748 182.315 410.184 182.367 410.644C182.418 411.105 182.329 411.568 182.099 412.032C181.873 412.496 181.53 412.939 181.068 413.361ZM178.365 410.347C178.581 410.15 178.715 409.93 178.766 409.687C178.817 409.44 178.791 409.179 178.686 408.905C178.582 408.627 178.401 408.346 178.142 408.063C177.883 407.78 177.619 407.571 177.349 407.436C177.078 407.3 176.814 407.242 176.558 407.265C176.301 407.288 176.065 407.398 175.849 407.595C175.629 407.797 175.498 408.026 175.456 408.284C175.413 408.539 175.448 408.807 175.562 409.088C175.676 409.368 175.859 409.646 176.11 409.92C176.365 410.199 176.624 410.405 176.888 410.537C177.151 410.666 177.408 410.718 177.659 410.693C177.91 410.664 178.145 410.549 178.365 410.347ZM186.65 404.892C186.283 405.228 185.865 405.437 185.395 405.52C184.924 405.6 184.434 405.535 183.922 405.325C183.411 405.111 182.909 404.734 182.417 404.196C181.91 403.642 181.579 403.1 181.422 402.57C181.262 402.038 181.247 401.546 181.376 401.093C181.505 400.637 181.747 400.246 182.101 399.922C182.372 399.675 182.639 399.515 182.904 399.443C183.169 399.366 183.419 399.345 183.655 399.38C183.891 399.41 184.098 399.464 184.275 399.54L184.316 399.503L182.102 397.081L183.439 395.859L189.327 402.3L188.006 403.508L187.299 402.734L187.242 402.786C187.302 402.978 187.335 403.192 187.34 403.43C187.346 403.663 187.297 403.907 187.193 404.159C187.091 404.41 186.91 404.654 186.65 404.892ZM186.1 403.438C186.316 403.24 186.445 403.015 186.486 402.761C186.528 402.504 186.491 402.232 186.375 401.945C186.261 401.656 186.073 401.368 185.811 401.081C185.548 400.794 185.28 400.581 185.007 400.442C184.734 400.303 184.469 400.245 184.212 400.267C183.956 400.29 183.72 400.4 183.504 400.598C183.284 400.799 183.153 401.028 183.111 401.286C183.069 401.543 183.106 401.813 183.222 402.096C183.339 402.379 183.524 402.66 183.779 402.939C184.036 403.219 184.302 403.432 184.577 403.578C184.852 403.719 185.12 403.782 185.38 403.767C185.64 403.749 185.88 403.639 186.1 403.438ZM191.89 400.125C191.582 400.407 191.258 400.605 190.919 400.718C190.578 400.83 190.241 400.844 189.907 400.76C189.573 400.673 189.26 400.47 188.969 400.151C188.724 399.883 188.567 399.612 188.499 399.34C188.43 399.067 188.43 398.798 188.499 398.531C188.567 398.265 188.683 398.005 188.847 397.751C189.014 397.495 189.206 397.246 189.424 397.004C189.678 396.718 189.879 396.484 190.028 396.302C190.175 396.117 190.264 395.963 190.293 395.84C190.323 395.717 190.291 395.604 190.197 395.501L190.18 395.482C189.998 395.283 189.794 395.186 189.568 395.192C189.345 395.196 189.119 395.303 188.89 395.512C188.649 395.732 188.506 395.961 188.461 396.198C188.415 396.433 188.441 396.652 188.541 396.853L187.209 397.885C187.004 397.534 186.896 397.168 186.885 396.785C186.872 396.4 186.958 396.017 187.144 395.635C187.331 395.25 187.617 394.88 188.002 394.528C188.271 394.282 188.556 394.079 188.859 393.918C189.164 393.754 189.472 393.652 189.784 393.609C190.098 393.565 190.405 393.596 190.706 393.702C191.005 393.806 191.286 394.001 191.548 394.288L194.527 397.547L193.256 398.708L192.644 398.039L192.606 398.073C192.667 398.295 192.685 398.523 192.66 398.757C192.633 398.989 192.559 399.221 192.436 399.453C192.311 399.683 192.129 399.907 191.89 400.125ZM191.428 398.85C191.625 398.67 191.764 398.472 191.844 398.256C191.922 398.038 191.943 397.823 191.906 397.61C191.869 397.398 191.773 397.206 191.618 397.036L191.149 396.524C191.132 396.589 191.098 396.667 191.045 396.757C190.993 396.844 190.931 396.937 190.858 397.039C190.783 397.138 190.707 397.236 190.631 397.333C190.552 397.428 190.481 397.514 190.417 397.592C190.281 397.759 190.177 397.921 190.105 398.079C190.034 398.236 190.005 398.388 190.019 398.533C190.03 398.676 190.094 398.811 190.209 398.937C190.376 399.119 190.569 399.198 190.789 399.174C191.01 399.146 191.223 399.038 191.428 398.85ZM193.72 389.417L194.64 390.423L191.73 393.083L190.81 392.076L193.72 389.417ZM190.413 390.315L191.753 389.09L195.87 393.594C195.983 393.718 196.09 393.797 196.191 393.832C196.29 393.864 196.386 393.863 196.478 393.829C196.572 393.793 196.664 393.734 196.754 393.652C196.817 393.594 196.875 393.531 196.929 393.463C196.98 393.393 197.02 393.34 197.047 393.303L198.17 394.107C198.122 394.19 198.049 394.3 197.953 394.438C197.858 394.579 197.726 394.732 197.558 394.897C197.247 395.205 196.924 395.421 196.591 395.545C196.26 395.666 195.932 395.685 195.608 395.6C195.284 395.515 194.979 395.313 194.691 394.995L190.413 390.315ZM200.47 392.281C200.162 392.563 199.838 392.761 199.499 392.874C199.158 392.986 198.821 393 198.487 392.916C198.153 392.829 197.84 392.626 197.549 392.307C197.304 392.039 197.147 391.769 197.079 391.496C197.01 391.223 197.01 390.954 197.079 390.688C197.147 390.421 197.263 390.161 197.427 389.907C197.594 389.651 197.786 389.402 198.004 389.161C198.258 388.874 198.459 388.64 198.608 388.458C198.755 388.273 198.844 388.119 198.873 387.996C198.903 387.873 198.871 387.76 198.777 387.657L198.76 387.638C198.578 387.439 198.374 387.342 198.148 387.348C197.925 387.352 197.699 387.459 197.47 387.668C197.229 387.888 197.086 388.117 197.041 388.354C196.995 388.59 197.021 388.808 197.121 389.009L195.789 390.042C195.584 389.691 195.476 389.324 195.465 388.941C195.452 388.557 195.538 388.173 195.724 387.792C195.911 387.406 196.197 387.037 196.582 386.684C196.851 386.439 197.136 386.235 197.439 386.074C197.744 385.911 198.052 385.808 198.364 385.765C198.678 385.721 198.985 385.752 199.286 385.858C199.585 385.962 199.866 386.157 200.128 386.445L203.107 389.703L201.836 390.865L201.224 390.195L201.186 390.229C201.247 390.451 201.265 390.679 201.24 390.913C201.213 391.145 201.139 391.377 201.016 391.609C200.891 391.839 200.709 392.063 200.47 392.281ZM200.008 391.006C200.205 390.826 200.344 390.628 200.424 390.412C200.502 390.195 200.523 389.979 200.486 389.767C200.449 389.554 200.353 389.362 200.198 389.193L199.729 388.68C199.712 388.746 199.678 388.823 199.625 388.914C199.573 389 199.511 389.093 199.438 389.195C199.363 389.294 199.287 389.392 199.211 389.489C199.132 389.584 199.061 389.671 198.997 389.748C198.861 389.915 198.757 390.077 198.685 390.235C198.614 390.393 198.585 390.544 198.599 390.689C198.61 390.833 198.674 390.967 198.789 391.093C198.955 391.275 199.149 391.355 199.369 391.33C199.59 391.302 199.803 391.194 200.008 391.006Z" fill="#FFC525"/>
<path d="M428.252 382.09L425.914 380.063L431.632 373.469L433.989 375.513C434.652 376.088 435.108 376.715 435.358 377.394C435.61 378.071 435.651 378.767 435.482 379.482C435.316 380.199 434.936 380.899 434.342 381.584C433.746 382.271 433.105 382.749 432.417 383.017C431.731 383.287 431.033 383.345 430.321 383.19C429.611 383.037 428.921 382.67 428.252 382.09ZM428.344 380.077L429.229 380.845C429.642 381.202 430.051 381.43 430.459 381.528C430.871 381.626 431.282 381.581 431.691 381.395C432.105 381.208 432.525 380.869 432.951 380.378C433.374 379.891 433.647 379.43 433.771 378.997C433.898 378.565 433.883 378.154 433.729 377.764C433.574 377.374 433.291 377.001 432.879 376.643L431.99 375.873L428.344 380.077ZM434.654 387.811C434.146 387.37 433.797 386.887 433.609 386.363C433.424 385.838 433.398 385.301 433.53 384.75C433.664 384.196 433.957 383.659 434.409 383.137C434.851 382.629 435.336 382.268 435.867 382.055C436.398 381.842 436.935 381.784 437.48 381.88C438.026 381.978 438.542 382.237 439.027 382.658C439.354 382.941 439.612 383.257 439.802 383.606C439.996 383.954 440.108 384.324 440.137 384.715C440.169 385.107 440.107 385.512 439.952 385.93C439.798 386.346 439.539 386.764 439.174 387.185L438.848 387.561L434.672 383.94L435.409 383.09L438.294 385.592C438.465 385.394 438.574 385.182 438.62 384.955C438.666 384.729 438.65 384.506 438.572 384.288C438.498 384.07 438.362 383.874 438.162 383.701C437.954 383.521 437.727 383.409 437.483 383.366C437.242 383.322 437.007 383.342 436.777 383.425C436.549 383.506 436.349 383.643 436.178 383.836L435.477 384.644C435.265 384.889 435.127 385.139 435.062 385.396C435 385.654 435.011 385.904 435.095 386.146C435.178 386.387 435.335 386.608 435.565 386.807C435.717 386.939 435.875 387.039 436.039 387.106C436.203 387.172 436.367 387.202 436.532 387.194C436.696 387.187 436.856 387.141 437.011 387.058L438.207 388.241C437.878 388.49 437.516 388.642 437.119 388.696C436.726 388.75 436.318 388.705 435.895 388.56C435.476 388.414 435.062 388.165 434.654 387.811ZM436.295 392.313L442.191 385.514L443.543 386.687L442.823 387.517L442.884 387.57C443.06 387.489 443.264 387.429 443.497 387.391C443.733 387.352 443.984 387.366 444.249 387.434C444.517 387.501 444.79 387.655 445.067 387.895C445.428 388.208 445.678 388.591 445.819 389.044C445.962 389.495 445.961 389.989 445.816 390.525C445.673 391.058 445.355 391.609 444.864 392.175C444.386 392.727 443.893 393.115 443.385 393.341C442.882 393.566 442.393 393.644 441.919 393.575C441.448 393.506 441.026 393.308 440.65 392.982C440.384 392.752 440.196 392.511 440.085 392.261C439.977 392.013 439.921 391.772 439.919 391.536C439.918 391.298 439.946 391.084 440.003 390.893L439.961 390.856L437.666 393.503L436.295 392.313ZM441.389 389.151C441.134 389.445 440.953 389.737 440.844 390.026C440.736 390.316 440.706 390.589 440.755 390.845C440.805 391.099 440.941 391.322 441.162 391.514C441.385 391.708 441.627 391.81 441.887 391.822C442.15 391.831 442.416 391.761 442.685 391.611C442.958 391.461 443.22 391.242 443.469 390.954C443.717 390.669 443.895 390.383 444.003 390.098C444.112 389.812 444.142 389.541 444.093 389.285C444.045 389.028 443.908 388.802 443.683 388.607C443.46 388.413 443.22 388.309 442.963 388.293C442.708 388.279 442.446 388.345 442.176 388.491C441.907 388.637 441.644 388.857 441.389 389.151ZM445.79 397.468C445.29 397.035 444.95 396.553 444.769 396.024C444.593 395.495 444.571 394.954 444.705 394.401C444.841 393.845 445.128 393.314 445.568 392.808C446.011 392.297 446.496 391.936 447.025 391.725C447.556 391.512 448.095 391.457 448.642 391.559C449.193 391.661 449.718 391.929 450.218 392.362C450.718 392.796 451.057 393.277 451.233 393.806C451.414 394.335 451.436 394.878 451.301 395.433C451.167 395.986 450.878 396.518 450.435 397.029C449.996 397.536 449.511 397.895 448.981 398.108C448.452 398.319 447.912 398.374 447.361 398.272C446.814 398.17 446.29 397.902 445.79 397.468ZM446.718 396.411C446.946 396.609 447.191 396.709 447.455 396.712C447.721 396.714 447.991 396.635 448.263 396.477C448.538 396.32 448.8 396.098 449.05 395.811C449.299 395.523 449.482 395.232 449.598 394.938C449.716 394.645 449.756 394.368 449.717 394.105C449.678 393.842 449.545 393.611 449.317 393.414C449.088 393.215 448.838 393.113 448.567 393.108C448.299 393.105 448.028 393.182 447.753 393.338C447.48 393.496 447.219 393.719 446.97 394.007C446.721 394.295 446.537 394.585 446.419 394.877C446.303 395.171 446.265 395.451 446.306 395.716C446.351 395.98 446.488 396.212 446.718 396.411ZM456.38 400.289L455.057 399.277C455.129 399.151 455.166 399.015 455.17 398.867C455.175 398.718 455.142 398.567 455.071 398.415C455.004 398.263 454.891 398.118 454.732 397.98C454.52 397.796 454.301 397.686 454.077 397.649C453.855 397.611 453.68 397.665 453.551 397.813C453.449 397.931 453.41 398.072 453.433 398.236C453.457 398.399 453.562 398.605 453.749 398.854L454.488 399.81C454.883 400.326 455.104 400.795 455.15 401.219C455.196 401.643 455.065 402.033 454.756 402.389C454.475 402.713 454.133 402.915 453.729 402.994C453.328 403.074 452.903 403.04 452.453 402.891C452.008 402.741 451.57 402.481 451.141 402.108C450.486 401.541 450.083 400.952 449.931 400.343C449.783 399.733 449.88 399.163 450.223 398.633L451.634 399.732C451.501 399.967 451.468 400.205 451.533 400.446C451.601 400.685 451.757 400.911 452.001 401.123C452.242 401.331 452.475 401.453 452.701 401.487C452.931 401.521 453.111 401.465 453.242 401.318C453.347 401.192 453.383 401.045 453.349 400.876C453.317 400.705 453.212 400.505 453.035 400.276L452.326 399.363C451.927 398.847 451.713 398.368 451.683 397.925C451.656 397.484 451.802 397.079 452.122 396.71C452.398 396.392 452.721 396.193 453.092 396.112C453.465 396.033 453.862 396.067 454.283 396.215C454.707 396.364 455.13 396.622 455.553 396.988C456.177 397.53 456.554 398.088 456.684 398.663C456.816 399.24 456.714 399.782 456.38 400.289ZM454.29 404.67L458.579 399.725L459.95 400.915L455.662 405.86L454.29 404.67ZM459.82 399.685C459.617 399.508 459.5 399.289 459.472 399.027C459.447 398.765 459.517 398.539 459.683 398.348C459.847 398.159 460.059 398.059 460.32 398.049C460.585 398.038 460.82 398.121 461.024 398.298C461.228 398.474 461.342 398.694 461.367 398.956C461.395 399.218 461.328 399.443 461.164 399.632C460.998 399.823 460.783 399.924 460.518 399.935C460.257 399.945 460.024 399.862 459.82 399.685ZM463.679 404.148L462.786 405.178L459.808 402.596L460.701 401.566L463.679 404.148ZM462.405 400.967L463.776 402.157L459.778 406.767C459.668 406.893 459.602 407.009 459.579 407.113C459.558 407.215 459.57 407.31 459.615 407.398C459.661 407.487 459.731 407.572 459.823 407.652C459.887 407.708 459.956 407.758 460.03 407.803C460.106 407.846 460.163 407.879 460.203 407.903L459.534 409.11C459.447 409.072 459.329 409.013 459.18 408.933C459.03 408.855 458.862 408.742 458.679 408.594C458.337 408.32 458.085 408.025 457.924 407.708C457.765 407.393 457.708 407.07 457.755 406.739C457.802 406.407 457.967 406.08 458.25 405.758L462.405 400.967ZM464.65 413.028L468.603 408.469L469.756 409.468L465.802 414.027L464.65 413.028ZM464.424 409.848L465.423 408.695L469.982 412.648L468.982 413.801L464.424 409.848ZM474.493 417.181L472.014 420.04L470.643 418.851L476.36 412.257L477.693 413.413L475.507 415.934L475.565 415.984C475.93 415.789 476.309 415.717 476.701 415.768C477.095 415.816 477.48 416.003 477.855 416.329C478.199 416.627 478.433 416.961 478.558 417.333C478.687 417.705 478.702 418.091 478.601 418.493C478.505 418.895 478.288 419.288 477.951 419.672L475.221 422.821L473.849 421.631L476.368 418.728C476.634 418.425 476.762 418.12 476.753 417.815C476.745 417.511 476.602 417.239 476.323 416.997C476.136 416.835 475.937 416.731 475.724 416.686C475.513 416.642 475.301 416.662 475.088 416.743C474.878 416.825 474.68 416.971 474.493 417.181ZM477.629 425.073C477.314 424.799 477.08 424.501 476.928 424.177C476.778 423.852 476.725 423.518 476.769 423.177C476.818 422.835 476.983 422.501 477.266 422.175C477.504 421.9 477.755 421.713 478.018 421.614C478.28 421.514 478.548 421.483 478.821 421.52C479.093 421.557 479.365 421.643 479.636 421.776C479.91 421.912 480.179 422.074 480.444 422.263C480.758 422.482 481.014 422.655 481.212 422.782C481.412 422.907 481.575 422.977 481.701 422.992C481.827 423.007 481.936 422.962 482.027 422.857L482.044 422.838C482.221 422.634 482.293 422.42 482.261 422.197C482.231 421.976 482.099 421.763 481.865 421.56C481.619 421.346 481.375 421.231 481.134 421.214C480.895 421.195 480.681 421.246 480.492 421.368L479.313 420.165C479.638 419.921 479.99 419.771 480.369 419.715C480.749 419.658 481.14 419.7 481.541 419.841C481.945 419.981 482.345 420.222 482.74 420.565C483.015 420.803 483.25 421.063 483.445 421.345C483.643 421.629 483.78 421.924 483.858 422.228C483.939 422.535 483.943 422.844 483.873 423.155C483.804 423.464 483.642 423.765 483.387 424.059L480.495 427.395L479.194 426.267L479.789 425.581L479.75 425.547C479.537 425.633 479.313 425.677 479.077 425.68C478.844 425.68 478.605 425.633 478.36 425.538C478.118 425.44 477.874 425.285 477.629 425.073ZM478.843 424.467C479.045 424.642 479.257 424.757 479.481 424.811C479.706 424.864 479.922 424.86 480.129 424.798C480.336 424.737 480.515 424.62 480.666 424.446L481.121 423.921C481.054 423.912 480.973 423.887 480.877 423.845C480.785 423.803 480.685 423.752 480.576 423.691C480.469 423.628 480.363 423.564 480.257 423.499C480.154 423.432 480.06 423.372 479.975 423.317C479.794 423.201 479.621 423.117 479.456 423.064C479.291 423.011 479.137 423 478.994 423.03C478.853 423.059 478.727 423.137 478.615 423.266C478.454 423.453 478.397 423.654 478.447 423.87C478.501 424.086 478.633 424.285 478.843 424.467ZM485.41 426.648L482.931 429.507L481.559 428.317L485.847 423.372L487.154 424.506L486.398 425.378L486.456 425.428C486.815 425.236 487.195 425.167 487.598 425.223C488.003 425.277 488.389 425.463 488.756 425.781C489.099 426.079 489.333 426.414 489.458 426.786C489.584 427.157 489.596 427.544 489.496 427.946C489.397 428.346 489.181 428.738 488.848 429.122L486.118 432.271L484.746 431.081L487.265 428.177C487.529 427.877 487.657 427.573 487.647 427.268C487.639 426.96 487.498 426.688 487.223 426.449C487.039 426.289 486.841 426.187 486.631 426.144C486.422 426.102 486.212 426.123 486.001 426.207C485.793 426.29 485.596 426.437 485.41 426.648ZM488.951 434.869C488.576 434.543 488.319 434.151 488.182 433.694C488.049 433.236 488.057 432.741 488.206 432.209C488.36 431.676 488.675 431.134 489.154 430.583C489.645 430.016 490.145 429.624 490.653 429.407C491.163 429.187 491.65 429.115 492.115 429.191C492.583 429.266 492.999 429.461 493.362 429.776C493.639 430.016 493.828 430.263 493.931 430.518C494.038 430.772 494.088 431.018 494.08 431.256C494.077 431.494 494.048 431.706 493.993 431.891L494.034 431.927L496.184 429.448L497.552 430.635L491.835 437.228L490.483 436.056L491.169 435.264L491.111 435.213C490.928 435.295 490.718 435.352 490.483 435.385C490.252 435.417 490.005 435.397 489.742 435.323C489.481 435.251 489.217 435.099 488.951 434.869ZM490.332 434.154C490.553 434.346 490.792 434.448 491.049 434.46C491.309 434.471 491.575 434.403 491.847 434.255C492.12 434.108 492.385 433.888 492.64 433.594C492.895 433.3 493.075 433.009 493.182 432.722C493.288 432.434 493.315 432.165 493.263 431.913C493.211 431.661 493.074 431.439 492.853 431.247C492.628 431.052 492.385 430.948 492.124 430.936C491.864 430.925 491.6 430.993 491.332 431.141C491.065 431.289 490.807 431.505 490.56 431.791C490.31 432.078 490.13 432.367 490.017 432.657C489.909 432.947 489.877 433.22 489.921 433.476C489.97 433.733 490.107 433.959 490.332 434.154ZM500.052 432.802L494.334 439.395L492.962 438.206L498.68 431.613L500.052 432.802ZM495.432 440.348L499.721 435.403L501.092 436.592L496.804 441.537L495.432 440.348ZM500.962 435.363C500.759 435.186 500.642 434.967 500.614 434.705C500.589 434.443 500.659 434.217 500.825 434.025C500.989 433.837 501.201 433.737 501.462 433.726C501.727 433.716 501.962 433.799 502.166 433.975C502.37 434.152 502.484 434.372 502.509 434.634C502.537 434.896 502.47 435.121 502.306 435.31C502.14 435.501 501.925 435.602 501.66 435.612C501.399 435.623 501.166 435.54 500.962 435.363ZM501.753 440.821L499.274 443.679L497.903 442.49L502.191 437.545L503.498 438.679L502.741 439.551L502.799 439.601C503.158 439.409 503.539 439.34 503.942 439.396C504.346 439.45 504.732 439.636 505.099 439.954C505.443 440.252 505.677 440.587 505.802 440.959C505.927 441.33 505.939 441.717 505.839 442.119C505.741 442.519 505.525 442.911 505.192 443.295L502.461 446.443L501.09 445.254L503.608 442.35C503.873 442.049 504 441.746 503.99 441.441C503.983 441.133 503.841 440.86 503.567 440.622C503.382 440.462 503.185 440.36 502.974 440.317C502.766 440.275 502.556 440.296 502.344 440.38C502.137 440.463 501.94 440.61 501.753 440.821ZM504.073 451.27C503.628 450.885 503.3 450.493 503.089 450.096C502.878 449.702 502.769 449.32 502.763 448.95C502.756 448.58 502.838 448.24 503.007 447.932L504.424 448.862C504.377 448.994 504.358 449.139 504.367 449.298C504.377 449.456 504.428 449.621 504.52 449.791C504.613 449.966 504.76 450.14 504.959 450.313C505.257 450.572 505.566 450.712 505.886 450.733C506.206 450.759 506.513 450.602 506.807 450.263L507.592 449.358L507.534 449.308C507.355 449.393 507.152 449.445 506.926 449.463C506.699 449.481 506.458 449.447 506.202 449.36C505.947 449.274 505.688 449.117 505.426 448.89C505.055 448.568 504.791 448.189 504.635 447.753C504.483 447.317 504.472 446.842 504.6 446.33C504.733 445.817 505.037 445.287 505.511 444.739C505.997 444.179 506.494 443.79 507.002 443.573C507.51 443.356 507.997 443.285 508.461 443.361C508.928 443.438 509.343 443.634 509.705 443.949C509.982 444.189 510.173 444.437 510.278 444.693C510.385 444.948 510.434 445.194 510.427 445.432C510.424 445.67 510.396 445.882 510.343 446.069L510.394 446.114L511.114 445.283L512.476 446.464L508.146 451.458C507.781 451.878 507.373 452.141 506.921 452.246C506.469 452.35 506 452.315 505.512 452.14C505.025 451.97 504.545 451.68 504.073 451.27ZM506.754 448.237C506.975 448.428 507.209 448.536 507.456 448.558C507.708 448.581 507.964 448.524 508.224 448.389C508.488 448.253 508.746 448.041 508.997 447.751C509.248 447.461 509.425 447.175 509.528 446.892C509.633 446.606 509.659 446.337 509.607 446.085C509.554 445.833 509.418 445.611 509.197 445.42C508.971 445.224 508.728 445.121 508.468 445.109C508.209 445.095 507.947 445.161 507.681 445.307C507.416 445.453 507.161 445.666 506.917 445.947C506.67 446.233 506.495 446.514 506.394 446.791C506.297 447.068 506.275 447.329 506.329 447.575C506.387 447.821 506.528 448.041 506.754 448.237ZM518.325 451.536L517.432 452.567L514.38 449.92L515.273 448.89L518.325 451.536ZM511.683 454.441L516.282 449.138C516.592 448.78 516.92 448.543 517.264 448.428C517.611 448.315 517.957 448.305 518.304 448.399C518.651 448.493 518.98 448.675 519.292 448.945C519.502 449.128 519.68 449.31 519.826 449.493C519.974 449.678 520.08 449.821 520.143 449.921L519.005 450.739C518.967 450.675 518.914 450.601 518.848 450.517C518.783 450.435 518.711 450.359 518.629 450.288C518.427 450.113 518.246 450.039 518.084 450.064C517.925 450.088 517.773 450.183 517.627 450.351L513.052 455.627L511.683 454.441ZM516.867 459.105C516.359 458.664 516.01 458.182 515.822 457.657C515.638 457.133 515.611 456.595 515.743 456.044C515.877 455.49 516.17 454.953 516.623 454.431C517.064 453.923 517.55 453.562 518.08 453.349C518.611 453.136 519.148 453.078 519.693 453.174C520.24 453.272 520.755 453.531 521.241 453.952C521.567 454.235 521.825 454.551 522.015 454.9C522.209 455.248 522.321 455.618 522.351 456.009C522.382 456.401 522.321 456.806 522.165 457.224C522.011 457.64 521.752 458.058 521.387 458.479L521.061 458.855L516.885 455.234L517.622 454.384L520.507 456.886C520.678 456.689 520.787 456.476 520.833 456.25C520.879 456.023 520.864 455.8 520.786 455.582C520.712 455.364 520.575 455.168 520.375 454.995C520.167 454.815 519.941 454.703 519.696 454.66C519.455 454.617 519.22 454.636 518.99 454.719C518.762 454.8 518.563 454.937 518.391 455.13L517.69 455.938C517.478 456.183 517.34 456.434 517.276 456.69C517.213 456.948 517.224 457.198 517.308 457.44C517.391 457.682 517.548 457.902 517.778 458.101C517.93 458.233 518.088 458.333 518.252 458.4C518.416 458.467 518.58 458.496 518.745 458.489C518.909 458.481 519.069 458.435 519.224 458.352L520.42 459.535C520.092 459.784 519.729 459.936 519.332 459.99C518.939 460.045 518.531 459.999 518.108 459.854C517.689 459.709 517.275 459.459 516.867 459.105ZM522.286 463.804C521.777 463.363 521.429 462.88 521.24 462.356C521.056 461.831 521.03 461.293 521.162 460.742C521.296 460.189 521.589 459.652 522.041 459.13C522.482 458.621 522.968 458.261 523.498 458.048C524.029 457.835 524.567 457.776 525.111 457.873C525.658 457.971 526.174 458.23 526.659 458.651C526.985 458.933 527.243 459.249 527.433 459.598C527.627 459.947 527.739 460.317 527.769 460.707C527.801 461.1 527.739 461.505 527.583 461.923C527.43 462.339 527.17 462.757 526.806 463.177L526.479 463.554L522.303 459.933L523.04 459.083L525.925 461.585C526.096 461.387 526.205 461.175 526.251 460.948C526.298 460.721 526.282 460.499 526.204 460.281C526.13 460.063 525.993 459.867 525.794 459.694C525.585 459.513 525.359 459.402 525.114 459.359C524.874 459.315 524.638 459.335 524.409 459.418C524.181 459.499 523.981 459.636 523.809 459.829L523.109 460.637C522.897 460.882 522.758 461.132 522.694 461.389C522.632 461.647 522.642 461.897 522.726 462.138C522.81 462.38 522.966 462.601 523.196 462.8C523.348 462.932 523.507 463.032 523.67 463.098C523.834 463.165 523.999 463.195 524.163 463.187C524.328 463.18 524.488 463.134 524.643 463.05L525.839 464.234C525.51 464.483 525.147 464.635 524.75 464.689C524.357 464.743 523.949 464.698 523.526 464.553C523.107 464.407 522.694 464.158 522.286 463.804Z" fill="#888D92"/>
<path d="M414.929 414.017L420.688 407.46L423.275 409.732C423.77 410.167 424.115 410.626 424.309 411.111C424.508 411.595 424.557 412.079 424.458 412.563C424.362 413.046 424.124 413.504 423.744 413.938C423.361 414.373 422.938 414.665 422.475 414.814C422.014 414.961 421.531 414.961 421.029 414.814C420.528 414.67 420.026 414.376 419.522 413.934L417.79 412.412L418.769 411.298L420.277 412.623C420.541 412.855 420.793 413.012 421.032 413.093C421.271 413.174 421.496 413.18 421.709 413.109C421.924 413.041 422.126 412.899 422.316 412.684C422.507 412.466 422.624 412.244 422.668 412.018C422.714 411.793 422.682 411.565 422.572 411.332C422.467 411.1 422.28 410.866 422.014 410.632L421.079 409.811L416.315 415.235L414.929 414.017ZM421.091 414.143L420.1 418.558L418.569 417.214L419.596 412.83L421.091 414.143ZM422.898 421.186C422.392 420.742 422.047 420.257 421.862 419.731C421.681 419.205 421.658 418.667 421.793 418.117C421.931 417.565 422.227 417.029 422.682 416.51C423.127 416.005 423.615 415.647 424.147 415.437C424.679 415.228 425.217 415.173 425.761 415.272C426.307 415.374 426.821 415.636 427.303 416.06C427.628 416.345 427.884 416.662 428.072 417.013C428.264 417.362 428.373 417.733 428.4 418.124C428.43 418.516 428.366 418.921 428.207 419.338C428.051 419.753 427.789 420.169 427.422 420.588L427.093 420.962L422.94 417.315L423.682 416.47L426.551 418.989C426.724 418.793 426.834 418.581 426.881 418.355C426.929 418.128 426.915 417.906 426.838 417.687C426.766 417.469 426.63 417.272 426.432 417.098C426.225 416.916 425.999 416.803 425.754 416.758C425.514 416.713 425.279 416.732 425.048 416.813C424.82 416.892 424.619 417.028 424.447 417.22L423.741 418.024C423.527 418.267 423.387 418.517 423.321 418.773C423.258 419.031 423.267 419.281 423.349 419.523C423.431 419.765 423.586 419.987 423.815 420.187C423.966 420.32 424.124 420.421 424.287 420.489C424.451 420.557 424.615 420.587 424.779 420.581C424.944 420.574 425.104 420.53 425.26 420.447L426.448 421.638C426.118 421.885 425.754 422.034 425.357 422.086C424.964 422.138 424.556 422.09 424.134 421.942C423.716 421.794 423.304 421.542 422.898 421.186ZM427.872 425.526C427.498 425.198 427.244 424.804 427.11 424.346C426.98 423.887 426.991 423.393 427.143 422.861C427.3 422.33 427.62 421.79 428.101 421.241C428.596 420.678 429.098 420.289 429.608 420.074C430.119 419.858 430.607 419.789 431.071 419.868C431.539 419.946 431.954 420.144 432.314 420.461C432.59 420.702 432.778 420.951 432.879 421.206C432.984 421.461 433.032 421.707 433.024 421.946C433.019 422.183 432.988 422.395 432.932 422.58L432.973 422.616L435.139 420.151L436.499 421.346L430.741 427.903L429.396 426.722L430.088 425.934L430.03 425.884C429.846 425.964 429.636 426.02 429.401 426.052C429.169 426.083 428.922 426.06 428.66 425.985C428.399 425.911 428.137 425.758 427.872 425.526ZM429.257 424.82C429.477 425.013 429.715 425.116 429.972 425.13C430.233 425.143 430.499 425.076 430.771 424.93C431.046 424.785 431.311 424.567 431.568 424.274C431.825 423.982 432.008 423.692 432.116 423.405C432.224 423.119 432.253 422.849 432.202 422.597C432.152 422.344 432.016 422.122 431.797 421.928C431.572 421.732 431.33 421.627 431.07 421.613C430.809 421.6 430.545 421.666 430.276 421.813C430.008 421.959 429.749 422.174 429.5 422.458C429.249 422.744 429.066 423.032 428.952 423.321C428.842 423.61 428.808 423.883 428.851 424.14C428.898 424.396 429.033 424.623 429.257 424.82ZM434.019 430.952C433.513 430.508 433.168 430.023 432.983 429.498C432.802 428.972 432.779 428.434 432.914 427.884C433.052 427.331 433.348 426.796 433.803 426.277C434.248 425.771 434.736 425.413 435.268 425.204C435.8 424.994 436.338 424.939 436.882 425.039C437.428 425.14 437.942 425.403 438.424 425.826C438.749 426.111 439.005 426.429 439.193 426.779C439.385 427.129 439.494 427.499 439.521 427.89C439.551 428.283 439.487 428.688 439.328 429.104C439.172 429.519 438.91 429.936 438.543 430.354L438.214 430.729L434.061 427.082L434.803 426.236L437.672 428.756C437.845 428.56 437.955 428.348 438.002 428.122C438.05 427.895 438.036 427.672 437.959 427.454C437.887 427.235 437.751 427.039 437.553 426.864C437.346 426.683 437.12 426.569 436.875 426.525C436.635 426.48 436.4 426.498 436.169 426.58C435.941 426.659 435.74 426.795 435.568 426.987L434.862 427.791C434.648 428.034 434.508 428.284 434.442 428.54C434.379 428.797 434.388 429.047 434.47 429.29C434.552 429.532 434.707 429.753 434.936 429.954C435.087 430.087 435.245 430.188 435.408 430.255C435.572 430.323 435.736 430.354 435.9 430.347C436.065 430.341 436.225 430.296 436.381 430.214L437.569 431.405C437.239 431.652 436.875 431.801 436.478 431.853C436.085 431.905 435.677 431.857 435.255 431.709C434.837 431.561 434.425 431.309 434.019 430.952ZM437.251 433.621L441.57 428.702L442.87 429.844L442.108 430.712L442.166 430.762C442.521 430.564 442.892 430.487 443.277 430.53C443.662 430.574 444.021 430.742 444.354 431.034C444.692 431.33 444.905 431.667 444.993 432.044C445.084 432.418 445.043 432.783 444.871 433.139L444.922 433.184C445.27 432.99 445.649 432.924 446.06 432.986C446.475 433.048 446.862 433.237 447.223 433.554C447.682 433.957 447.926 434.43 447.955 434.974C447.989 435.517 447.771 436.056 447.302 436.589L444.398 439.897L443.037 438.702L445.705 435.663C445.945 435.39 446.053 435.121 446.027 434.857C446.002 434.593 445.881 434.365 445.663 434.174C445.415 433.957 445.153 433.866 444.875 433.902C444.6 433.936 444.35 434.081 444.125 434.337L441.487 437.341L440.165 436.179L442.858 433.112C443.07 432.871 443.17 432.618 443.156 432.353C443.145 432.09 443.028 431.86 442.804 431.663C442.652 431.53 442.482 431.449 442.293 431.419C442.108 431.388 441.92 431.41 441.729 431.485C441.541 431.558 441.367 431.685 441.208 431.866L438.615 434.818L437.251 433.621ZM443.855 442.687L449.794 435.925L451.139 437.106L450.413 437.932L450.474 437.985C450.65 437.906 450.855 437.847 451.088 437.81C451.325 437.772 451.576 437.788 451.84 437.858C452.108 437.927 452.38 438.082 452.655 438.324C453.014 438.639 453.262 439.024 453.4 439.478C453.54 439.93 453.536 440.423 453.388 440.958C453.241 441.491 452.92 442.039 452.425 442.603C451.944 443.151 451.448 443.537 450.939 443.759C450.434 443.981 449.945 444.056 449.471 443.984C449.002 443.912 448.58 443.712 448.206 443.384C447.942 443.151 447.755 442.91 447.646 442.659C447.539 442.41 447.485 442.168 447.484 441.933C447.485 441.695 447.514 441.481 447.572 441.29L447.531 441.253L445.219 443.885L443.855 442.687ZM448.97 439.557C448.713 439.849 448.529 440.14 448.419 440.429C448.309 440.718 448.278 440.99 448.324 441.247C448.373 441.502 448.507 441.725 448.727 441.919C448.949 442.113 449.191 442.218 449.451 442.231C449.714 442.242 449.98 442.173 450.25 442.025C450.524 441.876 450.787 441.659 451.038 441.373C451.287 441.089 451.467 440.805 451.578 440.52C451.688 440.235 451.72 439.964 451.673 439.707C451.626 439.451 451.491 439.224 451.267 439.027C451.045 438.832 450.805 438.726 450.548 438.708C450.294 438.693 450.031 438.757 449.761 438.901C449.49 439.046 449.227 439.264 448.97 439.557ZM458.116 443.233L457.216 444.258L454.254 441.657L455.154 440.632L458.116 443.233ZM456.861 440.044L458.225 441.242L454.199 445.827C454.088 445.953 454.021 446.068 453.998 446.173C453.976 446.275 453.987 446.37 454.031 446.457C454.077 446.547 454.146 446.632 454.238 446.713C454.302 446.769 454.371 446.82 454.444 446.865C454.519 446.909 454.577 446.942 454.617 446.966L453.94 448.169C453.853 448.131 453.735 448.071 453.587 447.99C453.437 447.911 453.27 447.797 453.088 447.648C452.748 447.372 452.498 447.075 452.338 446.757C452.181 446.441 452.127 446.118 452.176 445.786C452.225 445.455 452.392 445.129 452.677 444.809L456.861 440.044ZM454.685 448.932L459.004 444.014L460.368 445.211L456.049 450.13L454.685 448.932ZM460.246 443.981C460.044 443.803 459.929 443.583 459.902 443.321C459.879 443.059 459.95 442.833 460.117 442.643C460.282 442.455 460.495 442.357 460.756 442.348C461.022 442.339 461.256 442.423 461.458 442.601C461.661 442.779 461.774 443 461.797 443.262C461.824 443.524 461.755 443.749 461.59 443.936C461.423 444.126 461.207 444.226 460.942 444.235C460.681 444.244 460.449 444.159 460.246 443.981ZM459.28 453.137C458.782 452.7 458.445 452.216 458.268 451.686C458.094 451.156 458.076 450.615 458.214 450.062C458.353 449.508 458.644 448.979 459.086 448.475C459.532 447.967 460.02 447.609 460.55 447.402C461.082 447.192 461.622 447.14 462.168 447.245C462.718 447.351 463.242 447.622 463.739 448.058C464.237 448.495 464.572 448.979 464.745 449.509C464.923 450.039 464.942 450.581 464.803 451.136C464.665 451.688 464.374 452.219 463.927 452.727C463.485 453.23 462.998 453.587 462.466 453.797C461.936 454.004 461.396 454.055 460.845 453.95C460.299 453.845 459.777 453.573 459.28 453.137ZM460.214 452.086C460.44 452.284 460.685 452.386 460.949 452.391C461.215 452.394 461.485 452.317 461.759 452.161C462.035 452.006 462.298 451.785 462.549 451.499C462.801 451.213 462.985 450.924 463.103 450.63C463.223 450.338 463.264 450.061 463.227 449.798C463.19 449.534 463.058 449.303 462.832 449.105C462.604 448.904 462.354 448.8 462.084 448.794C461.816 448.789 461.544 448.864 461.268 449.019C460.995 449.176 460.732 449.397 460.481 449.683C460.23 449.969 460.044 450.258 459.924 450.549C459.806 450.843 459.767 451.122 459.806 451.387C459.85 451.652 459.986 451.885 460.214 452.086ZM466.533 454.3L464.036 457.143L462.672 455.945L466.991 451.027L468.291 452.169L467.529 453.037L467.586 453.087C467.946 452.897 468.328 452.831 468.73 452.889C469.134 452.946 469.519 453.134 469.884 453.455C470.225 453.755 470.458 454.091 470.58 454.463C470.703 454.836 470.713 455.223 470.61 455.624C470.509 456.023 470.291 456.414 469.956 456.796L467.205 459.927L465.841 458.729L468.378 455.841C468.644 455.542 468.774 455.24 468.766 454.934C468.76 454.627 468.621 454.353 468.347 454.113C468.164 453.952 467.967 453.849 467.757 453.804C467.548 453.761 467.338 453.781 467.126 453.863C466.918 453.945 466.72 454.09 466.533 454.3ZM472.109 464.375C471.736 464.047 471.482 463.654 471.347 463.196C471.217 462.737 471.228 462.242 471.381 461.711C471.538 461.18 471.857 460.64 472.339 460.091C472.834 459.527 473.336 459.139 473.845 458.924C474.357 458.708 474.844 458.639 475.309 458.718C475.777 458.796 476.191 458.994 476.552 459.31C476.827 459.552 477.015 459.801 477.116 460.056C477.222 460.311 477.27 460.557 477.261 460.795C477.256 461.033 477.226 461.245 477.169 461.429L477.211 461.466L479.376 459L480.737 460.196L474.978 466.753L473.633 465.572L474.325 464.784L474.267 464.734C474.083 464.814 473.874 464.87 473.638 464.901C473.407 464.933 473.16 464.91 472.897 464.835C472.637 464.761 472.374 464.608 472.109 464.375ZM473.495 463.67C473.715 463.863 473.953 463.966 474.209 463.98C474.47 463.993 474.736 463.926 475.009 463.78C475.283 463.635 475.549 463.417 475.806 463.124C476.062 462.832 476.245 462.542 476.353 462.255C476.461 461.968 476.49 461.699 476.44 461.447C476.389 461.194 476.254 460.971 476.034 460.778C475.81 460.581 475.568 460.476 475.307 460.463C475.046 460.45 474.782 460.516 474.514 460.663C474.245 460.809 473.987 461.024 473.737 461.308C473.486 461.594 473.303 461.881 473.189 462.171C473.079 462.46 473.046 462.733 473.088 462.989C473.135 463.246 473.271 463.473 473.495 463.67ZM477.42 469.062C477.107 468.787 476.875 468.487 476.725 468.162C476.577 467.836 476.526 467.502 476.572 467.161C476.623 466.819 476.79 466.486 477.075 466.162C477.315 465.889 477.567 465.703 477.83 465.606C478.094 465.508 478.362 465.479 478.634 465.517C478.906 465.556 479.178 465.643 479.448 465.779C479.721 465.916 479.989 466.08 480.253 466.27C480.565 466.491 480.82 466.666 481.018 466.794C481.217 466.92 481.38 466.991 481.505 467.007C481.631 467.023 481.74 466.979 481.832 466.874L481.849 466.855C482.027 466.652 482.101 466.439 482.07 466.215C482.042 465.994 481.911 465.781 481.678 465.577C481.433 465.361 481.19 465.244 480.949 465.225C480.71 465.205 480.496 465.255 480.307 465.376L479.135 464.165C479.462 463.923 479.814 463.775 480.193 463.722C480.574 463.667 480.965 463.711 481.364 463.855C481.768 463.998 482.167 464.241 482.559 464.586C482.833 464.826 483.066 465.088 483.259 465.371C483.455 465.657 483.591 465.952 483.667 466.257C483.745 466.564 483.748 466.873 483.676 467.183C483.605 467.492 483.442 467.792 483.185 468.085L480.272 471.402L478.978 470.266L479.577 469.584L479.539 469.55C479.325 469.634 479.1 469.677 478.864 469.678C478.631 469.677 478.392 469.629 478.148 469.532C477.906 469.433 477.664 469.276 477.42 469.062ZM478.638 468.464C478.838 468.64 479.05 468.756 479.273 468.812C479.498 468.866 479.714 468.863 479.922 468.804C480.129 468.744 480.309 468.628 480.461 468.455L480.919 467.933C480.852 467.923 480.771 467.897 480.676 467.855C480.584 467.813 480.484 467.761 480.376 467.699C480.269 467.636 480.163 467.571 480.058 467.505C479.955 467.438 479.862 467.376 479.778 467.321C479.597 467.204 479.424 467.119 479.26 467.065C479.095 467.011 478.941 466.999 478.798 467.028C478.657 467.056 478.53 467.133 478.418 467.262C478.255 467.447 478.197 467.648 478.246 467.865C478.298 468.081 478.429 468.28 478.638 468.464ZM488.265 469.711L487.365 470.735L484.403 468.134L485.303 467.109L488.265 469.711ZM487.01 466.522L488.374 467.72L484.348 472.305C484.237 472.431 484.17 472.546 484.147 472.65C484.125 472.752 484.136 472.847 484.18 472.935C484.226 473.024 484.295 473.109 484.387 473.19C484.451 473.246 484.52 473.297 484.593 473.343C484.668 473.386 484.726 473.42 484.766 473.443L484.089 474.647C484.002 474.608 483.884 474.548 483.736 474.467C483.586 474.388 483.42 474.274 483.237 474.125C482.897 473.849 482.647 473.552 482.488 473.235C482.33 472.919 482.276 472.595 482.325 472.264C482.374 471.932 482.541 471.607 482.826 471.286L487.01 466.522ZM486.155 476.733C485.841 476.458 485.61 476.158 485.46 475.833C485.312 475.507 485.261 475.173 485.307 474.832C485.358 474.49 485.525 474.157 485.81 473.833C486.05 473.56 486.302 473.374 486.565 473.277C486.829 473.179 487.096 473.15 487.369 473.188C487.641 473.227 487.912 473.314 488.183 473.45C488.455 473.587 488.724 473.751 488.988 473.941C489.3 474.162 489.555 474.337 489.752 474.465C489.952 474.591 490.114 474.662 490.24 474.678C490.366 474.694 490.475 474.65 490.567 474.545L490.584 474.526C490.762 474.323 490.836 474.11 490.805 473.886C490.776 473.665 490.646 473.452 490.413 473.248C490.168 473.032 489.925 472.915 489.684 472.896C489.445 472.875 489.231 472.926 489.041 473.047L487.87 471.836C488.196 471.594 488.549 471.446 488.928 471.393C489.309 471.338 489.699 471.382 490.099 471.526C490.503 471.669 490.901 471.912 491.294 472.257C491.567 472.497 491.801 472.759 491.994 473.042C492.19 473.328 492.326 473.623 492.402 473.928C492.48 474.235 492.483 474.544 492.411 474.854C492.34 475.163 492.176 475.463 491.92 475.756L489.006 479.073L487.713 477.937L488.312 477.255L488.273 477.221C488.059 477.305 487.835 477.348 487.599 477.349C487.366 477.348 487.127 477.299 486.883 477.203C486.641 477.104 486.399 476.947 486.155 476.733ZM487.373 476.135C487.573 476.311 487.785 476.427 488.008 476.483C488.233 476.537 488.449 476.534 488.657 476.475C488.864 476.415 489.044 476.299 489.196 476.126L489.654 475.604C489.587 475.594 489.506 475.568 489.411 475.526C489.319 475.484 489.219 475.432 489.111 475.37C489.004 475.307 488.898 475.242 488.793 475.176C488.69 475.109 488.596 475.047 488.512 474.992C488.332 474.875 488.159 474.79 487.994 474.736C487.83 474.682 487.676 474.67 487.533 474.699C487.392 474.727 487.265 474.804 487.153 474.933C486.99 475.118 486.932 475.319 486.98 475.536C487.033 475.752 487.163 475.951 487.373 476.135Z" fill="#FFC525"/>
<path d="M454.88 295.284C455.432 295.812 455.708 296.472 455.708 297.264C455.708 298.056 455.432 298.72 454.88 299.256C454.328 299.784 453.62 300.048 452.756 300.048H451.448V303H450.044V294.48H452.756C453.62 294.48 454.328 294.748 454.88 295.284ZM453.896 298.32C454.184 298.04 454.328 297.688 454.328 297.264C454.328 296.84 454.184 296.492 453.896 296.22C453.616 295.94 453.232 295.8 452.744 295.8H451.448V298.728H452.744C453.232 298.728 453.616 298.592 453.896 298.32ZM456.849 303V297H458.169V298.068C458.281 297.732 458.485 297.46 458.781 297.252C459.085 297.044 459.409 296.94 459.753 296.94C459.961 296.94 460.133 296.956 460.269 296.988V298.344C460.077 298.272 459.857 298.236 459.609 298.236C459.209 298.236 458.869 298.4 458.589 298.728C458.309 299.048 458.169 299.496 458.169 300.072V303H456.849ZM466.141 302.22C465.541 302.82 464.797 303.12 463.909 303.12C463.021 303.12 462.273 302.82 461.665 302.22C461.065 301.612 460.765 300.872 460.765 300C460.765 299.128 461.065 298.392 461.665 297.792C462.273 297.184 463.021 296.88 463.909 296.88C464.797 296.88 465.541 297.184 466.141 297.792C466.749 298.392 467.053 299.128 467.053 300C467.053 300.872 466.749 301.612 466.141 302.22ZM463.909 301.896C464.429 301.896 464.857 301.716 465.193 301.356C465.537 300.988 465.709 300.536 465.709 300C465.709 299.464 465.537 299.016 465.193 298.656C464.857 298.288 464.429 298.104 463.909 298.104C463.381 298.104 462.945 298.288 462.601 298.656C462.265 299.016 462.097 299.464 462.097 300C462.097 300.536 462.265 300.988 462.601 301.356C462.945 301.716 463.381 301.896 463.909 301.896ZM470.84 303.12C470.024 303.12 469.336 302.816 468.776 302.208C468.224 301.6 467.948 300.864 467.948 300C467.948 299.136 468.224 298.4 468.776 297.792C469.336 297.184 470.024 296.88 470.84 296.88C471.248 296.88 471.624 296.972 471.968 297.156C472.312 297.332 472.576 297.548 472.76 297.804V294H474.08V303H472.76V302.196C472.576 302.452 472.312 302.672 471.968 302.856C471.624 303.032 471.248 303.12 470.84 303.12ZM469.796 301.368C470.132 301.736 470.56 301.92 471.08 301.92C471.6 301.92 472.028 301.736 472.364 301.368C472.7 301 472.868 300.544 472.868 300C472.868 299.456 472.7 299 472.364 298.632C472.028 298.264 471.6 298.08 471.08 298.08C470.56 298.08 470.132 298.264 469.796 298.632C469.46 299 469.292 299.456 469.292 300C469.292 300.544 469.46 301 469.796 301.368ZM478.016 303.12C477.328 303.12 476.784 302.892 476.384 302.436C475.984 301.972 475.784 301.356 475.784 300.588V297H477.104V300.372C477.104 300.852 477.208 301.232 477.416 301.512C477.624 301.784 477.92 301.92 478.304 301.92C478.752 301.92 479.108 301.752 479.372 301.416C479.636 301.072 479.768 300.584 479.768 299.952V297H481.088V303H479.768V302.184C479.416 302.808 478.832 303.12 478.016 303.12ZM485.601 303.12C484.697 303.12 483.941 302.824 483.333 302.232C482.733 301.632 482.433 300.888 482.433 300C482.433 299.112 482.733 298.372 483.333 297.78C483.941 297.18 484.697 296.88 485.601 296.88C486.217 296.88 486.769 297.028 487.257 297.324C487.753 297.62 488.133 298.024 488.397 298.536L487.245 299.16C487.093 298.84 486.873 298.584 486.585 298.392C486.297 298.2 485.969 298.104 485.601 298.104C485.073 298.104 484.637 298.288 484.293 298.656C483.949 299.016 483.777 299.464 483.777 300C483.777 300.536 483.949 300.988 484.293 301.356C484.637 301.716 485.073 301.896 485.601 301.896C485.969 301.896 486.297 301.8 486.585 301.608C486.873 301.416 487.093 301.16 487.245 300.84L488.397 301.464C488.133 301.976 487.753 302.38 487.257 302.676C486.769 302.972 486.217 303.12 485.601 303.12ZM492.207 303.06C491.599 303.06 491.103 302.892 490.719 302.556C490.343 302.212 490.155 301.716 490.155 301.068V298.176H488.907V297H490.155V295.332H491.475V297H493.191V298.176H491.475V300.852C491.475 301.22 491.555 301.484 491.715 301.644C491.875 301.796 492.131 301.872 492.483 301.872C492.771 301.872 493.007 301.832 493.191 301.752V302.928C492.903 303.016 492.575 303.06 492.207 303.06ZM499.727 303.12C498.911 303.12 498.223 302.816 497.663 302.208C497.111 301.6 496.835 300.864 496.835 300C496.835 299.136 497.111 298.4 497.663 297.792C498.223 297.184 498.911 296.88 499.727 296.88C500.135 296.88 500.511 296.972 500.855 297.156C501.199 297.332 501.463 297.548 501.647 297.804V294H502.967V303H501.647V302.196C501.463 302.452 501.199 302.672 500.855 302.856C500.511 303.032 500.135 303.12 499.727 303.12ZM498.683 301.368C499.019 301.736 499.447 301.92 499.967 301.92C500.487 301.92 500.915 301.736 501.251 301.368C501.587 301 501.755 300.544 501.755 300C501.755 299.456 501.587 299 501.251 298.632C500.915 298.264 500.487 298.08 499.967 298.08C499.447 298.08 499.019 298.264 498.683 298.632C498.347 299 498.179 299.456 498.179 300C498.179 300.544 498.347 301 498.683 301.368ZM507.215 303.12C506.399 303.12 505.711 302.816 505.151 302.208C504.599 301.6 504.323 300.864 504.323 300C504.323 299.136 504.599 298.4 505.151 297.792C505.711 297.184 506.399 296.88 507.215 296.88C507.623 296.88 507.999 296.972 508.343 297.156C508.687 297.332 508.951 297.548 509.135 297.804V297H510.455V303H509.135V302.196C508.951 302.452 508.687 302.672 508.343 302.856C507.999 303.032 507.623 303.12 507.215 303.12ZM506.171 301.368C506.507 301.736 506.935 301.92 507.455 301.92C507.975 301.92 508.403 301.736 508.739 301.368C509.075 301 509.243 300.544 509.243 300C509.243 299.456 509.075 299 508.739 298.632C508.403 298.264 507.975 298.08 507.455 298.08C506.935 298.08 506.507 298.264 506.171 298.632C505.835 299 505.667 299.456 505.667 300C505.667 300.544 505.835 301 506.171 301.368ZM514.847 303.06C514.239 303.06 513.743 302.892 513.359 302.556C512.983 302.212 512.795 301.716 512.795 301.068V298.176H511.547V297H512.795V295.332H514.115V297H515.831V298.176H514.115V300.852C514.115 301.22 514.195 301.484 514.355 301.644C514.515 301.796 514.771 301.872 515.123 301.872C515.411 301.872 515.647 301.832 515.831 301.752V302.928C515.543 303.016 515.215 303.06 514.847 303.06ZM519.461 303.12C518.645 303.12 517.957 302.816 517.397 302.208C516.845 301.6 516.569 300.864 516.569 300C516.569 299.136 516.845 298.4 517.397 297.792C517.957 297.184 518.645 296.88 519.461 296.88C519.869 296.88 520.245 296.972 520.589 297.156C520.933 297.332 521.197 297.548 521.381 297.804V297H522.701V303H521.381V302.196C521.197 302.452 520.933 302.672 520.589 302.856C520.245 303.032 519.869 303.12 519.461 303.12ZM518.417 301.368C518.753 301.736 519.181 301.92 519.701 301.92C520.221 301.92 520.649 301.736 520.985 301.368C521.321 301 521.489 300.544 521.489 300C521.489 299.456 521.321 299 520.985 298.632C520.649 298.264 520.221 298.08 519.701 298.08C519.181 298.08 518.753 298.264 518.417 298.632C518.081 299 517.913 299.456 517.913 300C517.913 300.544 518.081 301 518.417 301.368Z" fill="#FFC525"/>
<path d="M587 308L574.539 300.716L574.461 315.15L587 308ZM575.757 306.69L401.007 305.75L400.993 308.25L575.743 309.189L575.757 306.69Z" fill="#FFC525"/>
<path d="M540.188 490.583L535.449 476.949L526.011 487.87L540.188 490.583ZM532.493 482.281L401.79 369.324L400.155 371.216L530.858 484.173L532.493 482.281Z" fill="#999999"/>
<path d="M346.914 32L339.635 44.4639L354.069 44.5358L346.914 32ZM345.608 43.2436L344.748 215.991L347.248 216.004L348.108 43.2561L345.608 43.2436Z" fill="#999999"/>
<rect x="307.219" y="104" width="46" height="30" fill="white"/>
<rect x="307.219" y="104" width="46" height="30" stroke="#FFC525"/>
<path d="M316.554 108.57C317.014 109.01 317.244 109.56 317.244 110.22C317.244 110.88 317.014 111.433 316.554 111.88C316.094 112.32 315.504 112.54 314.784 112.54H313.694V115H312.524V107.9H314.784C315.504 107.9 316.094 108.123 316.554 108.57ZM315.734 111.1C315.974 110.867 316.094 110.573 316.094 110.22C316.094 109.867 315.974 109.577 315.734 109.35C315.501 109.117 315.181 109 314.774 109H313.694V111.44H314.774C315.181 111.44 315.501 111.327 315.734 111.1ZM318.195 115V110H319.295V110.89C319.388 110.61 319.558 110.383 319.805 110.21C320.058 110.037 320.328 109.95 320.615 109.95C320.788 109.95 320.932 109.963 321.045 109.99V111.12C320.885 111.06 320.702 111.03 320.495 111.03C320.162 111.03 319.878 111.167 319.645 111.44C319.412 111.707 319.295 112.08 319.295 112.56V115H318.195ZM325.938 114.35C325.438 114.85 324.818 115.1 324.078 115.1C323.338 115.1 322.715 114.85 322.208 114.35C321.708 113.843 321.458 113.227 321.458 112.5C321.458 111.773 321.708 111.16 322.208 110.66C322.715 110.153 323.338 109.9 324.078 109.9C324.818 109.9 325.438 110.153 325.938 110.66C326.445 111.16 326.698 111.773 326.698 112.5C326.698 113.227 326.445 113.843 325.938 114.35ZM324.078 114.08C324.511 114.08 324.868 113.93 325.148 113.63C325.435 113.323 325.578 112.947 325.578 112.5C325.578 112.053 325.435 111.68 325.148 111.38C324.868 111.073 324.511 110.92 324.078 110.92C323.638 110.92 323.275 111.073 322.988 111.38C322.708 111.68 322.568 112.053 322.568 112.5C322.568 112.947 322.708 113.323 322.988 113.63C323.275 113.93 323.638 114.08 324.078 114.08ZM329.854 115.1C329.174 115.1 328.601 114.847 328.134 114.34C327.674 113.833 327.444 113.22 327.444 112.5C327.444 111.78 327.674 111.167 328.134 110.66C328.601 110.153 329.174 109.9 329.854 109.9C330.194 109.9 330.508 109.977 330.794 110.13C331.081 110.277 331.301 110.457 331.454 110.67V107.5H332.554V115H331.454V114.33C331.301 114.543 331.081 114.727 330.794 114.88C330.508 115.027 330.194 115.1 329.854 115.1ZM328.984 113.64C329.264 113.947 329.621 114.1 330.054 114.1C330.488 114.1 330.844 113.947 331.124 113.64C331.404 113.333 331.544 112.953 331.544 112.5C331.544 112.047 331.404 111.667 331.124 111.36C330.844 111.053 330.488 110.9 330.054 110.9C329.621 110.9 329.264 111.053 328.984 111.36C328.704 111.667 328.564 112.047 328.564 112.5C328.564 112.953 328.704 113.333 328.984 113.64ZM335.835 115.1C335.261 115.1 334.808 114.91 334.475 114.53C334.141 114.143 333.975 113.63 333.975 112.99V110H335.075V112.81C335.075 113.21 335.161 113.527 335.335 113.76C335.508 113.987 335.755 114.1 336.075 114.1C336.448 114.1 336.745 113.96 336.965 113.68C337.185 113.393 337.295 112.987 337.295 112.46V110H338.395V115H337.295V114.32C337.001 114.84 336.515 115.1 335.835 115.1ZM342.155 115.1C341.401 115.1 340.771 114.853 340.265 114.36C339.765 113.86 339.515 113.24 339.515 112.5C339.515 111.76 339.765 111.143 340.265 110.65C340.771 110.15 341.401 109.9 342.155 109.9C342.668 109.9 343.128 110.023 343.535 110.27C343.948 110.517 344.265 110.853 344.485 111.28L343.525 111.8C343.398 111.533 343.215 111.32 342.975 111.16C342.735 111 342.461 110.92 342.155 110.92C341.715 110.92 341.351 111.073 341.065 111.38C340.778 111.68 340.635 112.053 340.635 112.5C340.635 112.947 340.778 113.323 341.065 113.63C341.351 113.93 341.715 114.08 342.155 114.08C342.461 114.08 342.735 114 342.975 113.84C343.215 113.68 343.398 113.467 343.525 113.2L344.485 113.72C344.265 114.147 343.948 114.483 343.535 114.73C343.128 114.977 342.668 115.1 342.155 115.1ZM347.66 115.05C347.153 115.05 346.74 114.91 346.42 114.63C346.107 114.343 345.95 113.93 345.95 113.39V110.98H344.91V110H345.95V108.61H347.05V110H348.48V110.98H347.05V113.21C347.05 113.517 347.117 113.737 347.25 113.87C347.383 113.997 347.597 114.06 347.89 114.06C348.13 114.06 348.327 114.027 348.48 113.96V114.94C348.24 115.013 347.967 115.05 347.66 115.05ZM321.666 131.1C320.986 131.1 320.413 130.847 319.946 130.34C319.486 129.833 319.256 129.22 319.256 128.5C319.256 127.78 319.486 127.167 319.946 126.66C320.413 126.153 320.986 125.9 321.666 125.9C322.006 125.9 322.319 125.977 322.606 126.13C322.893 126.277 323.113 126.457 323.266 126.67V123.5H324.366V131H323.266V130.33C323.113 130.543 322.893 130.727 322.606 130.88C322.319 131.027 322.006 131.1 321.666 131.1ZM320.796 129.64C321.076 129.947 321.433 130.1 321.866 130.1C322.299 130.1 322.656 129.947 322.936 129.64C323.216 129.333 323.356 128.953 323.356 128.5C323.356 128.047 323.216 127.667 322.936 127.36C322.656 127.053 322.299 126.9 321.866 126.9C321.433 126.9 321.076 127.053 320.796 127.36C320.516 127.667 320.376 128.047 320.376 128.5C320.376 128.953 320.516 129.333 320.796 129.64ZM327.906 131.1C327.226 131.1 326.653 130.847 326.186 130.34C325.726 129.833 325.496 129.22 325.496 128.5C325.496 127.78 325.726 127.167 326.186 126.66C326.653 126.153 327.226 125.9 327.906 125.9C328.246 125.9 328.56 125.977 328.846 126.13C329.133 126.277 329.353 126.457 329.506 126.67V126H330.606V131H329.506V130.33C329.353 130.543 329.133 130.727 328.846 130.88C328.56 131.027 328.246 131.1 327.906 131.1ZM327.036 129.64C327.316 129.947 327.673 130.1 328.106 130.1C328.54 130.1 328.896 129.947 329.176 129.64C329.456 129.333 329.596 128.953 329.596 128.5C329.596 128.047 329.456 127.667 329.176 127.36C328.896 127.053 328.54 126.9 328.106 126.9C327.673 126.9 327.316 127.053 327.036 127.36C326.756 127.667 326.616 128.047 326.616 128.5C326.616 128.953 326.756 129.333 327.036 129.64ZM334.266 131.05C333.76 131.05 333.346 130.91 333.026 130.63C332.713 130.343 332.556 129.93 332.556 129.39V126.98H331.516V126H332.556V124.61H333.656V126H335.086V126.98H333.656V129.21C333.656 129.517 333.723 129.737 333.856 129.87C333.99 129.997 334.203 130.06 334.496 130.06C334.736 130.06 334.933 130.027 335.086 129.96V130.94C334.846 131.013 334.573 131.05 334.266 131.05ZM338.111 131.1C337.431 131.1 336.858 130.847 336.391 130.34C335.931 129.833 335.701 129.22 335.701 128.5C335.701 127.78 335.931 127.167 336.391 126.66C336.858 126.153 337.431 125.9 338.111 125.9C338.451 125.9 338.765 125.977 339.051 126.13C339.338 126.277 339.558 126.457 339.711 126.67V126H340.811V131H339.711V130.33C339.558 130.543 339.338 130.727 339.051 130.88C338.765 131.027 338.451 131.1 338.111 131.1ZM337.241 129.64C337.521 129.947 337.878 130.1 338.311 130.1C338.745 130.1 339.101 129.947 339.381 129.64C339.661 129.333 339.801 128.953 339.801 128.5C339.801 128.047 339.661 127.667 339.381 127.36C339.101 127.053 338.745 126.9 338.311 126.9C337.878 126.9 337.521 127.053 337.241 127.36C336.961 127.667 336.821 128.047 336.821 128.5C336.821 128.953 336.961 129.333 337.241 129.64Z" fill="#FFDD4C"/>
<path d="M393 362L397.711 375.643L407.171 364.742L393 362ZM400.678 370.317L531.151 483.54L532.789 481.652L402.316 368.429L400.678 370.317Z" fill="#999999"/>
</svg>
