<svg width="47" height="47" viewBox="0 0 47 47" fill="none" xmlns="http://www.w3.org/2000/svg">
<g filter="url(#filter0_i_3072_7686)">
<circle cx="23.5" cy="23.5" r="23.5" fill="#4AC63F"/>
<circle cx="23.5" cy="23.5" r="23.5" fill="url(#paint0_radial_3072_7686)"/>
<circle cx="23.5" cy="23.5" r="23.5" fill="url(#paint1_radial_3072_7686)" fill-opacity="0.45" style="mix-blend-mode:lighten"/>
<circle cx="23.5" cy="23.5" r="23.5" fill="url(#paint2_radial_3072_7686)" fill-opacity="0.15" style="mix-blend-mode:lighten"/>
<circle cx="23.5" cy="23.5" r="23.5" fill="url(#paint3_radial_3072_7686)" fill-opacity="0.56" style="mix-blend-mode:multiply"/>
</g>
<path d="M20.6973 23.7563C20.6973 29.7063 24.1973 31.6313 25.0723 31.6313C28.1348 31.6313 26.8223 27 28.1348 25.6875C29.4473 24.375 32.5098 25.0688 32.5098 22.0063C32.5098 18.9438 30.7598 17.6313 28.1348 17.6313C23.7598 17.6313 20.6973 18.9438 20.6973 23.7563Z" stroke="white" stroke-width="1.75"/>
<path d="M24 34.875C30.2822 34.875 35.375 29.7822 35.375 23.5C35.375 17.2178 30.2822 12.125 24 12.125C17.7178 12.125 12.625 17.2178 12.625 23.5C12.625 29.7822 17.7178 34.875 24 34.875Z" stroke="white" stroke-width="1.75" stroke-linejoin="round"/>
<path d="M28.8125 13.4375C28.8125 14.4586 27.2944 14.75 26.1875 14.75C21.6226 14.75 16.8206 17.795 16.1941 21.7535C16.118 22.2304 15.733 22.625 15.25 22.625H12.625M13.5 27.4375C14.1869 27.6667 15.3603 28.5619 16.51 28.7649C17.0088 28.8533 17.5189 29.1709 17.6466 29.66C17.9118 30.675 18.1261 31.403 17.4375 33.125" stroke="white" stroke-width="1.75"/>
<defs>
<filter id="filter0_i_3072_7686" x="0" y="-1.49954" width="47.9997" height="48.4995" filterUnits="userSpaceOnUse" color-interpolation-filters="sRGB">
<feFlood flood-opacity="0" result="BackgroundImageFix"/>
<feBlend mode="normal" in="SourceGraphic" in2="BackgroundImageFix" result="shape"/>
<feColorMatrix in="SourceAlpha" type="matrix" values="0 0 0 0 0 0 0 0 0 0 0 0 0 0 0 0 0 0 127 0" result="hardAlpha"/>
<feOffset dx="0.999692" dy="-1.49954"/>
<feGaussianBlur stdDeviation="3.99877"/>
<feComposite in2="hardAlpha" operator="arithmetic" k2="-1" k3="1"/>
<feColorMatrix type="matrix" values="0 0 0 0 0 0 0 0 0 0 0 0 0 0 0 0 0 0 0.25 0"/>
<feBlend mode="normal" in2="shape" result="effect1_innerShadow_3072_7686"/>
</filter>
<radialGradient id="paint0_radial_3072_7686" cx="0" cy="0" r="1" gradientUnits="userSpaceOnUse" gradientTransform="translate(30.2748 14.1847) rotate(123.232) scale(22.0201 22.0201)">
<stop stop-color="#4AC63F"/>
<stop offset="1" stop-color="#228B22"/>
</radialGradient>
<radialGradient id="paint1_radial_3072_7686" cx="0" cy="0" r="1" gradientUnits="userSpaceOnUse" gradientTransform="translate(30.4865 12.7027) rotate(123.69) scale(19.8468)">
<stop stop-color="white"/>
<stop offset="1" stop-color="white" stop-opacity="0"/>
</radialGradient>
<radialGradient id="paint2_radial_3072_7686" cx="0" cy="0" r="1" gradientUnits="userSpaceOnUse" gradientTransform="translate(25.6171 17.5721) rotate(111.949) scale(30.5863)">
<stop offset="0.596475" stop-color="white" stop-opacity="0"/>
<stop offset="0.742517" stop-color="white"/>
<stop offset="0.832316" stop-color="white"/>
<stop offset="1" stop-color="white" stop-opacity="0"/>
</radialGradient>
<radialGradient id="paint3_radial_3072_7686" cx="0" cy="0" r="1" gradientUnits="userSpaceOnUse" gradientTransform="translate(27.9459 10.1622) rotate(106.798) scale(35.1626)">
<stop offset="0.238216" stop-color="#219125" stop-opacity="0"/>
<stop offset="0.640216" stop-color="#4AC63F" stop-opacity="0.81"/>
<stop offset="0.791876" stop-color="#3A8B1D" stop-opacity="0.99"/>
<stop offset="0.868482" stop-color="#258A1D" stop-opacity="0.81"/>
<stop offset="1" stop-color="#4AC63F" stop-opacity="0.6"/>
</radialGradient>
</defs>
</svg>
