<svg width="48" height="47" viewBox="0 0 48 47" fill="none" xmlns="http://www.w3.org/2000/svg">
<g filter="url(#filter0_i_3072_7695)">
<circle cx="24" cy="23.5" r="23.5" fill="#4AC63F"/>
<circle cx="24" cy="23.5" r="23.5" fill="url(#paint0_radial_3072_7695)"/>
<circle cx="24" cy="23.5" r="23.5" fill="url(#paint1_radial_3072_7695)" fill-opacity="0.45" style="mix-blend-mode:lighten"/>
<circle cx="24" cy="23.5" r="23.5" fill="url(#paint2_radial_3072_7695)" fill-opacity="0.15" style="mix-blend-mode:lighten"/>
<circle cx="24" cy="23.5" r="23.5" fill="url(#paint3_radial_3072_7695)" fill-opacity="0.56" style="mix-blend-mode:multiply"/>
</g>
<path d="M26.1673 25.8333H29.6673M26.1673 21.1666H29.6673M20.334 20.5833V19.4166M20.334 20.5833H22.6674M20.334 20.5833C18.2353 20.5832 18.0028 21.0875 18.0008 22.1378C17.9987 23.1882 18.0008 23.4999 20.3341 23.4999C22.6674 23.4999 22.6674 23.7397 22.6674 24.8611C22.6674 25.7038 22.6674 26.4166 20.3341 26.4166M20.3341 26.4166L20.334 27.5833M20.3341 26.4166H18.0008M17.0673 31.6666H30.6006C31.9074 31.6666 32.5609 31.6666 33.06 31.4123C33.499 31.1886 33.856 30.8316 34.0796 30.3926C34.334 29.8935 34.334 29.24 34.334 27.9333V19.0666C34.334 17.7598 34.334 17.1064 34.0796 16.6073C33.856 16.1682 33.499 15.8113 33.06 15.5876C32.5609 15.3333 31.9074 15.3333 30.6006 15.3333H17.0673C15.7605 15.3333 15.1071 15.3333 14.608 15.5876C14.169 15.8113 13.812 16.1682 13.5883 16.6073C13.334 17.1064 13.334 17.7598 13.334 19.0666V27.9333C13.334 29.24 13.334 29.8935 13.5883 30.3926C13.812 30.8316 14.169 31.1886 14.608 31.4123C15.1071 31.6666 15.7605 31.6666 17.0673 31.6666Z" stroke="white" stroke-width="1.5" stroke-linecap="round" stroke-linejoin="round"/>
<defs>
<filter id="filter0_i_3072_7695" x="0.5" y="-1.49954" width="47.9997" height="48.4995" filterUnits="userSpaceOnUse" color-interpolation-filters="sRGB">
<feFlood flood-opacity="0" result="BackgroundImageFix"/>
<feBlend mode="normal" in="SourceGraphic" in2="BackgroundImageFix" result="shape"/>
<feColorMatrix in="SourceAlpha" type="matrix" values="0 0 0 0 0 0 0 0 0 0 0 0 0 0 0 0 0 0 127 0" result="hardAlpha"/>
<feOffset dx="0.999692" dy="-1.49954"/>
<feGaussianBlur stdDeviation="3.99877"/>
<feComposite in2="hardAlpha" operator="arithmetic" k2="-1" k3="1"/>
<feColorMatrix type="matrix" values="0 0 0 0 0 0 0 0 0 0 0 0 0 0 0 0 0 0 0.25 0"/>
<feBlend mode="normal" in2="shape" result="effect1_innerShadow_3072_7695"/>
</filter>
<radialGradient id="paint0_radial_3072_7695" cx="0" cy="0" r="1" gradientUnits="userSpaceOnUse" gradientTransform="translate(30.7748 14.1847) rotate(123.232) scale(22.0201 22.0201)">
<stop stop-color="#4AC63F"/>
<stop offset="1" stop-color="#228B22"/>
</radialGradient>
<radialGradient id="paint1_radial_3072_7695" cx="0" cy="0" r="1" gradientUnits="userSpaceOnUse" gradientTransform="translate(30.9865 12.7027) rotate(123.69) scale(19.8468)">
<stop stop-color="white"/>
<stop offset="1" stop-color="white" stop-opacity="0"/>
</radialGradient>
<radialGradient id="paint2_radial_3072_7695" cx="0" cy="0" r="1" gradientUnits="userSpaceOnUse" gradientTransform="translate(26.1171 17.5721) rotate(111.949) scale(30.5863)">
<stop offset="0.596475" stop-color="white" stop-opacity="0"/>
<stop offset="0.742517" stop-color="white"/>
<stop offset="0.832316" stop-color="white"/>
<stop offset="1" stop-color="white" stop-opacity="0"/>
</radialGradient>
<radialGradient id="paint3_radial_3072_7695" cx="0" cy="0" r="1" gradientUnits="userSpaceOnUse" gradientTransform="translate(28.4459 10.1622) rotate(106.798) scale(35.1626)">
<stop offset="0.238216" stop-color="#219125" stop-opacity="0"/>
<stop offset="0.640216" stop-color="#4AC63F" stop-opacity="0.81"/>
<stop offset="0.791876" stop-color="#3A8B1D" stop-opacity="0.99"/>
<stop offset="0.868482" stop-color="#258A1D" stop-opacity="0.81"/>
<stop offset="1" stop-color="#4AC63F" stop-opacity="0.6"/>
</radialGradient>
</defs>
</svg>
