<svg width="47" height="47" viewBox="0 0 47 47" fill="none" xmlns="http://www.w3.org/2000/svg">
<g filter="url(#filter0_i_3382_8211)">
<circle cx="23.5" cy="23.5" r="23.5" fill="#4AC63F"/>
<circle cx="23.5" cy="23.5" r="23.5" fill="url(#paint0_radial_3382_8211)"/>
<circle cx="23.5" cy="23.5" r="23.5" fill="url(#paint1_radial_3382_8211)" fill-opacity="0.45" style="mix-blend-mode:lighten"/>
<circle cx="23.5" cy="23.5" r="23.5" fill="url(#paint2_radial_3382_8211)" fill-opacity="0.15" style="mix-blend-mode:lighten"/>
<circle cx="23.5" cy="23.5" r="23.5" fill="url(#paint3_radial_3382_8211)" fill-opacity="0.56" style="mix-blend-mode:multiply"/>
</g>
<path d="M23.9993 23C23.3071 23 22.6304 23.2053 22.0549 23.5899C21.4793 23.9745 21.0307 24.5211 20.7658 25.1606C20.5009 25.8002 20.4316 26.5039 20.5666 27.1828C20.7016 27.8618 21.035 28.4854 21.5245 28.9749C22.014 29.4644 22.6376 29.7977 23.3165 29.9328C23.9955 30.0678 24.6992 29.9985 25.3387 29.7336C25.9783 29.4687 26.5249 29.0201 26.9095 28.4445C27.2941 27.8689 27.4994 27.1922 27.4994 26.5C27.4994 25.5718 27.1306 24.6815 26.4742 24.0251C25.8178 23.3688 24.9276 23 23.9993 23ZM23.9993 27.6667C23.7686 27.6667 23.543 27.5983 23.3512 27.4701C23.1593 27.3419 23.0098 27.1597 22.9215 26.9465C22.8332 26.7333 22.8101 26.4987 22.8551 26.2724C22.9001 26.0461 23.0112 25.8382 23.1744 25.6751C23.3376 25.5119 23.5454 25.4008 23.7717 25.3558C23.9981 25.3107 24.2326 25.3338 24.4458 25.4222C24.659 25.5105 24.8412 25.66 24.9694 25.8518C25.0976 26.0437 25.166 26.2693 25.166 26.5C25.166 26.8094 25.0431 27.1062 24.8243 27.325C24.6055 27.5438 24.3088 27.6667 23.9993 27.6667ZM23.171 20.3283C23.282 20.4346 23.4128 20.5178 23.556 20.5733C23.6957 20.6351 23.8467 20.6669 23.9993 20.6669C24.152 20.6669 24.303 20.6351 24.4427 20.5733C24.5859 20.5178 24.7167 20.4346 24.8277 20.3283L27.4994 17.7033C27.7252 17.4775 27.8521 17.1711 27.8521 16.8517C27.8521 16.5322 27.7252 16.2259 27.4994 16C27.2735 15.7741 26.9671 15.6472 26.6477 15.6472C26.3282 15.6472 26.0219 15.7741 25.796 16L25.166 16.6883V12.5C25.166 12.1906 25.0431 11.8938 24.8243 11.6751C24.6055 11.4563 24.3088 11.3333 23.9993 11.3333C23.6899 11.3333 23.3932 11.4563 23.1744 11.6751C22.9556 11.8938 22.8327 12.1906 22.8327 12.5V16.6883L22.2027 16C21.9768 15.7741 21.6705 15.6472 21.351 15.6472C21.0316 15.6472 20.7252 15.7741 20.4993 16C20.2735 16.2259 20.1466 16.5322 20.1466 16.8517C20.1466 17.1711 20.2735 17.4775 20.4993 17.7033L23.171 20.3283ZM32.166 26.5C32.166 26.2693 32.0976 26.0437 31.9694 25.8518C31.8412 25.66 31.659 25.5105 31.4458 25.4222C31.2326 25.3338 30.9981 25.3107 30.7717 25.3558C30.5454 25.4008 30.3376 25.5119 30.1744 25.6751C30.0112 25.8382 29.9001 26.0461 29.8551 26.2724C29.8101 26.4987 29.8332 26.7333 29.9215 26.9465C30.0098 27.1597 30.1593 27.3419 30.3512 27.4701C30.543 27.5983 30.7686 27.6667 30.9994 27.6667C31.3088 27.6667 31.6055 27.5438 31.8243 27.325C32.0431 27.1062 32.166 26.8094 32.166 26.5ZM33.3327 18.3333H29.8327C29.5233 18.3333 29.2265 18.4563 29.0077 18.6751C28.7889 18.8938 28.666 19.1906 28.666 19.5C28.666 19.8094 28.7889 20.1062 29.0077 20.325C29.2265 20.5438 29.5233 20.6667 29.8327 20.6667H33.3327C33.6421 20.6667 33.9389 20.7896 34.1576 21.0084C34.3764 21.2272 34.4994 21.5239 34.4994 21.8333V31.1667C34.4994 31.4761 34.3764 31.7728 34.1576 31.9916C33.9389 32.2104 33.6421 32.3333 33.3327 32.3333H14.666C14.3566 32.3333 14.0599 32.2104 13.8411 31.9916C13.6223 31.7728 13.4993 31.4761 13.4993 31.1667V21.8333C13.4993 21.5239 13.6223 21.2272 13.8411 21.0084C14.0599 20.7896 14.3566 20.6667 14.666 20.6667H18.166C18.4754 20.6667 18.7722 20.5438 18.991 20.325C19.2098 20.1062 19.3327 19.8094 19.3327 19.5C19.3327 19.1906 19.2098 18.8938 18.991 18.6751C18.7722 18.4563 18.4754 18.3333 18.166 18.3333H14.666C13.7378 18.3333 12.8475 18.7021 12.1911 19.3585C11.5348 20.0148 11.166 20.9051 11.166 21.8333V31.1667C11.166 32.0949 11.5348 32.9852 12.1911 33.6416C12.8475 34.2979 13.7378 34.6667 14.666 34.6667H33.3327C34.2609 34.6667 35.1512 34.2979 35.8076 33.6416C36.4639 32.9852 36.8327 32.0949 36.8327 31.1667V21.8333C36.8327 20.9051 36.4639 20.0148 35.8076 19.3585C35.1512 18.7021 34.2609 18.3333 33.3327 18.3333ZM15.8327 26.5C15.8327 26.7308 15.9011 26.9563 16.0293 27.1482C16.1575 27.34 16.3397 27.4896 16.5529 27.5779C16.7661 27.6662 17.0006 27.6893 17.227 27.6443C17.4533 27.5992 17.6611 27.4881 17.8243 27.325C17.9875 27.1618 18.0986 26.9539 18.1436 26.7276C18.1886 26.5013 18.1655 26.2667 18.0772 26.0535C17.9889 25.8404 17.8394 25.6582 17.6475 25.53C17.4557 25.4018 17.2301 25.3333 16.9993 25.3333C16.6899 25.3333 16.3932 25.4563 16.1744 25.6751C15.9556 25.8938 15.8327 26.1906 15.8327 26.5Z" fill="white"/>
<defs>
<filter id="filter0_i_3382_8211" x="0" y="-1.49954" width="47.9997" height="48.4995" filterUnits="userSpaceOnUse" color-interpolation-filters="sRGB">
<feFlood flood-opacity="0" result="BackgroundImageFix"/>
<feBlend mode="normal" in="SourceGraphic" in2="BackgroundImageFix" result="shape"/>
<feColorMatrix in="SourceAlpha" type="matrix" values="0 0 0 0 0 0 0 0 0 0 0 0 0 0 0 0 0 0 127 0" result="hardAlpha"/>
<feOffset dx="0.999692" dy="-1.49954"/>
<feGaussianBlur stdDeviation="3.99877"/>
<feComposite in2="hardAlpha" operator="arithmetic" k2="-1" k3="1"/>
<feColorMatrix type="matrix" values="0 0 0 0 0 0 0 0 0 0 0 0 0 0 0 0 0 0 0.25 0"/>
<feBlend mode="normal" in2="shape" result="effect1_innerShadow_3382_8211"/>
</filter>
<radialGradient id="paint0_radial_3382_8211" cx="0" cy="0" r="1" gradientUnits="userSpaceOnUse" gradientTransform="translate(30.2748 14.1847) rotate(123.232) scale(22.0201 22.0201)">
<stop stop-color="#4AC63F"/>
<stop offset="1" stop-color="#228B22"/>
</radialGradient>
<radialGradient id="paint1_radial_3382_8211" cx="0" cy="0" r="1" gradientUnits="userSpaceOnUse" gradientTransform="translate(30.4865 12.7027) rotate(123.69) scale(19.8468)">
<stop stop-color="white"/>
<stop offset="1" stop-color="white" stop-opacity="0"/>
</radialGradient>
<radialGradient id="paint2_radial_3382_8211" cx="0" cy="0" r="1" gradientUnits="userSpaceOnUse" gradientTransform="translate(25.6171 17.5721) rotate(111.949) scale(30.5863)">
<stop offset="0.596475" stop-color="white" stop-opacity="0"/>
<stop offset="0.742517" stop-color="white"/>
<stop offset="0.832316" stop-color="white"/>
<stop offset="1" stop-color="white" stop-opacity="0"/>
</radialGradient>
<radialGradient id="paint3_radial_3382_8211" cx="0" cy="0" r="1" gradientUnits="userSpaceOnUse" gradientTransform="translate(27.9459 10.1622) rotate(106.798) scale(35.1626)">
<stop offset="0.238216" stop-color="#219125" stop-opacity="0"/>
<stop offset="0.640216" stop-color="#4AC63F" stop-opacity="0.81"/>
<stop offset="0.791876" stop-color="#3A8B1D" stop-opacity="0.99"/>
<stop offset="0.868482" stop-color="#258A1D" stop-opacity="0.81"/>
<stop offset="1" stop-color="#4AC63F" stop-opacity="0.6"/>
</radialGradient>
</defs>
</svg>
