<svg width="47" height="47" viewBox="0 0 47 47" fill="none" xmlns="http://www.w3.org/2000/svg">
<g filter="url(#filter0_i_3382_8204)">
<circle cx="23.5" cy="23.5" r="23.5" fill="#4AC63F"/>
<circle cx="23.5" cy="23.5" r="23.5" fill="url(#paint0_radial_3382_8204)"/>
<circle cx="23.5" cy="23.5" r="23.5" fill="url(#paint1_radial_3382_8204)" fill-opacity="0.45" style="mix-blend-mode:lighten"/>
<circle cx="23.5" cy="23.5" r="23.5" fill="url(#paint2_radial_3382_8204)" fill-opacity="0.15" style="mix-blend-mode:lighten"/>
<circle cx="23.5" cy="23.5" r="23.5" fill="url(#paint3_radial_3382_8204)" fill-opacity="0.56" style="mix-blend-mode:multiply"/>
</g>
<path d="M24.3493 23.7567C24.9719 23.2178 25.4712 22.5514 25.8134 21.8025C26.1556 21.0537 26.3327 20.24 26.3327 19.4167C26.3327 17.8696 25.7181 16.3858 24.6241 15.2919C23.5302 14.1979 22.0464 13.5833 20.4993 13.5833C18.9523 13.5833 17.4685 14.1979 16.3746 15.2919C15.2806 16.3858 14.666 17.8696 14.666 19.4167C14.666 20.24 14.8431 21.0537 15.1853 21.8025C15.5275 22.5514 16.0268 23.2178 16.6493 23.7567C15.0162 24.4962 13.6306 25.6905 12.6582 27.1966C11.6858 28.7028 11.1677 30.4572 11.166 32.25C11.166 32.5594 11.2889 32.8562 11.5077 33.075C11.7265 33.2938 12.0233 33.4167 12.3327 33.4167C12.6421 33.4167 12.9388 33.2938 13.1576 33.075C13.3764 32.8562 13.4993 32.5594 13.4993 32.25C13.4993 30.3935 14.2368 28.613 15.5496 27.3003C16.8624 25.9875 18.6428 25.25 20.4993 25.25C22.3559 25.25 24.1363 25.9875 25.4491 27.3003C26.7619 28.613 27.4993 30.3935 27.4993 32.25C27.4993 32.5594 27.6223 32.8562 27.8411 33.075C28.0598 33.2938 28.3566 33.4167 28.666 33.4167C28.9754 33.4167 29.2722 33.2938 29.491 33.075C29.7098 32.8562 29.8327 32.5594 29.8327 32.25C29.831 30.4572 29.3129 28.7028 28.3405 27.1966C27.3681 25.6905 25.9825 24.4962 24.3493 23.7567V23.7567ZM20.4993 22.9167C19.8071 22.9167 19.1304 22.7114 18.5549 22.3268C17.9793 21.9422 17.5307 21.3956 17.2658 20.7561C17.0009 20.1165 16.9316 19.4128 17.0666 18.7339C17.2016 18.0549 17.535 17.4313 18.0245 16.9418C18.514 16.4523 19.1376 16.119 19.8165 15.9839C20.4955 15.8489 21.1992 15.9182 21.8387 16.1831C22.4783 16.448 23.0249 16.8966 23.4095 17.4722C23.7941 18.0478 23.9993 18.7244 23.9993 19.4167C23.9993 20.3449 23.6306 21.2352 22.9742 21.8916C22.3178 22.5479 21.4276 22.9167 20.4993 22.9167ZM31.8627 23.29C32.6093 22.4492 33.097 21.4106 33.2671 20.2991C33.4372 19.1876 33.2824 18.0506 32.8214 17.025C32.3604 15.9994 31.6128 15.1289 30.6686 14.5183C29.7244 13.9077 28.6238 13.583 27.4993 13.5833C27.1899 13.5833 26.8932 13.7063 26.6744 13.9251C26.4556 14.1438 26.3327 14.4406 26.3327 14.75C26.3327 15.0594 26.4556 15.3562 26.6744 15.575C26.8932 15.7938 27.1899 15.9167 27.4993 15.9167C28.4276 15.9167 29.3178 16.2854 29.9742 16.9418C30.6306 17.5982 30.9993 18.4884 30.9993 19.4167C30.9977 20.0295 30.8352 20.6311 30.5281 21.1613C30.221 21.6916 29.78 22.132 29.2493 22.4383C29.0764 22.5381 28.9319 22.6806 28.8298 22.8522C28.7276 23.0238 28.6713 23.2187 28.666 23.4183C28.6611 23.6164 28.7068 23.8124 28.7986 23.988C28.8905 24.1635 29.0255 24.3128 29.191 24.4217L29.646 24.725L29.7977 24.8067C31.204 25.4737 32.3904 26.5287 33.2172 27.8474C34.0439 29.1661 34.4767 30.6936 34.4643 32.25C34.4643 32.5594 34.5873 32.8562 34.8061 33.075C35.0248 33.2938 35.3216 33.4167 35.631 33.4167C35.9404 33.4167 36.2372 33.2938 36.456 33.075C36.6748 32.8562 36.7977 32.5594 36.7977 32.25C36.8072 30.4597 36.3588 28.6966 35.4951 27.1284C34.6313 25.5602 33.3809 24.2389 31.8627 23.29V23.29Z" fill="white"/>
<defs>
<filter id="filter0_i_3382_8204" x="0" y="-1.49954" width="47.9997" height="48.4995" filterUnits="userSpaceOnUse" color-interpolation-filters="sRGB">
<feFlood flood-opacity="0" result="BackgroundImageFix"/>
<feBlend mode="normal" in="SourceGraphic" in2="BackgroundImageFix" result="shape"/>
<feColorMatrix in="SourceAlpha" type="matrix" values="0 0 0 0 0 0 0 0 0 0 0 0 0 0 0 0 0 0 127 0" result="hardAlpha"/>
<feOffset dx="0.999692" dy="-1.49954"/>
<feGaussianBlur stdDeviation="3.99877"/>
<feComposite in2="hardAlpha" operator="arithmetic" k2="-1" k3="1"/>
<feColorMatrix type="matrix" values="0 0 0 0 0 0 0 0 0 0 0 0 0 0 0 0 0 0 0.25 0"/>
<feBlend mode="normal" in2="shape" result="effect1_innerShadow_3382_8204"/>
</filter>
<radialGradient id="paint0_radial_3382_8204" cx="0" cy="0" r="1" gradientUnits="userSpaceOnUse" gradientTransform="translate(30.2748 14.1847) rotate(123.232) scale(22.0201 22.0201)">
<stop stop-color="#4AC63F"/>
<stop offset="1" stop-color="#228B22"/>
</radialGradient>
<radialGradient id="paint1_radial_3382_8204" cx="0" cy="0" r="1" gradientUnits="userSpaceOnUse" gradientTransform="translate(30.4865 12.7027) rotate(123.69) scale(19.8468)">
<stop stop-color="white"/>
<stop offset="1" stop-color="white" stop-opacity="0"/>
</radialGradient>
<radialGradient id="paint2_radial_3382_8204" cx="0" cy="0" r="1" gradientUnits="userSpaceOnUse" gradientTransform="translate(25.6171 17.5721) rotate(111.949) scale(30.5863)">
<stop offset="0.596475" stop-color="white" stop-opacity="0"/>
<stop offset="0.742517" stop-color="white"/>
<stop offset="0.832316" stop-color="white"/>
<stop offset="1" stop-color="white" stop-opacity="0"/>
</radialGradient>
<radialGradient id="paint3_radial_3382_8204" cx="0" cy="0" r="1" gradientUnits="userSpaceOnUse" gradientTransform="translate(27.9459 10.1622) rotate(106.798) scale(35.1626)">
<stop offset="0.238216" stop-color="#219125" stop-opacity="0"/>
<stop offset="0.640216" stop-color="#4AC63F" stop-opacity="0.81"/>
<stop offset="0.791876" stop-color="#3A8B1D" stop-opacity="0.99"/>
<stop offset="0.868482" stop-color="#258A1D" stop-opacity="0.81"/>
<stop offset="1" stop-color="#4AC63F" stop-opacity="0.6"/>
</radialGradient>
</defs>
</svg>
