<svg width="47" height="47" viewBox="0 0 47 47" fill="none" xmlns="http://www.w3.org/2000/svg">
<g filter="url(#filter0_i_3382_8218)">
<circle cx="23.5" cy="23.5" r="23.5" fill="#4AC63F"/>
<circle cx="23.5" cy="23.5" r="23.5" fill="url(#paint0_radial_3382_8218)"/>
<circle cx="23.5" cy="23.5" r="23.5" fill="url(#paint1_radial_3382_8218)" fill-opacity="0.45" style="mix-blend-mode:lighten"/>
<circle cx="23.5" cy="23.5" r="23.5" fill="url(#paint2_radial_3382_8218)" fill-opacity="0.15" style="mix-blend-mode:lighten"/>
<circle cx="23.5" cy="23.5" r="23.5" fill="url(#paint3_radial_3382_8218)" fill-opacity="0.56" style="mix-blend-mode:multiply"/>
</g>
<path d="M18.1667 27.6667C18.6308 27.6667 19.0759 27.4823 19.4041 27.1541C19.7323 26.8259 19.9167 26.3808 19.9167 25.9167C19.9224 25.8585 19.9224 25.7999 19.9167 25.7417L23.1717 22.4867H23.44H23.7083L25.5867 24.365C25.5867 24.365 25.5867 24.4233 25.5867 24.4583C25.5867 24.9225 25.771 25.3676 26.0992 25.6958C26.4274 26.024 26.8725 26.2083 27.3367 26.2083C27.8008 26.2083 28.2459 26.024 28.5741 25.6958C28.9023 25.3676 29.0867 24.9225 29.0867 24.4583V24.365L33.3333 20.0833C33.6795 20.0833 34.0178 19.9807 34.3056 19.7884C34.5934 19.5961 34.8177 19.3228 34.9501 19.003C35.0826 18.6833 35.1172 18.3314 35.0497 17.9919C34.9822 17.6525 34.8155 17.3406 34.5708 17.0959C34.326 16.8512 34.0142 16.6845 33.6747 16.617C33.3353 16.5494 32.9834 16.5841 32.6636 16.7166C32.3439 16.849 32.0706 17.0733 31.8783 17.3611C31.686 17.6489 31.5833 17.9872 31.5833 18.3333C31.5776 18.3915 31.5776 18.4501 31.5833 18.5083L27.3717 22.72H27.185L25.1667 20.6667C25.1667 20.2025 24.9823 19.7574 24.6541 19.4292C24.3259 19.1011 23.8808 18.9167 23.4167 18.9167C22.9525 18.9167 22.5074 19.1011 22.1792 19.4292C21.851 19.7574 21.6667 20.2025 21.6667 20.6667L18.1667 24.1667C17.7025 24.1667 17.2574 24.3511 16.9292 24.6792C16.601 25.0074 16.4167 25.4525 16.4167 25.9167C16.4167 26.3808 16.601 26.8259 16.9292 27.1541C17.2574 27.4823 17.7025 27.6667 18.1667 27.6667ZM33.9167 32.3333H14.0833V12.5C14.0833 12.1906 13.9604 11.8938 13.7416 11.6751C13.5228 11.4563 13.2261 11.3333 12.9167 11.3333C12.6072 11.3333 12.3105 11.4563 12.0917 11.6751C11.8729 11.8938 11.75 12.1906 11.75 12.5V33.5C11.75 33.8094 11.8729 34.1062 12.0917 34.325C12.3105 34.5438 12.6072 34.6667 12.9167 34.6667H33.9167C34.2261 34.6667 34.5228 34.5438 34.7416 34.325C34.9604 34.1062 35.0833 33.8094 35.0833 33.5C35.0833 33.1906 34.9604 32.8938 34.7416 32.6751C34.5228 32.4563 34.2261 32.3333 33.9167 32.3333Z" fill="white"/>
<defs>
<filter id="filter0_i_3382_8218" x="0" y="-1.49954" width="47.9997" height="48.4995" filterUnits="userSpaceOnUse" color-interpolation-filters="sRGB">
<feFlood flood-opacity="0" result="BackgroundImageFix"/>
<feBlend mode="normal" in="SourceGraphic" in2="BackgroundImageFix" result="shape"/>
<feColorMatrix in="SourceAlpha" type="matrix" values="0 0 0 0 0 0 0 0 0 0 0 0 0 0 0 0 0 0 127 0" result="hardAlpha"/>
<feOffset dx="0.999692" dy="-1.49954"/>
<feGaussianBlur stdDeviation="3.99877"/>
<feComposite in2="hardAlpha" operator="arithmetic" k2="-1" k3="1"/>
<feColorMatrix type="matrix" values="0 0 0 0 0 0 0 0 0 0 0 0 0 0 0 0 0 0 0.25 0"/>
<feBlend mode="normal" in2="shape" result="effect1_innerShadow_3382_8218"/>
</filter>
<radialGradient id="paint0_radial_3382_8218" cx="0" cy="0" r="1" gradientUnits="userSpaceOnUse" gradientTransform="translate(30.2748 14.1847) rotate(123.232) scale(22.0201 22.0201)">
<stop stop-color="#4AC63F"/>
<stop offset="1" stop-color="#228B22"/>
</radialGradient>
<radialGradient id="paint1_radial_3382_8218" cx="0" cy="0" r="1" gradientUnits="userSpaceOnUse" gradientTransform="translate(30.4865 12.7027) rotate(123.69) scale(19.8468)">
<stop stop-color="white"/>
<stop offset="1" stop-color="white" stop-opacity="0"/>
</radialGradient>
<radialGradient id="paint2_radial_3382_8218" cx="0" cy="0" r="1" gradientUnits="userSpaceOnUse" gradientTransform="translate(25.6171 17.5721) rotate(111.949) scale(30.5863)">
<stop offset="0.596475" stop-color="white" stop-opacity="0"/>
<stop offset="0.742517" stop-color="white"/>
<stop offset="0.832316" stop-color="white"/>
<stop offset="1" stop-color="white" stop-opacity="0"/>
</radialGradient>
<radialGradient id="paint3_radial_3382_8218" cx="0" cy="0" r="1" gradientUnits="userSpaceOnUse" gradientTransform="translate(27.9459 10.1622) rotate(106.798) scale(35.1626)">
<stop offset="0.238216" stop-color="#219125" stop-opacity="0"/>
<stop offset="0.640216" stop-color="#4AC63F" stop-opacity="0.81"/>
<stop offset="0.791876" stop-color="#3A8B1D" stop-opacity="0.99"/>
<stop offset="0.868482" stop-color="#258A1D" stop-opacity="0.81"/>
<stop offset="1" stop-color="#4AC63F" stop-opacity="0.6"/>
</radialGradient>
</defs>
</svg>
