<svg width="237" height="197" viewBox="0 0 237 197" fill="none" xmlns="http://www.w3.org/2000/svg">
<path d="M5.12895 91.7801C2.35792 91.9567 0.43124 89.4696 0.216312 86.0845C0.00138447 82.6763 1.8206 80.0051 5.25944 79.5138L5.46669 82.7224C3.81635 83.0985 3.04876 84.2269 3.1639 86.0154C3.27136 87.7041 3.95452 88.7711 4.93705 88.7097C7.85393 88.5255 5.23641 79.7825 11.0164 79.414C14.0101 79.2221 15.837 81.6401 16.0365 84.7796C16.2438 88.088 14.5551 90.5136 11.4002 90.859L11.2007 87.6504C12.6821 87.2896 13.1811 86.2918 13.0966 84.9177C12.9892 83.2751 12.2753 82.4077 11.4386 82.4614C8.54477 82.6456 10.9474 91.404 5.13663 91.7725L5.12895 91.7801Z" fill="white"/>
<path d="M6.01021 116.52L5.30402 113.657L11.5062 112.122C13.5097 111.623 14.1621 110.579 13.809 109.144C13.4329 107.639 12.2354 106.772 10.8614 106.764H10.8845L4.01445 108.46L3.30058 105.597L9.50279 104.062C11.5062 103.563 12.1587 102.519 11.8056 101.084C11.3374 99.2031 9.41068 98.566 9.41068 98.566L2.01869 100.401L1.3125 97.5374L12.9954 94.6436L13.6478 97.2688L12.2508 97.8675C13.502 98.52 14.3463 99.6023 14.7148 101.053C15.1446 102.796 14.5689 104.431 13.2947 105.528C15.0832 106.119 16.273 107.324 16.7105 109.113C17.3553 111.715 15.7434 114.11 12.934 114.809L6.01789 116.52H6.01021Z" fill="white"/>
<path d="M23.0489 125.449L24.2617 128.136L13.2927 133.095L12.1797 130.631L13.3464 129.863C11.9878 129.372 10.9439 128.358 10.3682 127.084C9.00951 124.083 10.2914 120.652 13.5537 119.17C16.8467 117.681 20.2702 118.994 21.6212 121.987C22.1969 123.262 22.2506 124.697 21.7517 126.025L23.0489 125.442V125.449ZM19.1802 123.453C18.4203 121.772 16.6164 120.943 14.7358 121.795C12.8782 122.632 12.3102 124.536 13.0701 126.217C13.8531 127.944 15.6646 128.788 17.5222 127.952C19.4028 127.1 19.9632 125.181 19.1802 123.453Z" fill="white"/>
<path d="M27.1517 138.293L26.8293 137.771C25.6395 135.821 23.7282 135.806 23.7282 135.806L17.2266 139.774L15.6914 137.256L25.9696 130.993L27.3743 133.303L26.1154 134.355C27.5431 134.577 28.8174 135.437 29.6387 136.78L27.144 138.3L27.1517 138.293Z" fill="white"/>
<path d="M29.054 141.121L31.326 139.44L31.7636 140.031L34.0203 138.665L35.6323 140.837L33.5214 142.403L34.7188 144.022L32.4467 145.704L31.2493 144.084L27.5571 146.817C26.5132 147.592 26.3827 148.237 27.0966 149.204L27.3883 149.603L25.1162 151.284L24.5865 150.57C22.9822 148.398 23.4121 146.218 25.7993 144.445L29.4915 141.712L29.054 141.121Z" fill="white"/>
<path d="M45.7565 166.47C43.8759 168.512 40.7671 168.051 38.2647 165.764C35.747 163.453 35.2173 160.26 37.359 157.527L39.7308 159.707C38.802 161.12 39.0323 162.463 40.3526 163.683C41.6038 164.827 42.8319 165.127 43.4921 164.405C45.4725 162.256 37.5278 157.758 41.4503 153.49C43.4767 151.279 46.4704 151.763 48.7885 153.897C51.2295 156.138 51.6824 159.063 49.6482 161.496L47.2763 159.316C48.09 158.026 47.7676 156.967 46.7544 156.038C45.5416 154.925 44.4209 154.795 43.8605 155.409C41.8955 157.543 49.6943 162.202 45.7565 166.493V166.47Z" fill="white"/>
<path d="M53.5202 162.804L55.9304 164.462L52.2536 169.805C51.1022 171.486 51.3248 172.714 52.6605 173.635C54.3799 174.817 56.391 174.027 56.391 174.027L60.7049 167.748L63.1382 169.421L56.3219 179.338L54.1957 177.88L54.8328 176.383C53.3513 176.767 51.8929 176.537 50.5572 175.623C48.2468 174.034 47.8016 171.133 49.4442 168.745L53.5202 162.812V162.804Z" fill="white"/>
<path d="M70.5118 183.128C69.5369 185.032 67.3723 185.492 64.8546 184.203C62.2063 182.852 61.3313 180.196 62.3829 177.97L65.0081 179.313C64.6703 180.242 65.1769 181.14 66.2055 181.662C67.0115 182.077 67.7177 182.107 67.9633 181.624C68.5697 180.442 62.3675 178.377 64.44 174.331C65.3842 172.497 67.7945 171.821 70.3045 173.111C72.7301 174.354 73.5361 176.78 72.3924 179.175L69.7442 177.824C70.0589 176.826 69.7595 176.066 68.9075 175.629C68.0785 175.206 67.2878 175.183 67.0038 175.728C66.1979 177.302 72.4615 179.298 70.5041 183.12L70.5118 183.128Z" fill="white"/>
<path d="M75.9704 179.051L76.999 176.418L77.6821 176.687L78.8719 174.33L81.3896 175.32L80.4302 177.769L82.3031 178.506L81.2668 181.131L79.3939 180.394L77.7129 184.67C77.2369 185.883 77.4672 186.497 78.5879 186.942L79.0485 187.118L78.0122 189.744L77.1909 189.421C74.6732 188.431 73.8825 186.351 74.9648 183.587L76.6459 179.312L75.9627 179.043L75.9704 179.051Z" fill="white"/>
<path d="M94.1166 182.038L96.9644 182.806L93.8403 194.427L91.2304 193.729L91.3763 192.34C90.1327 193.076 88.6897 193.245 87.3387 192.885C84.1608 192.033 82.3109 188.862 83.2474 185.4C84.1839 181.915 87.3694 180.096 90.5473 180.956C91.8982 181.317 93.042 182.184 93.7558 183.42L94.1243 182.046L94.1166 182.038ZM90.1174 183.765C88.3366 183.289 86.5557 184.157 86.0184 186.145C85.4888 188.118 86.6018 189.76 88.3749 190.236C90.2018 190.728 92.0057 189.868 92.5353 187.895C93.0727 185.899 91.9366 184.249 90.1097 183.758L90.1174 183.765Z" fill="white"/>
<path d="M110.474 196.701L107.572 196.363L108.309 190.023C108.547 187.973 107.772 186.99 106.16 186.806C104.087 186.568 102.69 188.134 102.69 188.134L101.807 195.695L98.8828 195.357L100.272 183.406L102.959 183.72L103.02 185.332C104.126 184.327 105.515 183.889 107.096 184.074C109.875 184.396 111.633 186.753 111.295 189.631L110.474 196.708V196.701Z" fill="white"/>
<path d="M124.76 184.655L127.708 184.57L128.053 196.606L125.352 196.683L125.091 195.317C124.116 196.376 122.78 196.952 121.375 196.998C118.082 197.09 115.411 194.588 115.304 191.003C115.204 187.395 117.729 184.739 121.022 184.647C122.419 184.609 123.763 185.108 124.799 186.09L124.76 184.662V184.655ZM121.421 187.449C119.579 187.503 118.121 188.846 118.174 190.911C118.236 192.953 119.771 194.211 121.606 194.158C123.494 194.104 124.983 192.761 124.922 190.719C124.86 188.654 123.302 187.395 121.414 187.449H121.421Z" fill="white"/>
<path d="M135.833 195.585L133.177 196.061L130.383 180.471L133.284 179.949L134.205 185.1C135.019 183.933 136.232 183.165 137.606 182.92C140.845 182.336 143.862 184.417 144.499 187.971C145.128 191.502 143.025 194.495 139.786 195.079C138.404 195.324 136.984 195.033 135.81 194.196L135.833 195.585ZM138.972 192.354C140.784 192.031 142.027 190.481 141.674 188.477C141.313 186.443 139.609 185.43 137.79 185.752C135.925 186.082 134.658 187.633 135.027 189.667C135.388 191.678 137.115 192.684 138.98 192.354H138.972Z" fill="white"/>
<path d="M145.398 177.39L148.231 176.576L152.599 191.805L149.766 192.619L145.398 177.39Z" fill="white"/>
<path d="M166.549 182.076C167.163 184.74 165.283 187.449 162.635 188.509C159.441 189.783 155.91 188.416 154.575 185.093C153.232 181.738 154.859 178.315 158.052 177.041C161.383 175.713 164.469 176.879 165.874 180.134L166.296 181.186L157.63 184.648C158.497 186.022 160.094 186.444 161.575 185.845C162.719 185.392 163.548 184.425 163.633 183.25L166.549 182.084V182.076ZM162.305 180.249C161.453 179.451 160.286 179.228 159.119 179.696C157.929 180.172 157.146 181.17 157.031 182.352L162.305 180.249Z" fill="white"/>
<path d="M188.024 169.041C189.598 171.329 188.446 174.261 185.652 176.18C182.835 178.114 179.604 177.915 177.424 175.213L180.08 173.394C181.246 174.622 182.613 174.698 184.094 173.678C185.491 172.718 186.059 171.59 185.499 170.776C183.849 168.366 177.677 175.098 174.399 170.315C172.703 167.844 173.847 165.034 176.441 163.253C179.174 161.38 182.121 161.588 184.04 164.121L181.385 165.94C180.318 164.858 179.205 164.935 178.069 165.71C176.71 166.639 176.334 167.706 176.81 168.389C178.452 170.776 184.739 164.228 188.032 169.026L188.024 169.041Z" fill="white"/>
<path d="M190.612 156.421C193.099 154.118 196.906 154.102 199.362 156.751C201.803 159.383 201.504 163.175 199.017 165.478C196.499 167.819 192.707 167.812 190.266 165.187C187.81 162.538 188.094 158.762 190.612 156.421ZM197.06 163.375C198.357 162.17 198.564 160.236 197.182 158.739C195.808 157.265 193.859 157.326 192.569 158.531C191.234 159.767 191.026 161.709 192.393 163.183C193.782 164.68 195.732 164.611 197.06 163.375Z" fill="white"/>
<path d="M194.395 147.364L196.344 145.153L208.242 155.615L206.292 157.826L194.395 147.364Z" fill="white"/>
<path d="M201.422 145.345L203.095 142.95L208.407 146.665C210.08 147.832 211.308 147.617 212.237 146.281C213.435 144.569 212.652 142.558 212.652 142.558L206.411 138.198L208.1 135.78L217.964 142.673L216.49 144.784L215.001 144.132C215.369 145.621 215.131 147.072 214.202 148.4C212.598 150.695 209.696 151.125 207.317 149.459L201.414 145.337L201.422 145.345Z" fill="white"/>
<path d="M212.178 134.483L209.714 133.094L210.075 132.449L207.902 130.944L209.23 128.588L211.518 129.877L212.508 128.12L214.972 129.509L213.982 131.267L217.981 133.524C219.117 134.161 219.762 134.015 220.353 132.971L220.591 132.541L223.055 133.923L222.617 134.69C221.289 137.047 219.125 137.546 216.53 136.087L212.531 133.831L212.17 134.475L212.178 134.483Z" fill="white"/>
<path d="M211.338 122.289C211.714 121.49 212.689 121.16 213.488 121.536C214.286 121.913 214.647 122.872 214.271 123.67C213.894 124.469 212.912 124.822 212.114 124.446C211.315 124.07 210.962 123.087 211.338 122.289ZM213.994 125.175L215.253 122.511L226.13 127.662L224.871 130.326L213.994 125.175Z" fill="white"/>
<path d="M218.69 113.621C219.811 110.42 223.173 108.632 226.581 109.837C229.966 111.027 231.47 114.527 230.342 117.72C229.198 120.967 225.852 122.733 222.466 121.543C219.058 120.345 217.546 116.868 218.69 113.629V113.621ZM227.632 116.761C228.216 115.095 227.502 113.276 225.575 112.6C223.672 111.932 221.983 112.9 221.392 114.565C220.785 116.277 221.507 118.096 223.403 118.764C225.33 119.44 227.018 118.472 227.625 116.761H227.632Z" fill="white"/>
<path d="M235.731 95.531L235.17 98.4018L228.899 97.1813C226.873 96.7899 225.836 97.4884 225.529 99.0773C225.13 101.127 226.589 102.639 226.589 102.639L234.065 104.097L233.505 106.991L221.691 104.689L222.206 102.033L223.818 102.094C222.897 100.912 222.574 99.4995 222.881 97.9336C223.419 95.1856 225.898 93.6196 228.746 94.1723L235.738 95.5387L235.731 95.531Z" fill="white"/>
<path d="M233.535 80.9482C235.669 81.0787 236.959 82.8826 236.782 85.6997C236.598 88.6627 234.51 90.528 232.062 90.4512L232.246 87.5113C233.236 87.4499 233.85 86.6285 233.927 85.4771C233.981 84.5713 233.727 83.9112 233.19 83.8805C231.87 83.796 232.445 90.3054 227.909 90.0213C225.852 89.8908 224.271 87.9488 224.447 85.1317C224.616 82.4144 226.52 80.7103 229.168 80.8024L228.984 83.7653C227.947 83.8728 227.364 84.4562 227.31 85.408C227.249 86.3368 227.548 87.0737 228.162 87.1121C229.928 87.2196 229.252 80.6796 233.543 80.9482H233.535Z" fill="white"/>
<path d="M159.227 45.5267C172.161 64.9702 154.851 89.311 154.851 89.311C209.167 51.6062 147.636 0 147.636 0C124.662 29.5145 138.079 41.9267 149.018 56.918C158.221 69.5375 154.951 83.2316 154.951 83.2316C165.92 65.3924 159.227 45.5344 159.227 45.5344V45.5267Z" fill="#228B22"/>
<path d="M102.769 107.933C101.641 103.573 98.179 100.864 93.6655 100.864C88.1004 100.864 83.5869 104.771 83.5869 110.942C83.5869 117.114 88.1004 121.098 93.6655 121.098C98.2558 121.098 101.718 118.388 102.915 113.798H112.019C111.121 123.354 103.145 129.894 93.6655 129.894C83.134 129.894 74.6367 121.996 74.6367 111.011C74.6367 100.027 83.134 92.0591 93.6655 92.0591C103.222 92.0591 111.19 98.7526 111.942 107.78L102.762 107.933H102.769Z" fill="white" stroke="white" stroke-width="0.767603" stroke-miterlimit="10"/>
<path d="M142.331 92.4368H151.358V129.297L143.083 125.651L142.408 125.091C139.322 128.253 135.185 129.904 130.902 129.904C120.823 129.904 112.848 122.005 112.848 111.021C112.848 100.036 120.823 92.0684 130.902 92.0684C135.192 92.0684 139.253 93.7264 142.339 96.8045V92.4445L142.331 92.4368ZM131.876 100.712C126.235 100.712 121.644 104.695 121.644 111.013C121.644 117.33 126.235 121.245 131.876 121.245C137.518 121.245 142.331 117.261 142.331 111.013C142.331 104.765 137.664 100.712 131.876 100.712Z" fill="white" stroke="white" stroke-width="0.767603" stroke-miterlimit="10"/>
<path d="M188.97 129.296L180.02 125.65V109.745C180.02 103.427 177.31 100.718 172.344 100.718C165.95 100.718 162.265 105.983 162.265 105.983V125.65L153.238 129.296V92.4352H161.513L162.265 97.3249C165.274 93.863 169.335 92.0591 174.224 92.0591C182.799 92.0591 188.97 98.6068 188.97 107.48V129.296Z" fill="white" stroke="white" stroke-width="0.767603" stroke-miterlimit="10"/>
<path d="M66.2609 69.1026H49.9801V80.3864H72.9237V88.6612H40.9531V41.2769H72.1714V49.5517H49.9801V60.8355H69.9147L66.2686 69.1103L66.2609 69.1026Z" fill="#4AC63F"/>
<path d="M101.129 67.2984C100 62.9384 96.5384 60.2288 92.0249 60.2288C86.4598 60.2288 81.9463 64.1359 81.9463 70.3074C81.9463 76.479 86.4598 80.4629 92.0249 80.4629C96.6151 80.4629 100.077 77.7532 101.274 73.1629H110.378C109.48 82.7196 101.505 89.2597 92.0249 89.2597C81.4934 89.2597 72.9961 81.361 72.9961 70.3765C72.9961 59.3921 81.4934 51.4243 92.0249 51.4243C101.582 51.4243 109.549 58.1178 110.301 67.1449L101.121 67.2984H101.129Z" fill="#4AC63F"/>
<path d="M130.31 51.4336C140.688 51.4336 149.262 59.3323 149.262 70.3858C149.262 81.4393 140.688 89.2689 130.31 89.2689C119.932 89.2689 111.281 81.3703 111.281 70.3858C111.281 59.4014 119.779 51.4336 130.31 51.4336ZM130.31 80.4645C135.722 80.4645 140.235 76.5497 140.235 70.309C140.235 64.0684 135.722 60.2304 130.31 60.2304C124.898 60.2304 120.231 64.1375 120.231 70.309C120.231 76.4806 124.745 80.4645 130.31 80.4645Z" fill="#4AC63F"/>
</svg>
