<svg width="16" height="10" viewBox="0 0 16 10" fill="none" xmlns="http://www.w3.org/2000/svg">
<path d="M13.28 4.2974C13.28 4.2974 13.5643 0.461081 10.0501 0.0236101C7.03739 -0.28398 6.12076 2.51548 6.12076 2.51548C6.12076 2.51548 5.21379 1.64317 3.98255 2.35576C2.8812 3.03588 3.07558 4.28116 3.07558 4.28116C3.07558 4.28116 0.628906 4.75637 0.628906 7.25087C0.683755 9.74187 3.28576 9.76688 3.28576 9.76688H8.26643L6.0725 7.57294H7.38886V4.94022H9.14401V7.57294H10.4604L8.26643 9.76688H12.8592C12.8592 9.76688 15.2813 9.76951 15.6214 7.39962C15.7833 4.80814 13.28 4.2974 13.28 4.2974Z" fill="#4AC63F"/>
</svg>
