<svg width="17" height="17" viewBox="0 0 17 17" fill="none" xmlns="http://www.w3.org/2000/svg">
<g clip-path="url(#clip0_2142_7853)">
<path fill-rule="evenodd" clip-rule="evenodd" d="M4.47738 3.16699H12.52C12.8124 3.16699 13.0648 3.16698 13.2736 3.18123C13.4935 3.19623 13.7134 3.22923 13.9308 3.31923C14.4208 3.52222 14.8102 3.91157 15.0131 4.40163C15.1031 4.61891 15.1361 4.83885 15.1512 5.05874C15.1654 5.26758 15.1654 5.5199 15.1654 5.81233V11.1883C15.1654 11.4807 15.1654 11.7331 15.1512 11.9419C15.1361 12.1618 15.1031 12.3817 15.0131 12.5991C14.8102 13.0891 14.4208 13.4785 13.9308 13.6814C13.7134 13.7714 13.4935 13.8044 13.2736 13.8195C13.0648 13.8337 12.8124 13.8337 12.52 13.8337H4.47737C4.18494 13.8337 3.93262 13.8337 3.72378 13.8195C3.50389 13.8044 3.28395 13.7714 3.06666 13.6814C2.57661 13.4785 2.18726 13.0891 1.98427 12.5991C1.89427 12.3817 1.86127 12.1618 1.84626 11.9419C1.83202 11.7331 1.83202 11.4807 1.83203 11.1883V5.81234C1.83202 5.51991 1.83202 5.26758 1.84626 5.05874C1.86127 4.83885 1.89427 4.61891 1.98427 4.40163C2.18726 3.91157 2.57661 3.52222 3.06666 3.31923C3.28395 3.22923 3.50389 3.19623 3.72378 3.18123C3.93262 3.16698 4.18494 3.16699 4.47738 3.16699ZM3.377 4.68551C3.61946 4.40842 4.04063 4.38034 4.31772 4.62279L8.0597 7.89699C8.31103 8.11693 8.68636 8.11693 8.9377 7.89699L12.6797 4.62279C12.9568 4.38034 13.378 4.40842 13.6204 4.68551C13.8628 4.9626 13.8348 5.38377 13.5577 5.62623L9.8157 8.90046C9.06163 9.56026 7.93576 9.56026 7.1817 8.90046L3.43972 5.62623C3.16262 5.38377 3.13454 4.9626 3.377 4.68551Z" fill="#888D92"/>
</g>
<defs>
<clipPath id="clip0_2142_7853">
<rect width="16" height="16" fill="white" transform="translate(0.5 0.500488)"/>
</clipPath>
</defs>
</svg>
