<svg width="16" height="12" viewBox="0 0 16 12" fill="none" xmlns="http://www.w3.org/2000/svg">
<path fill-rule="evenodd" clip-rule="evenodd" d="M6.49626 0H9.50374C12.3392 0 13.7569 -8.94069e-08 14.6378 0.878677C15.2443 1.48367 15.4332 2.34254 15.492 3.7421C15.5037 4.01965 15.5096 4.15843 15.4578 4.25102C15.4059 4.3436 15.199 4.45915 14.7852 4.69027C14.3256 4.94692 14.0149 5.43727 14.0149 6C14.0149 6.56272 14.3256 7.05307 14.7852 7.30972C15.199 7.54087 15.4059 7.65637 15.4578 7.74899C15.5096 7.84154 15.5037 7.98037 15.492 8.25787C15.4332 9.65744 15.2443 10.5163 14.6378 11.1213C13.7569 12 12.3392 12 9.50374 12H6.49626C3.66078 12 2.24305 12 1.36218 11.1213C0.755681 10.5163 0.566772 9.65744 0.507934 8.25787C0.496264 7.98037 0.490429 7.84154 0.542254 7.74899C0.594087 7.65637 0.800996 7.54087 1.21481 7.30972C1.67439 7.05307 1.98505 6.56272 1.98505 6C1.98505 5.43727 1.67439 4.94692 1.21481 4.69027C0.800996 4.45915 0.594087 4.3436 0.542254 4.25101C0.490429 4.15843 0.496264 4.01965 0.507934 3.7421C0.566772 2.34254 0.755681 1.48367 1.36218 0.878677C2.24305 -8.94069e-08 3.66079 0 6.49626 0ZM10.6608 3.35225C10.8811 3.57192 10.8811 3.92808 10.6608 4.14774L6.14966 8.64772C5.92945 8.86739 5.5724 8.86739 5.35219 8.64772C5.13197 8.42804 5.13197 8.07194 5.35219 7.85227L9.86337 3.35225C10.0836 3.13258 10.4406 3.13258 10.6608 3.35225ZM9.88617 8.62499C10.3014 8.62499 10.638 8.28922 10.638 7.87499C10.638 7.46077 10.3014 7.12499 9.88617 7.12499C9.47097 7.12499 9.13429 7.46077 9.13429 7.87499C9.13429 8.28922 9.47097 8.62499 9.88617 8.62499ZM6.12685 4.875C6.54207 4.875 6.87874 4.53922 6.87874 4.125C6.87874 3.71079 6.54207 3.375 6.12685 3.375C5.71161 3.375 5.37499 3.71079 5.37499 4.125C5.37499 4.53922 5.71161 4.875 6.12685 4.875Z" fill="#4AC63F"/>
</svg>
