<svg width="41" height="40" viewBox="0 0 41 40" fill="none" xmlns="http://www.w3.org/2000/svg">
<rect x="0.5" y="0.000488281" width="40" height="40" rx="16" fill="white" fill-opacity="0.1"/>
<g clip-path="url(#clip0_2142_8192)">
<path d="M20.5 11.8013C23.1719 11.8013 23.4883 11.813 24.5391 11.8599C25.5156 11.9028 26.043 12.0669 26.3945 12.2036C26.8594 12.3833 27.1953 12.6021 27.543 12.9497C27.8945 13.3013 28.1094 13.6333 28.2891 14.0981C28.4258 14.4497 28.5898 14.981 28.6328 15.9536C28.6797 17.0083 28.6914 17.3247 28.6914 19.9927C28.6914 22.6645 28.6797 22.981 28.6328 24.0317C28.5898 25.0083 28.4258 25.5356 28.2891 25.8872C28.1094 26.3521 27.8906 26.688 27.543 27.0356C27.1914 27.3872 26.8594 27.6021 26.3945 27.7817C26.043 27.9185 25.5117 28.0825 24.5391 28.1255C23.4844 28.1724 23.168 28.1841 20.5 28.1841C17.8281 28.1841 17.5117 28.1724 16.4609 28.1255C15.4844 28.0825 14.957 27.9185 14.6055 27.7817C14.1406 27.6021 13.8047 27.3833 13.457 27.0356C13.1055 26.6841 12.8906 26.3521 12.7109 25.8872C12.5742 25.5356 12.4102 25.0044 12.3672 24.0317C12.3203 22.9771 12.3086 22.6606 12.3086 19.9927C12.3086 17.3208 12.3203 17.0044 12.3672 15.9536C12.4102 14.9771 12.5742 14.4497 12.7109 14.0981C12.8906 13.6333 13.1094 13.2974 13.457 12.9497C13.8086 12.5981 14.1406 12.3833 14.6055 12.2036C14.957 12.0669 15.4883 11.9028 16.4609 11.8599C17.5117 11.813 17.8281 11.8013 20.5 11.8013ZM20.5 10.0005C17.7852 10.0005 17.4453 10.0122 16.3789 10.0591C15.3164 10.106 14.5859 10.2778 13.9531 10.5239C13.293 10.7817 12.7344 11.1216 12.1797 11.6802C11.6211 12.2349 11.2812 12.7935 11.0234 13.4497C10.7773 14.0864 10.6055 14.813 10.5586 15.8755C10.5117 16.9458 10.5 17.2856 10.5 20.0005C10.5 22.7153 10.5117 23.0552 10.5586 24.1216C10.6055 25.1841 10.7773 25.9145 11.0234 26.5474C11.2812 27.2075 11.6211 27.7661 12.1797 28.3208C12.7344 28.8755 13.293 29.2192 13.9492 29.4731C14.5859 29.7192 15.3125 29.8911 16.375 29.938C17.4414 29.9849 17.7812 29.9966 20.4961 29.9966C23.2109 29.9966 23.5508 29.9849 24.6172 29.938C25.6797 29.8911 26.4102 29.7192 27.043 29.4731C27.6992 29.2192 28.2578 28.8755 28.8125 28.3208C29.3672 27.7661 29.7109 27.2075 29.9648 26.5513C30.2109 25.9146 30.3828 25.188 30.4297 24.1255C30.4766 23.0591 30.4883 22.7192 30.4883 20.0044C30.4883 17.2896 30.4766 16.9497 30.4297 15.8833C30.3828 14.8208 30.2109 14.0903 29.9648 13.4575C29.7187 12.7935 29.3789 12.2349 28.8203 11.6802C28.2656 11.1255 27.707 10.7817 27.0508 10.5278C26.4141 10.2817 25.6875 10.1099 24.625 10.063C23.5547 10.0122 23.2148 10.0005 20.5 10.0005Z" fill="white"/>
<path d="M20.5 14.8638C17.6641 14.8638 15.3633 17.1646 15.3633 20.0005C15.3633 22.8364 17.6641 25.1372 20.5 25.1372C23.3359 25.1372 25.6367 22.8364 25.6367 20.0005C25.6367 17.1646 23.3359 14.8638 20.5 14.8638ZM20.5 23.3325C18.6602 23.3325 17.168 21.8403 17.168 20.0005C17.168 18.1606 18.6602 16.6685 20.5 16.6685C22.3398 16.6685 23.832 18.1606 23.832 20.0005C23.832 21.8403 22.3398 23.3325 20.5 23.3325Z" fill="white"/>
<path d="M27.0391 14.6606C27.0391 15.3247 26.5 15.8599 25.8398 15.8599C25.1758 15.8599 24.6406 15.3208 24.6406 14.6606C24.6406 13.9966 25.1797 13.4614 25.8398 13.4614C26.5 13.4614 27.0391 14.0005 27.0391 14.6606Z" fill="white"/>
</g>
<defs>
<clipPath id="clip0_2142_8192">
<rect width="20" height="20" fill="white" transform="translate(10.5 10.0005)"/>
</clipPath>
</defs>
</svg>
