<svg width="41" height="40" viewBox="0 0 41 40" fill="none" xmlns="http://www.w3.org/2000/svg">
<rect x="0.5" y="0.000488281" width="40" height="40" rx="16" fill="white" fill-opacity="0.1"/>
<path d="M29.0195 10.0005H11.9766C11.1602 10.0005 10.5 10.645 10.5 11.4419V28.5552C10.5 29.3521 11.1602 30.0005 11.9766 30.0005H29.0195C29.8359 30.0005 30.5 29.3521 30.5 28.5591V11.4419C30.5 10.645 29.8359 10.0005 29.0195 10.0005ZM16.4336 27.0435H13.4648V17.4966H16.4336V27.0435ZM14.9492 16.1958C13.9961 16.1958 13.2266 15.4263 13.2266 14.4771C13.2266 13.5278 13.9961 12.7583 14.9492 12.7583C15.8984 12.7583 16.668 13.5278 16.668 14.4771C16.668 15.4224 15.8984 16.1958 14.9492 16.1958ZM27.543 27.0435H24.5781V22.4028C24.5781 21.2974 24.5586 19.8716 23.0352 19.8716C21.4922 19.8716 21.2578 21.0786 21.2578 22.3247V27.0435H18.2969V17.4966H21.1406V18.8013H21.1797C21.5742 18.0513 22.543 17.2583 23.9844 17.2583C26.9883 17.2583 27.543 19.2349 27.543 21.8052V27.0435Z" fill="white"/>
</svg>
