<svg width="17" height="16" viewBox="0 0 17 16" fill="none" xmlns="http://www.w3.org/2000/svg">
<g clip-path="url(#clip0_2142_7831)">
<path d="M8.5 0.000488281C5.1865 0.000488281 2.5 2.68699 2.5 6.00049C2.5 7.30524 2.92775 8.50249 3.63875 9.48299C3.6515 9.50649 3.6535 9.53274 3.668 9.55524L7.668 15.5552C7.8535 15.8335 8.166 16.0005 8.5 16.0005C8.834 16.0005 9.1465 15.8335 9.332 15.5552L13.332 9.55524C13.3467 9.53274 13.3485 9.50649 13.3612 9.48299C14.0723 8.50249 14.5 7.30524 14.5 6.00049C14.5 2.68699 11.8135 0.000488281 8.5 0.000488281ZM8.5 8.00049C7.3955 8.00049 6.5 7.10499 6.5 6.00049C6.5 4.89599 7.3955 4.00049 8.5 4.00049C9.6045 4.00049 10.5 4.89599 10.5 6.00049C10.5 7.10499 9.6045 8.00049 8.5 8.00049Z" fill="#888D92"/>
</g>
<defs>
<clipPath id="clip0_2142_7831">
<rect width="16" height="16" fill="white" transform="translate(0.5 0.000488281)"/>
</clipPath>
</defs>
</svg>
