<svg width="17" height="17" viewBox="0 0 17 17" fill="none" xmlns="http://www.w3.org/2000/svg">
<path d="M11.5388 9.10478L11.2351 9.40665C11.2351 9.40665 10.5134 10.1243 8.54337 8.16545C6.57338 6.20666 7.2951 5.48903 7.2951 5.48903L7.4863 5.2989C7.95737 4.83054 8.00177 4.07859 7.59077 3.52964L6.75014 2.4067C6.24149 1.72726 5.25861 1.63751 4.6756 2.2172L3.6292 3.25766C3.34012 3.5451 3.1464 3.91771 3.16989 4.33106C3.22999 5.38853 3.70844 7.66378 6.37821 10.3184C9.20937 13.1334 11.8658 13.2453 12.9522 13.144C13.2958 13.112 13.5946 12.937 13.8354 12.6976L14.7824 11.756C15.4217 11.1203 15.2414 10.0306 14.4235 9.58598L13.1498 8.89358C12.6128 8.60165 11.9585 8.68738 11.5388 9.10478Z" fill="#888D92"/>
</svg>
