<svg width="14" height="22" viewBox="0 0 14 22" fill="none" xmlns="http://www.w3.org/2000/svg">
<path d="M3.24951 2.375C3.24951 1.33947 4.08898 0.5 5.12451 0.5H8.87451C9.91005 0.5 10.7495 1.33947 10.7495 2.375C10.7495 3.17954 10.2428 3.86573 9.53108 4.13183C9.68086 4.89256 10.1901 5.52164 10.9617 6.28549C12.6488 7.51115 13.748 9.50204 13.748 11.7497C13.748 11.7795 13.7479 11.8092 13.7475 11.8389L13.7478 11.8598C13.748 11.8731 13.748 11.8864 13.748 11.8997V18.4997C13.748 20.1566 12.4049 21.4997 10.748 21.4997C10.0383 21.4997 9.38627 21.2529 8.87305 20.8416C8.35983 21.2529 7.70783 21.4997 6.99805 21.4997C6.28826 21.4997 5.63627 21.2529 5.12305 20.8416C4.60983 21.2529 3.95783 21.4997 3.24805 21.4997C1.59119 21.4997 0.248047 20.1566 0.248047 18.4997V11.8997C0.248047 11.8794 0.24824 11.8591 0.248625 11.8389C0.24824 11.8092 0.248047 11.7795 0.248047 11.7497C0.248047 10.0892 0.848619 8.567 1.84348 7.39141C1.85827 7.37233 1.87405 7.35386 1.89083 7.33607C2.14611 7.04091 2.42654 6.76813 2.72884 6.52104C3.64004 5.639 4.24718 4.96066 4.40544 4.10716C3.72675 3.8251 3.24951 3.15578 3.24951 2.375ZM5.12451 2C4.91741 2 4.74951 2.16789 4.74951 2.375C4.74951 2.58211 4.91741 2.75 5.12451 2.75H8.87451C9.08162 2.75 9.24951 2.58211 9.24951 2.375C9.24951 2.16789 9.08162 2 8.87451 2H5.12451ZM4.12792 7.25H9.80442C9.03969 6.48371 8.2841 5.5983 8.05515 4.40058H5.87632C5.64791 5.59337 4.89619 6.48131 4.12792 7.25ZM1.74805 18.4997C1.74805 19.3281 2.41962 19.9997 3.24805 19.9997C3.76906 19.9997 4.22851 19.7347 4.4985 19.3286C4.63752 19.1195 4.87196 18.9939 5.12305 18.9939C5.37414 18.9939 5.60858 19.1195 5.7476 19.3286C6.01759 19.7347 6.47703 19.9997 6.99805 19.9997C7.51906 19.9997 7.97851 19.7347 8.2485 19.3286C8.38752 19.1195 8.62196 18.9939 8.87305 18.9939C9.12414 18.9939 9.35858 19.1195 9.4976 19.3286C9.76759 19.7347 10.227 19.9997 10.748 19.9997C11.5765 19.9997 12.248 19.3281 12.248 18.4997V17H1.74805V18.4997Z" fill="#4AC63F"/>
</svg>
