<svg width="16" height="18" viewBox="0 0 16 18" fill="none" xmlns="http://www.w3.org/2000/svg">
<path d="M10.0846 17.3267V14.4173C10.0846 13.6385 10.0846 13.2491 9.91714 12.959C9.80747 12.769 9.64964 12.6112 9.45964 12.5015C9.16955 12.334 8.78014 12.334 8.0013 12.334C7.22247 12.334 6.83305 12.334 6.54297 12.5015C6.35297 12.6112 6.19514 12.769 6.08544 12.959C5.91797 13.2491 5.91797 13.6385 5.91797 14.4173V17.3267H10.0846Z" fill="#4AC63F"/>
<path opacity="0.5" fill-rule="evenodd" clip-rule="evenodd" d="M2.778 9.00183C2.03569 9.00183 1.37899 8.68842 0.917969 8.19592V10.6685C0.917969 13.8112 0.917969 15.3825 1.89428 16.3588C2.68019 17.1448 3.85166 17.298 5.91797 17.3279H10.0846C12.151 17.298 13.3224 17.1448 14.1083 16.3588C15.0846 15.3825 15.0846 13.8112 15.0846 10.6685V8.19683C14.6236 8.68883 13.9673 9.00183 13.2255 9.00183C11.9157 9.00183 10.8191 8.00942 10.6888 6.70619L10.628 6.09961C10.7834 7.6535 9.56314 9.00183 8.00155 9.00183C6.45047 9.00183 5.23622 7.67167 5.37213 6.13109L5.31462 6.70619C5.1843 8.00942 4.08769 9.00183 2.778 9.00183ZM10.0846 14.4185V17.3279H5.91797V14.4185C5.91797 13.6397 5.91797 13.2503 6.08544 12.9602C6.19514 12.7702 6.35297 12.6123 6.54297 12.5027C6.83305 12.3352 7.22247 12.3352 8.0013 12.3352C8.78014 12.3352 9.16955 12.3352 9.45964 12.5027C9.64964 12.6123 9.80747 12.7702 9.91714 12.9602C10.0846 13.2503 10.0846 13.6397 10.0846 14.4185Z" fill="#4AC63F"/>
<path d="M5.9178 0.666016H10.0845L10.6276 6.09716C10.783 7.65102 9.56272 8.99935 8.00113 8.99935C6.43955 8.99935 5.2193 7.65102 5.37468 6.09716L5.9178 0.666016Z" fill="#4AC63F"/>
<path opacity="0.7" d="M0.7752 3.45879C0.9236 2.71679 0.9978 2.34579 1.14867 2.04505C1.46656 1.41134 2.03857 0.942416 2.72231 0.754974C3.0468 0.666016 3.42514 0.666016 4.18183 0.666016H5.91709L5.31332 6.70374C5.183 8.00693 4.08639 8.99935 2.7767 8.99935C1.16799 8.99935 -0.0385584 7.5276 0.276933 5.95012L0.7752 3.45879Z" fill="#4AC63F"/>
<path opacity="0.7" d="M15.2239 3.45879C15.0755 2.71679 15.0013 2.34579 14.8504 2.04505C14.5325 1.41134 13.9605 0.942416 13.2768 0.754974C12.9523 0.666016 12.5739 0.666016 11.8173 0.666016H10.082L10.6858 6.70374C10.8161 8.00693 11.9127 8.99935 13.2224 8.99935C14.8311 8.99935 16.0377 7.5276 15.7222 5.95012L15.2239 3.45879Z" fill="#4AC63F"/>
</svg>
