<svg width="41" height="40" viewBox="0 0 41 40" fill="none" xmlns="http://www.w3.org/2000/svg">
<rect x="0.5" y="0.000488281" width="40" height="40" rx="16" fill="white" fill-opacity="0.1"/>
<path d="M25.2049 8.29297H21.2588V24.242C21.2588 26.1424 19.7412 27.7034 17.8525 27.7034C15.9637 27.7034 14.446 26.1424 14.446 24.242C14.446 22.3757 15.93 20.8486 17.7513 20.7808V16.7765C13.7378 16.8444 10.5 20.136 10.5 24.242C10.5 28.3821 13.8052 31.7076 17.8862 31.7076C21.9671 31.7076 25.2723 28.3481 25.2723 24.242V16.0639C26.7563 17.1498 28.5775 17.7946 30.5 17.8285V13.8243C27.5321 13.7225 25.2049 11.2792 25.2049 8.29297Z" fill="white"/>
</svg>
