<svg width="41" height="40" viewBox="0 0 41 40" fill="none" xmlns="http://www.w3.org/2000/svg">
<rect x="0.5" y="0.000488281" width="40" height="40" rx="16" fill="white" fill-opacity="0.1"/>
<path d="M20.4938 13.0024C20.4938 13.0024 14.243 13.0024 12.6741 13.4101C11.8341 13.6448 11.1424 14.3365 10.9077 15.1889C10.5 16.7578 10.5 20.0068 10.5 20.0068C10.5 20.0068 10.5 23.2681 10.9077 24.8123C11.1424 25.6647 11.8217 26.344 12.6741 26.5788C14.2553 26.9988 20.4938 26.9988 20.4938 26.9988C20.4938 26.9988 26.757 26.9988 28.3259 26.5911C29.1782 26.3564 29.8576 25.6894 30.0799 24.8247C30.5 23.2681 30.5 20.0192 30.5 20.0192C30.5 20.0192 30.5123 16.7578 30.0799 15.1889C29.8576 14.3365 29.1782 13.6572 28.3259 13.4348C26.757 13.0025 20.4938 13.0024 20.4938 13.0024ZM18.5049 17.005L23.7057 20.0068L18.5049 22.9962V17.005Z" fill="white"/>
</svg>
