<svg width="32" height="31" viewBox="0 0 32 31" fill="none" xmlns="http://www.w3.org/2000/svg">
<mask id="mask0_77_3009" style="mask-type:alpha" maskUnits="userSpaceOnUse" x="0" y="0" width="32" height="31">
<ellipse cx="15.7909" cy="15.2911" rx="15.2909" ry="15.2911" fill="url(#paint0_radial_77_3009)"/>
</mask>
<g mask="url(#mask0_77_3009)">
<ellipse cx="15.7909" cy="15.2911" rx="15.2909" ry="15.2911" fill="url(#paint1_radial_77_3009)"/>
<g filter="url(#filter0_f_77_3009)">
<ellipse cx="8.96132" cy="6.94601" rx="13.0766" ry="12.6804" fill="#D7D96A" fill-opacity="0.13"/>
</g>
<g filter="url(#filter1_f_77_3009)">
<ellipse cx="25.0453" cy="26.4795" rx="13.0766" ry="12.6804" fill="#1B2372" fill-opacity="0.43"/>
</g>
<g filter="url(#filter2_f_77_3009)">
<path d="M31.2211 16.7621C31.3605 17.2412 32.8627 24.3802 25.0442 30.3748C21.9385 32.756 13.016 30.8539 12.8767 30.3748C12.7373 29.8957 20.1259 29.0229 24.1817 26.4355C30.4376 22.4446 31.0818 16.2829 31.2211 16.7621Z" fill="#51779F" fill-opacity="0.61"/>
</g>
<g filter="url(#filter3_f_77_3009)">
<ellipse cx="1.1866" cy="2.48444" rx="1.1866" ry="2.48444" transform="matrix(0.707104 0.707109 -0.707104 0.707109 9.90234 3.51337)" fill="#E3F7FF"/>
</g>
<g filter="url(#filter4_f_77_3009)">
<ellipse cx="0.626206" cy="1.31112" rx="0.626206" ry="1.31112" transform="matrix(0.707104 0.707109 -0.707104 0.707109 9.46875 4.73657)" fill="#E2F7FF"/>
</g>
<g filter="url(#filter5_f_77_3009)">
<path d="M28.5169 5.875C29.7834 12.7902 26.13 28.1589 7.07227 28.9981" stroke="#010E1B" stroke-width="0.971564"/>
</g>
<g filter="url(#filter6_f_77_3009)">
<path d="M22.4918 -0.340894C9.67167 -4.72309 -5.24633 9.00622 2.74878 24.6469" stroke="#FCFFDD" stroke-width="0.971564"/>
</g>
<g filter="url(#filter7_f_77_3009)">
<path d="M26.9805 5.06024C31.4092 8.97624 33.4838 15.7826 27.7963 24.8733" stroke="#A1A0DB" stroke-opacity="0.65" stroke-width="0.971564"/>
</g>
</g>
<path d="M20.6875 13.75H15.6875C15.515 13.75 15.375 13.89 15.375 14.0625C15.375 14.235 15.515 14.375 15.6875 14.375H20.6875C20.86 14.375 21 14.235 21 14.0625C21 13.89 20.86 13.75 20.6875 13.75Z" fill="white"/>
<path d="M20.6875 16.875H15.6875C15.515 16.875 15.375 17.015 15.375 17.1875C15.375 17.36 15.515 17.5 15.6875 17.5H20.6875C20.86 17.5 21 17.36 21 17.1875C21 17.015 20.86 16.875 20.6875 16.875Z" fill="white"/>
<path d="M20.6875 20H15.6875C15.515 20 15.375 20.14 15.375 20.3125C15.375 20.485 15.515 20.625 15.6875 20.625H20.6875C20.86 20.625 21 20.485 21 20.3125C21 20.14 20.86 20 20.6875 20Z" fill="white"/>
<path d="M22.25 7.5H20.6875V7.1875C20.6875 6.67062 20.2669 6.25 19.75 6.25H18.1875V5.3125C18.1875 5.14 18.0475 5 17.875 5H14.125C13.9525 5 13.8125 5.14 13.8125 5.3125V6.25H12.25C11.7331 6.25 11.3125 6.67062 11.3125 7.1875V7.5H9.75C9.23312 7.5 8.8125 7.92062 8.8125 8.4375V24.0625C8.8125 24.5794 9.23312 25 9.75 25H22.25C22.7669 25 23.1875 24.5794 23.1875 24.0625V8.4375C23.1875 7.92062 22.7669 7.5 22.25 7.5ZM11.9375 7.1875C11.9375 7.01562 12.0781 6.875 12.25 6.875H14.125C14.2975 6.875 14.4375 6.735 14.4375 6.5625V5.625H17.5625V6.5625C17.5625 6.735 17.7025 6.875 17.875 6.875H19.75C19.9219 6.875 20.0625 7.01562 20.0625 7.1875V8.4375C20.0625 8.60938 19.9219 8.75 19.75 8.75H12.25C12.0781 8.75 11.9375 8.60938 11.9375 8.4375V7.1875ZM22.5625 24.0625C22.5625 24.2344 22.4219 24.375 22.25 24.375H9.75C9.57812 24.375 9.4375 24.2344 9.4375 24.0625V8.4375C9.4375 8.26562 9.57812 8.125 9.75 8.125H11.3125V8.4375C11.3125 8.95438 11.7331 9.375 12.25 9.375H19.75C20.2669 9.375 20.6875 8.95438 20.6875 8.4375V8.125H22.25C22.4219 8.125 22.5625 8.26562 22.5625 8.4375V24.0625Z" fill="white"/>
<path d="M13.9155 13.5031L13.018 14.4006L12.6348 14.0169C12.513 13.895 12.3148 13.895 12.193 14.0169C12.0711 14.1388 12.0711 14.3369 12.193 14.4588L12.7973 15.0638C12.8561 15.1225 12.9355 15.155 13.0186 15.155C13.1017 15.155 13.1811 15.1219 13.2398 15.0638L14.358 13.9456C14.4798 13.8238 14.4798 13.6256 14.358 13.5038C14.2361 13.3819 14.0373 13.3813 13.9155 13.5031Z" fill="white"/>
<path d="M13.9155 16.1781L13.018 17.075L12.6348 16.6913C12.513 16.5694 12.3148 16.5694 12.193 16.6913C12.0711 16.8131 12.0711 17.0113 12.193 17.1331L12.7973 17.7381C12.8561 17.7969 12.9355 17.8294 13.0186 17.8294C13.1017 17.8294 13.1811 17.7963 13.2398 17.7381L14.358 16.62C14.4798 16.4981 14.4798 16.3 14.358 16.1781C14.2361 16.0563 14.0373 16.0556 13.9155 16.1781Z" fill="white"/>
<path d="M13.9155 19.4775L13.018 20.375L12.6348 19.9913C12.513 19.8694 12.3148 19.8694 12.193 19.9913C12.0711 20.1131 12.0711 20.3113 12.193 20.4331L12.7973 21.0381C12.8561 21.0969 12.9355 21.1294 13.0186 21.1294C13.1017 21.1294 13.1811 21.0963 13.2398 21.0381L14.358 19.92C14.4798 19.7981 14.4798 19.6 14.358 19.4781C14.2361 19.3563 14.0373 19.3556 13.9155 19.4775Z" fill="white"/>
<defs>
<filter id="filter0_f_77_3009" x="-14.2681" y="-15.8872" width="46.458" height="45.6665" filterUnits="userSpaceOnUse" color-interpolation-filters="sRGB">
<feFlood flood-opacity="0" result="BackgroundImageFix"/>
<feBlend mode="normal" in="SourceGraphic" in2="BackgroundImageFix" result="shape"/>
<feGaussianBlur stdDeviation="5.07642" result="effect1_foregroundBlur_77_3009"/>
</filter>
<filter id="filter1_f_77_3009" x="1.81591" y="3.64623" width="46.458" height="45.6665" filterUnits="userSpaceOnUse" color-interpolation-filters="sRGB">
<feFlood flood-opacity="0" result="BackgroundImageFix"/>
<feBlend mode="normal" in="SourceGraphic" in2="BackgroundImageFix" result="shape"/>
<feGaussianBlur stdDeviation="5.07642" result="effect1_foregroundBlur_77_3009"/>
</filter>
<filter id="filter2_f_77_3009" x="10.4461" y="14.3068" width="23.4086" height="19.67" filterUnits="userSpaceOnUse" color-interpolation-filters="sRGB">
<feFlood flood-opacity="0" result="BackgroundImageFix"/>
<feBlend mode="normal" in="SourceGraphic" in2="BackgroundImageFix" result="shape"/>
<feGaussianBlur stdDeviation="1.21445" result="effect1_foregroundBlur_77_3009"/>
</filter>
<filter id="filter3_f_77_3009" x="3.87953" y="1.00428" width="10.2097" height="10.2098" filterUnits="userSpaceOnUse" color-interpolation-filters="sRGB">
<feFlood flood-opacity="0" result="BackgroundImageFix"/>
<feBlend mode="normal" in="SourceGraphic" in2="BackgroundImageFix" result="shape"/>
<feGaussianBlur stdDeviation="1.57879" result="effect1_foregroundBlur_77_3009"/>
</filter>
<filter id="filter4_f_77_3009" x="7.76272" y="4.88448" width="2.44331" height="2.44398" filterUnits="userSpaceOnUse" color-interpolation-filters="sRGB">
<feFlood flood-opacity="0" result="BackgroundImageFix"/>
<feBlend mode="normal" in="SourceGraphic" in2="BackgroundImageFix" result="shape"/>
<feGaussianBlur stdDeviation="0.0971564" result="effect1_foregroundBlur_77_3009"/>
</filter>
<filter id="filter5_f_77_3009" x="1.80434" y="0.541031" width="32.6706" height="34.1888" filterUnits="userSpaceOnUse" color-interpolation-filters="sRGB">
<feFlood flood-opacity="0" result="BackgroundImageFix"/>
<feBlend mode="normal" in="SourceGraphic" in2="BackgroundImageFix" result="shape"/>
<feGaussianBlur stdDeviation="2.62322" result="effect1_foregroundBlur_77_3009"/>
</filter>
<filter id="filter6_f_77_3009" x="-3.24107" y="-4.90836" width="29.1442" height="33.0311" filterUnits="userSpaceOnUse" color-interpolation-filters="sRGB">
<feFlood flood-opacity="0" result="BackgroundImageFix"/>
<feBlend mode="normal" in="SourceGraphic" in2="BackgroundImageFix" result="shape"/>
<feGaussianBlur stdDeviation="1.62737" result="effect1_foregroundBlur_77_3009"/>
</filter>
<filter id="filter7_f_77_3009" x="22.8205" y="0.858673" width="12.7613" height="28.11" filterUnits="userSpaceOnUse" color-interpolation-filters="sRGB">
<feFlood flood-opacity="0" result="BackgroundImageFix"/>
<feBlend mode="normal" in="SourceGraphic" in2="BackgroundImageFix" result="shape"/>
<feGaussianBlur stdDeviation="1.91884" result="effect1_foregroundBlur_77_3009"/>
</filter>
<radialGradient id="paint0_radial_77_3009" cx="0" cy="0" r="1" gradientUnits="userSpaceOnUse" gradientTransform="translate(9.05454 6.54998) rotate(49.1616) scale(29.3003 30.3062)">
<stop stop-color="#B9EBFF"/>
<stop offset="0.156338" stop-color="#7DCCED"/>
<stop offset="0.519012" stop-color="#4290AF"/>
<stop offset="0.710329" stop-color="#156282"/>
<stop offset="1" stop-color="#1B7398"/>
</radialGradient>
<radialGradient id="paint1_radial_77_3009" cx="0" cy="0" r="1" gradientUnits="userSpaceOnUse" gradientTransform="translate(9.05454 6.54998) rotate(49.1616) scale(29.3003 30.3062)">
<stop stop-color="#D8FFB9"/>
<stop offset="0.156338" stop-color="#A1FD92"/>
<stop offset="0.519012" stop-color="#4AC63F"/>
<stop offset="0.710329" stop-color="#4AC63F"/>
<stop offset="1" stop-color="#228B22"/>
</radialGradient>
</defs>
</svg>
