<svg width="52" height="52" viewBox="0 0 52 52" fill="none" xmlns="http://www.w3.org/2000/svg">
<mask id="mask0_77_3030" style="mask-type:alpha" maskUnits="userSpaceOnUse" x="0" y="0" width="52" height="52">
<ellipse cx="26.1798" cy="25.6801" rx="25.6798" ry="25.6801" fill="url(#paint0_radial_77_3030)"/>
</mask>
<g mask="url(#mask0_77_3030)">
<ellipse cx="26.1798" cy="25.6801" rx="25.6798" ry="25.6801" fill="url(#paint1_radial_77_3030)"/>
<g filter="url(#filter0_f_77_3030)">
<ellipse cx="14.7109" cy="11.6653" rx="21.9609" ry="21.2957" fill="#D7D96A" fill-opacity="0.13"/>
</g>
<g filter="url(#filter1_f_77_3030)">
<ellipse cx="41.7207" cy="44.4701" rx="21.9609" ry="21.2957" fill="#1B2372" fill-opacity="0.43"/>
</g>
<g filter="url(#filter2_f_77_3030)">
<path d="M52.095 28.1506C52.329 28.9552 54.8519 40.9447 41.7213 51.0121C36.5056 55.0111 21.5211 51.8168 21.287 51.0121C21.053 50.2075 33.4615 48.7417 40.2729 44.3964C50.7792 37.694 51.8609 27.3459 52.095 28.1506Z" fill="#51779F" fill-opacity="0.61"/>
</g>
<g filter="url(#filter3_f_77_3030)">
<ellipse cx="1.99279" cy="4.17241" rx="1.99279" ry="4.17241" transform="matrix(0.707103 0.707111 -0.707103 0.707111 16.291 5.90045)" fill="#E3F7FF"/>
</g>
<g filter="url(#filter4_f_77_3030)">
<ellipse cx="1.05166" cy="2.20192" rx="1.05166" ry="2.20192" transform="matrix(0.707103 0.707111 -0.707103 0.707111 15.5625 7.95471)" fill="#E2F7FF"/>
</g>
<g filter="url(#filter5_f_77_3030)">
<path d="M47.5534 9.86658C49.6804 21.48 43.5449 47.2907 11.5391 48.6999" stroke="#010E1B" stroke-width="1.63166"/>
</g>
<g filter="url(#filter6_f_77_3030)">
<path d="M37.4334 -0.572487C15.903 -7.93203 -9.15046 15.1253 4.27664 41.3926" stroke="#FCFFDD" stroke-width="1.63166"/>
</g>
<g filter="url(#filter7_f_77_3030)">
<path d="M44.9707 8.49829C52.4085 15.0749 55.8925 26.5057 46.3408 41.7728" stroke="#A1A0DB" stroke-opacity="0.65" stroke-width="1.63166"/>
</g>
<path d="M39.1337 13.7011H36.5915C36.2819 13.7019 35.9851 13.8255 35.7664 14.0447C35.5477 14.2639 35.4247 14.5608 35.4246 14.8705V21.9763H31.023C30.8257 21.8431 30.6226 21.7187 30.4139 21.6029V14.8705C30.4138 14.5608 30.2909 14.2639 30.0721 14.0447C29.8534 13.8255 29.5567 13.7019 29.247 13.7011H26.7042C26.3946 13.7019 26.0978 13.8255 25.8791 14.0447C25.6604 14.2639 25.5374 14.5608 25.5373 14.8705V20.6851C24.9753 20.7591 24.4229 20.8936 23.8898 21.0865C23.7944 20.3816 23.522 19.7123 23.098 19.1412L20.4791 15.5868V14.2468H21.3087C21.3646 14.2468 21.4201 14.2358 21.4718 14.2144C21.5235 14.193 21.5705 14.1616 21.6101 14.122C21.6497 14.0824 21.6811 14.0354 21.7025 13.9837C21.724 13.9319 21.735 13.8765 21.735 13.8205V12.1761C21.7343 11.8645 21.6103 11.5658 21.39 11.3454C21.1697 11.125 20.8711 11.0008 20.5595 11H16.4308C16.1187 11.0005 15.8196 11.1247 15.5991 11.3454C15.3785 11.5661 15.2544 11.8653 15.2541 12.1773V13.8217C15.2541 13.9348 15.299 14.0432 15.379 14.1232C15.4589 14.2031 15.5674 14.2481 15.6804 14.2481H16.4338V15.7147L13.8582 19.1253C13.3033 19.8629 13.0022 20.7604 13 21.6833V38.6892C13.0008 39.3331 13.257 39.9505 13.7123 40.4058C14.1676 40.8611 14.785 41.1173 15.4289 41.1181H21.5005C22.1444 41.1173 22.7618 40.8611 23.2171 40.4058C23.6724 39.9505 23.9286 39.3331 23.9294 38.6892V36.0466C24.4503 36.2316 24.9892 36.3614 25.5373 36.4339V39.1503C25.5371 39.6712 25.7436 40.1709 26.1113 40.5398C26.4791 40.9087 26.9781 41.1167 27.499 41.1181H38.3371C38.8579 41.1167 39.3569 40.9086 39.7246 40.5397C40.0922 40.1708 40.2985 39.6711 40.2982 39.1503V14.8705C40.2982 14.5612 40.1757 14.2645 39.9574 14.0454C39.7392 13.8262 39.443 13.7024 39.1337 13.7011ZM35.4185 22.829C35.3918 23.063 35.2801 23.2791 35.1046 23.4363C34.9292 23.5935 34.7021 23.6808 34.4666 23.6816H32.8465C32.6114 23.3793 32.3547 23.0943 32.0785 22.829H35.4185ZM33.5524 28.5595C33.5524 29.9377 33.1437 31.285 32.378 32.431C31.6123 33.577 30.524 34.4702 29.2507 34.9977C27.9774 35.5252 26.5763 35.6632 25.2245 35.3944C23.8728 35.1256 22.6311 34.4621 21.6564 33.4876C20.6818 32.5131 20.018 31.2715 19.7489 29.9198C19.4799 28.5681 19.6177 27.1669 20.145 25.8935C20.6723 24.6201 21.5653 23.5317 22.7111 22.7658C23.857 21.9999 25.2042 21.591 26.5824 21.5908C28.43 21.5929 30.2013 22.3277 31.5077 23.6342C32.8142 24.9406 33.5491 26.7119 33.5512 28.5595H33.5524ZM26.3899 16.0734H28.2171C28.3302 16.0734 28.4386 16.0285 28.5186 15.9485C28.5985 15.8686 28.6434 15.7601 28.6434 15.647C28.6434 15.534 28.5985 15.4255 28.5186 15.3456C28.4386 15.2656 28.3302 15.2207 28.2171 15.2207H26.3899V14.8705C26.3898 14.7869 26.4228 14.7066 26.4817 14.6472C26.5406 14.5879 26.6206 14.5543 26.7042 14.5538H29.2464C29.33 14.5543 29.41 14.5879 29.4689 14.6472C29.5278 14.7066 29.5608 14.7869 29.5607 14.8705V21.1961C28.6147 20.8121 27.6033 20.6151 26.5824 20.6163C26.5179 20.6163 26.4539 20.6163 26.3899 20.6163V16.0734ZM16.1068 13.3966V12.1785C16.1068 12.0924 16.141 12.0098 16.2018 11.949C16.2627 11.8881 16.3453 11.8539 16.4314 11.8539H20.5601C20.6462 11.8539 20.7288 11.8881 20.7897 11.949C20.8506 12.0098 20.8848 12.0924 20.8848 12.1785V13.3966H16.1068ZM19.6289 14.2493V15.0684H17.2865V14.2493H19.6289ZM23.0773 38.6892C23.0768 39.1071 22.9106 39.5077 22.6151 39.8032C22.3196 40.0987 21.919 40.265 21.5011 40.2654H21.1923L21.7807 39.2824C21.8335 39.1858 21.8469 39.0724 21.818 38.9661C21.7891 38.8598 21.7202 38.7688 21.6257 38.7122C21.5312 38.6555 21.4185 38.6377 21.3111 38.6624C21.2037 38.687 21.1101 38.7523 21.0498 38.8445L20.1971 40.2654H19.0034V39.0632C19.0034 38.9501 18.9585 38.8417 18.8785 38.7617C18.7986 38.6818 18.6901 38.6368 18.5771 38.6368C18.464 38.6368 18.3556 38.6818 18.2756 38.7617C18.1956 38.8417 18.1507 38.9501 18.1507 39.0632V40.2654H16.9594L16.1068 38.8445C16.0792 38.7942 16.0418 38.7499 15.9967 38.7143C15.9517 38.6788 15.8999 38.6527 15.8445 38.6377C15.7891 38.6226 15.7312 38.6189 15.6744 38.6267C15.6175 38.6346 15.5628 38.6539 15.5136 38.6834C15.4643 38.7129 15.4216 38.752 15.3878 38.7984C15.3541 38.8449 15.3301 38.8976 15.3172 38.9536C15.3043 39.0095 15.3029 39.0675 15.313 39.124C15.3231 39.1805 15.3445 39.2344 15.3759 39.2824L15.9636 40.2654H15.4277C15.0101 40.2645 14.6099 40.098 14.3148 39.8026C14.0197 39.5072 13.8538 39.1068 13.8533 38.6892V31.5524H17.6629C17.776 31.5524 17.8844 31.5075 17.9643 31.4275C18.0443 31.3475 18.0892 31.2391 18.0892 31.126C18.0892 31.013 18.0443 30.9045 17.9643 30.8246C17.8844 30.7446 17.776 30.6997 17.6629 30.6997H13.8533V27.4334H17.6629C17.776 27.4334 17.8844 27.3885 17.9643 27.3085C18.0443 27.2285 18.0892 27.1201 18.0892 27.007C18.0892 26.894 18.0443 26.7855 17.9643 26.7056C17.8844 26.6256 17.776 26.5807 17.6629 26.5807H13.8533V21.6864C13.8548 20.9481 14.0954 20.2301 14.5391 19.64L17.3468 15.9211H19.6679L22.4141 19.6473C22.7998 20.1684 23.0271 20.7897 23.0688 21.4367C21.7378 22.0921 20.617 23.1073 19.8335 24.3672C19.05 25.6271 18.6351 27.0814 18.636 28.565C18.6368 30.0487 19.0533 31.5024 19.8381 32.7615C20.623 34.0205 21.745 35.0345 23.0767 35.6884L23.0773 38.6892ZM38.3371 40.2654H27.496C27.2137 40.2643 26.9425 40.1558 26.7372 39.9621C26.5319 39.7684 26.408 39.5038 26.3906 39.2221H39.4437C39.4264 39.5041 39.3023 39.7689 39.0968 39.9627C38.8912 40.1565 38.6196 40.2647 38.3371 40.2654ZM39.4455 38.3695H26.3899V36.5009C26.4509 36.5009 26.5179 36.5009 26.5824 36.5009C30.9621 36.5009 34.5256 32.9374 34.5256 28.5577C34.5272 27.1408 34.1475 25.7496 33.4263 24.53H34.4653C34.9464 24.5289 35.4073 24.337 35.747 23.9964C36.0867 23.6558 36.2774 23.1943 36.2773 22.7132V16.0734H38.1044C38.2175 16.0734 38.3259 16.0285 38.4059 15.9485C38.4858 15.8686 38.5307 15.7601 38.5307 15.647C38.5307 15.534 38.4858 15.4255 38.4059 15.3456C38.3259 15.2656 38.2175 15.2207 38.1044 15.2207H36.2773V14.8705C36.2771 14.7869 36.3101 14.7066 36.369 14.6472C36.4279 14.5879 36.5079 14.5543 36.5915 14.5538H39.1337C39.2172 14.5544 39.2971 14.5881 39.3559 14.6475C39.4146 14.7068 39.4475 14.787 39.4474 14.8705L39.4455 38.3695Z" fill="white"/>
<path d="M30.4145 30.4506C30.3648 30.4248 30.3105 30.4091 30.2546 30.4043C30.1988 30.3995 30.1426 30.4058 30.0892 30.4228C30.0358 30.4398 29.9863 30.4671 29.9434 30.5032C29.9006 30.5393 29.8653 30.5836 29.8396 30.6333C29.512 31.2715 28.9997 31.7961 28.3697 32.139C27.7396 32.4818 27.0209 32.627 26.3071 32.5555C25.6113 32.4855 24.9509 32.2147 24.4062 31.7763C23.8614 31.3378 23.4558 30.7505 23.2387 30.0858L23.7722 30.0218C23.8567 30.0116 23.9362 29.9764 24.0005 29.9206C24.0648 29.8648 24.1109 29.7911 24.1329 29.7088C24.155 29.6266 24.1519 29.5397 24.124 29.4593C24.0962 29.3788 24.045 29.3085 23.9769 29.2575L22.9056 28.4548C22.818 28.3882 22.708 28.358 22.5987 28.3706C22.4894 28.3832 22.3892 28.4376 22.319 28.5224L21.4664 29.5577C21.415 29.6202 21.3824 29.6959 21.3724 29.7761C21.3624 29.8564 21.3755 29.9378 21.41 30.0109C21.4445 30.084 21.4992 30.1458 21.5675 30.189C21.6358 30.2323 21.715 30.2552 21.7959 30.2551C21.8127 30.256 21.8296 30.256 21.8464 30.2551L22.3769 30.1912C22.6222 31.0503 23.1197 31.8161 23.8051 32.3894C24.4905 32.9626 25.3322 33.3169 26.2212 33.4063C26.368 33.4209 26.5142 33.4276 26.6591 33.4276C27.4725 33.4287 28.2703 33.2053 28.9648 32.7819C29.6592 32.3584 30.2233 31.7515 30.5948 31.028C30.6211 30.9783 30.6372 30.9239 30.6424 30.8679C30.6475 30.8119 30.6416 30.7555 30.6248 30.7018C30.608 30.6481 30.5808 30.5983 30.5447 30.5552C30.5087 30.5121 30.4644 30.4765 30.4145 30.4506Z" fill="white"/>
<path d="M22.6479 25.8316C22.5911 25.929 22.5752 26.0449 22.6036 26.154C22.6321 26.263 22.7026 26.3564 22.7997 26.4137C22.8968 26.4709 23.0126 26.4874 23.1218 26.4595C23.231 26.4315 23.3247 26.3615 23.3824 26.2646C23.7391 25.6591 24.2657 25.1715 24.897 24.8626C25.5283 24.5537 26.2363 24.437 26.9334 24.527C27.6304 24.617 28.2856 24.9097 28.8178 25.3687C29.3499 25.8278 29.7355 26.4331 29.9267 27.1094L29.3505 27.1788C29.266 27.189 29.1865 27.2243 29.1222 27.2801C29.0579 27.3359 29.0118 27.4096 28.9898 27.4918C28.9678 27.574 28.9709 27.661 28.9987 27.7414C29.0265 27.8219 29.0778 27.8921 29.1459 27.9432L30.3213 28.8269C30.4091 28.8927 30.5188 28.9221 30.6277 28.9091C30.7366 28.896 30.8363 28.8415 30.906 28.7569L31.8403 27.6228C31.8944 27.5571 31.9277 27.4766 31.9357 27.3918C31.9437 27.307 31.9261 27.2218 31.8852 27.1471C31.8443 27.0724 31.782 27.0116 31.7062 26.9727C31.6305 26.9337 31.5448 26.9183 31.4602 26.9285L30.7812 27.0101C30.5673 26.1552 30.1039 25.3833 29.45 24.7926C28.7961 24.202 27.9811 23.8192 27.109 23.6932C26.2368 23.5671 25.3469 23.7035 24.5524 24.0848C23.758 24.4662 23.095 25.0753 22.6479 25.8347V25.8316Z" fill="white"/>
</g>
<defs>
<filter id="filter0_f_77_3030" x="-24.3009" y="-26.6813" width="78.0236" height="76.6931" filterUnits="userSpaceOnUse" color-interpolation-filters="sRGB">
<feFlood flood-opacity="0" result="BackgroundImageFix"/>
<feBlend mode="normal" in="SourceGraphic" in2="BackgroundImageFix" result="shape"/>
<feGaussianBlur stdDeviation="8.52543" result="effect1_foregroundBlur_77_3030"/>
</filter>
<filter id="filter1_f_77_3030" x="2.70891" y="6.12358" width="78.0236" height="76.6931" filterUnits="userSpaceOnUse" color-interpolation-filters="sRGB">
<feFlood flood-opacity="0" result="BackgroundImageFix"/>
<feBlend mode="normal" in="SourceGraphic" in2="BackgroundImageFix" result="shape"/>
<feGaussianBlur stdDeviation="8.52543" result="effect1_foregroundBlur_77_3030"/>
</filter>
<filter id="filter2_f_77_3030" x="17.2041" y="24.0272" width="39.3146" height="33.0341" filterUnits="userSpaceOnUse" color-interpolation-filters="sRGB">
<feFlood flood-opacity="0" result="BackgroundImageFix"/>
<feBlend mode="normal" in="SourceGraphic" in2="BackgroundImageFix" result="shape"/>
<feGaussianBlur stdDeviation="2.03958" result="effect1_foregroundBlur_77_3030"/>
</filter>
<filter id="filter3_f_77_3030" x="6.17562" y="1.68666" width="17.1468" height="17.1465" filterUnits="userSpaceOnUse" color-interpolation-filters="sRGB">
<feFlood flood-opacity="0" result="BackgroundImageFix"/>
<feBlend mode="normal" in="SourceGraphic" in2="BackgroundImageFix" result="shape"/>
<feGaussianBlur stdDeviation="2.65145" result="effect1_foregroundBlur_77_3030"/>
</filter>
<filter id="filter4_f_77_3030" x="12.6971" y="8.20315" width="4.10384" height="4.10439" filterUnits="userSpaceOnUse" color-interpolation-filters="sRGB">
<feFlood flood-opacity="0" result="BackgroundImageFix"/>
<feBlend mode="normal" in="SourceGraphic" in2="BackgroundImageFix" result="shape"/>
<feGaussianBlur stdDeviation="0.163166" result="effect1_foregroundBlur_77_3030"/>
</filter>
<filter id="filter5_f_77_3030" x="2.69294" y="0.908635" width="54.8661" height="57.4173" filterUnits="userSpaceOnUse" color-interpolation-filters="sRGB">
<feFlood flood-opacity="0" result="BackgroundImageFix"/>
<feBlend mode="normal" in="SourceGraphic" in2="BackgroundImageFix" result="shape"/>
<feGaussianBlur stdDeviation="4.40548" result="effect1_foregroundBlur_77_3030"/>
</filter>
<filter id="filter6_f_77_3030" x="-5.78247" y="-8.24316" width="48.9458" height="55.4731" filterUnits="userSpaceOnUse" color-interpolation-filters="sRGB">
<feFlood flood-opacity="0" result="BackgroundImageFix"/>
<feBlend mode="normal" in="SourceGraphic" in2="BackgroundImageFix" result="shape"/>
<feGaussianBlur stdDeviation="2.73303" result="effect1_foregroundBlur_77_3030"/>
</filter>
<filter id="filter7_f_77_3030" x="37.9846" y="1.44209" width="21.4292" height="47.2085" filterUnits="userSpaceOnUse" color-interpolation-filters="sRGB">
<feFlood flood-opacity="0" result="BackgroundImageFix"/>
<feBlend mode="normal" in="SourceGraphic" in2="BackgroundImageFix" result="shape"/>
<feGaussianBlur stdDeviation="3.22253" result="effect1_foregroundBlur_77_3030"/>
</filter>
<radialGradient id="paint0_radial_77_3030" cx="0" cy="0" r="1" gradientUnits="userSpaceOnUse" gradientTransform="translate(14.8666 11.0002) rotate(49.1617) scale(49.2075 50.8968)">
<stop stop-color="#B9EBFF"/>
<stop offset="0.156338" stop-color="#7DCCED"/>
<stop offset="0.519012" stop-color="#4290AF"/>
<stop offset="0.710329" stop-color="#156282"/>
<stop offset="1" stop-color="#1B7398"/>
</radialGradient>
<radialGradient id="paint1_radial_77_3030" cx="0" cy="0" r="1" gradientUnits="userSpaceOnUse" gradientTransform="translate(14.8666 11.0002) rotate(49.1617) scale(49.2075 50.8968)">
<stop stop-color="#D8FFB9"/>
<stop offset="0.156338" stop-color="#A1FD92"/>
<stop offset="0.519012" stop-color="#4AC63F"/>
<stop offset="0.710329" stop-color="#4AC63F"/>
<stop offset="1" stop-color="#228B22"/>
</radialGradient>
</defs>
</svg>
