<svg width="47" height="47" viewBox="0 0 47 47" fill="none" xmlns="http://www.w3.org/2000/svg">
<g filter="url(#filter0_i_3131_8407)">
<circle cx="23.5" cy="23.5" r="23.5" fill="#4AC63F"/>
<circle cx="23.5" cy="23.5" r="23.5" fill="url(#paint0_radial_3131_8407)"/>
<circle cx="23.5" cy="23.5" r="23.5" fill="url(#paint1_radial_3131_8407)" fill-opacity="0.45" style="mix-blend-mode:lighten"/>
<circle cx="23.5" cy="23.5" r="23.5" fill="url(#paint2_radial_3131_8407)" fill-opacity="0.15" style="mix-blend-mode:lighten"/>
<circle cx="23.5" cy="23.5" r="23.5" fill="url(#paint3_radial_3131_8407)" fill-opacity="0.56" style="mix-blend-mode:multiply"/>
</g>
<path d="M16.033 32.1328C15.5196 32.1328 15.0996 32.5528 15.0996 33.0662C15.0996 33.5795 15.5196 33.9995 16.033 33.9995C16.5463 33.9995 16.9663 33.5795 16.9663 33.0661C16.9663 32.5528 16.5463 32.1328 16.033 32.1328Z" fill="white"/>
<path d="M16.0324 30.2656C14.4924 30.2656 13.2324 31.5256 13.2324 33.0656C13.2324 34.6056 14.4924 35.8656 16.0324 35.8656C17.5724 35.8656 18.8324 34.6056 18.8324 33.0656C18.8324 31.5256 17.5724 30.2656 16.0324 30.2656ZM16.0324 34.9323C15.0058 34.9323 14.1658 34.0923 14.1658 33.0657C14.1658 32.039 15.0058 31.199 16.0324 31.199C17.0591 31.199 17.8991 32.039 17.8991 33.0657C17.8991 34.0923 17.0591 34.9323 16.0324 34.9323Z" fill="white"/>
<path d="M34.2341 32.1328C33.7208 32.1328 33.3008 32.5528 33.3008 33.0662C33.3008 33.5795 33.7208 33.9995 34.2341 33.9995C34.7475 33.9995 35.1675 33.5795 35.1675 33.0661C35.1675 32.5528 34.7474 32.1328 34.2341 32.1328Z" fill="white"/>
<path d="M34.2336 30.2656C32.6936 30.2656 31.4336 31.5256 31.4336 33.0656C31.4336 34.6056 32.6936 35.8656 34.2336 35.8656C35.7736 35.8656 37.0336 34.6056 37.0336 33.0656C37.0336 31.5256 35.7736 30.2656 34.2336 30.2656ZM34.2336 34.9323C33.2069 34.9323 32.3669 34.0923 32.3669 33.0657C32.3669 32.039 33.2069 31.199 34.2336 31.199C35.2602 31.199 36.1002 32.039 36.1002 33.0657C36.1002 34.0923 35.2602 34.9323 34.2336 34.9323Z" fill="white"/>
<path d="M36.7066 28.2595C36.0066 27.4661 34.9333 26.9995 33.7666 26.9995H33.6733C33.2533 25.5995 32.2733 24.4795 30.9666 23.8728V21.2128L31.2466 21.3528C31.2933 21.3995 31.34 21.3995 31.4333 21.3995H32.3666C32.6466 21.3995 32.8333 21.2128 32.8333 20.9328V18.1328C32.8333 17.8528 32.6466 17.6662 32.3666 17.6662H31.4333C31.3399 17.6662 31.2933 17.6662 31.2466 17.7128L30.3133 18.1795C30.1266 18.2728 30.0333 18.4128 30.0333 18.5995H25.8333C25.5533 18.5995 25.3666 18.7861 25.3666 19.0661H23.0333V17.8995C23.0333 17.1274 22.6243 16.4578 22.0097 16.093C22.6338 15.5784 23.0333 14.8 23.0333 13.9328C23.0333 12.3928 21.7733 11.1328 20.2333 11.1328C18.6933 11.1328 17.4333 12.3928 17.4333 13.9328C17.4333 14.9002 17.9307 15.7569 18.6823 16.2604C18.2043 16.6441 17.9 17.2336 17.9 17.8995V24.8995C17.9 25.3325 18.0288 25.7332 18.2502 26.0662H16.9667V19.9995C16.9667 19.7195 16.7801 19.5328 16.5001 19.5328H14.1666H12.3H9.96665C9.68665 19.5328 9.5 19.7195 9.5 19.9995V26.5328C9.5 26.8128 9.68665 26.9995 9.96665 26.9995H10.219C10.059 27.2745 9.96665 27.5933 9.96665 27.9328V28.4928C9.96665 28.9128 10.1533 29.2395 10.48 29.5195C10.9 29.7528 10.9934 30.2661 10.76 30.6861L10.2 31.6661C10.0134 31.8995 9.92 32.2728 10.0134 32.5995C10.06 32.9261 10.2934 33.2528 10.62 33.3928C10.76 33.4862 10.9466 33.5328 11.1334 33.5328H12.3C12.58 33.5328 12.7666 33.3462 12.7666 33.0662C12.7666 31.2462 14.2133 29.7995 16.0333 29.7995C17.8533 29.7995 19.2999 31.2462 19.2999 33.0662C19.2999 33.3462 19.4866 33.5328 19.7666 33.5328H30.5C30.78 33.5328 30.9666 33.3462 30.9666 33.0662C30.9666 31.2462 32.4133 29.7995 34.2333 29.7995C35.7733 29.7995 36.1933 30.0795 36.7066 30.5929C36.8466 30.7329 37.0333 30.7795 37.22 30.6862C37.4066 30.6396 37.5 30.4529 37.5 30.2662C37.5 29.5195 37.22 28.8661 36.7066 28.2595ZM30.9666 18.8795L31.5266 18.5995H31.9V20.4661H31.5266L30.9666 20.1861V19.0661V18.8795ZM27.5958 30.7328L25.6 24.4795C25.4134 23.7328 24.7134 23.2661 23.9666 23.2661H22.1V21.8661H25.3666C25.3666 22.1461 25.5533 22.3328 25.8333 22.3328H28.1666V30.7328H27.5958V30.7328ZM20.2334 12.0661C21.26 12.0661 22.1 12.9061 22.1 13.9328C22.1 14.9594 21.26 15.7995 20.2334 15.7995C19.2067 15.7995 18.3667 14.9595 18.3667 13.9328C18.3667 12.9062 19.2066 12.0661 20.2334 12.0661ZM18.8334 24.8995V17.8995C18.8334 17.2461 19.3467 16.7328 20 16.7328H20.9334C21.5867 16.7328 22.1 17.2462 22.1 17.8995V19.5328C22.1 19.8128 22.2866 19.9995 22.5666 19.9995H25.8333C25.8507 19.9995 25.8681 20.0002 25.8855 20.0018C25.8864 20.0018 25.8872 20.002 25.8881 20.0021C26.0091 20.0134 26.1255 20.0645 26.2066 20.1861C26.2831 20.2626 26.2967 20.3705 26.2992 20.4839C26.2979 20.53 26.2919 20.5736 26.2807 20.6139C26.2073 20.7807 25.9972 20.9328 25.7866 20.9328H21.6333C21.3533 20.9328 21.1666 20.7462 21.1666 20.4662V19.0662C21.1666 18.7862 20.98 18.5995 20.7 18.5995C20.42 18.5995 20.2334 18.7862 20.2334 19.0662V20.4662C20.2334 21.0946 20.6141 21.6055 21.1667 21.7909V23.7328C21.1667 24.0128 21.3534 24.1995 21.6334 24.1995H23.9667C24.3401 24.1995 24.6201 24.4328 24.7134 24.7595L26.58 30.7328H25.2266L23.9666 26.3928C23.8733 26.2062 23.6866 26.0662 23.5 26.0662H20.7H20C19.3466 26.0661 18.8334 25.5528 18.8334 24.8995ZM22.24 29.8928C22.4734 29.2395 22.5666 28.5862 22.5666 27.9328C22.5666 27.6115 22.4782 27.2903 22.3012 26.9995H23.1733L24.2571 30.7328H21.8666L22.24 29.8928ZM13.7 20.4661V21.3995H12.7666V20.4661H13.7ZM10.4334 20.4661H11.8334V21.8661C11.8334 22.1461 12.02 22.3328 12.3 22.3328H14.1666C14.4466 22.3328 14.6333 22.1461 14.6333 21.8661V20.4661H16.0333V26.0661H11.8333H10.4333L10.4334 20.4661ZM34.1866 28.8661C32.04 28.8661 30.2666 30.4995 30.0333 32.5995H20.1866C19.9533 30.4995 18.1333 28.8661 15.9866 28.8661C13.84 28.8661 12.0666 30.4995 11.8334 32.5995H11.1334C11.0867 32.5995 11.0867 32.5995 11.04 32.5995C10.9466 32.5528 10.9 32.4595 10.9 32.4128C10.9 32.3662 10.9 32.2728 10.9466 32.1795L10.9933 32.1328L11.6 31.1061C12.1134 30.2661 11.8334 29.1928 11.04 28.6795C10.9934 28.6328 10.9 28.5861 10.9 28.4928V27.9328C10.9 27.4195 11.32 26.9995 11.8334 26.9995H16.5H20H20.7C20.9334 26.9995 21.1666 27.0928 21.3534 27.2795C21.5401 27.4661 21.6334 27.6995 21.6334 27.9328C21.6334 28.4928 21.5867 29.0528 21.4 29.5662L20.7466 31.0128C20.7 31.1528 20.7466 31.2928 20.7933 31.4328C20.8399 31.5728 21.0266 31.6662 21.1666 31.6662H24.9H27.2334H28.6334C28.9134 31.6662 29.1 31.4795 29.1 31.1995V21.8661C29.1 21.5861 28.9134 21.3995 28.6334 21.3995H26.8904C27.0722 21.2055 27.1955 20.9644 27.2334 20.6995C27.2583 20.4994 27.2427 20.2859 27.1801 20.0805C27.1774 20.0709 27.1745 20.0615 27.1715 20.052C27.1712 20.0509 27.1708 20.0498 27.1705 20.0488C27.1244 19.9021 27.0543 19.7684 26.9641 19.6516C26.9458 19.6271 26.9269 19.603 26.9066 19.5795C26.8929 19.5635 26.8788 19.5481 26.8647 19.5328H30.0334V20.4662V24.1995C30.0334 24.3861 30.1267 24.5728 30.22 24.6195L30.36 24.6661C31.5734 25.1795 32.46 26.2528 32.74 27.5595C32.7866 27.7928 32.9734 27.9328 33.2066 27.9328H33.6733C34.5599 27.9328 35.3999 28.2595 35.9133 28.8662C36.0066 28.9595 36.0999 29.0528 36.1466 29.1462C35.68 28.9595 35.0734 28.8661 34.1866 28.8661Z" fill="white"/>
<defs>
<filter id="filter0_i_3131_8407" x="0" y="-1.49954" width="47.9997" height="48.4995" filterUnits="userSpaceOnUse" color-interpolation-filters="sRGB">
<feFlood flood-opacity="0" result="BackgroundImageFix"/>
<feBlend mode="normal" in="SourceGraphic" in2="BackgroundImageFix" result="shape"/>
<feColorMatrix in="SourceAlpha" type="matrix" values="0 0 0 0 0 0 0 0 0 0 0 0 0 0 0 0 0 0 127 0" result="hardAlpha"/>
<feOffset dx="0.999692" dy="-1.49954"/>
<feGaussianBlur stdDeviation="3.99877"/>
<feComposite in2="hardAlpha" operator="arithmetic" k2="-1" k3="1"/>
<feColorMatrix type="matrix" values="0 0 0 0 0 0 0 0 0 0 0 0 0 0 0 0 0 0 0.25 0"/>
<feBlend mode="normal" in2="shape" result="effect1_innerShadow_3131_8407"/>
</filter>
<radialGradient id="paint0_radial_3131_8407" cx="0" cy="0" r="1" gradientUnits="userSpaceOnUse" gradientTransform="translate(30.2748 14.1847) rotate(123.232) scale(22.0201 22.0201)">
<stop stop-color="#4AC63F"/>
<stop offset="1" stop-color="#228B22"/>
</radialGradient>
<radialGradient id="paint1_radial_3131_8407" cx="0" cy="0" r="1" gradientUnits="userSpaceOnUse" gradientTransform="translate(30.4865 12.7027) rotate(123.69) scale(19.8468)">
<stop stop-color="white"/>
<stop offset="1" stop-color="white" stop-opacity="0"/>
</radialGradient>
<radialGradient id="paint2_radial_3131_8407" cx="0" cy="0" r="1" gradientUnits="userSpaceOnUse" gradientTransform="translate(25.6171 17.5721) rotate(111.949) scale(30.5863)">
<stop offset="0.596475" stop-color="white" stop-opacity="0"/>
<stop offset="0.742517" stop-color="white"/>
<stop offset="0.832316" stop-color="white"/>
<stop offset="1" stop-color="white" stop-opacity="0"/>
</radialGradient>
<radialGradient id="paint3_radial_3131_8407" cx="0" cy="0" r="1" gradientUnits="userSpaceOnUse" gradientTransform="translate(27.9459 10.1622) rotate(106.798) scale(35.1626)">
<stop offset="0.238216" stop-color="#219125" stop-opacity="0"/>
<stop offset="0.640216" stop-color="#4AC63F" stop-opacity="0.81"/>
<stop offset="0.791876" stop-color="#3A8B1D" stop-opacity="0.99"/>
<stop offset="0.868482" stop-color="#258A1D" stop-opacity="0.81"/>
<stop offset="1" stop-color="#4AC63F" stop-opacity="0.6"/>
</radialGradient>
</defs>
</svg>
