<svg width="32" height="31" viewBox="0 0 32 31" fill="none" xmlns="http://www.w3.org/2000/svg">
<mask id="mask0_77_2988" style="mask-type:alpha" maskUnits="userSpaceOnUse" x="0" y="0" width="32" height="31">
<ellipse cx="15.7909" cy="15.2911" rx="15.2909" ry="15.2911" fill="url(#paint0_radial_77_2988)"/>
</mask>
<g mask="url(#mask0_77_2988)">
<ellipse cx="15.7909" cy="15.2911" rx="15.2909" ry="15.2911" fill="url(#paint1_radial_77_2988)"/>
<g filter="url(#filter0_f_77_2988)">
<ellipse cx="8.96132" cy="6.94601" rx="13.0766" ry="12.6804" fill="#D7D96A" fill-opacity="0.13"/>
</g>
<g filter="url(#filter1_f_77_2988)">
<ellipse cx="25.0453" cy="26.4795" rx="13.0766" ry="12.6804" fill="#1B2372" fill-opacity="0.43"/>
</g>
<g filter="url(#filter2_f_77_2988)">
<path d="M31.2211 16.7621C31.3605 17.2412 32.8627 24.3802 25.0442 30.3748C21.9385 32.756 13.016 30.8539 12.8767 30.3748C12.7373 29.8957 20.1259 29.0229 24.1817 26.4355C30.4376 22.4446 31.0818 16.2829 31.2211 16.7621Z" fill="#51779F" fill-opacity="0.61"/>
</g>
<g filter="url(#filter3_f_77_2988)">
<ellipse cx="1.1866" cy="2.48444" rx="1.1866" ry="2.48444" transform="matrix(0.707104 0.707109 -0.707104 0.707109 9.90234 3.51337)" fill="#E3F7FF"/>
</g>
<g filter="url(#filter4_f_77_2988)">
<ellipse cx="0.626206" cy="1.31112" rx="0.626206" ry="1.31112" transform="matrix(0.707104 0.707109 -0.707104 0.707109 9.46875 4.73657)" fill="#E2F7FF"/>
</g>
<g filter="url(#filter5_f_77_2988)">
<path d="M28.5169 5.875C29.7834 12.7902 26.13 28.1589 7.07227 28.9981" stroke="#010E1B" stroke-width="0.971564"/>
</g>
<g filter="url(#filter6_f_77_2988)">
<path d="M22.4918 -0.340894C9.67167 -4.72309 -5.24633 9.00622 2.74878 24.6469" stroke="#FCFFDD" stroke-width="0.971564"/>
</g>
<g filter="url(#filter7_f_77_2988)">
<path d="M26.9805 5.06024C31.4092 8.97624 33.4838 15.7826 27.7963 24.8733" stroke="#A1A0DB" stroke-opacity="0.65" stroke-width="0.971564"/>
</g>
</g>
<path d="M21.366 10.5414C21.1824 10.3183 21.0094 10.1078 20.9266 9.90817C20.8375 9.69371 20.8094 9.41168 20.7773 9.11363C20.7266 8.61988 20.6684 8.05895 20.2895 7.68121C19.9105 7.30348 19.352 7.2441 18.857 7.19293C18.5586 7.16207 18.277 7.13278 18.0621 7.0441C17.8629 6.96129 17.652 6.78785 17.4289 6.60426C17.0383 6.28317 16.5969 5.91949 16.0371 5.91949C15.4773 5.91949 15.0352 6.28317 14.6449 6.60426C14.4219 6.78785 14.2113 6.96129 14.0117 7.0441C13.7973 7.13278 13.5152 7.16129 13.2172 7.19293C12.7234 7.2441 12.1625 7.30192 11.7848 7.68082C11.407 8.05973 11.3477 8.61832 11.2965 9.11363C11.2656 9.41168 11.2363 9.69371 11.1477 9.90817C11.0648 10.1078 10.8914 10.3183 10.7078 10.5414C10.3871 10.932 10.0234 11.3734 10.0234 11.9336C10.0234 12.4937 10.3871 12.9355 10.7078 13.3254C10.8914 13.5484 11.0648 13.7593 11.1477 13.9586C11.2363 14.173 11.2648 14.455 11.2965 14.7535C11.3477 15.2472 11.4055 15.8082 11.7848 16.1859C12.1641 16.5636 12.7223 16.6226 13.2172 16.6738C13.5152 16.7046 13.7973 16.7339 14.0117 16.823C14.2113 16.9054 14.4219 17.0789 14.6449 17.2625C15.0355 17.5836 15.4773 17.9472 16.0371 17.9472C16.5969 17.9472 17.0391 17.5836 17.4289 17.2625C17.652 17.0789 17.8629 16.9054 18.0621 16.823C18.277 16.7339 18.5586 16.7058 18.857 16.6738C19.3508 16.623 19.9117 16.5648 20.2895 16.1859C20.6672 15.807 20.7266 15.2484 20.7773 14.7535C20.8082 14.455 20.8375 14.1734 20.9266 13.9586C21.0094 13.7593 21.1824 13.5484 21.366 13.3254C21.6871 12.9347 22.0508 12.4933 22.0508 11.9336C22.0508 11.3738 21.6871 10.9316 21.366 10.5414ZM20.823 12.8785C20.6148 13.1316 20.3996 13.3933 20.2762 13.6894C20.148 13.9988 20.1121 14.3457 20.0773 14.6808C20.0344 15.0949 19.9941 15.4859 19.7914 15.6886C19.5887 15.8914 19.1977 15.9316 18.7836 15.9746C18.4484 16.0093 18.1016 16.0453 17.7922 16.1734C17.4961 16.2961 17.2344 16.5113 16.9816 16.7203C16.6535 16.9902 16.3441 17.2449 16.0363 17.2449C15.7285 17.2449 15.4188 16.9902 15.091 16.7203C14.8379 16.5121 14.5762 16.2968 14.2805 16.1734C13.9711 16.0453 13.6242 16.0093 13.2887 15.9746C12.8746 15.9316 12.4836 15.8914 12.2809 15.6886C12.0781 15.4859 12.0379 15.0949 11.9953 14.6808C11.9605 14.3457 11.9246 13.9988 11.7961 13.6894C11.6734 13.3933 11.4582 13.1316 11.2492 12.8785C10.9812 12.5507 10.7281 12.2414 10.7281 11.9336C10.7281 11.6257 10.9828 11.316 11.2523 10.9882C11.4605 10.7351 11.6758 10.4734 11.7992 10.1773C11.9277 9.86832 11.9637 9.52145 11.9984 9.1859C12.041 8.77184 12.0816 8.38082 12.2844 8.17809C12.4871 7.97535 12.8766 7.93512 13.2895 7.89059C13.625 7.85778 13.9703 7.82184 14.2828 7.69528C14.5785 7.57262 14.8402 7.35739 15.0934 7.1484C15.4211 6.87887 15.7309 6.62379 16.0387 6.62379C16.3465 6.62379 16.6559 6.87887 16.984 7.1484C17.2367 7.3566 17.4984 7.57184 17.7945 7.69528C18.1039 7.82379 18.4508 7.85973 18.7859 7.8941C19.2 7.93707 19.591 7.9777 19.7937 8.18004C19.9965 8.38239 20.0367 8.77379 20.0797 9.18785C20.1145 9.5234 20.1504 9.87028 20.2785 10.1793C20.4012 10.4754 20.6164 10.7371 20.8254 10.9902C21.0953 11.3179 21.35 11.6277 21.35 11.9355C21.35 12.2433 21.093 12.5507 20.823 12.8785Z" fill="white"/>
<path d="M16.1191 8.7019C15.4633 8.70183 14.8221 8.89624 14.2768 9.26056C13.7314 9.62489 13.3063 10.1427 13.0553 10.7487C12.8042 11.3546 12.7385 12.0213 12.8664 12.6646C12.9943 13.3079 13.3101 13.8988 13.7738 14.3626C14.2376 14.8264 14.8284 15.1422 15.4717 15.2702C16.1149 15.3982 16.7817 15.3325 17.3876 15.0816C17.9936 14.8306 18.5115 14.4056 18.8759 13.8602C19.2403 13.3149 19.4348 12.6738 19.4348 12.0179C19.4348 11.1385 19.0855 10.2951 18.4637 9.67328C17.8419 9.05142 16.9985 8.70201 16.1191 8.7019ZM17.9078 11.3453C16.6488 11.9894 15.841 13.3476 15.8328 13.3613C15.8007 13.4159 15.7564 13.4624 15.7034 13.497C15.6503 13.5317 15.5899 13.5535 15.527 13.5609C15.5111 13.5628 15.4952 13.5637 15.4793 13.5636C15.424 13.5636 15.3692 13.5524 15.3183 13.5306C15.2674 13.5089 15.2215 13.4771 15.1832 13.4371L14.268 12.4812C14.2307 12.4422 14.2015 12.3963 14.182 12.346C14.1626 12.2957 14.1532 12.2421 14.1544 12.1882C14.1556 12.1343 14.1675 12.0812 14.1892 12.0319C14.211 11.9825 14.2423 11.938 14.2813 11.9007C14.3202 11.8635 14.3662 11.8343 14.4164 11.8148C14.4667 11.7953 14.5203 11.7859 14.5742 11.7872C14.6281 11.7884 14.6813 11.8002 14.7306 11.822C14.7799 11.8438 14.8245 11.875 14.8617 11.914L15.425 12.5023C15.8078 11.9804 16.5418 11.1234 17.5344 10.6148C17.5823 10.5902 17.6347 10.5754 17.6884 10.5711C17.7421 10.5667 17.7961 10.573 17.8474 10.5896C17.8987 10.6062 17.9462 10.6327 17.9872 10.6676C18.0282 10.7025 18.062 10.7452 18.0865 10.7931C18.1111 10.8411 18.1259 10.8934 18.1303 10.9471C18.1346 11.0008 18.1283 11.0548 18.1117 11.1061C18.0952 11.1574 18.0687 11.2049 18.0337 11.2459C17.9988 11.287 17.9562 11.3207 17.9082 11.3453H17.9078Z" fill="white"/>
<path d="M19.3897 18.6941C18.6636 18.6593 17.3015 18.7414 16.3308 19.6773C16.2301 19.775 16.1361 19.8794 16.0495 19.9898C15.9629 19.8794 15.8689 19.775 15.7683 19.6773C14.7976 18.7398 13.4351 18.6593 12.7093 18.6941C12.4764 18.7043 12.2557 18.8015 12.0909 18.9663C11.926 19.1312 11.8289 19.3518 11.8186 19.5847C11.7843 20.3101 11.8659 21.6726 12.8019 22.6433C13.4769 23.3433 14.4612 23.7078 15.7315 23.7273C15.7683 23.7273 16.4632 23.7273 16.5628 23.7218C17.739 23.6691 18.6577 23.3074 19.2972 22.6433C20.2347 21.6726 20.3151 20.3101 20.2808 19.5847C20.2705 19.3517 20.1734 19.1311 20.0084 18.9662C19.8435 18.8013 19.6227 18.7042 19.3897 18.6941ZM14.887 21.4453L14.6698 22.1015C14.7034 22.1132 15.3554 22.3429 15.6878 23.023C14.6397 22.9976 13.839 22.7062 13.3081 22.1554C12.5554 21.3742 12.4917 20.2304 12.521 19.6164C12.5236 19.5584 12.5478 19.5035 12.5889 19.4625C12.6299 19.4215 12.6849 19.3974 12.7429 19.3949C13.355 19.3656 14.5007 19.4293 15.2819 20.182C15.8093 20.6898 16.0983 21.4457 16.1444 22.4293C15.8366 21.9796 15.3975 21.636 14.887 21.4453ZM18.7905 22.1543C18.3331 22.6293 17.6741 22.9109 16.8292 22.9957C16.844 22.93 16.8518 22.863 16.8526 22.7957C16.8616 21.9562 16.7265 21.2359 16.4495 20.641C16.5534 20.4736 16.6774 20.3196 16.8187 20.1824C17.5101 19.516 18.4858 19.3898 19.1257 19.3898C19.2085 19.3898 19.2858 19.3898 19.3561 19.3953C19.4141 19.3978 19.4691 19.4219 19.5101 19.4629C19.5512 19.5039 19.5754 19.5588 19.578 19.6168C19.6069 20.2304 19.5437 21.3746 18.7905 22.1554V22.1543Z" fill="white"/>
<defs>
<filter id="filter0_f_77_2988" x="-14.2681" y="-15.8872" width="46.458" height="45.6665" filterUnits="userSpaceOnUse" color-interpolation-filters="sRGB">
<feFlood flood-opacity="0" result="BackgroundImageFix"/>
<feBlend mode="normal" in="SourceGraphic" in2="BackgroundImageFix" result="shape"/>
<feGaussianBlur stdDeviation="5.07642" result="effect1_foregroundBlur_77_2988"/>
</filter>
<filter id="filter1_f_77_2988" x="1.81591" y="3.64623" width="46.458" height="45.6665" filterUnits="userSpaceOnUse" color-interpolation-filters="sRGB">
<feFlood flood-opacity="0" result="BackgroundImageFix"/>
<feBlend mode="normal" in="SourceGraphic" in2="BackgroundImageFix" result="shape"/>
<feGaussianBlur stdDeviation="5.07642" result="effect1_foregroundBlur_77_2988"/>
</filter>
<filter id="filter2_f_77_2988" x="10.4461" y="14.3068" width="23.4086" height="19.67" filterUnits="userSpaceOnUse" color-interpolation-filters="sRGB">
<feFlood flood-opacity="0" result="BackgroundImageFix"/>
<feBlend mode="normal" in="SourceGraphic" in2="BackgroundImageFix" result="shape"/>
<feGaussianBlur stdDeviation="1.21445" result="effect1_foregroundBlur_77_2988"/>
</filter>
<filter id="filter3_f_77_2988" x="3.87953" y="1.00428" width="10.2097" height="10.2098" filterUnits="userSpaceOnUse" color-interpolation-filters="sRGB">
<feFlood flood-opacity="0" result="BackgroundImageFix"/>
<feBlend mode="normal" in="SourceGraphic" in2="BackgroundImageFix" result="shape"/>
<feGaussianBlur stdDeviation="1.57879" result="effect1_foregroundBlur_77_2988"/>
</filter>
<filter id="filter4_f_77_2988" x="7.76272" y="4.88448" width="2.44331" height="2.44398" filterUnits="userSpaceOnUse" color-interpolation-filters="sRGB">
<feFlood flood-opacity="0" result="BackgroundImageFix"/>
<feBlend mode="normal" in="SourceGraphic" in2="BackgroundImageFix" result="shape"/>
<feGaussianBlur stdDeviation="0.0971564" result="effect1_foregroundBlur_77_2988"/>
</filter>
<filter id="filter5_f_77_2988" x="1.80434" y="0.541031" width="32.6706" height="34.1888" filterUnits="userSpaceOnUse" color-interpolation-filters="sRGB">
<feFlood flood-opacity="0" result="BackgroundImageFix"/>
<feBlend mode="normal" in="SourceGraphic" in2="BackgroundImageFix" result="shape"/>
<feGaussianBlur stdDeviation="2.62322" result="effect1_foregroundBlur_77_2988"/>
</filter>
<filter id="filter6_f_77_2988" x="-3.24107" y="-4.90836" width="29.1442" height="33.0311" filterUnits="userSpaceOnUse" color-interpolation-filters="sRGB">
<feFlood flood-opacity="0" result="BackgroundImageFix"/>
<feBlend mode="normal" in="SourceGraphic" in2="BackgroundImageFix" result="shape"/>
<feGaussianBlur stdDeviation="1.62737" result="effect1_foregroundBlur_77_2988"/>
</filter>
<filter id="filter7_f_77_2988" x="22.8205" y="0.858673" width="12.7613" height="28.11" filterUnits="userSpaceOnUse" color-interpolation-filters="sRGB">
<feFlood flood-opacity="0" result="BackgroundImageFix"/>
<feBlend mode="normal" in="SourceGraphic" in2="BackgroundImageFix" result="shape"/>
<feGaussianBlur stdDeviation="1.91884" result="effect1_foregroundBlur_77_2988"/>
</filter>
<radialGradient id="paint0_radial_77_2988" cx="0" cy="0" r="1" gradientUnits="userSpaceOnUse" gradientTransform="translate(9.05454 6.54998) rotate(49.1616) scale(29.3003 30.3062)">
<stop stop-color="#B9EBFF"/>
<stop offset="0.156338" stop-color="#7DCCED"/>
<stop offset="0.519012" stop-color="#4290AF"/>
<stop offset="0.710329" stop-color="#156282"/>
<stop offset="1" stop-color="#1B7398"/>
</radialGradient>
<radialGradient id="paint1_radial_77_2988" cx="0" cy="0" r="1" gradientUnits="userSpaceOnUse" gradientTransform="translate(9.05454 6.54998) rotate(49.1616) scale(29.3003 30.3062)">
<stop stop-color="#D8FFB9"/>
<stop offset="0.156338" stop-color="#A1FD92"/>
<stop offset="0.519012" stop-color="#4AC63F"/>
<stop offset="0.710329" stop-color="#4AC63F"/>
<stop offset="1" stop-color="#228B22"/>
</radialGradient>
</defs>
</svg>
