<svg width="47" height="47" viewBox="0 0 47 47" fill="none" xmlns="http://www.w3.org/2000/svg">
<g filter="url(#filter0_i_3387_8230)">
<circle cx="23.5" cy="23.5" r="23.5" fill="#4AC63F"/>
<circle cx="23.5" cy="23.5" r="23.5" fill="url(#paint0_radial_3387_8230)"/>
<circle cx="23.5" cy="23.5" r="23.5" fill="url(#paint1_radial_3387_8230)" fill-opacity="0.45" style="mix-blend-mode:lighten"/>
<circle cx="23.5" cy="23.5" r="23.5" fill="url(#paint2_radial_3387_8230)" fill-opacity="0.15" style="mix-blend-mode:lighten"/>
<circle cx="23.5" cy="23.5" r="23.5" fill="url(#paint3_radial_3387_8230)" fill-opacity="0.56" style="mix-blend-mode:multiply"/>
</g>
<path d="M30.9985 25.3333C30.3092 25.3379 29.6294 25.4951 29.0081 25.7936C28.3868 26.0922 27.8394 26.5247 27.4051 27.06L21.4551 24.3183C21.7349 23.4617 21.7349 22.5383 21.4551 21.6817L27.4051 18.94C28.107 19.787 29.0855 20.3587 30.168 20.5545C31.2504 20.7502 32.3672 20.5573 33.3212 20.0097C34.2753 19.4622 35.0052 18.5952 35.3823 17.5619C35.7593 16.5285 35.7592 15.3952 35.382 14.3619C35.0048 13.3286 34.2746 12.4618 33.3205 11.9144C32.3664 11.367 31.2495 11.1743 30.1671 11.3702C29.0847 11.5661 28.1063 12.1381 27.4046 12.9852C26.7029 13.8323 26.3229 14.9 26.3318 16C26.3353 16.2779 26.3626 16.5551 26.4135 16.8283L20.2535 19.6633C19.5967 19.0212 18.7651 18.5871 17.8627 18.4155C16.9604 18.2439 16.0275 18.3424 15.1809 18.6986C14.3342 19.0549 13.6116 19.6531 13.1034 20.4182C12.5953 21.1834 12.3242 22.0815 12.3242 23C12.3242 23.9185 12.5953 24.8166 13.1034 25.5818C13.6116 26.3469 14.3342 26.9451 15.1809 27.3013C16.0275 27.6576 16.9604 27.7561 17.8627 27.5845C18.7651 27.4129 19.5967 26.9788 20.2535 26.3367L26.4135 29.1717C26.3626 29.4449 26.3353 29.7221 26.3318 30C26.3318 30.923 26.6055 31.8252 27.1183 32.5927C27.6311 33.3601 28.3599 33.9582 29.2126 34.3114C30.0653 34.6646 31.0036 34.7571 31.9089 34.577C32.8141 34.3969 33.6457 33.9525 34.2983 33.2998C34.9509 32.6472 35.3954 31.8157 35.5755 30.9104C35.7555 30.0052 35.6631 29.0669 35.3099 28.2141C34.9567 27.3614 34.3586 26.6326 33.5911 26.1198C32.8237 25.607 31.9214 25.3333 30.9985 25.3333ZM30.9985 13.6667C31.46 13.6667 31.9111 13.8035 32.2948 14.0599C32.6785 14.3163 32.9776 14.6807 33.1542 15.1071C33.3308 15.5334 33.377 16.0026 33.287 16.4552C33.1969 16.9078 32.9747 17.3236 32.6484 17.6499C32.3221 17.9762 31.9063 18.1985 31.4537 18.2885C31.0011 18.3785 30.5319 18.3323 30.1055 18.1557C29.6792 17.9791 29.3148 17.68 29.0584 17.2963C28.802 16.9126 28.6651 16.4615 28.6651 16C28.6651 15.3812 28.911 14.7877 29.3486 14.3501C29.7861 13.9125 30.3796 13.6667 30.9985 13.6667V13.6667ZM16.9985 25.3333C16.537 25.3333 16.0859 25.1965 15.7021 24.9401C15.3184 24.6837 15.0194 24.3193 14.8427 23.8929C14.6661 23.4666 14.6199 22.9974 14.71 22.5448C14.8 22.0922 15.0222 21.6764 15.3486 21.3501C15.6749 21.0238 16.0906 20.8015 16.5433 20.7115C16.9959 20.6215 17.465 20.6677 17.8914 20.8443C18.3178 21.0209 18.6822 21.3199 18.9386 21.7037C19.195 22.0874 19.3318 22.5385 19.3318 23C19.3318 23.6188 19.086 24.2123 18.6484 24.6499C18.2108 25.0875 17.6173 25.3333 16.9985 25.3333ZM30.9985 32.3333C30.537 32.3333 30.0859 32.1965 29.7021 31.9401C29.3184 31.6837 29.0194 31.3193 28.8427 30.8929C28.6661 30.4666 28.6199 29.9974 28.71 29.5448C28.8 29.0922 29.0222 28.6764 29.3486 28.3501C29.6749 28.0238 30.0906 27.8015 30.5433 27.7115C30.9959 27.6215 31.465 27.6677 31.8914 27.8443C32.3178 28.0209 32.6822 28.3199 32.9386 28.7037C33.195 29.0874 33.3318 29.5385 33.3318 30C33.3318 30.6188 33.086 31.2123 32.6484 31.6499C32.2108 32.0875 31.6173 32.3333 30.9985 32.3333Z" fill="white"/>
<defs>
<filter id="filter0_i_3387_8230" x="0" y="-1.49954" width="47.9997" height="48.4995" filterUnits="userSpaceOnUse" color-interpolation-filters="sRGB">
<feFlood flood-opacity="0" result="BackgroundImageFix"/>
<feBlend mode="normal" in="SourceGraphic" in2="BackgroundImageFix" result="shape"/>
<feColorMatrix in="SourceAlpha" type="matrix" values="0 0 0 0 0 0 0 0 0 0 0 0 0 0 0 0 0 0 127 0" result="hardAlpha"/>
<feOffset dx="0.999692" dy="-1.49954"/>
<feGaussianBlur stdDeviation="3.99877"/>
<feComposite in2="hardAlpha" operator="arithmetic" k2="-1" k3="1"/>
<feColorMatrix type="matrix" values="0 0 0 0 0 0 0 0 0 0 0 0 0 0 0 0 0 0 0.25 0"/>
<feBlend mode="normal" in2="shape" result="effect1_innerShadow_3387_8230"/>
</filter>
<radialGradient id="paint0_radial_3387_8230" cx="0" cy="0" r="1" gradientUnits="userSpaceOnUse" gradientTransform="translate(30.2748 14.1847) rotate(123.232) scale(22.0201 22.0201)">
<stop stop-color="#4AC63F"/>
<stop offset="1" stop-color="#228B22"/>
</radialGradient>
<radialGradient id="paint1_radial_3387_8230" cx="0" cy="0" r="1" gradientUnits="userSpaceOnUse" gradientTransform="translate(30.4865 12.7027) rotate(123.69) scale(19.8468)">
<stop stop-color="white"/>
<stop offset="1" stop-color="white" stop-opacity="0"/>
</radialGradient>
<radialGradient id="paint2_radial_3387_8230" cx="0" cy="0" r="1" gradientUnits="userSpaceOnUse" gradientTransform="translate(25.6171 17.5721) rotate(111.949) scale(30.5863)">
<stop offset="0.596475" stop-color="white" stop-opacity="0"/>
<stop offset="0.742517" stop-color="white"/>
<stop offset="0.832316" stop-color="white"/>
<stop offset="1" stop-color="white" stop-opacity="0"/>
</radialGradient>
<radialGradient id="paint3_radial_3387_8230" cx="0" cy="0" r="1" gradientUnits="userSpaceOnUse" gradientTransform="translate(27.9459 10.1622) rotate(106.798) scale(35.1626)">
<stop offset="0.238216" stop-color="#219125" stop-opacity="0"/>
<stop offset="0.640216" stop-color="#4AC63F" stop-opacity="0.81"/>
<stop offset="0.791876" stop-color="#3A8B1D" stop-opacity="0.99"/>
<stop offset="0.868482" stop-color="#258A1D" stop-opacity="0.81"/>
<stop offset="1" stop-color="#4AC63F" stop-opacity="0.6"/>
</radialGradient>
</defs>
</svg>
