<svg width="47" height="47" viewBox="0 0 47 47" fill="none" xmlns="http://www.w3.org/2000/svg">
<g filter="url(#filter0_i_3387_8250)">
<circle cx="23.5" cy="23.5" r="23.5" fill="#4AC63F"/>
<circle cx="23.5" cy="23.5" r="23.5" fill="url(#paint0_radial_3387_8250)"/>
<circle cx="23.5" cy="23.5" r="23.5" fill="url(#paint1_radial_3387_8250)" fill-opacity="0.45" style="mix-blend-mode:lighten"/>
<circle cx="23.5" cy="23.5" r="23.5" fill="url(#paint2_radial_3387_8250)" fill-opacity="0.15" style="mix-blend-mode:lighten"/>
<circle cx="23.5" cy="23.5" r="23.5" fill="url(#paint3_radial_3387_8250)" fill-opacity="0.56" style="mix-blend-mode:multiply"/>
</g>
<path d="M32.8417 15.6776C32.5368 15.3071 32.2493 14.9574 32.1117 14.6258C31.9638 14.2695 31.9171 13.8011 31.8639 13.3059C31.7795 12.4858 31.6828 11.554 31.0534 10.9265C30.424 10.299 29.4961 10.2004 28.6739 10.1154C28.1782 10.0641 27.7103 10.0154 27.3535 9.86815C27.0225 9.73058 26.6721 9.44248 26.3016 9.1375C25.6527 8.60411 24.9195 8 23.9896 8C23.0598 8 22.3252 8.60411 21.677 9.1375C21.3065 9.44248 20.9567 9.73058 20.6251 9.86815C20.2689 10.0154 19.8004 10.0628 19.3053 10.1154C18.4851 10.2004 17.5533 10.2964 16.9258 10.9258C16.2984 11.5553 16.1997 12.4832 16.1147 13.3059C16.0635 13.8011 16.0148 14.2695 15.8675 14.6258C15.7299 14.9574 15.4418 15.3071 15.1369 15.6776C14.6041 16.3265 14 17.0598 14 17.9903C14 18.9208 14.6041 19.6547 15.1369 20.3022C15.4418 20.6728 15.7299 21.0232 15.8675 21.3541C16.0148 21.7103 16.0622 22.1788 16.1147 22.6746C16.1997 23.4948 16.2958 24.4266 16.9258 25.054C17.5559 25.6815 18.4832 25.7795 19.3053 25.8645C19.8004 25.9158 20.2689 25.9644 20.6251 26.1124C20.9567 26.2493 21.3065 26.5374 21.677 26.8424C22.3259 27.3758 23.0598 27.9799 23.9896 27.9799C24.9195 27.9799 25.654 27.3758 26.3016 26.8424C26.6721 26.5374 27.0225 26.2493 27.3535 26.1124C27.7103 25.9644 28.1782 25.9177 28.6739 25.8645C29.4941 25.7802 30.4259 25.6835 31.0534 25.054C31.6809 24.4246 31.7795 23.4967 31.8639 22.6746C31.9151 22.1788 31.9638 21.711 32.1117 21.3541C32.2493 21.0232 32.5368 20.6728 32.8417 20.3022C33.3751 19.6534 33.9792 18.9201 33.9792 17.9903C33.9792 17.0604 33.3751 16.3259 32.8417 15.6776ZM31.9398 19.5599C31.5939 19.9804 31.2364 20.4152 31.0313 20.907C30.8185 21.4209 30.7588 21.9971 30.7011 22.5539C30.6297 23.2417 30.5628 23.8912 30.2261 24.228C29.8893 24.5648 29.2398 24.6316 28.5519 24.703C27.9952 24.7608 27.419 24.8205 26.9051 25.0333C26.4132 25.237 25.9785 25.5946 25.5586 25.9417C25.0136 26.3901 24.4996 26.8132 23.9883 26.8132C23.477 26.8132 22.9624 26.3901 22.418 25.9417C21.9975 25.5959 21.5628 25.2383 21.0716 25.0333C20.5577 24.8205 19.9814 24.7608 19.424 24.703C18.7362 24.6316 18.0867 24.5648 17.7499 24.228C17.4131 23.8912 17.3463 23.2417 17.2756 22.5539C17.2178 21.9971 17.1581 21.4209 16.9447 20.907C16.7409 20.4152 16.3834 19.9804 16.0362 19.5599C15.5911 19.0155 15.1706 18.5016 15.1706 17.9903C15.1706 17.4789 15.5937 16.9644 16.0414 16.42C16.3873 15.9995 16.7448 15.5647 16.9498 15.0729C17.1633 14.5596 17.223 13.9834 17.2808 13.426C17.3515 12.7382 17.419 12.0886 17.7558 11.7519C18.0925 11.4151 18.7395 11.3483 19.4253 11.2743C19.9827 11.2198 20.5564 11.1601 21.0755 10.9498C21.5667 10.7461 22.0014 10.3886 22.4219 10.0414C22.9663 9.59367 23.4809 9.16994 23.9922 9.16994C24.5035 9.16994 25.0175 9.59367 25.5625 10.0414C25.9824 10.3873 26.4171 10.7448 26.909 10.9498C27.4229 11.1633 27.9991 11.223 28.5558 11.2801C29.2437 11.3515 29.8932 11.419 30.23 11.7551C30.5667 12.0912 30.6336 12.7414 30.705 13.4292C30.7627 13.9866 30.8224 14.5628 31.0352 15.0761C31.239 15.568 31.5965 16.0027 31.9437 16.4232C32.3921 16.9676 32.8151 17.4822 32.8151 17.9935C32.8151 18.5048 32.3882 19.0155 31.9398 19.5599Z" fill="white"/>
<path d="M24.1262 12.622C23.0368 12.6219 21.9717 12.9448 21.0658 13.55C20.1598 14.1552 19.4537 15.0155 19.0367 16.022C18.6197 17.0285 18.5105 18.1361 18.723 19.2047C18.9354 20.2732 19.46 21.2548 20.2303 22.0252C21.0007 22.7956 21.9822 23.3203 23.0507 23.5329C24.1193 23.7455 25.2269 23.6365 26.2334 23.2196C27.24 22.8027 28.1003 22.0967 28.7056 21.1908C29.3109 20.2849 29.634 19.2199 29.634 18.1304C29.634 16.6696 29.0537 15.2686 28.0209 14.2356C26.988 13.2026 25.587 12.6222 24.1262 12.622ZM27.0975 17.013C25.0061 18.083 23.6642 20.3392 23.6506 20.3619C23.5973 20.4527 23.5237 20.5299 23.4356 20.5875C23.3474 20.645 23.2471 20.6813 23.1425 20.6935C23.1163 20.6966 23.0898 20.6981 23.0634 20.6981C22.9714 20.698 22.8805 20.6794 22.7959 20.6433C22.7114 20.6071 22.635 20.5543 22.5715 20.4878L21.0512 18.9C20.9893 18.8352 20.9408 18.7589 20.9084 18.6754C20.8761 18.5919 20.8604 18.5028 20.8625 18.4133C20.8645 18.3238 20.8842 18.2355 20.9204 18.1536C20.9565 18.0716 21.0085 17.9976 21.0732 17.9357C21.138 17.8739 21.2143 17.8254 21.2978 17.793C21.3813 17.7606 21.4704 17.745 21.5599 17.7471C21.6495 17.7491 21.7377 17.7688 21.8197 17.8049C21.9016 17.8411 21.9756 17.893 22.0375 17.9578L22.9732 18.935C23.6091 18.0681 24.8283 16.6445 26.4772 15.7996C26.5568 15.7588 26.6438 15.7342 26.733 15.727C26.8222 15.7198 26.9119 15.7303 26.9971 15.7578C27.0823 15.7853 27.1612 15.8293 27.2294 15.8873C27.2975 15.9453 27.3536 16.0162 27.3944 16.0958C27.4351 16.1755 27.4598 16.2624 27.467 16.3516C27.4742 16.4409 27.4637 16.5306 27.4362 16.6158C27.4087 16.7009 27.3647 16.7799 27.3067 16.848C27.2487 16.9162 27.1778 16.9723 27.0981 17.013H27.0975Z" fill="white"/>
<path d="M29.5596 29.2206C28.3533 29.1628 26.0907 29.2991 24.4782 30.8538C24.3109 31.0161 24.1548 31.1896 24.011 31.3729C23.8671 31.1896 23.711 31.0161 23.5438 30.8538C21.9313 29.2965 19.668 29.1628 18.4623 29.2206C18.0754 29.2375 17.7089 29.3989 17.435 29.6727C17.1612 29.9466 16.9999 30.3131 16.9829 30.7C16.9258 31.905 17.0614 34.1683 18.6161 35.7808C19.7374 36.9436 21.3726 37.549 23.4828 37.5815C23.5438 37.5815 24.6981 37.5815 24.8636 37.5724C26.8174 37.4848 28.3436 36.8839 29.4058 35.7808C30.9631 34.1683 31.0968 31.905 31.0397 30.7C31.0227 30.313 30.8613 29.9464 30.5873 29.6725C30.3133 29.3986 29.9466 29.2374 29.5596 29.2206ZM22.0799 33.7907L21.7191 34.8808C21.7749 34.9003 22.8579 35.2818 23.4101 36.4115C21.6691 36.3693 20.3389 35.8853 19.4571 34.9703C18.2067 33.6726 18.1009 31.7726 18.1496 30.7526C18.1539 30.6563 18.1941 30.5651 18.2623 30.497C18.3305 30.4288 18.4218 30.3888 18.5181 30.3847C19.5349 30.336 21.4381 30.4418 22.7359 31.6922C23.6119 32.5357 24.0921 33.7913 24.1686 35.4252C23.6573 34.6783 22.9278 34.1075 22.0799 33.7907ZM28.5642 34.9684C27.8044 35.7574 26.7097 36.2253 25.3061 36.3661C25.3307 36.257 25.3438 36.1457 25.3451 36.0339C25.36 34.6394 25.1355 33.4429 24.6754 32.4546C24.848 32.1766 25.054 31.9208 25.2886 31.6928C26.4372 30.5858 28.0581 30.3762 29.121 30.3762C29.2585 30.3762 29.387 30.3762 29.5038 30.3853C29.6001 30.3894 29.6914 30.4295 29.7596 30.4976C29.8278 30.5657 29.8681 30.6569 29.8724 30.7532C29.9204 31.7726 29.8153 33.6732 28.5642 34.9703V34.9684Z" fill="white"/>
<defs>
<filter id="filter0_i_3387_8250" x="0" y="-1.49954" width="47.9997" height="48.4995" filterUnits="userSpaceOnUse" color-interpolation-filters="sRGB">
<feFlood flood-opacity="0" result="BackgroundImageFix"/>
<feBlend mode="normal" in="SourceGraphic" in2="BackgroundImageFix" result="shape"/>
<feColorMatrix in="SourceAlpha" type="matrix" values="0 0 0 0 0 0 0 0 0 0 0 0 0 0 0 0 0 0 127 0" result="hardAlpha"/>
<feOffset dx="0.999692" dy="-1.49954"/>
<feGaussianBlur stdDeviation="3.99877"/>
<feComposite in2="hardAlpha" operator="arithmetic" k2="-1" k3="1"/>
<feColorMatrix type="matrix" values="0 0 0 0 0 0 0 0 0 0 0 0 0 0 0 0 0 0 0.25 0"/>
<feBlend mode="normal" in2="shape" result="effect1_innerShadow_3387_8250"/>
</filter>
<radialGradient id="paint0_radial_3387_8250" cx="0" cy="0" r="1" gradientUnits="userSpaceOnUse" gradientTransform="translate(30.2748 14.1847) rotate(123.232) scale(22.0201 22.0201)">
<stop stop-color="#4AC63F"/>
<stop offset="1" stop-color="#228B22"/>
</radialGradient>
<radialGradient id="paint1_radial_3387_8250" cx="0" cy="0" r="1" gradientUnits="userSpaceOnUse" gradientTransform="translate(30.4865 12.7027) rotate(123.69) scale(19.8468)">
<stop stop-color="white"/>
<stop offset="1" stop-color="white" stop-opacity="0"/>
</radialGradient>
<radialGradient id="paint2_radial_3387_8250" cx="0" cy="0" r="1" gradientUnits="userSpaceOnUse" gradientTransform="translate(25.6171 17.5721) rotate(111.949) scale(30.5863)">
<stop offset="0.596475" stop-color="white" stop-opacity="0"/>
<stop offset="0.742517" stop-color="white"/>
<stop offset="0.832316" stop-color="white"/>
<stop offset="1" stop-color="white" stop-opacity="0"/>
</radialGradient>
<radialGradient id="paint3_radial_3387_8250" cx="0" cy="0" r="1" gradientUnits="userSpaceOnUse" gradientTransform="translate(27.9459 10.1622) rotate(106.798) scale(35.1626)">
<stop offset="0.238216" stop-color="#219125" stop-opacity="0"/>
<stop offset="0.640216" stop-color="#4AC63F" stop-opacity="0.81"/>
<stop offset="0.791876" stop-color="#3A8B1D" stop-opacity="0.99"/>
<stop offset="0.868482" stop-color="#258A1D" stop-opacity="0.81"/>
<stop offset="1" stop-color="#4AC63F" stop-opacity="0.6"/>
</radialGradient>
</defs>
</svg>
