<svg width="47" height="47" viewBox="0 0 47 47" fill="none" xmlns="http://www.w3.org/2000/svg">
<g filter="url(#filter0_i_3387_8249)">
<circle cx="23.5" cy="23.5" r="23.5" fill="#4AC63F"/>
<circle cx="23.5" cy="23.5" r="23.5" fill="url(#paint0_radial_3387_8249)"/>
<circle cx="23.5" cy="23.5" r="23.5" fill="url(#paint1_radial_3387_8249)" fill-opacity="0.45" style="mix-blend-mode:lighten"/>
<circle cx="23.5" cy="23.5" r="23.5" fill="url(#paint2_radial_3387_8249)" fill-opacity="0.15" style="mix-blend-mode:lighten"/>
<circle cx="23.5" cy="23.5" r="23.5" fill="url(#paint3_radial_3387_8249)" fill-opacity="0.56" style="mix-blend-mode:multiply"/>
</g>
<path d="M34.4987 21.8333H30.9987V16C30.9987 15.6906 30.8758 15.3938 30.657 15.175C30.4382 14.9562 30.1415 14.8333 29.832 14.8333H26.332V12.5C26.332 12.1906 26.2091 11.8938 25.9903 11.675C25.7715 11.4562 25.4748 11.3333 25.1654 11.3333H18.1654C17.8559 11.3333 17.5592 11.4562 17.3404 11.675C17.1216 11.8938 16.9987 12.1906 16.9987 12.5V21.8333H13.4987C13.1893 21.8333 12.8925 21.9562 12.6737 22.175C12.4549 22.3938 12.332 22.6906 12.332 23C12.332 23.3094 12.4549 23.6061 12.6737 23.8249C12.8925 24.0437 13.1893 24.1666 13.4987 24.1666H16.9987V33.5C16.9987 33.8094 17.1216 34.1061 17.3404 34.3249C17.5592 34.5437 17.8559 34.6666 18.1654 34.6666H25.1654C25.4748 34.6666 25.7715 34.5437 25.9903 34.3249C26.2091 34.1061 26.332 33.8094 26.332 33.5V31.1666H29.832C30.1415 31.1666 30.4382 31.0437 30.657 30.8249C30.8758 30.6061 30.9987 30.3094 30.9987 30V24.1666H34.4987C34.8081 24.1666 35.1049 24.0437 35.3237 23.8249C35.5425 23.6061 35.6654 23.3094 35.6654 23C35.6654 22.6906 35.5425 22.3938 35.3237 22.175C35.1049 21.9562 34.8081 21.8333 34.4987 21.8333ZM23.9987 32.3333H19.332V13.6666H23.9987V32.3333ZM28.6654 28.8333H26.332V17.1666H28.6654V28.8333Z" fill="white"/>
<defs>
<filter id="filter0_i_3387_8249" x="0" y="-1.49954" width="47.9997" height="48.4995" filterUnits="userSpaceOnUse" color-interpolation-filters="sRGB">
<feFlood flood-opacity="0" result="BackgroundImageFix"/>
<feBlend mode="normal" in="SourceGraphic" in2="BackgroundImageFix" result="shape"/>
<feColorMatrix in="SourceAlpha" type="matrix" values="0 0 0 0 0 0 0 0 0 0 0 0 0 0 0 0 0 0 127 0" result="hardAlpha"/>
<feOffset dx="0.999692" dy="-1.49954"/>
<feGaussianBlur stdDeviation="3.99877"/>
<feComposite in2="hardAlpha" operator="arithmetic" k2="-1" k3="1"/>
<feColorMatrix type="matrix" values="0 0 0 0 0 0 0 0 0 0 0 0 0 0 0 0 0 0 0.25 0"/>
<feBlend mode="normal" in2="shape" result="effect1_innerShadow_3387_8249"/>
</filter>
<radialGradient id="paint0_radial_3387_8249" cx="0" cy="0" r="1" gradientUnits="userSpaceOnUse" gradientTransform="translate(30.2748 14.1847) rotate(123.232) scale(22.0201 22.0201)">
<stop stop-color="#4AC63F"/>
<stop offset="1" stop-color="#228B22"/>
</radialGradient>
<radialGradient id="paint1_radial_3387_8249" cx="0" cy="0" r="1" gradientUnits="userSpaceOnUse" gradientTransform="translate(30.4865 12.7027) rotate(123.69) scale(19.8468)">
<stop stop-color="white"/>
<stop offset="1" stop-color="white" stop-opacity="0"/>
</radialGradient>
<radialGradient id="paint2_radial_3387_8249" cx="0" cy="0" r="1" gradientUnits="userSpaceOnUse" gradientTransform="translate(25.6171 17.5721) rotate(111.949) scale(30.5863)">
<stop offset="0.596475" stop-color="white" stop-opacity="0"/>
<stop offset="0.742517" stop-color="white"/>
<stop offset="0.832316" stop-color="white"/>
<stop offset="1" stop-color="white" stop-opacity="0"/>
</radialGradient>
<radialGradient id="paint3_radial_3387_8249" cx="0" cy="0" r="1" gradientUnits="userSpaceOnUse" gradientTransform="translate(27.9459 10.1622) rotate(106.798) scale(35.1626)">
<stop offset="0.238216" stop-color="#219125" stop-opacity="0"/>
<stop offset="0.640216" stop-color="#4AC63F" stop-opacity="0.81"/>
<stop offset="0.791876" stop-color="#3A8B1D" stop-opacity="0.99"/>
<stop offset="0.868482" stop-color="#258A1D" stop-opacity="0.81"/>
<stop offset="1" stop-color="#4AC63F" stop-opacity="0.6"/>
</radialGradient>
</defs>
</svg>
